<svg version="1.1" viewBox="0.0 0.0 536.0 332.0" fill="none" stroke="none" stroke-linecap="square" stroke-miterlimit="10" width="536" height="332" xmlns:xlink="http://www.w3.org/1999/xlink" xmlns="http://www.w3.org/2000/svg"><path fill="#ffffff" d="M0 0L536.0 0L536.0 332.0L0 332.0L0 0Z" fill-rule="nonzero"/><path stroke="#333333" stroke-width="1.0" stroke-linecap="butt" d="M99.5 24.5L99.5 249.5" fill-rule="nonzero"/><path stroke="#cccccc" stroke-width="1.0" stroke-linecap="butt" d="M245.5 24.5L245.5 249.5" fill-rule="nonzero"/><path stroke="#cccccc" stroke-width="1.0" stroke-linecap="butt" d="M390.5 24.5L390.5 249.5" fill-rule="nonzero"/><path stroke="#333333" stroke-width="1.0" stroke-linecap="butt" d="M90.5 249.5L399.5 249.5" fill-rule="nonzero"/><path stroke="#cccccc" stroke-width="1.0" stroke-linecap="butt" d="M90.5 211.5L399.5 211.5" fill-rule="nonzero"/><path stroke="#cccccc" stroke-width="1.0" stroke-linecap="butt" d="M90.5 174.5L399.5 174.5" fill-rule="nonzero"/><path stroke="#cccccc" stroke-width="1.0" stroke-linecap="butt" d="M90.5 137.5L399.5 137.5" fill-rule="nonzero"/><path stroke="#cccccc" stroke-width="1.0" stroke-linecap="butt" d="M90.5 99.5L399.5 99.5" fill-rule="nonzero"/><path stroke="#cccccc" stroke-width="1.0" stroke-linecap="butt" d="M90.5 62.5L399.5 62.5" fill-rule="nonzero"/><path stroke="#cccccc" stroke-width="1.0" stroke-linecap="butt" d="M90.5 24.5L399.5 24.5" fill-rule="nonzero"/><path stroke="#e6e6e6" stroke-width="1.0" stroke-linecap="butt" d="M90.5 241.5L399.5 241.5" fill-rule="nonzero"/><path stroke="#e6e6e6" stroke-width="1.0" stroke-linecap="butt" d="M90.5 234.5L399.5 234.5" fill-rule="nonzero"/><path stroke="#e6e6e6" stroke-width="1.0" stroke-linecap="butt" d="M90.5 226.5L399.5 226.5" fill-rule="nonzero"/><path stroke="#e6e6e6" stroke-width="1.0" stroke-linecap="butt" d="M90.5 219.5L399.5 219.5" fill-rule="nonzero"/><path stroke="#e6e6e6" stroke-width="1.0" stroke-linecap="butt" d="M90.5 204.5L399.5 204.5" fill-rule="nonzero"/><path stroke="#e6e6e6" stroke-width="1.0" stroke-linecap="butt" d="M90.5 196.5L399.5 196.5" fill-rule="nonzero"/><path stroke="#e6e6e6" stroke-width="1.0" stroke-linecap="butt" d="M90.5 189.5L399.5 189.5" fill-rule="nonzero"/><path stroke="#e6e6e6" stroke-width="1.0" stroke-linecap="butt" d="M90.5 181.5L399.5 181.5" fill-rule="nonzero"/><path stroke="#e6e6e6" stroke-width="1.0" stroke-linecap="butt" d="M90.5 166.5L399.5 166.5" fill-rule="nonzero"/><path stroke="#e6e6e6" stroke-width="1.0" stroke-linecap="butt" d="M90.5 159.5L399.5 159.5" fill-rule="nonzero"/><path stroke="#e6e6e6" stroke-width="1.0" stroke-linecap="butt" d="M90.5 151.5L399.5 151.5" fill-rule="nonzero"/><path stroke="#e6e6e6" stroke-width="1.0" stroke-linecap="butt" d="M90.5 144.5L399.5 144.5" fill-rule="nonzero"/><path stroke="#e6e6e6" stroke-width="1.0" stroke-linecap="butt" d="M90.5 129.5L399.5 129.5" fill-rule="nonzero"/><path stroke="#e6e6e6" stroke-width="1.0" stroke-linecap="butt" d="M90.5 122.5L399.5 122.5" fill-rule="nonzero"/><path stroke="#e6e6e6" stroke-width="1.0" stroke-linecap="butt" d="M90.5 114.5L399.5 114.5" fill-rule="nonzero"/><path stroke="#e6e6e6" stroke-width="1.0" stroke-linecap="butt" d="M90.5 107.5L399.5 107.5" fill-rule="nonzero"/><path stroke="#e6e6e6" stroke-width="1.0" stroke-linecap="butt" d="M90.5 92.5L399.5 92.5" fill-rule="nonzero"/><path stroke="#e6e6e6" stroke-width="1.0" stroke-linecap="butt" d="M90.5 84.5L399.5 84.5" fill-rule="nonzero"/><path stroke="#e6e6e6" stroke-width="1.0" stroke-linecap="butt" d="M90.5 77.5L399.5 77.5" fill-rule="nonzero"/><path stroke="#e6e6e6" stroke-width="1.0" stroke-linecap="butt" d="M90.5 69.5L399.5 69.5" fill-rule="nonzero"/><path stroke="#e6e6e6" stroke-width="1.0" stroke-linecap="butt" d="M90.5 54.5L399.5 54.5" fill-rule="nonzero"/><path stroke="#e6e6e6" stroke-width="1.0" stroke-linecap="butt" d="M90.5 47.5L399.5 47.5" fill-rule="nonzero"/><path stroke="#e6e6e6" stroke-width="1.0" stroke-linecap="butt" d="M90.5 39.5L399.5 39.5" fill-rule="nonzero"/><path stroke="#e6e6e6" stroke-width="1.0" stroke-linecap="butt" d="M90.5 32.5L399.5 32.5" fill-rule="nonzero"/><clipPath id="id_0"><path d="M90.6 24.6L399.48 24.6L399.48 249.4L90.6 249.4L90.6 24.6Z" clip-rule="nonzero"/></clipPath><path fill="#4285f4" clip-path="url(#id_0)" d="M99.991875 219.72307L105.18803 228.72307L94.79572 228.72307Z" fill-rule="nonzero"/><path fill="#4285f4" clip-path="url(#id_0)" d="M245.04 183.68123L250.23615 192.68123L239.84384 192.68123Z" fill-rule="nonzero"/><path fill="#4285f4" clip-path="url(#id_0)" d="M390.08813 49.573635L395.28427 58.573635L384.89197 58.573635Z" fill-rule="nonzero"/><path fill="#ea4335" clip-path="url(#id_0)" d="M99.991875 236.54306L101.33896 240.68896L105.69821 240.68896L102.1715 243.25127L103.518585 247.39716L99.991875 244.83485L96.465164 247.39716L97.81225 243.25127L94.28554 240.68896L98.64479 240.68896Z" fill-rule="nonzero"/><path fill="#ea4335" clip-path="url(#id_0)" d="M245.04 224.16225L246.38708 228.30815L250.74634 228.30815L247.21964 230.87045L248.56671 235.01634L245.04 232.45404L241.51329 235.01634L242.86037 230.87045L239.33366 228.30815L243.69292 228.30815Z" fill-rule="nonzero"/><path fill="#ea4335" clip-path="url(#id_0)" d="M390.08813 180.22029L391.4352 184.3662L395.79446 184.3662L392.26776 186.9285L393.61484 191.0744L390.08813 188.51208L386.5614 191.0744L387.9085 186.9285L384.38177 184.3662L388.74103 184.3662Z" fill-rule="nonzero"/><path fill="#fbbc04" clip-path="url(#id_0)" d="M99.991875 239.58989L105.991875 245.58989L99.991875 251.58989L93.991875 245.58989Z" fill-rule="nonzero"/><path fill="#fbbc04" clip-path="url(#id_0)" d="M245.04 231.72694L251.04 237.72694L245.04 243.72694L239.04 237.72694Z" fill-rule="nonzero"/><path fill="#fbbc04" clip-path="url(#id_0)" d="M390.08813 198.52505L396.08813 204.52505L390.08813 210.52505L384.08813 204.52505Z" fill-rule="nonzero"/><path fill="#000000" d="M180.2275 311.4L180.2275 299.94687L182.50874 299.94687L185.2275 308.05624Q185.6025 309.18124 185.77437 309.74374Q185.96187 309.11874 186.38374 307.91562L189.11812 299.94687L191.165 299.94687L191.165 311.4L189.69624 311.4L189.69624 301.80624L186.36812 311.4L185.00874 311.4L181.69624 301.65L181.69624 311.4L180.2275 311.4ZM198.54 311.4L198.54 310.18124Q197.57124 311.5875 195.89937 311.5875Q195.165 311.5875 194.52437 311.30624Q193.89937 311.025 193.58687 310.60312Q193.27437 310.16562 193.14937 309.55624Q193.07124 309.13437 193.07124 308.24374L193.07124 303.10312L194.4775 303.10312L194.4775 307.69687Q194.4775 308.80624 194.55562 309.18124Q194.69624 309.74374 195.11812 310.05624Q195.55562 310.36874 196.18062 310.36874Q196.82124 310.36874 197.36812 310.05624Q197.93062 309.72812 198.14937 309.16562Q198.38374 308.60312 198.38374 307.54062L198.38374 303.10312L199.79 303.10312L199.79 311.4L198.54 311.4ZM201.07124 311.4L201.07124 299.94687L202.4775 299.94687L202.4775 311.4L201.07124 311.4ZM207.165 310.13437L207.36812 311.38437Q206.77437 311.50937 206.30562 311.50937Q205.54 311.50937 205.11812 311.275Q204.69624 311.025 204.52437 310.63437Q204.3525 310.22812 204.3525 308.9625L204.3525 304.19687L203.32124 304.19687L203.32124 303.10312L204.3525 303.10312L204.3525 301.04062L205.75874 300.19687L205.75874 303.10312L207.165 303.10312L207.165 304.19687L205.75874 304.19687L205.75874 309.04062Q205.75874 309.65 205.82124 309.82187Q205.89937 309.99374 206.07124 310.10312Q206.24312 310.19687 206.55562 310.19687Q206.79 310.19687 207.165 310.13437ZM208.1025 301.55624L208.1025 299.94687L209.50874 299.94687L209.50874 301.55624L208.1025 301.55624ZM208.1025 311.4L208.1025 303.10312L209.50874 303.10312L209.50874 311.4L208.1025 311.4ZM212.1025 314.5875L212.1025 303.10312L213.38374 303.10312L213.38374 304.18124Q213.83687 303.54062 214.39937 303.22812Q214.9775 302.91562 215.79 302.91562Q216.8525 302.91562 217.665 303.4625Q218.4775 304.00937 218.88374 305.00937Q219.30562 305.99374 219.30562 307.18124Q219.30562 308.4625 218.83687 309.47812Q218.38374 310.49374 217.50874 311.04062Q216.64937 311.5875 215.68062 311.5875Q214.9775 311.5875 214.415 311.29062Q213.86812 310.99374 213.50874 310.54062L213.50874 314.5875L212.1025 314.5875ZM213.36812 307.29062Q213.36812 308.9 214.00874 309.66562Q214.665 310.43124 215.58687 310.43124Q216.52437 310.43124 217.19624 309.63437Q217.86812 308.8375 217.86812 307.18124Q217.86812 305.5875 217.21187 304.80624Q216.55562 304.00937 215.64937 304.00937Q214.75874 304.00937 214.05562 304.85312Q213.36812 305.69687 213.36812 307.29062ZM221.07124 311.4L221.07124 299.94687L222.4775 299.94687L222.4775 311.4L221.07124 311.4ZM224.1025 301.55624L224.1025 299.94687L225.50874 299.94687L225.50874 301.55624L224.1025 301.55624ZM224.1025 311.4L224.1025 303.10312L225.50874 303.10312L225.50874 311.4L224.1025 311.4ZM233.50874 308.35312L234.89937 308.54062Q234.665 309.9625 233.7275 310.775Q232.80562 311.5875 231.44624 311.5875Q229.74312 311.5875 228.69624 310.47812Q227.665 309.35312 227.665 307.275Q227.665 305.93124 228.1025 304.93124Q228.55562 303.91562 229.46187 303.41562Q230.38374 302.91562 231.44624 302.91562Q232.80562 302.91562 233.665 303.60312Q234.52437 304.275 234.75874 305.54062L233.39937 305.74374Q233.19624 304.91562 232.69624 304.49374Q232.21187 304.07187 231.50874 304.07187Q230.44624 304.07187 229.77437 304.8375Q229.11812 305.5875 229.11812 307.24374Q229.11812 308.91562 229.75874 309.68124Q230.39937 310.43124 231.43062 310.43124Q232.25874 310.43124 232.80562 309.93124Q233.36812 309.41562 233.50874 308.35312ZM241.50874 310.36874Q240.7275 311.04062 240.00874 311.32187Q239.29 311.5875 238.46187 311.5875Q237.08687 311.5875 236.3525 310.91562Q235.61812 310.24374 235.61812 309.2125Q235.61812 308.60312 235.89937 308.10312Q236.18062 307.5875 236.61812 307.29062Q237.07124 306.97812 237.63374 306.82187Q238.05562 306.7125 238.88374 306.61874Q240.58687 306.41562 241.39937 306.13437Q241.39937 305.8375 241.39937 305.75937Q241.39937 304.9 241.00874 304.55624Q240.46187 304.07187 239.39937 304.07187Q238.415 304.07187 237.93062 304.43124Q237.46187 304.775 237.24312 305.65L235.86812 305.4625Q236.05562 304.5875 236.4775 304.04062Q236.915 303.49374 237.7275 303.2125Q238.54 302.91562 239.6025 302.91562Q240.665 302.91562 241.32124 303.16562Q241.99312 303.41562 242.30562 303.79062Q242.61812 304.16562 242.74312 304.74374Q242.82124 305.10312 242.82124 306.04062L242.82124 307.91562Q242.82124 309.88437 242.89937 310.4Q242.99312 310.91562 243.25874 311.4L241.79 311.4Q241.57124 310.9625 241.50874 310.36874ZM241.39937 307.22812Q240.63374 307.54062 239.1025 307.75937Q238.2275 307.88437 237.86812 308.04062Q237.50874 308.19687 237.30562 308.50937Q237.11812 308.80624 237.11812 309.16562Q237.11812 309.72812 237.54 310.10312Q237.9775 310.47812 238.79 310.47812Q239.6025 310.47812 240.2275 310.13437Q240.86812 309.775 241.165 309.15Q241.39937 308.68124 241.39937 307.74374L241.39937 307.22812ZM248.165 310.13437L248.36812 311.38437Q247.77437 311.50937 247.30562 311.50937Q246.54 311.50937 246.11812 311.275Q245.69624 311.025 245.52437 310.63437Q245.3525 310.22812 245.3525 308.9625L245.3525 304.19687L244.32124 304.19687L244.32124 303.10312L245.3525 303.10312L245.3525 301.04062L246.75874 300.19687L246.75874 303.10312L248.165 303.10312L248.165 304.19687L246.75874 304.19687L246.75874 309.04062Q246.75874 309.65 246.82124 309.82187Q246.89937 309.99374 247.07124 310.10312Q247.24312 310.19687 247.55562 310.19687Q247.79 310.19687 248.165 310.13437ZM249.1025 301.55624L249.1025 299.94687L250.50874 299.94687L250.50874 301.55624L249.1025 301.55624ZM249.1025 311.4L249.1025 303.10312L250.50874 303.10312L250.50874 311.4L249.1025 311.4ZM255.39937 311.4L252.24312 303.10312L253.7275 303.10312L255.50874 308.07187Q255.80562 308.86874 256.03998 309.74374Q256.22748 309.0875 256.57123 308.16562L258.41498 303.10312L259.85248 303.10312L256.71185 311.4L255.39937 311.4ZM265.77435 308.72812L267.22748 308.9Q266.88373 310.18124 265.94623 310.88437Q265.02435 311.5875 263.58685 311.5875Q261.75873 311.5875 260.69623 310.4625Q259.63373 309.3375 259.63373 307.32187Q259.63373 305.22812 260.71185 304.07187Q261.78998 302.91562 263.50873 302.91562Q265.16498 302.91562 266.21185 304.05624Q267.27435 305.18124 267.27435 307.22812Q267.27435 307.35312 267.27435 307.60312L261.08685 307.60312Q261.16498 308.97812 261.85248 309.7125Q262.5556 310.43124 263.58685 310.43124Q264.3681 310.43124 264.91498 310.025Q265.46185 309.61874 265.77435 308.72812ZM261.16498 306.44687L265.78998 306.44687Q265.69623 305.4 265.25873 304.88437Q264.58685 304.07187 263.52435 304.07187Q262.5556 304.07187 261.88373 304.72812Q261.22748 305.36874 261.16498 306.44687ZM278.47748 311.4L278.47748 310.35312Q277.69623 311.5875 276.16498 311.5875Q275.16498 311.5875 274.33685 311.04062Q273.50873 310.49374 273.03998 309.50937Q272.58685 308.525 272.58685 307.25937Q272.58685 306.00937 272.9931 305.00937Q273.41498 303.99374 274.2431 303.4625Q275.07123 302.91562 276.10248 302.91562Q276.85248 302.91562 277.4306 303.22812Q278.02435 303.54062 278.38373 304.05624L278.38373 299.94687L279.78998 299.94687L279.78998 311.4L278.47748 311.4ZM274.03998 307.25937Q274.03998 308.85312 274.71185 309.65Q275.38373 310.43124 276.28998 310.43124Q277.21185 310.43124 277.85248 309.68124Q278.50873 308.91562 278.50873 307.36874Q278.50873 305.66562 277.85248 304.86874Q277.19623 304.07187 276.22748 304.07187Q275.28998 304.07187 274.66498 304.8375Q274.03998 305.60312 274.03998 307.25937ZM287.77435 308.72812L289.22748 308.9Q288.88373 310.18124 287.94623 310.88437Q287.02435 311.5875 285.58685 311.5875Q283.75873 311.5875 282.69623 310.4625Q281.63373 309.3375 281.63373 307.32187Q281.63373 305.22812 282.71185 304.07187Q283.78998 302.91562 285.50873 302.91562Q287.16498 302.91562 288.21185 304.05624Q289.27435 305.18124 289.27435 307.22812Q289.27435 307.35312 289.27435 307.60312L283.08685 307.60312Q283.16498 308.97812 283.85248 309.7125Q284.5556 310.43124 285.58685 310.43124Q286.3681 310.43124 286.91498 310.025Q287.46185 309.61874 287.77435 308.72812ZM283.16498 306.44687L287.78998 306.44687Q287.69623 305.4 287.25873 304.88437Q286.58685 304.07187 285.52435 304.07187Q284.5556 304.07187 283.88373 304.72812Q283.22748 305.36874 283.16498 306.44687ZM291.10248 314.5875L291.10248 303.10312L292.38373 303.10312L292.38373 304.18124Q292.83685 303.54062 293.39935 303.22812Q293.97748 302.91562 294.78998 302.91562Q295.85248 302.91562 296.66498 303.4625Q297.47748 304.00937 297.88373 305.00937Q298.3056 305.99374 298.3056 307.18124Q298.3056 308.4625 297.83685 309.47812Q297.38373 310.49374 296.50873 311.04062Q295.64935 311.5875 294.6806 311.5875Q293.97748 311.5875 293.41498 311.29062Q292.8681 310.99374 292.50873 310.54062L292.50873 314.5875L291.10248 314.5875ZM292.3681 307.29062Q292.3681 308.9 293.00873 309.66562Q293.66498 310.43124 294.58685 310.43124Q295.52435 310.43124 296.19623 309.63437Q296.8681 308.8375 296.8681 307.18124Q296.8681 305.5875 296.21185 304.80624Q295.5556 304.00937 294.64935 304.00937Q293.75873 304.00937 293.0556 304.85312Q292.3681 305.69687 292.3681 307.29062ZM303.16498 310.13437L303.3681 311.38437Q302.77435 311.50937 302.3056 311.50937Q301.53998 311.50937 301.1181 311.275Q300.69623 311.025 300.52435 310.63437Q300.35248 310.22812 300.35248 308.9625L300.35248 304.19687L299.32123 304.19687L299.32123 303.10312L300.35248 303.10312L300.35248 301.04062L301.75873 300.19687L301.75873 303.10312L303.16498 303.10312L303.16498 304.19687L301.75873 304.19687L301.75873 309.04062Q301.75873 309.65 301.82123 309.82187Q301.89935 309.99374 302.07123 310.10312Q302.2431 310.19687 302.5556 310.19687Q302.78998 310.19687 303.16498 310.13437ZM304.10248 311.4L304.10248 299.94687L305.50873 299.94687L305.50873 304.05624Q306.4931 302.91562 307.9931 302.91562Q308.91498 302.91562 309.58685 303.275Q310.27435 303.63437 310.5556 304.275Q310.85248 304.91562 310.85248 306.13437L310.85248 311.4L309.44623 311.4L309.44623 306.13437Q309.44623 305.0875 308.9931 304.60312Q308.53998 304.11874 307.69623 304.11874Q307.07123 304.11874 306.52435 304.44687Q305.97748 304.775 305.7431 305.3375Q305.50873 305.88437 305.50873 306.85312L305.50873 311.4L304.10248 311.4Z" fill-rule="nonzero"/><path fill="#000000" d="M31.599995 210.73438L20.14687 210.73438L20.14687 202.45312L21.49062 202.45312L21.49062 209.21875L25.006245 209.21875L25.006245 202.875L26.349995 202.875L26.349995 209.21875L30.24062 209.21875L30.24062 202.1875L31.599995 202.1875L31.599995 210.73438ZM31.599995 200.875L27.287495 197.84375L23.30312 200.65625L23.30312 198.89062L25.24062 197.625Q25.80312 197.26562 26.17812 197.04688Q25.662495 196.70312 25.256245 196.40625L23.30312 195.01562L23.30312 193.32812L27.20937 196.20312L31.599995 193.10938L31.599995 194.84375L29.02187 196.54688L28.318745 197.0L31.599995 199.17188L31.599995 200.875ZM28.92812 187.26562L29.099995 185.8125Q30.381245 186.15625 31.08437 187.09375Q31.787495 188.01562 31.787495 189.45312Q31.787495 191.28125 30.662495 192.34375Q29.537495 193.40625 27.52187 193.40625Q25.42812 193.40625 24.27187 192.32812Q23.11562 191.25 23.11562 189.53125Q23.11562 187.875 24.256245 186.82812Q25.381245 185.76562 27.42812 185.76562Q27.55312 185.76562 27.80312 185.76562L27.80312 191.95312Q29.17812 191.875 29.912495 191.1875Q30.631245 190.48438 30.631245 189.45312Q30.631245 188.67188 30.224995 188.125Q29.818745 187.57812 28.92812 187.26562ZM26.64687 191.875L26.64687 187.25Q25.599995 187.34375 25.08437 187.78125Q24.27187 188.45312 24.27187 189.51562Q24.27187 190.48438 24.92812 191.15625Q25.568745 191.8125 26.64687 191.875ZM28.55312 178.53125L28.74062 177.14062Q30.162495 177.375 30.974995 178.3125Q31.787495 179.23438 31.787495 180.59375Q31.787495 182.29688 30.67812 183.34375Q29.55312 184.375 27.474995 184.375Q26.131245 184.375 25.131245 183.9375Q24.11562 183.48438 23.61562 182.57812Q23.11562 181.65625 23.11562 180.59375Q23.11562 179.23438 23.80312 178.375Q24.474995 177.51562 25.74062 177.28125L25.943745 178.64062Q25.11562 178.84375 24.693745 179.34375Q24.27187 179.82812 24.27187 180.53125Q24.27187 181.59375 25.037495 182.26562Q25.787495 182.92188 27.443745 182.92188Q29.11562 182.92188 29.881245 182.28125Q30.631245 181.64062 30.631245 180.60938Q30.631245 179.78125 30.131245 179.23438Q29.61562 178.67188 28.55312 178.53125ZM31.599995 170.5L30.381245 170.5Q31.787495 171.46875 31.787495 173.14062Q31.787495 173.875 31.506245 174.51562Q31.224995 175.14062 30.80312 175.45312Q30.36562 175.76562 29.756245 175.89062Q29.33437 175.96875 28.443745 175.96875L23.30312 175.96875L23.30312 174.5625L27.89687 174.5625Q29.006245 174.5625 29.381245 174.48438Q29.943745 174.34375 30.256245 173.92188Q30.568745 173.48438 30.568745 172.85938Q30.568745 172.21875 30.256245 171.67188Q29.92812 171.10938 29.36562 170.89062Q28.80312 170.65625 27.74062 170.65625L23.30312 170.65625L23.30312 169.25L31.599995 169.25L31.599995 170.5ZM30.33437 164.875L31.58437 164.67188Q31.70937 165.26562 31.70937 165.73438Q31.70937 166.5 31.474995 166.92188Q31.224995 167.34375 30.83437 167.51562Q30.42812 167.6875 29.162495 167.6875L24.39687 167.6875L24.39687 168.71875L23.30312 168.71875L23.30312 167.6875L21.24062 167.6875L20.39687 166.28125L23.30312 166.28125L23.30312 164.875L24.39687 164.875L24.39687 166.28125L29.24062 166.28125Q29.849995 166.28125 30.02187 166.21875Q30.193745 166.14062 30.30312 165.96875Q30.39687 165.79688 30.39687 165.48438Q30.39687 165.25 30.33437 164.875ZM21.756245 163.9375L20.14687 163.9375L20.14687 162.53125L21.756245 162.53125L21.756245 163.9375ZM31.599995 163.9375L23.30312 163.9375L23.30312 162.53125L31.599995 162.53125L31.599995 163.9375ZM27.443745 160.46875Q25.14687 160.46875 24.037495 159.1875Q23.11562 158.10938 23.11562 156.57812Q23.11562 154.85938 24.24062 153.78125Q25.349995 152.6875 27.33437 152.6875Q28.92812 152.6875 29.849995 153.17188Q30.77187 153.65625 31.287495 154.57812Q31.787495 155.48438 31.787495 156.57812Q31.787495 158.3125 30.67812 159.39062Q29.55312 160.46875 27.443745 160.46875ZM27.443745 159.01562Q29.037495 159.01562 29.83437 158.32812Q30.631245 157.625 30.631245 156.57812Q30.631245 155.53125 29.83437 154.84375Q29.037495 154.14062 27.39687 154.14062Q25.86562 154.14062 25.068745 154.84375Q24.27187 155.53125 24.27187 156.57812Q24.27187 157.625 25.068745 158.32812Q25.849995 159.01562 27.443745 159.01562ZM31.599995 150.9375L23.30312 150.9375L23.30312 149.67188L24.474995 149.67188Q23.11562 148.76562 23.11562 147.03125Q23.11562 146.28125 23.381245 145.65625Q23.64687 145.03125 24.08437 144.71875Q24.52187 144.40625 25.131245 144.28125Q25.52187 144.20312 26.49062 144.20312L31.599995 144.20312L31.599995 145.60938L26.55312 145.60938Q25.693745 145.60938 25.27187 145.78125Q24.83437 145.9375 24.58437 146.35938Q24.33437 146.76562 24.33437 147.32812Q24.33437 148.23438 24.912495 148.89062Q25.474995 149.53125 27.068745 149.53125L31.599995 149.53125L31.599995 150.9375ZM30.33437 135.875L31.58437 135.67188Q31.70937 136.26562 31.70937 136.73438Q31.70937 137.5 31.474995 137.92188Q31.224995 138.34375 30.83437 138.51562Q30.42812 138.6875 29.162495 138.6875L24.39687 138.6875L24.39687 139.71875L23.30312 139.71875L23.30312 138.6875L21.24062 138.6875L20.39687 137.28125L23.30312 137.28125L23.30312 135.875L24.39687 135.875L24.39687 137.28125L29.24062 137.28125Q29.849995 137.28125 30.02187 137.21875Q30.193745 137.14062 30.30312 136.96875Q30.39687 136.79688 30.39687 136.48438Q30.39687 136.25 30.33437 135.875ZM21.756245 134.9375L20.14687 134.9375L20.14687 133.53125L21.756245 133.53125L21.756245 134.9375ZM31.599995 134.9375L23.30312 134.9375L23.30312 133.53125L31.599995 133.53125L31.599995 134.9375ZM31.599995 130.9375L23.30312 130.9375L23.30312 129.6875L24.45937 129.6875Q23.849995 129.29688 23.49062 128.65625Q23.11562 128.0 23.11562 127.171875Q23.11562 126.25 23.506245 125.65625Q23.881245 125.0625 24.568745 124.828125Q23.11562 123.84375 23.11562 122.265625Q23.11562 121.03125 23.80312 120.375Q24.474995 119.703125 25.89687 119.703125L31.599995 119.703125L31.599995 121.09375L26.36562 121.09375Q25.52187 121.09375 25.162495 121.234375Q24.787495 121.375 24.568745 121.734375Q24.33437 122.09375 24.33437 122.578125Q24.33437 123.453125 24.912495 124.03125Q25.49062 124.609375 26.77187 124.609375L31.599995 124.609375L31.599995 126.015625L26.20937 126.015625Q25.27187 126.015625 24.80312 126.359375Q24.33437 126.703125 24.33437 127.484375Q24.33437 128.07812 24.64687 128.57812Q24.95937 129.07812 25.568745 129.3125Q26.162495 129.53125 27.287495 129.53125L31.599995 129.53125L31.599995 130.9375ZM28.92812 112.265625L29.099995 110.8125Q30.381245 111.15625 31.08437 112.09375Q31.787495 113.015625 31.787495 114.453125Q31.787495 116.28125 30.662495 117.34375Q29.537495 118.40625 27.52187 118.40625Q25.42812 118.40625 24.27187 117.328125Q23.11562 116.25 23.11562 114.53125Q23.11562 112.875 24.256245 111.828125Q25.381245 110.765625 27.42812 110.765625Q27.55312 110.765625 27.80312 110.765625L27.80312 116.953125Q29.17812 116.875 29.912495 116.1875Q30.631245 115.484375 30.631245 114.453125Q30.631245 113.671875 30.224995 113.125Q29.818745 112.578125 28.92812 112.265625ZM26.64687 116.875L26.64687 112.25Q25.599995 112.34375 25.08437 112.78125Q24.27187 113.453125 24.27187 114.515625Q24.27187 115.484375 24.92812 116.15625Q25.568745 116.8125 26.64687 116.875ZM31.80312 106.0L19.943745 102.671875L19.943745 101.546875L31.80312 104.859375L31.80312 106.0ZM31.599995 100.9375L23.30312 100.9375L23.30312 99.6875L24.45937 99.6875Q23.849995 99.296875 23.49062 98.65625Q23.11562 98.0 23.11562 97.171875Q23.11562 96.25 23.506245 95.65625Q23.881245 95.0625 24.568745 94.828125Q23.11562 93.84375 23.11562 92.265625Q23.11562 91.03125 23.80312 90.375Q24.474995 89.703125 25.89687 89.703125L31.599995 89.703125L31.599995 91.09375L26.36562 91.09375Q25.52187 91.09375 25.162495 91.234375Q24.787495 91.375 24.568745 91.734375Q24.33437 92.09375 24.33437 92.578125Q24.33437 93.453125 24.912495 94.03125Q25.49062 94.609375 26.77187 94.609375L31.599995 94.609375L31.599995 96.015625L26.20937 96.015625Q25.27187 96.015625 24.80312 96.359375Q24.33437 96.703125 24.33437 97.484375Q24.33437 98.078125 24.64687 98.578125Q24.95937 99.078125 25.568745 99.3125Q26.162495 99.53125 27.287495 99.53125L31.599995 99.53125L31.599995 100.9375ZM21.756245 87.9375L20.14687 87.9375L20.14687 86.53125L21.756245 86.53125L21.756245 87.9375ZM31.599995 87.9375L23.30312 87.9375L23.30312 86.53125L31.599995 86.53125L31.599995 87.9375ZM31.599995 83.9375L23.30312 83.9375L23.30312 82.671875L24.474995 82.671875Q23.11562 81.765625 23.11562 80.03125Q23.11562 79.28125 23.381245 78.65625Q23.64687 78.03125 24.08437 77.71875Q24.52187 77.40625 25.131245 77.28125Q25.52187 77.203125 26.49062 77.203125L31.599995 77.203125L31.599995 78.609375L26.55312 78.609375Q25.693745 78.609375 25.27187 78.78125Q24.83437 78.9375 24.58437 79.359375Q24.33437 79.765625 24.33437 80.328125Q24.33437 81.234375 24.912495 81.890625Q25.474995 82.53125 27.068745 82.53125L31.599995 82.53125L31.599995 83.9375Z" fill-rule="nonzero"/><path fill="#000000" d="M76.17812 249.4625Q76.17812 247.68124 76.5375 246.60312Q76.9125 245.50937 77.63125 244.93124Q78.35 244.3375 79.44375 244.3375Q80.25625 244.3375 80.86562 244.66562Q81.475 244.99374 81.86562 245.60312Q82.27187 246.2125 82.49062 247.0875Q82.70937 247.9625 82.70937 249.4625Q82.70937 251.22812 82.35 252.30624Q81.99062 253.38437 81.27187 253.97812Q80.55312 254.57187 79.44375 254.57187Q78.00625 254.57187 77.17812 253.525Q76.17812 252.275 76.17812 249.4625ZM77.44375 249.4625Q77.44375 251.93124 78.02187 252.74374Q78.6 253.55624 79.44375 253.55624Q80.30312 253.55624 80.88125 252.74374Q81.45937 251.91562 81.45937 249.4625Q81.45937 246.97812 80.88125 246.16562Q80.30312 245.35312 79.42812 245.35312Q78.58437 245.35312 78.08437 246.07187Q77.44375 246.99374 77.44375 249.4625Z" fill-rule="nonzero"/><path fill="#000000" d="M74.64687 215.74583L74.64687 216.93333L68.02187 216.93333Q68.00625 216.49583 68.1625 216.07396Q68.42812 215.40208 68.975 214.74583Q69.5375 214.08958 70.58437 213.23021Q72.225 211.88646 72.7875 211.10521Q73.36562 210.32396 73.36562 209.62083Q73.36562 208.88646 72.83437 208.38646Q72.31875 207.88646 71.49062 207.88646Q70.6 207.88646 70.05312 208.41771Q69.52187 208.94896 69.52187 209.90208L68.25625 209.76146Q68.38125 208.35521 69.225 207.62083Q70.08437 206.87083 71.50625 206.87083Q72.95937 206.87083 73.7875 207.66771Q74.63125 208.46458 74.63125 209.65208Q74.63125 210.26146 74.38125 210.83958Q74.14687 211.41771 73.56875 212.05833Q73.00625 212.69896 71.67812 213.82396Q70.56875 214.74583 70.25625 215.08958Q69.94375 215.41771 69.74062 215.74583L74.64687 215.74583ZM76.17812 214.30833L77.475 214.19896Q77.61562 215.13646 78.13125 215.62083Q78.6625 216.08958 79.39687 216.08958Q80.2875 216.08958 80.89687 215.41771Q81.52187 214.74583 81.52187 213.65208Q81.52187 212.58958 80.92812 211.98021Q80.33437 211.37083 79.38125 211.37083Q78.7875 211.37083 78.30312 211.65208Q77.83437 211.91771 77.55312 212.33958L76.39687 212.19896L77.36562 207.04271L82.35 207.04271L82.35 208.23021L78.35 208.23021L77.81875 210.91771Q78.725 210.29271 79.70937 210.29271Q81.02187 210.29271 81.9125 211.19896Q82.81875 212.10521 82.81875 213.54271Q82.81875 214.90208 82.0375 215.88646Q81.06875 217.10521 79.39687 217.10521Q78.0375 217.10521 77.1625 216.33958Q76.30312 215.57396 76.17812 214.30833Z" fill-rule="nonzero"/><path fill="#000000" d="M68.17812 176.84166L69.475 176.73228Q69.61562 177.66978 70.13125 178.15416Q70.6625 178.62291 71.39687 178.62291Q72.2875 178.62291 72.89687 177.95103Q73.52187 177.27916 73.52187 176.18541Q73.52187 175.12291 72.92812 174.51353Q72.33437 173.90416 71.38125 173.90416Q70.7875 173.90416 70.30312 174.18541Q69.83437 174.45103 69.55312 174.87291L68.39687 174.73228L69.36562 169.57603L74.35 169.57603L74.35 170.76353L70.35 170.76353L69.81875 173.45103Q70.725 172.82603 71.70937 172.82603Q73.02187 172.82603 73.9125 173.73228Q74.81875 174.63853 74.81875 176.07603Q74.81875 177.43541 74.0375 178.41978Q73.06875 179.63853 71.39687 179.63853Q70.0375 179.63853 69.1625 178.87291Q68.30312 178.10728 68.17812 176.84166ZM76.17812 174.52916Q76.17812 172.74791 76.5375 171.66978Q76.9125 170.57603 77.63125 169.99791Q78.35 169.40416 79.44375 169.40416Q80.25625 169.40416 80.86562 169.73228Q81.475 170.06041 81.86562 170.66978Q82.27187 171.27916 82.49062 172.15416Q82.70937 173.02916 82.70937 174.52916Q82.70937 176.29478 82.35 177.37291Q81.99062 178.45103 81.27187 179.04478Q80.55312 179.63853 79.44375 179.63853Q78.00625 179.63853 77.17812 178.59166Q76.17812 177.34166 76.17812 174.52916ZM77.44375 174.52916Q77.44375 176.99791 78.02187 177.81041Q78.6 178.62291 79.44375 178.62291Q80.30312 178.62291 80.88125 177.81041Q81.45937 176.98228 81.45937 174.52916Q81.45937 172.04478 80.88125 171.23228Q80.30312 170.41978 79.42812 170.41978Q78.58437 170.41978 78.08437 171.13853Q77.44375 172.06041 77.44375 174.52916Z" fill-rule="nonzero"/><path fill="#000000" d="M68.25625 133.29688L68.25625 132.10938L74.75625 132.10938L74.75625 133.0625Q73.7875 134.07812 72.85 135.76562Q71.9125 137.45312 71.39687 139.25Q71.0375 140.5 70.92812 142.0L69.6625 142.0Q69.67812 140.8125 70.11562 139.14062Q70.56875 137.46875 71.39687 135.92188Q72.24062 134.35938 73.17812 133.29688L68.25625 133.29688ZM76.17812 139.375L77.475 139.26562Q77.61562 140.20312 78.13125 140.6875Q78.6625 141.15625 79.39687 141.15625Q80.2875 141.15625 80.89687 140.48438Q81.52187 139.8125 81.52187 138.71875Q81.52187 137.65625 80.92812 137.04688Q80.33437 136.4375 79.38125 136.4375Q78.7875 136.4375 78.30312 136.71875Q77.83437 136.98438 77.55312 137.40625L76.39687 137.26562L77.36562 132.10938L82.35 132.10938L82.35 133.29688L78.35 133.29688L77.81875 135.98438Q78.725 135.35938 79.70937 135.35938Q81.02187 135.35938 81.9125 136.26562Q82.81875 137.17188 82.81875 138.60938Q82.81875 139.96875 82.0375 140.95312Q81.06875 142.17188 79.39687 142.17188Q78.0375 142.17188 77.1625 141.40625Q76.30312 140.64062 76.17812 139.375Z" fill-rule="nonzero"/><path fill="#000000" d="M64.81875 104.53333L63.584373 104.53333L63.584373 96.68958Q63.146873 97.11146 62.4125 97.54896Q61.69375 97.97083 61.13125 98.17396L61.13125 96.98646Q62.1625 96.50208 62.928123 95.81458Q63.709373 95.12708 64.02187 94.47083L64.81875 94.47083L64.81875 104.53333ZM68.17812 99.59583Q68.17812 97.81458 68.5375 96.73646Q68.9125 95.64271 69.63125 95.06458Q70.35 94.47083 71.44375 94.47083Q72.25625 94.47083 72.86562 94.79896Q73.475 95.12708 73.86562 95.73646Q74.27187 96.34583 74.49062 97.22083Q74.70937 98.09583 74.70937 99.59583Q74.70937 101.36146 74.35 102.43958Q73.99062 103.51771 73.27187 104.11146Q72.55312 104.70521 71.44375 104.70521Q70.00625 104.70521 69.17812 103.65833Q68.17812 102.40833 68.17812 99.59583ZM69.44375 99.59583Q69.44375 102.06458 70.02187 102.87708Q70.6 103.68958 71.44375 103.68958Q72.30312 103.68958 72.88125 102.87708Q73.45937 102.04896 73.45937 99.59583Q73.45937 97.11146 72.88125 96.29896Q72.30312 95.48646 71.42812 95.48646Q70.58437 95.48646 70.08437 96.20521Q69.44375 97.12708 69.44375 99.59583ZM76.17812 99.59583Q76.17812 97.81458 76.5375 96.73646Q76.9125 95.64271 77.63125 95.06458Q78.35 94.47083 79.44375 94.47083Q80.25625 94.47083 80.86562 94.79896Q81.475 95.12708 81.86562 95.73646Q82.27187 96.34583 82.49062 97.22083Q82.70937 98.09583 82.70937 99.59583Q82.70937 101.36146 82.35 102.43958Q81.99062 103.51771 81.27187 104.11146Q80.55312 104.70521 79.44375 104.70521Q78.00625 104.70521 77.17812 103.65833Q76.17812 102.40833 76.17812 99.59583ZM77.44375 99.59583Q77.44375 102.06458 78.02187 102.87708Q78.6 103.68958 79.44375 103.68958Q80.30312 103.68958 80.88125 102.87708Q81.45937 102.04896 81.45937 99.59583Q81.45937 97.11146 80.88125 96.29896Q80.30312 95.48646 79.42812 95.48646Q78.58437 95.48646 78.08437 96.20521Q77.44375 97.12708 77.44375 99.59583Z" fill-rule="nonzero"/><path fill="#000000" d="M64.81875 67.066666L63.584373 67.066666L63.584373 59.222916Q63.146873 59.64479 62.4125 60.08229Q61.69375 60.504166 61.13125 60.70729L61.13125 59.51979Q62.1625 59.035416 62.928123 58.347916Q63.709373 57.660416 64.02187 57.004166L64.81875 57.004166L64.81875 67.066666ZM74.64687 65.879166L74.64687 67.066666L68.02187 67.066666Q68.00625 66.629166 68.1625 66.20729Q68.42812 65.535416 68.975 64.879166Q69.5375 64.222916 70.58437 63.36354Q72.225 62.01979 72.7875 61.23854Q73.36562 60.45729 73.36562 59.754166Q73.36562 59.01979 72.83437 58.51979Q72.31875 58.01979 71.49062 58.01979Q70.6 58.01979 70.05312 58.55104Q69.52187 59.08229 69.52187 60.035416L68.25625 59.89479Q68.38125 58.48854 69.225 57.754166Q70.08437 57.004166 71.50625 57.004166Q72.95937 57.004166 73.7875 57.80104Q74.63125 58.597916 74.63125 59.785416Q74.63125 60.39479 74.38125 60.972916Q74.14687 61.55104 73.56875 62.191666Q73.00625 62.83229 71.67812 63.95729Q70.56875 64.879166 70.25625 65.222916Q69.94375 65.55104 69.74062 65.879166L74.64687 65.879166ZM76.17812 64.441666L77.475 64.33229Q77.61562 65.26979 78.13125 65.754166Q78.6625 66.222916 79.39687 66.222916Q80.2875 66.222916 80.89687 65.55104Q81.52187 64.879166 81.52187 63.785416Q81.52187 62.722916 80.92812 62.11354Q80.33437 61.504166 79.38125 61.504166Q78.7875 61.504166 78.30312 61.785416Q77.83437 62.05104 77.55312 62.472916L76.39687 62.33229L77.36562 57.17604L82.35 57.17604L82.35 58.36354L78.35 58.36354L77.81875 61.05104Q78.725 60.42604 79.70937 60.42604Q81.02187 60.42604 81.9125 61.33229Q82.81875 62.23854 82.81875 63.67604Q82.81875 65.035416 82.0375 66.01979Q81.06875 67.23854 79.39687 67.23854Q78.0375 67.23854 77.1625 66.472916Q76.30312 65.70729 76.17812 64.441666Z" fill-rule="nonzero"/><path fill="#000000" d="M64.81875 29.6L63.584373 29.6L63.584373 21.75625Q63.146873 22.178125 62.4125 22.615625Q61.69375 23.0375 61.13125 23.240625L61.13125 22.053125Q62.1625 21.56875 62.928123 20.88125Q63.709373 20.19375 64.02187 19.5375L64.81875 19.5375L64.81875 29.6ZM68.17812 26.975L69.475 26.865625Q69.61562 27.803125 70.13125 28.2875Q70.6625 28.75625 71.39687 28.75625Q72.2875 28.75625 72.89687 28.084375Q73.52187 27.4125 73.52187 26.31875Q73.52187 25.25625 72.92812 24.646875Q72.33437 24.0375 71.38125 24.0375Q70.7875 24.0375 70.30312 24.31875Q69.83437 24.584375 69.55312 25.00625L68.39687 24.865625L69.36562 19.709375L74.35 19.709375L74.35 20.896875L70.35 20.896875L69.81875 23.584375Q70.725 22.959375 71.70937 22.959375Q73.02187 22.959375 73.9125 23.865625Q74.81875 24.771875 74.81875 26.209375Q74.81875 27.56875 74.0375 28.553125Q73.06875 29.771875 71.39687 29.771875Q70.0375 29.771875 69.1625 29.00625Q68.30312 28.240625 68.17812 26.975ZM76.17812 24.6625Q76.17812 22.88125 76.5375 21.803125Q76.9125 20.709375 77.63125 20.13125Q78.35 19.5375 79.44375 19.5375Q80.25625 19.5375 80.86562 19.865625Q81.475 20.19375 81.86562 20.803125Q82.27187 21.4125 82.49062 22.2875Q82.70937 23.1625 82.70937 24.6625Q82.70937 26.428125 82.35 27.50625Q81.99062 28.584375 81.27187 29.178125Q80.55312 29.771875 79.44375 29.771875Q78.00625 29.771875 77.17812 28.725Q76.17812 27.475 76.17812 24.6625ZM77.44375 24.6625Q77.44375 27.13125 78.02187 27.94375Q78.6 28.75625 79.44375 28.75625Q80.30312 28.75625 80.88125 27.94375Q81.45937 27.115625 81.45937 24.6625Q81.45937 22.178125 80.88125 21.365625Q80.30312 20.553125 79.42812 20.553125Q78.58437 20.553125 78.08437 21.271875Q77.44375 22.19375 77.44375 24.6625Z" fill-rule="nonzero"/><path fill="#000000" d="M96.57 264.4625Q96.57 262.68124 96.929375 261.60312Q97.304375 260.50937 98.023125 259.93124Q98.741875 259.3375 99.835625 259.3375Q100.648125 259.3375 101.2575 259.66562Q101.866875 259.99374 102.2575 260.60312Q102.66375 261.2125 102.8825 262.0875Q103.10125 262.9625 103.10125 264.4625Q103.10125 266.22812 102.741875 267.30624Q102.3825 268.38437 101.66375 268.97812Q100.945 269.57187 99.835625 269.57187Q98.398125 269.57187 97.57 268.525Q96.57 267.275 96.57 264.4625ZM97.835625 264.4625Q97.835625 266.93124 98.41375 267.74374Q98.991875 268.55624 99.835625 268.55624Q100.695 268.55624 101.273125 267.74374Q101.85125 266.91562 101.85125 264.4625Q101.85125 261.97812 101.273125 261.16562Q100.695 260.35312 99.82 260.35312Q98.97625 260.35312 98.47625 261.07187Q97.835625 261.99374 97.835625 264.4625Z" fill-rule="nonzero"/><path fill="#000000" d="M241.61812 266.775L242.915 266.66562Q243.05562 267.60312 243.57124 268.0875Q244.1025 268.55624 244.83687 268.55624Q245.7275 268.55624 246.33687 267.88437Q246.96187 267.2125 246.96187 266.11874Q246.96187 265.05624 246.36812 264.44687Q245.77437 263.8375 244.82124 263.8375Q244.2275 263.8375 243.74312 264.11874Q243.27437 264.38437 242.99312 264.80624L241.83687 264.66562L242.80562 259.50937L247.79 259.50937L247.79 260.69687L243.79 260.69687L243.25874 263.38437Q244.165 262.75937 245.14937 262.75937Q246.46187 262.75937 247.3525 263.66562Q248.25874 264.57187 248.25874 266.00937Q248.25874 267.36874 247.4775 268.35312Q246.50874 269.57187 244.83687 269.57187Q243.4775 269.57187 242.6025 268.80624Q241.74312 268.04062 241.61812 266.775Z" fill-rule="nonzero"/><path fill="#000000" d="M387.3069 269.4L386.0725 269.4L386.0725 261.55624Q385.635 261.97812 384.90063 262.41562Q384.1819 262.8375 383.6194 263.04062L383.6194 261.85312Q384.65063 261.36874 385.41626 260.68124Q386.1975 259.99374 386.51 259.3375L387.3069 259.3375L387.3069 269.4ZM390.66626 264.4625Q390.66626 262.68124 391.02563 261.60312Q391.40063 260.50937 392.1194 259.93124Q392.83813 259.3375 393.9319 259.3375Q394.7444 259.3375 395.35376 259.66562Q395.96313 259.99374 396.35376 260.60312Q396.76 261.2125 396.97876 262.0875Q397.1975 262.9625 397.1975 264.4625Q397.1975 266.22812 396.83813 267.30624Q396.47876 268.38437 395.76 268.97812Q395.04126 269.57187 393.9319 269.57187Q392.4944 269.57187 391.66626 268.525Q390.66626 267.275 390.66626 264.4625ZM391.9319 264.4625Q391.9319 266.93124 392.51 267.74374Q393.08813 268.55624 393.9319 268.55624Q394.79126 268.55624 395.3694 267.74374Q395.9475 266.91562 395.9475 264.4625Q395.9475 261.97812 395.3694 261.16562Q394.79126 260.35312 393.91626 260.35312Q393.0725 260.35312 392.5725 261.07187Q391.9319 261.99374 391.9319 264.4625Z" fill-rule="nonzero"/><path fill="#4285f4" d="M425.4 20.1L430.59616 29.1L420.20386 29.1Z" fill-rule="nonzero"/><path fill="#1a1a1a" d="M439.93124 27.44375Q439.93124 25.146875 441.2125 24.0375Q442.29062 23.115625 443.82187 23.115625Q445.54062 23.115625 446.61874 24.240625Q447.7125 25.35 447.7125 27.334375Q447.7125 28.928125 447.22812 29.85Q446.74374 30.771875 445.82187 31.2875Q444.91562 31.7875 443.82187 31.7875Q442.0875 31.7875 441.00937 30.678125Q439.93124 29.553125 439.93124 27.44375ZM441.38437 27.44375Q441.38437 29.0375 442.07187 29.834375Q442.775 30.63125 443.82187 30.63125Q444.86874 30.63125 445.55624 29.834375Q446.25937 29.0375 446.25937 27.396875Q446.25937 25.865625 445.55624 25.06875Q444.86874 24.271875 443.82187 24.271875Q442.775 24.271875 442.07187 25.06875Q441.38437 25.85 441.38437 27.44375ZM450.75937 31.6L449.44687 31.6L449.44687 20.146875L450.85312 20.146875L450.85312 24.225Q451.74374 23.115625 453.13437 23.115625Q453.9 23.115625 454.57187 23.428125Q455.25937 23.725 455.69687 24.2875Q456.15 24.85 456.4 25.646875Q456.65 26.428125 456.65 27.31875Q456.65 29.459375 455.5875 30.63125Q454.54062 31.7875 453.05624 31.7875Q451.5875 31.7875 450.75937 30.553125L450.75937 31.6ZM450.74374 27.38125Q450.74374 28.88125 451.15 29.5375Q451.80624 30.63125 452.94687 30.63125Q453.86874 30.63125 454.54062 29.834375Q455.2125 29.021875 455.2125 27.44375Q455.2125 25.81875 454.55624 25.053125Q453.91562 24.271875 453.00937 24.271875Q452.0875 24.271875 451.41562 25.06875Q450.74374 25.865625 450.74374 27.38125ZM458.79062 31.6L458.79062 24.396875L457.55624 24.396875L457.55624 23.303125L458.79062 23.303125L458.79062 22.4125Q458.79062 21.584375 458.94687 21.178125Q459.15 20.63125 459.65 20.2875Q460.16562 19.94375 461.0875 19.94375Q461.68124 19.94375 462.4 20.084375L462.19687 21.31875Q461.75937 21.240625 461.36874 21.240625Q460.72812 21.240625 460.4625 21.521875Q460.19687 21.7875 460.19687 22.5375L460.19687 23.303125L461.80624 23.303125L461.80624 24.396875L460.19687 24.396875L460.19687 31.6L458.79062 31.6ZM467.9 31.6L467.9 30.38125Q466.93124 31.7875 465.25937 31.7875Q464.525 31.7875 463.88437 31.50625Q463.25937 31.225 462.94687 30.803125Q462.63437 30.365625 462.50937 29.75625Q462.43124 29.334375 462.43124 28.44375L462.43124 23.303125L463.8375 23.303125L463.8375 27.896875Q463.8375 29.00625 463.91562 29.38125Q464.05624 29.94375 464.47812 30.25625Q464.91562 30.56875 465.54062 30.56875Q466.18124 30.56875 466.72812 30.25625Q467.29062 29.928125 467.50937 29.365625Q467.74374 28.803125 467.74374 27.740625L467.74374 23.303125L469.15 23.303125L469.15 31.6L467.9 31.6ZM469.9 29.115625L471.29062 28.896875Q471.4 29.740625 471.93124 30.19375Q472.47812 30.63125 473.43124 30.63125Q474.4 30.63125 474.86874 30.240625Q475.3375 29.834375 475.3375 29.303125Q475.3375 28.834375 474.93124 28.553125Q474.63437 28.365625 473.49374 28.084375Q471.94687 27.69375 471.3375 27.4125Q470.74374 27.115625 470.43124 26.615625Q470.13437 26.115625 470.13437 25.50625Q470.13437 24.94375 470.38437 24.475Q470.63437 24.00625 471.07187 23.69375Q471.4 23.44375 471.9625 23.2875Q472.54062 23.115625 473.18124 23.115625Q474.16562 23.115625 474.9 23.396875Q475.63437 23.678125 475.97812 24.1625Q476.3375 24.63125 476.47812 25.44375L475.10312 25.63125Q475.00937 24.990625 474.55624 24.63125Q474.10312 24.271875 473.29062 24.271875Q472.32187 24.271875 471.9 24.6Q471.49374 24.9125 471.49374 25.334375Q471.49374 25.615625 471.66562 25.834375Q471.8375 26.053125 472.19687 26.209375Q472.41562 26.2875 473.44687 26.56875Q474.93124 26.959375 475.525 27.225Q476.11874 27.475 476.44687 27.959375Q476.79062 28.44375 476.79062 29.1625Q476.79062 29.865625 476.36874 30.490625Q475.9625 31.1 475.18124 31.44375Q474.41562 31.7875 473.44687 31.7875Q471.82187 31.7875 470.97812 31.115625Q470.13437 30.44375 469.9 29.115625ZM483.86874 28.553125L485.25937 28.740625Q485.025 30.1625 484.0875 30.975Q483.16562 31.7875 481.80624 31.7875Q480.10312 31.7875 479.05624 30.678125Q478.025 29.553125 478.025 27.475Q478.025 26.13125 478.4625 25.13125Q478.91562 24.115625 479.82187 23.615625Q480.74374 23.115625 481.80624 23.115625Q483.16562 23.115625 484.025 23.803125Q484.88437 24.475 485.11874 25.740625L483.75937 25.94375Q483.55624 25.115625 483.05624 24.69375Q482.57187 24.271875 481.86874 24.271875Q480.80624 24.271875 480.13437 25.0375Q479.47812 25.7875 479.47812 27.44375Q479.47812 29.115625 480.11874 29.88125Q480.75937 30.63125 481.79062 30.63125Q482.61874 30.63125 483.16562 30.13125Q483.72812 29.615625 483.86874 28.553125ZM491.86874 30.56875Q491.0875 31.240625 490.36874 31.521875Q489.65 31.7875 488.82187 31.7875Q487.44687 31.7875 486.7125 31.115625Q485.97812 30.44375 485.97812 29.4125Q485.97812 28.803125 486.25937 28.303125Q486.54062 27.7875 486.97812 27.490625Q487.43124 27.178125 487.99374 27.021875Q488.41562 26.9125 489.24374 26.81875Q490.94687 26.615625 491.75937 26.334375Q491.75937 26.0375 491.75937 25.959375Q491.75937 25.1 491.36874 24.75625Q490.82187 24.271875 489.75937 24.271875Q488.775 24.271875 488.29062 24.63125Q487.82187 24.975 487.60312 25.85L486.22812 25.6625Q486.41562 24.7875 486.8375 24.240625Q487.275 23.69375 488.0875 23.4125Q488.9 23.115625 489.9625 23.115625Q491.025 23.115625 491.68124 23.365625Q492.35312 23.615625 492.66562 23.990625Q492.97812 24.365625 493.10312 24.94375Q493.18124 25.303125 493.18124 26.240625L493.18124 28.115625Q493.18124 30.084375 493.25937 30.6Q493.35312 31.115625 493.61874 31.6L492.15 31.6Q491.93124 31.1625 491.86874 30.56875ZM491.75937 27.428125Q490.99374 27.740625 489.4625 27.959375Q488.5875 28.084375 488.22812 28.240625Q487.86874 28.396875 487.66562 28.709375Q487.47812 29.00625 487.47812 29.365625Q487.47812 29.928125 487.9 30.303125Q488.3375 30.678125 489.15 30.678125Q489.9625 30.678125 490.5875 30.334375Q491.22812 29.975 491.525 29.35Q491.75937 28.88125 491.75937 27.94375L491.75937 27.428125ZM498.525 30.334375L498.72812 31.584375Q498.13437 31.709375 497.66562 31.709375Q496.9 31.709375 496.47812 31.475Q496.05624 31.225 495.88437 30.834375Q495.7125 30.428125 495.7125 29.1625L495.7125 24.396875L494.68124 24.396875L494.68124 23.303125L495.7125 23.303125L495.7125 21.240625L497.11874 20.396875L497.11874 23.303125L498.525 23.303125L498.525 24.396875L497.11874 24.396875L497.11874 29.240625Q497.11874 29.85 497.18124 30.021875Q497.25937 30.19375 497.43124 30.303125Q497.60312 30.396875 497.91562 30.396875Q498.15 30.396875 498.525 30.334375ZM499.4625 21.75625L499.4625 20.146875L500.86874 20.146875L500.86874 21.75625L499.4625 21.75625ZM499.4625 31.6L499.4625 23.303125L500.86874 23.303125L500.86874 31.6L499.4625 31.6ZM502.93124 27.44375Q502.93124 25.146875 504.2125 24.0375Q505.29062 23.115625 506.82187 23.115625Q508.54062 23.115625 509.61874 24.240625Q510.7125 25.35 510.7125 27.334375Q510.7125 28.928125 510.22812 29.85Q509.74374 30.771875 508.82187 31.2875Q507.91562 31.7875 506.82187 31.7875Q505.0875 31.7875 504.00937 30.678125Q502.93124 29.553125 502.93124 27.44375ZM504.38437 27.44375Q504.38437 29.0375 505.07187 29.834375Q505.775 30.63125 506.82187 30.63125Q507.86874 30.63125 508.55624 29.834375Q509.25937 29.0375 509.25937 27.396875Q509.25937 25.865625 508.55624 25.06875Q507.86874 24.271875 506.82187 24.271875Q505.775 24.271875 505.07187 25.06875Q504.38437 25.85 504.38437 27.44375ZM512.4625 31.6L512.4625 23.303125L513.72815 23.303125L513.72815 24.475Q514.6344 23.115625 516.3688 23.115625Q517.1188 23.115625 517.7438 23.38125Q518.3688 23.646875 518.6813 24.084375Q518.9938 24.521875 519.1188 25.13125Q519.1969 25.521875 519.1969 26.490625L519.1969 31.6L517.79065 31.6L517.79065 26.553125Q517.79065 25.69375 517.6188 25.271875Q517.4625 24.834375 517.04065 24.584375Q516.6344 24.334375 516.0719 24.334375Q515.16565 24.334375 514.5094 24.9125Q513.8688 25.475 513.8688 27.06875L513.8688 31.6L512.4625 31.6Z" fill-rule="nonzero"/><path fill="#ea4335" d="M425.4 49.1L426.74707 53.2459L431.10635 53.2459L427.57962 55.808205L428.9267 59.9541L425.4 57.391796L421.8733 59.9541L423.22037 55.808205L419.69366 53.2459L424.05292 53.2459Z" fill-rule="nonzero"/><path fill="#1a1a1a" d="M440.43124 60.6L440.43124 49.146873L441.8375 49.146873L441.8375 60.6L440.43124 60.6ZM442.93124 56.44375Q442.93124 54.146873 444.2125 53.0375Q445.29062 52.115623 446.82187 52.115623Q448.54062 52.115623 449.61874 53.240623Q450.7125 54.35 450.7125 56.334373Q450.7125 57.928123 450.22812 58.85Q449.74374 59.771873 448.82187 60.2875Q447.91562 60.7875 446.82187 60.7875Q445.0875 60.7875 444.00937 59.678123Q442.93124 58.553123 442.93124 56.44375ZM444.38437 56.44375Q444.38437 58.0375 445.07187 58.834373Q445.775 59.63125 446.82187 59.63125Q447.86874 59.63125 448.55624 58.834373Q449.25937 58.0375 449.25937 56.396873Q449.25937 54.865623 448.55624 54.06875Q447.86874 53.271873 446.82187 53.271873Q445.775 53.271873 445.07187 54.06875Q444.38437 54.85 444.38437 56.44375ZM457.86874 59.56875Q457.0875 60.240623 456.36874 60.521873Q455.65 60.7875 454.82187 60.7875Q453.44687 60.7875 452.7125 60.115623Q451.97812 59.44375 451.97812 58.4125Q451.97812 57.803123 452.25937 57.303123Q452.54062 56.7875 452.97812 56.490623Q453.43124 56.178123 453.99374 56.021873Q454.41562 55.9125 455.24374 55.81875Q456.94687 55.615623 457.75937 55.334373Q457.75937 55.0375 457.75937 54.959373Q457.75937 54.1 457.36874 53.75625Q456.82187 53.271873 455.75937 53.271873Q454.775 53.271873 454.29062 53.63125Q453.82187 53.975 453.60312 54.85L452.22812 54.6625Q452.41562 53.7875 452.8375 53.240623Q453.275 52.69375 454.0875 52.4125Q454.9 52.115623 455.9625 52.115623Q457.025 52.115623 457.68124 52.365623Q458.35312 52.615623 458.66562 52.990623Q458.97812 53.365623 459.10312 53.94375Q459.18124 54.303123 459.18124 55.240623L459.18124 57.115623Q459.18124 59.084373 459.25937 59.6Q459.35312 60.115623 459.61874 60.6L458.15 60.6Q457.93124 60.1625 457.86874 59.56875ZM457.75937 56.428123Q456.99374 56.740623 455.4625 56.959373Q454.5875 57.084373 454.22812 57.240623Q453.86874 57.396873 453.66562 57.709373Q453.47812 58.00625 453.47812 58.365623Q453.47812 58.928123 453.9 59.303123Q454.3375 59.678123 455.15 59.678123Q455.9625 59.678123 456.5875 59.334373Q457.22812 58.975 457.525 58.35Q457.75937 57.88125 457.75937 56.94375L457.75937 56.428123ZM466.8375 60.6L466.8375 59.553123Q466.05624 60.7875 464.525 60.7875Q463.525 60.7875 462.69687 60.240623Q461.86874 59.69375 461.4 58.709373Q460.94687 57.725 460.94687 56.459373Q460.94687 55.209373 461.35312 54.209373Q461.775 53.19375 462.60312 52.6625Q463.43124 52.115623 464.4625 52.115623Q465.2125 52.115623 465.79062 52.428123Q466.38437 52.740623 466.74374 53.25625L466.74374 49.146873L468.15 49.146873L468.15 60.6L466.8375 60.6ZM462.4 56.459373Q462.4 58.053123 463.07187 58.85Q463.74374 59.63125 464.65 59.63125Q465.57187 59.63125 466.2125 58.88125Q466.86874 58.115623 466.86874 56.56875Q466.86874 54.865623 466.2125 54.06875Q465.55624 53.271873 464.5875 53.271873Q463.65 53.271873 463.025 54.0375Q462.4 54.803123 462.4 56.459373ZM470.4625 50.75625L470.4625 49.146873L471.86874 49.146873L471.86874 50.75625L470.4625 50.75625ZM470.4625 60.6L470.4625 52.303123L471.86874 52.303123L471.86874 60.6L470.4625 60.6ZM474.4625 60.6L474.4625 52.303123L475.72812 52.303123L475.72812 53.475Q476.63437 52.115623 478.36874 52.115623Q479.11874 52.115623 479.74374 52.38125Q480.36874 52.646873 480.68124 53.084373Q480.99374 53.521873 481.11874 54.13125Q481.19687 54.521873 481.19687 55.490623L481.19687 60.6L479.79062 60.6L479.79062 55.553123Q479.79062 54.69375 479.61874 54.271873Q479.4625 53.834373 479.04062 53.584373Q478.63437 53.334373 478.07187 53.334373Q477.16562 53.334373 476.50937 53.9125Q475.86874 54.475 475.86874 56.06875L475.86874 60.6L474.4625 60.6ZM482.19687 61.2875L483.57187 61.490623Q483.65 62.13125 484.04062 62.4125Q484.57187 62.803123 485.47812 62.803123Q486.44687 62.803123 486.97812 62.4125Q487.50937 62.021873 487.69687 61.31875Q487.80624 60.896873 487.80624 59.50625Q486.88437 60.6 485.50937 60.6Q483.79062 60.6 482.85312 59.365623Q481.91562 58.13125 481.91562 56.396873Q481.91562 55.209373 482.3375 54.209373Q482.775 53.209373 483.5875 52.6625Q484.41562 52.115623 485.50937 52.115623Q486.97812 52.115623 487.93124 53.303123L487.93124 52.303123L489.22812 52.303123L489.22812 59.475Q489.22812 61.4125 488.8375 62.225Q488.44687 63.0375 487.5875 63.50625Q486.72812 63.975 485.47812 63.975Q483.99374 63.975 483.07187 63.303123Q482.16562 62.63125 482.19687 61.2875ZM483.36874 56.303123Q483.36874 57.928123 484.00937 58.678123Q484.66562 59.428123 485.63437 59.428123Q486.60312 59.428123 487.25937 58.69375Q487.91562 57.94375 487.91562 56.35Q487.91562 54.81875 487.24374 54.053123Q486.57187 53.271873 485.61874 53.271873Q484.68124 53.271873 484.025 54.0375Q483.36874 54.803123 483.36874 56.303123Z" fill-rule="nonzero"/><path fill="#fbbc04" d="M425.4 78.1L431.4 84.1L425.4 90.1L419.4 84.1Z" fill-rule="nonzero"/><path fill="#1a1a1a" d="M446.13437 86.92812L447.5875 87.1Q447.24374 88.38125 446.30624 89.08437Q445.38437 89.7875 443.94687 89.7875Q442.11874 89.7875 441.05624 88.6625Q439.99374 87.5375 439.99374 85.52187Q439.99374 83.42812 441.07187 82.27187Q442.15 81.11562 443.86874 81.11562Q445.525 81.11562 446.57187 82.25625Q447.63437 83.38125 447.63437 85.42812Q447.63437 85.55312 447.63437 85.80312L441.44687 85.80312Q441.525 87.17812 442.2125 87.9125Q442.91562 88.63125 443.94687 88.63125Q444.72812 88.63125 445.275 88.225Q445.82187 87.81875 446.13437 86.92812ZM441.525 84.64687L446.15 84.64687Q446.05624 83.6 445.61874 83.08437Q444.94687 82.27187 443.88437 82.27187Q442.91562 82.27187 442.24374 82.92812Q441.5875 83.56875 441.525 84.64687ZM451.75937 89.6L448.60312 81.30312L450.0875 81.30312L451.86874 86.27187Q452.16562 87.06875 452.4 87.94375Q452.5875 87.2875 452.93124 86.36562L454.775 81.30312L456.2125 81.30312L453.07187 89.6L451.75937 89.6ZM461.86874 88.56875Q461.0875 89.24062 460.36874 89.52187Q459.65 89.7875 458.82187 89.7875Q457.44687 89.7875 456.7125 89.11562Q455.97812 88.44375 455.97812 87.4125Q455.97812 86.80312 456.25937 86.30312Q456.54062 85.7875 456.97812 85.49062Q457.43124 85.17812 457.99374 85.02187Q458.41562 84.9125 459.24374 84.81875Q460.94687 84.61562 461.75937 84.33437Q461.75937 84.0375 461.75937 83.95937Q461.75937 83.1 461.36874 82.75625Q460.82187 82.27187 459.75937 82.27187Q458.775 82.27187 458.29062 82.63125Q457.82187 82.975 457.60312 83.85L456.22812 83.6625Q456.41562 82.7875 456.8375 82.24062Q457.275 81.69375 458.0875 81.4125Q458.9 81.11562 459.9625 81.11562Q461.025 81.11562 461.68124 81.36562Q462.35312 81.61562 462.66562 81.99062Q462.97812 82.36562 463.10312 82.94375Q463.18124 83.30312 463.18124 84.24062L463.18124 86.11562Q463.18124 88.08437 463.25937 88.6Q463.35312 89.11562 463.61874 89.6L462.15 89.6Q461.93124 89.1625 461.86874 88.56875ZM461.75937 85.42812Q460.99374 85.74062 459.4625 85.95937Q458.5875 86.08437 458.22812 86.24062Q457.86874 86.39687 457.66562 86.70937Q457.47812 87.00625 457.47812 87.36562Q457.47812 87.92812 457.9 88.30312Q458.3375 88.67812 459.15 88.67812Q459.9625 88.67812 460.5875 88.33437Q461.22812 87.975 461.525 87.35Q461.75937 86.88125 461.75937 85.94375L461.75937 85.42812ZM465.43124 89.6L465.43124 78.14687L466.8375 78.14687L466.8375 89.6L465.43124 89.6ZM473.9 89.6L473.9 88.38125Q472.93124 89.7875 471.25937 89.7875Q470.525 89.7875 469.88437 89.50625Q469.25937 89.225 468.94687 88.80312Q468.63437 88.36562 468.50937 87.75625Q468.43124 87.33437 468.43124 86.44375L468.43124 81.30312L469.8375 81.30312L469.8375 85.89687Q469.8375 87.00625 469.91562 87.38125Q470.05624 87.94375 470.47812 88.25625Q470.91562 88.56875 471.54062 88.56875Q472.18124 88.56875 472.72812 88.25625Q473.29062 87.92812 473.50937 87.36562Q473.74374 86.80312 473.74374 85.74062L473.74374 81.30312L475.15 81.30312L475.15 89.6L473.9 89.6ZM481.86874 88.56875Q481.0875 89.24062 480.36874 89.52187Q479.65 89.7875 478.82187 89.7875Q477.44687 89.7875 476.7125 89.11562Q475.97812 88.44375 475.97812 87.4125Q475.97812 86.80312 476.25937 86.30312Q476.54062 85.7875 476.97812 85.49062Q477.43124 85.17812 477.99374 85.02187Q478.41562 84.9125 479.24374 84.81875Q480.94687 84.61562 481.75937 84.33437Q481.75937 84.0375 481.75937 83.95937Q481.75937 83.1 481.36874 82.75625Q480.82187 82.27187 479.75937 82.27187Q478.775 82.27187 478.29062 82.63125Q477.82187 82.975 477.60312 83.85L476.22812 83.6625Q476.41562 82.7875 476.8375 82.24062Q477.275 81.69375 478.0875 81.4125Q478.9 81.11562 479.9625 81.11562Q481.025 81.11562 481.68124 81.36562Q482.35312 81.61562 482.66562 81.99062Q482.97812 82.36562 483.10312 82.94375Q483.18124 83.30312 483.18124 84.24062L483.18124 86.11562Q483.18124 88.08437 483.25937 88.6Q483.35312 89.11562 483.61874 89.6L482.15 89.6Q481.93124 89.1625 481.86874 88.56875ZM481.75937 85.42812Q480.99374 85.74062 479.4625 85.95937Q478.5875 86.08437 478.22812 86.24062Q477.86874 86.39687 477.66562 86.70937Q477.47812 87.00625 477.47812 87.36562Q477.47812 87.92812 477.9 88.30312Q478.3375 88.67812 479.15 88.67812Q479.9625 88.67812 480.5875 88.33437Q481.22812 87.975 481.525 87.35Q481.75937 86.88125 481.75937 85.94375L481.75937 85.42812ZM488.525 88.33437L488.72812 89.58437Q488.13437 89.70937 487.66562 89.70937Q486.9 89.70937 486.47812 89.475Q486.05624 89.225 485.88437 88.83437Q485.7125 88.42812 485.7125 87.1625L485.7125 82.39687L484.68124 82.39687L484.68124 81.30312L485.7125 81.30312L485.7125 79.24062L487.11874 78.39687L487.11874 81.30312L488.525 81.30312L488.525 82.39687L487.11874 82.39687L487.11874 87.24062Q487.11874 87.85 487.18124 88.02187Q487.25937 88.19375 487.43124 88.30312Q487.60312 88.39687 487.91562 88.39687Q488.15 88.39687 488.525 88.33437ZM489.4625 79.75625L489.4625 78.14687L490.86874 78.14687L490.86874 79.75625L489.4625 79.75625ZM489.4625 89.6L489.4625 81.30312L490.86874 81.30312L490.86874 89.6L489.4625 89.6ZM492.93124 85.44375Q492.93124 83.14687 494.2125 82.0375Q495.29062 81.11562 496.82187 81.11562Q498.54062 81.11562 499.61874 82.24062Q500.7125 83.35 500.7125 85.33437Q500.7125 86.92812 500.22812 87.85Q499.74374 88.77187 498.82187 89.2875Q497.91562 89.7875 496.82187 89.7875Q495.0875 89.7875 494.00937 88.67812Q492.93124 87.55312 492.93124 85.44375ZM494.38437 85.44375Q494.38437 87.0375 495.07187 87.83437Q495.775 88.63125 496.82187 88.63125Q497.86874 88.63125 498.55624 87.83437Q499.25937 87.0375 499.25937 85.39687Q499.25937 83.86562 498.55624 83.06875Q497.86874 82.27187 496.82187 82.27187Q495.775 82.27187 495.07187 83.06875Q494.38437 83.85 494.38437 85.44375ZM502.4625 89.6L502.4625 81.30312L503.72812 81.30312L503.72812 82.475Q504.63437 81.11562 506.36874 81.11562Q507.11874 81.11562 507.74374 81.38125Q508.36874 81.64687 508.68124 82.08437Q508.99374 82.52187 509.11874 83.13125Q509.19687 83.52187 509.19687 84.49062L509.19687 89.6L507.79062 89.6L507.79062 84.55312Q507.79062 83.69375 507.61874 83.27187Q507.4625 82.83437 507.04062 82.58437Q506.63437 82.33437 506.07187 82.33437Q505.16562 82.33437 504.50937 82.9125Q503.86874 83.475 503.86874 85.06875L503.86874 89.6L502.4625 89.6Z" fill-rule="nonzero"/></svg>