<svg version="1.1" viewBox="0.0 0.0 829.0 514.0" fill="none" stroke="none" stroke-linecap="square" stroke-miterlimit="10" width="829" height="514" xmlns:xlink="http://www.w3.org/1999/xlink" xmlns="http://www.w3.org/2000/svg"><path fill="#ffffff" d="M0 0L829.0 0L829.0 514.0L0 514.0L0 0Z" fill-rule="nonzero"/><path stroke="#333333" stroke-width="1.0" stroke-linecap="butt" d="M109.5 33.5L109.5 422.5" fill-rule="nonzero"/><path stroke="#cccccc" stroke-width="1.0" stroke-linecap="butt" d="M349.5 33.5L349.5 422.5" fill-rule="nonzero"/><path stroke="#cccccc" stroke-width="1.0" stroke-linecap="butt" d="M588.5 33.5L588.5 422.5" fill-rule="nonzero"/><path stroke="#333333" stroke-width="1.0" stroke-linecap="butt" d="M99.5 422.5L598.5 422.5" fill-rule="nonzero"/><path stroke="#cccccc" stroke-width="1.0" stroke-linecap="butt" d="M99.5 344.5L598.5 344.5" fill-rule="nonzero"/><path stroke="#cccccc" stroke-width="1.0" stroke-linecap="butt" d="M99.5 266.5L598.5 266.5" fill-rule="nonzero"/><path stroke="#cccccc" stroke-width="1.0" stroke-linecap="butt" d="M99.5 189.5L598.5 189.5" fill-rule="nonzero"/><path stroke="#cccccc" stroke-width="1.0" stroke-linecap="butt" d="M99.5 111.5L598.5 111.5" fill-rule="nonzero"/><path stroke="#cccccc" stroke-width="1.0" stroke-linecap="butt" d="M99.5 33.5L598.5 33.5" fill-rule="nonzero"/><path stroke="#e6e6e6" stroke-width="1.0" stroke-linecap="butt" d="M99.5 406.5L598.5 406.5" fill-rule="nonzero"/><path stroke="#e6e6e6" stroke-width="1.0" stroke-linecap="butt" d="M99.5 391.5L598.5 391.5" fill-rule="nonzero"/><path stroke="#e6e6e6" stroke-width="1.0" stroke-linecap="butt" d="M99.5 375.5L598.5 375.5" fill-rule="nonzero"/><path stroke="#e6e6e6" stroke-width="1.0" stroke-linecap="butt" d="M99.5 360.5L598.5 360.5" fill-rule="nonzero"/><path stroke="#e6e6e6" stroke-width="1.0" stroke-linecap="butt" d="M99.5 329.5L598.5 329.5" fill-rule="nonzero"/><path stroke="#e6e6e6" stroke-width="1.0" stroke-linecap="butt" d="M99.5 313.5L598.5 313.5" fill-rule="nonzero"/><path stroke="#e6e6e6" stroke-width="1.0" stroke-linecap="butt" d="M99.5 297.5L598.5 297.5" fill-rule="nonzero"/><path stroke="#e6e6e6" stroke-width="1.0" stroke-linecap="butt" d="M99.5 282.5L598.5 282.5" fill-rule="nonzero"/><path stroke="#e6e6e6" stroke-width="1.0" stroke-linecap="butt" d="M99.5 251.5L598.5 251.5" fill-rule="nonzero"/><path stroke="#e6e6e6" stroke-width="1.0" stroke-linecap="butt" d="M99.5 235.5L598.5 235.5" fill-rule="nonzero"/><path stroke="#e6e6e6" stroke-width="1.0" stroke-linecap="butt" d="M99.5 220.5L598.5 220.5" fill-rule="nonzero"/><path stroke="#e6e6e6" stroke-width="1.0" stroke-linecap="butt" d="M99.5 204.5L598.5 204.5" fill-rule="nonzero"/><path stroke="#e6e6e6" stroke-width="1.0" stroke-linecap="butt" d="M99.5 173.5L598.5 173.5" fill-rule="nonzero"/><path stroke="#e6e6e6" stroke-width="1.0" stroke-linecap="butt" d="M99.5 158.5L598.5 158.5" fill-rule="nonzero"/><path stroke="#e6e6e6" stroke-width="1.0" stroke-linecap="butt" d="M99.5 142.5L598.5 142.5" fill-rule="nonzero"/><path stroke="#e6e6e6" stroke-width="1.0" stroke-linecap="butt" d="M99.5 126.5L598.5 126.5" fill-rule="nonzero"/><path stroke="#e6e6e6" stroke-width="1.0" stroke-linecap="butt" d="M99.5 95.5L598.5 95.5" fill-rule="nonzero"/><path stroke="#e6e6e6" stroke-width="1.0" stroke-linecap="butt" d="M99.5 80.5L598.5 80.5" fill-rule="nonzero"/><path stroke="#e6e6e6" stroke-width="1.0" stroke-linecap="butt" d="M99.5 64.5L598.5 64.5" fill-rule="nonzero"/><path stroke="#e6e6e6" stroke-width="1.0" stroke-linecap="butt" d="M99.5 49.5L598.5 49.5" fill-rule="nonzero"/><clipPath id="id_0"><path d="M99.7 33.7L598.46 33.7L598.46 422.3L99.7 422.3L99.7 33.7Z" clip-rule="nonzero"/></clipPath><path fill="#4285f4" clip-path="url(#id_0)" d="M109.31447 362.9789L114.51062 371.9789L104.11832 371.9789Z" fill-rule="nonzero"/><path fill="#4285f4" clip-path="url(#id_0)" d="M349.08 291.35733L354.27615 300.35733L343.88385 300.35733Z" fill-rule="nonzero"/><path fill="#4285f4" clip-path="url(#id_0)" d="M588.8455 66.373474L594.0417 75.373474L583.64935 75.373474Z" fill-rule="nonzero"/><path fill="#ea4335" clip-path="url(#id_0)" d="M109.31447 406.50192L110.66155 410.64783L115.020805 410.64783L111.494095 413.21014L112.84118 417.35605L109.31447 414.79373L105.78775 417.35605L107.134834 413.21014L103.60812 410.64783L107.967384 410.64783Z" fill-rule="nonzero"/><path fill="#ea4335" clip-path="url(#id_0)" d="M349.08 399.53366L350.4271 403.67953L354.78635 403.67953L351.2596 406.24185L352.60672 410.38776L349.08 407.82544L345.55328 410.38776L346.90036 406.24185L343.37366 403.67953L347.7329 403.67953Z" fill-rule="nonzero"/><path fill="#ea4335" clip-path="url(#id_0)" d="M588.8455 385.56918L590.1926 389.7151L594.5519 389.7151L591.02515 392.2774L592.37225 396.42328L588.8455 393.861L585.31885 396.42328L586.6659 392.2774L583.1392 389.7151L587.4985 389.7151Z" fill-rule="nonzero"/><path fill="#000000" d="M284.2675 484.3L284.2675 472.84686L286.54874 472.84686L289.2675 480.95624Q289.6425 482.08124 289.81436 482.64374Q290.00186 482.01874 290.42374 480.8156L293.1581 472.84686L295.205 472.84686L295.205 484.3L293.73624 484.3L293.73624 474.70624L290.4081 484.3L289.04874 484.3L285.73624 474.55L285.73624 484.3L284.2675 484.3ZM302.58 484.3L302.58 483.08124Q301.61124 484.4875 299.93936 484.4875Q299.205 484.4875 298.56436 484.20624Q297.93936 483.925 297.62686 483.5031Q297.31436 483.0656 297.18936 482.45624Q297.11124 482.03436 297.11124 481.14374L297.11124 476.0031L298.5175 476.0031L298.5175 480.59686Q298.5175 481.70624 298.5956 482.08124Q298.73624 482.64374 299.1581 482.95624Q299.5956 483.26874 300.2206 483.26874Q300.86124 483.26874 301.4081 482.95624Q301.9706 482.6281 302.18936 482.0656Q302.42374 481.5031 302.42374 480.4406L302.42374 476.0031L303.83 476.0031L303.83 484.3L302.58 484.3ZM305.11124 484.3L305.11124 472.84686L306.5175 472.84686L306.5175 484.3L305.11124 484.3ZM311.205 483.03436L311.4081 484.28436Q310.81436 484.40936 310.3456 484.40936Q309.58 484.40936 309.1581 484.175Q308.73624 483.925 308.56436 483.53436Q308.3925 483.1281 308.3925 481.8625L308.3925 477.09686L307.36124 477.09686L307.36124 476.0031L308.3925 476.0031L308.3925 473.9406L309.79874 473.09686L309.79874 476.0031L311.205 476.0031L311.205 477.09686L309.79874 477.09686L309.79874 481.9406Q309.79874 482.55 309.86124 482.72186Q309.93936 482.89374 310.11124 483.0031Q310.2831 483.09686 310.5956 483.09686Q310.83 483.09686 311.205 483.03436ZM312.1425 474.45624L312.1425 472.84686L313.54874 472.84686L313.54874 474.45624L312.1425 474.45624ZM312.1425 484.3L312.1425 476.0031L313.54874 476.0031L313.54874 484.3L312.1425 484.3ZM316.1425 487.4875L316.1425 476.0031L317.42374 476.0031L317.42374 477.08124Q317.87686 476.4406 318.43936 476.1281Q319.0175 475.8156 319.83 475.8156Q320.8925 475.8156 321.705 476.3625Q322.5175 476.90936 322.92374 477.90936Q323.3456 478.89374 323.3456 480.08124Q323.3456 481.3625 322.87686 482.3781Q322.42374 483.39374 321.54874 483.9406Q320.68936 484.4875 319.7206 484.4875Q319.0175 484.4875 318.455 484.1906Q317.9081 483.89374 317.54874 483.4406L317.54874 487.4875L316.1425 487.4875ZM317.4081 480.1906Q317.4081 481.8 318.04874 482.5656Q318.705 483.33124 319.62686 483.33124Q320.56436 483.33124 321.23624 482.53436Q321.9081 481.7375 321.9081 480.08124Q321.9081 478.4875 321.25186 477.70624Q320.5956 476.90936 319.68936 476.90936Q318.79874 476.90936 318.0956 477.7531Q317.4081 478.59686 317.4081 480.1906ZM325.11124 484.3L325.11124 472.84686L326.5175 472.84686L326.5175 484.3L325.11124 484.3ZM328.1425 474.45624L328.1425 472.84686L329.54874 472.84686L329.54874 474.45624L328.1425 474.45624ZM328.1425 484.3L328.1425 476.0031L329.54874 476.0031L329.54874 484.3L328.1425 484.3ZM337.54874 481.2531L338.93936 481.4406Q338.705 482.8625 337.7675 483.675Q336.8456 484.4875 335.48624 484.4875Q333.7831 484.4875 332.73624 483.3781Q331.705 482.2531 331.705 480.175Q331.705 478.83124 332.1425 477.83124Q332.5956 476.8156 333.50186 476.3156Q334.42374 475.8156 335.48624 475.8156Q336.8456 475.8156 337.705 476.5031Q338.56436 477.175 338.79874 478.4406L337.43936 478.64374Q337.23624 477.8156 336.73624 477.39374Q336.25186 476.97186 335.54874 476.97186Q334.48624 476.97186 333.81436 477.7375Q333.1581 478.4875 333.1581 480.14374Q333.1581 481.8156 333.79874 482.58124Q334.43936 483.33124 335.4706 483.33124Q336.29874 483.33124 336.8456 482.83124Q337.4081 482.3156 337.54874 481.2531ZM345.54874 483.26874Q344.7675 483.9406 344.04874 484.22186Q343.33 484.4875 342.50186 484.4875Q341.12686 484.4875 340.3925 483.8156Q339.6581 483.14374 339.6581 482.1125Q339.6581 481.5031 339.93936 481.0031Q340.2206 480.4875 340.6581 480.1906Q341.11124 479.8781 341.67374 479.72186Q342.0956 479.6125 342.92374 479.51874Q344.62686 479.3156 345.43936 479.03436Q345.43936 478.7375 345.43936 478.65936Q345.43936 477.8 345.04874 477.45624Q344.50186 476.97186 343.43936 476.97186Q342.455 476.97186 341.9706 477.33124Q341.50186 477.675 341.2831 478.55L339.9081 478.3625Q340.0956 477.4875 340.5175 476.9406Q340.955 476.39374 341.7675 476.1125Q342.58 475.8156 343.6425 475.8156Q344.705 475.8156 345.36124 476.0656Q346.0331 476.3156 346.3456 476.6906Q346.6581 477.0656 346.7831 477.64374Q346.86124 478.0031 346.86124 478.9406L346.86124 480.8156Q346.86124 482.78436 346.93936 483.3Q347.0331 483.8156 347.29874 484.3L345.83 484.3Q345.61124 483.8625 345.54874 483.26874ZM345.43936 480.1281Q344.67374 480.4406 343.1425 480.65936Q342.2675 480.78436 341.9081 480.9406Q341.54874 481.09686 341.3456 481.40936Q341.1581 481.70624 341.1581 482.0656Q341.1581 482.6281 341.58 483.0031Q342.0175 483.3781 342.83 483.3781Q343.6425 483.3781 344.2675 483.03436Q344.9081 482.675 345.205 482.05Q345.43936 481.58124 345.43936 480.64374L345.43936 480.1281ZM352.205 483.03436L352.4081 484.28436Q351.81436 484.40936 351.3456 484.40936Q350.58 484.40936 350.1581 484.175Q349.73624 483.925 349.56436 483.53436Q349.3925 483.1281 349.3925 481.8625L349.3925 477.09686L348.36124 477.09686L348.36124 476.0031L349.3925 476.0031L349.3925 473.9406L350.79874 473.09686L350.79874 476.0031L352.205 476.0031L352.205 477.09686L350.79874 477.09686L350.79874 481.9406Q350.79874 482.55 350.86124 482.72186Q350.93936 482.89374 351.11124 483.0031Q351.2831 483.09686 351.5956 483.09686Q351.83 483.09686 352.205 483.03436ZM353.1425 474.45624L353.1425 472.84686L354.54874 472.84686L354.54874 474.45624L353.1425 474.45624ZM353.1425 484.3L353.1425 476.0031L354.54874 476.0031L354.54874 484.3L353.1425 484.3ZM359.43936 484.3L356.2831 476.0031L357.7675 476.0031L359.54874 480.97186Q359.8456 481.76874 360.08 482.64374Q360.2675 481.9875 360.61124 481.0656L362.455 476.0031L363.8925 476.0031L360.75186 484.3L359.43936 484.3ZM369.81436 481.6281L371.2675 481.8Q370.92374 483.08124 369.98624 483.78436Q369.06436 484.4875 367.62686 484.4875Q365.79874 484.4875 364.73624 483.3625Q363.67374 482.2375 363.67374 480.22186Q363.67374 478.1281 364.75186 476.97186Q365.83 475.8156 367.54874 475.8156Q369.205 475.8156 370.25186 476.95624Q371.31436 478.08124 371.31436 480.1281Q371.31436 480.2531 371.31436 480.5031L365.12686 480.5031Q365.205 481.8781 365.8925 482.6125Q366.5956 483.33124 367.62686 483.33124Q368.4081 483.33124 368.955 482.925Q369.50186 482.51874 369.81436 481.6281ZM365.205 479.34686L369.83 479.34686Q369.73624 478.3 369.29874 477.78436Q368.62686 476.97186 367.56436 476.97186Q366.5956 476.97186 365.92374 477.6281Q365.2675 478.26874 365.205 479.34686ZM382.5175 484.3L382.5175 483.2531Q381.73624 484.4875 380.205 484.4875Q379.205 484.4875 378.37686 483.9406Q377.54874 483.39374 377.08 482.40936Q376.62686 481.425 376.62686 480.15936Q376.62686 478.90936 377.0331 477.90936Q377.455 476.89374 378.2831 476.3625Q379.11124 475.8156 380.1425 475.8156Q380.8925 475.8156 381.4706 476.1281Q382.06436 476.4406 382.42374 476.95624L382.42374 472.84686L383.83 472.84686L383.83 484.3L382.5175 484.3ZM378.08 480.15936Q378.08 481.7531 378.75186 482.55Q379.42374 483.33124 380.33 483.33124Q381.25186 483.33124 381.8925 482.58124Q382.54874 481.8156 382.54874 480.26874Q382.54874 478.5656 381.8925 477.76874Q381.23624 476.97186 380.2675 476.97186Q379.33 476.97186 378.705 477.7375Q378.08 478.5031 378.08 480.15936ZM391.81436 481.6281L393.2675 481.8Q392.92374 483.08124 391.98624 483.78436Q391.06436 484.4875 389.62686 484.4875Q387.79874 484.4875 386.73624 483.3625Q385.67374 482.2375 385.67374 480.22186Q385.67374 478.1281 386.75186 476.97186Q387.83 475.8156 389.54874 475.8156Q391.205 475.8156 392.25186 476.95624Q393.31436 478.08124 393.31436 480.1281Q393.31436 480.2531 393.31436 480.5031L387.12686 480.5031Q387.205 481.8781 387.8925 482.6125Q388.5956 483.33124 389.62686 483.33124Q390.4081 483.33124 390.955 482.925Q391.50186 482.51874 391.81436 481.6281ZM387.205 479.34686L391.83 479.34686Q391.73624 478.3 391.29874 477.78436Q390.62686 476.97186 389.56436 476.97186Q388.5956 476.97186 387.92374 477.6281Q387.2675 478.26874 387.205 479.34686ZM395.1425 487.4875L395.1425 476.0031L396.42374 476.0031L396.42374 477.08124Q396.87686 476.4406 397.43936 476.1281Q398.0175 475.8156 398.83 475.8156Q399.8925 475.8156 400.705 476.3625Q401.5175 476.90936 401.92374 477.90936Q402.3456 478.89374 402.3456 480.08124Q402.3456 481.3625 401.87686 482.3781Q401.42374 483.39374 400.54874 483.9406Q399.68936 484.4875 398.7206 484.4875Q398.0175 484.4875 397.455 484.1906Q396.9081 483.89374 396.54874 483.4406L396.54874 487.4875L395.1425 487.4875ZM396.4081 480.1906Q396.4081 481.8 397.04874 482.5656Q397.705 483.33124 398.62686 483.33124Q399.56436 483.33124 400.23624 482.53436Q400.9081 481.7375 400.9081 480.08124Q400.9081 478.4875 400.25186 477.70624Q399.5956 476.90936 398.68936 476.90936Q397.79874 476.90936 397.0956 477.7531Q396.4081 478.59686 396.4081 480.1906ZM407.205 483.03436L407.4081 484.28436Q406.81436 484.40936 406.3456 484.40936Q405.58 484.40936 405.1581 484.175Q404.73624 483.925 404.56436 483.53436Q404.3925 483.1281 404.3925 481.8625L404.3925 477.09686L403.36124 477.09686L403.36124 476.0031L404.3925 476.0031L404.3925 473.9406L405.79874 473.09686L405.79874 476.0031L407.205 476.0031L407.205 477.09686L405.79874 477.09686L405.79874 481.9406Q405.79874 482.55 405.86124 482.72186Q405.93936 482.89374 406.11124 483.0031Q406.2831 483.09686 406.5956 483.09686Q406.83 483.09686 407.205 483.03436ZM408.1425 484.3L408.1425 472.84686L409.54874 472.84686L409.54874 476.95624Q410.5331 475.8156 412.0331 475.8156Q412.955 475.8156 413.62686 476.175Q414.31436 476.53436 414.5956 477.175Q414.8925 477.8156 414.8925 479.03436L414.8925 484.3L413.48624 484.3L413.48624 479.03436Q413.48624 477.9875 413.0331 477.5031Q412.58 477.01874 411.73624 477.01874Q411.11124 477.01874 410.56436 477.34686Q410.0175 477.675 409.7831 478.2375Q409.54874 478.78436 409.54874 479.7531L409.54874 484.3L408.1425 484.3Z" fill-rule="nonzero"/><path fill="#000000" d="M40.69999 282.76562L29.246862 282.76562L29.246862 278.8125Q29.246862 277.48438 29.403112 276.78125Q29.637487 275.79688 30.231237 275.09375Q30.996862 274.1875 32.184364 273.75Q33.371864 273.29688 34.903114 273.29688Q36.215614 273.29688 37.23124 273.60938Q38.23124 273.90625 38.88749 274.39062Q39.54374 274.85938 39.934364 275.42188Q40.309364 275.98438 40.51249 276.79688Q40.69999 277.59375 40.69999 278.625L40.69999 282.76562ZM39.340614 281.25L39.340614 278.79688Q39.340614 277.67188 39.13749 277.03125Q38.91874 276.375 38.54374 276.0Q37.996864 275.45312 37.090614 275.15625Q36.184364 274.85938 34.88749 274.85938Q33.090614 274.85938 32.121864 275.45312Q31.153112 276.03125 30.824987 276.875Q30.590612 277.48438 30.590612 278.84375L30.590612 281.25L39.340614 281.25ZM39.66874 265.53125Q40.340614 266.3125 40.621864 267.03125Q40.88749 267.75 40.88749 268.57812Q40.88749 269.95312 40.215614 270.6875Q39.54374 271.42188 38.51249 271.42188Q37.903114 271.42188 37.403114 271.14062Q36.88749 270.85938 36.590614 270.42188Q36.278114 269.96875 36.121864 269.40625Q36.01249 268.98438 35.91874 268.15625Q35.715614 266.45312 35.434364 265.64062Q35.13749 265.64062 35.059364 265.64062Q34.19999 265.64062 33.85624 266.03125Q33.371864 266.57812 33.371864 267.64062Q33.371864 268.625 33.73124 269.10938Q34.07499 269.57812 34.94999 269.79688L34.76249 271.17188Q33.88749 270.98438 33.340614 270.5625Q32.79374 270.125 32.51249 269.3125Q32.215614 268.5 32.215614 267.4375Q32.215614 266.375 32.465614 265.71875Q32.715614 265.04688 33.090614 264.73438Q33.465614 264.42188 34.04374 264.29688Q34.403114 264.21875 35.340614 264.21875L37.215614 264.21875Q39.184364 264.21875 39.69999 264.14062Q40.215614 264.04688 40.69999 263.78125L40.69999 265.25Q40.26249 265.46875 39.66874 265.53125ZM36.528114 265.64062Q36.840614 266.40625 37.059364 267.9375Q37.184364 268.8125 37.340614 269.17188Q37.496864 269.53125 37.809364 269.73438Q38.10624 269.92188 38.465614 269.92188Q39.028114 269.92188 39.403114 269.5Q39.778114 269.0625 39.778114 268.25Q39.778114 267.4375 39.434364 266.8125Q39.07499 266.17188 38.44999 265.875Q37.98124 265.64062 37.04374 265.64062L36.528114 265.64062ZM39.434364 258.875L40.684364 258.67188Q40.809364 259.26562 40.809364 259.73438Q40.809364 260.5 40.57499 260.92188Q40.32499 261.34375 39.934364 261.51562Q39.528114 261.6875 38.26249 261.6875L33.496864 261.6875L33.496864 262.71875L32.403114 262.71875L32.403114 261.6875L30.340612 261.6875L29.496862 260.28125L32.403114 260.28125L32.403114 258.875L33.496864 258.875L33.496864 260.28125L38.340614 260.28125Q38.94999 260.28125 39.121864 260.21875Q39.29374 260.14062 39.403114 259.96875Q39.496864 259.79688 39.496864 259.48438Q39.496864 259.25 39.434364 258.875ZM39.66874 252.53125Q40.340614 253.3125 40.621864 254.03125Q40.88749 254.75 40.88749 255.57812Q40.88749 256.95312 40.215614 257.6875Q39.54374 258.42188 38.51249 258.42188Q37.903114 258.42188 37.403114 258.14062Q36.88749 257.85938 36.590614 257.42188Q36.278114 256.96875 36.121864 256.40625Q36.01249 255.98438 35.91874 255.15625Q35.715614 253.45312 35.434364 252.64062Q35.13749 252.64062 35.059364 252.64062Q34.19999 252.64062 33.85624 253.03125Q33.371864 253.57812 33.371864 254.64062Q33.371864 255.625 33.73124 256.10938Q34.07499 256.57812 34.94999 256.79688L34.76249 258.17188Q33.88749 257.98438 33.340614 257.5625Q32.79374 257.125 32.51249 256.3125Q32.215614 255.5 32.215614 254.4375Q32.215614 253.375 32.465614 252.71875Q32.715614 252.04688 33.090614 251.73438Q33.465614 251.42188 34.04374 251.29688Q34.403114 251.21875 35.340614 251.21875L37.215614 251.21875Q39.184364 251.21875 39.69999 251.14062Q40.215614 251.04688 40.69999 250.78125L40.69999 252.25Q40.26249 252.46875 39.66874 252.53125ZM36.528114 252.64062Q36.840614 253.40625 37.059364 254.9375Q37.184364 255.8125 37.340614 256.17188Q37.496864 256.53125 37.809364 256.73438Q38.10624 256.92188 38.465614 256.92188Q39.028114 256.92188 39.403114 256.5Q39.778114 256.0625 39.778114 255.25Q39.778114 254.4375 39.434364 253.8125Q39.07499 253.17188 38.44999 252.875Q37.98124 252.64062 37.04374 252.64062L36.528114 252.64062ZM38.215614 245.5L37.996864 244.10938Q38.840614 244.0 39.29374 243.46875Q39.73124 242.92188 39.73124 241.96875Q39.73124 241.0 39.340614 240.53125Q38.934364 240.0625 38.403114 240.0625Q37.934364 240.0625 37.653114 240.46875Q37.465614 240.76562 37.184364 241.90625Q36.79374 243.45312 36.51249 244.0625Q36.215614 244.65625 35.715614 244.96875Q35.215614 245.26562 34.60624 245.26562Q34.04374 245.26562 33.57499 245.01562Q33.10624 244.76562 32.79374 244.32812Q32.54374 244.0 32.38749 243.4375Q32.215614 242.85938 32.215614 242.21875Q32.215614 241.23438 32.496864 240.5Q32.778114 239.76562 33.26249 239.42188Q33.73124 239.0625 34.54374 238.92188L34.73124 240.29688Q34.090614 240.39062 33.73124 240.84375Q33.371864 241.29688 33.371864 242.10938Q33.371864 243.07812 33.69999 243.5Q34.01249 243.90625 34.434364 243.90625Q34.715614 243.90625 34.934364 243.73438Q35.153114 243.5625 35.309364 243.20312Q35.38749 242.98438 35.66874 241.95312Q36.059364 240.46875 36.32499 239.875Q36.57499 239.28125 37.059364 238.95312Q37.54374 238.60938 38.26249 238.60938Q38.965614 238.60938 39.590614 239.03125Q40.19999 239.4375 40.54374 240.21875Q40.88749 240.98438 40.88749 241.95312Q40.88749 243.57812 40.215614 244.42188Q39.54374 245.26562 38.215614 245.5ZM30.856237 236.9375L29.246862 236.9375L29.246862 235.53125L30.856237 235.53125L30.856237 236.9375ZM40.69999 236.9375L32.403114 236.9375L32.403114 235.53125L40.69999 235.53125L40.69999 236.9375ZM40.69999 233.6875L39.559364 233.6875L33.496864 228.40625Q33.54374 229.29688 33.54374 229.98438L33.54374 233.375L32.403114 233.375L32.403114 226.59375L33.32499 226.59375L38.590614 231.07812L39.559364 231.95312Q39.48124 231.0 39.48124 230.17188L39.48124 226.34375L40.69999 226.34375L40.69999 233.6875ZM38.028114 220.26562L38.19999 218.8125Q39.48124 219.15625 40.184364 220.09375Q40.88749 221.01562 40.88749 222.45312Q40.88749 224.28125 39.76249 225.34375Q38.63749 226.40625 36.621864 226.40625Q34.528114 226.40625 33.371864 225.32812Q32.215614 224.25 32.215614 222.53125Q32.215614 220.875 33.35624 219.82812Q34.48124 218.76562 36.528114 218.76562Q36.653114 218.76562 36.903114 218.76562L36.903114 224.95312Q38.278114 224.875 39.01249 224.1875Q39.73124 223.48438 39.73124 222.45312Q39.73124 221.67188 39.32499 221.125Q38.91874 220.57812 38.028114 220.26562ZM35.746864 224.875L35.746864 220.25Q34.69999 220.34375 34.184364 220.78125Q33.371864 221.45312 33.371864 222.51562Q33.371864 223.48438 34.028114 224.15625Q34.66874 224.8125 35.746864 224.875ZM40.903114 214.0L29.043737 210.67188L29.043737 209.54688L40.903114 212.85938L40.903114 214.0ZM36.19999 203.40625L34.85624 203.40625L34.85624 198.54688L39.10624 198.54688Q39.996864 199.67188 40.44999 200.85938Q40.903114 202.04688 40.903114 203.29688Q40.903114 204.98438 40.184364 206.35938Q39.44999 207.73438 38.090614 208.4375Q36.715614 209.14062 35.028114 209.14062Q33.35624 209.14062 31.903112 208.45312Q30.449987 207.75 29.746862 206.4375Q29.043737 205.125 29.043737 203.40625Q29.043737 202.17188 29.449987 201.17188Q29.856237 200.15625 30.574987 199.59375Q31.293737 199.01562 32.44999 198.71875L32.82499 200.09375Q31.949987 200.34375 31.449987 200.73438Q30.949987 201.10938 30.653112 201.82812Q30.340612 202.53125 30.340612 203.40625Q30.340612 204.4375 30.668737 205.20312Q30.981237 205.95312 31.496862 206.42188Q32.01249 206.89062 32.621864 207.14062Q33.684364 207.57812 34.934364 207.57812Q36.465614 207.57812 37.496864 207.0625Q38.528114 206.53125 39.028114 205.53125Q39.528114 204.51562 39.528114 203.375Q39.528114 202.39062 39.153114 201.45312Q38.76249 200.51562 38.340614 200.03125L36.19999 200.03125L36.19999 203.40625ZM40.69999 196.82812L29.246862 196.82812L29.246862 192.53125Q29.246862 191.21875 29.590612 190.42188Q29.934362 189.625 30.668737 189.1875Q31.387487 188.73438 32.16874 188.73438Q32.903114 188.73438 33.559364 189.14062Q34.19999 189.53125 34.60624 190.32812Q34.903114 189.29688 35.63749 188.73438Q36.371864 188.17188 37.371864 188.17188Q38.184364 188.17188 38.871864 188.51562Q39.559364 188.85938 39.934364 189.35938Q40.309364 189.85938 40.51249 190.60938Q40.69999 191.35938 40.69999 192.45312L40.69999 196.82812ZM34.059364 195.3125L34.059364 192.82812Q34.059364 191.82812 33.91874 191.39062Q33.746864 190.8125 33.35624 190.51562Q32.94999 190.21875 32.35624 190.21875Q31.778112 190.21875 31.356237 190.5Q30.918737 190.76562 30.762487 191.28125Q30.590612 191.78125 30.590612 193.01562L30.590612 195.3125L34.059364 195.3125ZM39.340614 195.3125L39.340614 192.45312Q39.340614 191.71875 39.29374 191.42188Q39.19999 190.90625 38.98124 190.5625Q38.76249 190.20312 38.340614 189.98438Q37.91874 189.75 37.371864 189.75Q36.73124 189.75 36.26249 190.07812Q35.79374 190.40625 35.60624 190.98438Q35.403114 191.5625 35.403114 192.65625L35.403114 195.3125L39.340614 195.3125Z" fill-rule="nonzero"/><path fill="#000000" d="M85.27812 422.3625Q85.27812 420.58124 85.6375 419.5031Q86.0125 418.40936 86.73125 417.83124Q87.45 417.2375 88.54375 417.2375Q89.35625 417.2375 89.96562 417.5656Q90.575 417.89374 90.96562 418.5031Q91.37187 419.1125 91.59062 419.9875Q91.80937 420.8625 91.80937 422.3625Q91.80937 424.1281 91.45 425.20624Q91.09062 426.28436 90.37187 426.8781Q89.65312 427.47186 88.54375 427.47186Q87.10625 427.47186 86.27812 426.425Q85.27812 425.175 85.27812 422.3625ZM86.54375 422.3625Q86.54375 424.83124 87.12187 425.64374Q87.7 426.45624 88.54375 426.45624Q89.40312 426.45624 89.98125 425.64374Q90.55937 424.8156 90.55937 422.3625Q90.55937 419.8781 89.98125 419.0656Q89.40312 418.2531 88.52812 418.2531Q87.68437 418.2531 87.18437 418.97186Q86.54375 419.89374 86.54375 422.3625Z" fill-rule="nonzero"/><path fill="#000000" d="M77.27812 346.955L78.575 346.8456Q78.71562 347.7831 79.23125 348.2675Q79.7625 348.73624 80.49687 348.73624Q81.3875 348.73624 81.99687 348.06436Q82.62187 347.3925 82.62187 346.29874Q82.62187 345.23624 82.02812 344.62686Q81.43437 344.0175 80.48125 344.0175Q79.8875 344.0175 79.40312 344.29874Q78.93437 344.56436 78.65312 344.98624L77.49687 344.8456L78.46562 339.68936L83.45 339.68936L83.45 340.87686L79.45 340.87686L78.91875 343.56436Q79.825 342.93936 80.80937 342.93936Q82.12187 342.93936 83.0125 343.8456Q83.91875 344.75186 83.91875 346.18936Q83.91875 347.54874 83.1375 348.5331Q82.16875 349.75186 80.49687 349.75186Q79.1375 349.75186 78.2625 348.98624Q77.40312 348.2206 77.27812 346.955ZM85.27812 344.6425Q85.27812 342.86124 85.6375 341.7831Q86.0125 340.68936 86.73125 340.11124Q87.45 339.5175 88.54375 339.5175Q89.35625 339.5175 89.96562 339.8456Q90.575 340.17374 90.96562 340.7831Q91.37187 341.3925 91.59062 342.2675Q91.80937 343.1425 91.80937 344.6425Q91.80937 346.4081 91.45 347.48624Q91.09062 348.56436 90.37187 349.1581Q89.65312 349.75186 88.54375 349.75186Q87.10625 349.75186 86.27812 348.705Q85.27812 347.455 85.27812 344.6425ZM86.54375 344.6425Q86.54375 347.11124 87.12187 347.92374Q87.7 348.73624 88.54375 348.73624Q89.40312 348.73624 89.98125 347.92374Q90.55937 347.0956 90.55937 344.6425Q90.55937 342.1581 89.98125 341.3456Q89.40312 340.5331 88.52812 340.5331Q87.68437 340.5331 87.18437 341.25186Q86.54375 342.17374 86.54375 344.6425Z" fill-rule="nonzero"/><path fill="#000000" d="M73.91875 271.86L72.68437 271.86L72.68437 264.01624Q72.24687 264.4381 71.5125 264.8756Q70.79375 265.2975 70.23125 265.5006L70.23125 264.3131Q71.2625 263.82874 72.02812 263.14124Q72.80937 262.45374 73.12187 261.7975L73.91875 261.7975L73.91875 271.86ZM77.27812 266.9225Q77.27812 265.14124 77.6375 264.0631Q78.0125 262.96936 78.73125 262.39124Q79.45 261.7975 80.54375 261.7975Q81.35625 261.7975 81.96562 262.1256Q82.575 262.45374 82.96562 263.0631Q83.37187 263.6725 83.59062 264.5475Q83.80937 265.4225 83.80937 266.9225Q83.80937 268.6881 83.45 269.76624Q83.09062 270.84436 82.37187 271.4381Q81.65312 272.03186 80.54375 272.03186Q79.10625 272.03186 78.27812 270.985Q77.27812 269.735 77.27812 266.9225ZM78.54375 266.9225Q78.54375 269.39124 79.12187 270.20374Q79.7 271.01624 80.54375 271.01624Q81.40312 271.01624 81.98125 270.20374Q82.55937 269.3756 82.55937 266.9225Q82.55937 264.4381 81.98125 263.6256Q81.40312 262.8131 80.52812 262.8131Q79.68437 262.8131 79.18437 263.53186Q78.54375 264.45374 78.54375 266.9225ZM85.27812 266.9225Q85.27812 265.14124 85.6375 264.0631Q86.0125 262.96936 86.73125 262.39124Q87.45 261.7975 88.54375 261.7975Q89.35625 261.7975 89.96562 262.1256Q90.575 262.45374 90.96562 263.0631Q91.37187 263.6725 91.59062 264.5475Q91.80937 265.4225 91.80937 266.9225Q91.80937 268.6881 91.45 269.76624Q91.09062 270.84436 90.37187 271.4381Q89.65312 272.03186 88.54375 272.03186Q87.10625 272.03186 86.27812 270.985Q85.27812 269.735 85.27812 266.9225ZM86.54375 266.9225Q86.54375 269.39124 87.12187 270.20374Q87.7 271.01624 88.54375 271.01624Q89.40312 271.01624 89.98125 270.20374Q90.55937 269.3756 90.55937 266.9225Q90.55937 264.4381 89.98125 263.6256Q89.40312 262.8131 88.52812 262.8131Q87.68437 262.8131 87.18437 263.53186Q86.54375 264.45374 86.54375 266.9225Z" fill-rule="nonzero"/><path fill="#000000" d="M73.91875 194.14L72.68437 194.14L72.68437 186.29625Q72.24687 186.71812 71.5125 187.15562Q70.79375 187.5775 70.23125 187.78062L70.23125 186.59312Q71.2625 186.10875 72.02812 185.42125Q72.80937 184.73375 73.12187 184.0775L73.91875 184.0775L73.91875 194.14ZM77.27812 191.515L78.575 191.40562Q78.71562 192.34312 79.23125 192.8275Q79.7625 193.29625 80.49687 193.29625Q81.3875 193.29625 81.99687 192.62437Q82.62187 191.9525 82.62187 190.85875Q82.62187 189.79625 82.02812 189.18687Q81.43437 188.5775 80.48125 188.5775Q79.8875 188.5775 79.40312 188.85875Q78.93437 189.12437 78.65312 189.54625L77.49687 189.40562L78.46562 184.24937L83.45 184.24937L83.45 185.43687L79.45 185.43687L78.91875 188.12437Q79.825 187.49937 80.80937 187.49937Q82.12187 187.49937 83.0125 188.40562Q83.91875 189.31187 83.91875 190.74937Q83.91875 192.10875 83.1375 193.09312Q82.16875 194.31187 80.49687 194.31187Q79.1375 194.31187 78.2625 193.54625Q77.40312 192.78062 77.27812 191.515ZM85.27812 189.2025Q85.27812 187.42125 85.6375 186.34312Q86.0125 185.24937 86.73125 184.67125Q87.45 184.0775 88.54375 184.0775Q89.35625 184.0775 89.96562 184.40562Q90.575 184.73375 90.96562 185.34312Q91.37187 185.9525 91.59062 186.8275Q91.80937 187.7025 91.80937 189.2025Q91.80937 190.96812 91.45 192.04625Q91.09062 193.12437 90.37187 193.71812Q89.65312 194.31187 88.54375 194.31187Q87.10625 194.31187 86.27812 193.265Q85.27812 192.015 85.27812 189.2025ZM86.54375 189.2025Q86.54375 191.67125 87.12187 192.48375Q87.7 193.29625 88.54375 193.29625Q89.40312 193.29625 89.98125 192.48375Q90.55937 191.65562 90.55937 189.2025Q90.55937 186.71812 89.98125 185.90562Q89.40312 185.09312 88.52812 185.09312Q87.68437 185.09312 87.18437 185.81187Q86.54375 186.73375 86.54375 189.2025Z" fill-rule="nonzero"/><path fill="#000000" d="M75.74687 115.2325L75.74687 116.42L69.12187 116.42Q69.10625 115.9825 69.2625 115.56062Q69.52812 114.88875 70.075 114.2325Q70.6375 113.57625 71.68437 112.71687Q73.325 111.37312 73.8875 110.59187Q74.46562 109.81062 74.46562 109.1075Q74.46562 108.37312 73.93437 107.87312Q73.41875 107.37312 72.59062 107.37312Q71.7 107.37312 71.15312 107.90437Q70.62187 108.43562 70.62187 109.38875L69.35625 109.24812Q69.48125 107.84187 70.325 107.1075Q71.18437 106.3575 72.60625 106.3575Q74.05937 106.3575 74.8875 107.15437Q75.73125 107.95125 75.73125 109.13875Q75.73125 109.74812 75.48125 110.32625Q75.24687 110.90437 74.66875 111.545Q74.10625 112.18562 72.77812 113.31062Q71.66875 114.2325 71.35625 114.57625Q71.04375 114.90437 70.84062 115.2325L75.74687 115.2325ZM77.27812 111.4825Q77.27812 109.70125 77.6375 108.62312Q78.0125 107.52937 78.73125 106.95125Q79.45 106.3575 80.54375 106.3575Q81.35625 106.3575 81.96562 106.68562Q82.575 107.01375 82.96562 107.62312Q83.37187 108.2325 83.59062 109.1075Q83.80937 109.9825 83.80937 111.4825Q83.80937 113.24812 83.45 114.32625Q83.09062 115.40437 82.37187 115.99812Q81.65312 116.59187 80.54375 116.59187Q79.10625 116.59187 78.27812 115.545Q77.27812 114.295 77.27812 111.4825ZM78.54375 111.4825Q78.54375 113.95125 79.12187 114.76375Q79.7 115.57625 80.54375 115.57625Q81.40312 115.57625 81.98125 114.76375Q82.55937 113.93562 82.55937 111.4825Q82.55937 108.99812 81.98125 108.18562Q81.40312 107.37312 80.52812 107.37312Q79.68437 107.37312 79.18437 108.09187Q78.54375 109.01375 78.54375 111.4825ZM85.27812 111.4825Q85.27812 109.70125 85.6375 108.62312Q86.0125 107.52937 86.73125 106.95125Q87.45 106.3575 88.54375 106.3575Q89.35625 106.3575 89.96562 106.68562Q90.575 107.01375 90.96562 107.62312Q91.37187 108.2325 91.59062 109.1075Q91.80937 109.9825 91.80937 111.4825Q91.80937 113.24812 91.45 114.32625Q91.09062 115.40437 90.37187 115.99812Q89.65312 116.59187 88.54375 116.59187Q87.10625 116.59187 86.27812 115.545Q85.27812 114.295 85.27812 111.4825ZM86.54375 111.4825Q86.54375 113.95125 87.12187 114.76375Q87.7 115.57625 88.54375 115.57625Q89.40312 115.57625 89.98125 114.76375Q90.55937 113.93562 90.55937 111.4825Q90.55937 108.99812 89.98125 108.18562Q89.40312 107.37312 88.52812 107.37312Q87.68437 107.37312 87.18437 108.09187Q86.54375 109.01375 86.54375 111.4825Z" fill-rule="nonzero"/><path fill="#000000" d="M75.74687 37.5125L75.74687 38.7L69.12187 38.7Q69.10625 38.2625 69.2625 37.840626Q69.52812 37.16875 70.075 36.5125Q70.6375 35.85625 71.68437 34.996876Q73.325 33.653126 73.8875 32.871876Q74.46562 32.090626 74.46562 31.3875Q74.46562 30.653126 73.93437 30.153126Q73.41875 29.653126 72.59062 29.653126Q71.7 29.653126 71.15312 30.184376Q70.62187 30.715626 70.62187 31.66875L69.35625 31.528126Q69.48125 30.121876 70.325 29.3875Q71.18437 28.6375 72.60625 28.6375Q74.05937 28.6375 74.8875 29.434376Q75.73125 30.23125 75.73125 31.41875Q75.73125 32.028126 75.48125 32.60625Q75.24687 33.184376 74.66875 33.825Q74.10625 34.465626 72.77812 35.590626Q71.66875 36.5125 71.35625 36.85625Q71.04375 37.184376 70.84062 37.5125L75.74687 37.5125ZM77.27812 36.075L78.575 35.965626Q78.71562 36.903126 79.23125 37.3875Q79.7625 37.85625 80.49687 37.85625Q81.3875 37.85625 81.99687 37.184376Q82.62187 36.5125 82.62187 35.41875Q82.62187 34.35625 82.02812 33.746876Q81.43437 33.1375 80.48125 33.1375Q79.8875 33.1375 79.40312 33.41875Q78.93437 33.684376 78.65312 34.10625L77.49687 33.965626L78.46562 28.809376L83.45 28.809376L83.45 29.996876L79.45 29.996876L78.91875 32.684376Q79.825 32.059376 80.80937 32.059376Q82.12187 32.059376 83.0125 32.965626Q83.91875 33.871876 83.91875 35.309376Q83.91875 36.66875 83.1375 37.653126Q82.16875 38.871876 80.49687 38.871876Q79.1375 38.871876 78.2625 38.10625Q77.40312 37.340626 77.27812 36.075ZM85.27812 33.7625Q85.27812 31.98125 85.6375 30.903126Q86.0125 29.809376 86.73125 29.23125Q87.45 28.6375 88.54375 28.6375Q89.35625 28.6375 89.96562 28.965626Q90.575 29.29375 90.96562 29.903126Q91.37187 30.5125 91.59062 31.3875Q91.80937 32.2625 91.80937 33.7625Q91.80937 35.528126 91.45 36.60625Q91.09062 37.684376 90.37187 38.278126Q89.65312 38.871876 88.54375 38.871876Q87.10625 38.871876 86.27812 37.825Q85.27812 36.575 85.27812 33.7625ZM86.54375 33.7625Q86.54375 36.23125 87.12187 37.04375Q87.7 37.85625 88.54375 37.85625Q89.40312 37.85625 89.98125 37.04375Q90.55937 36.215626 90.55937 33.7625Q90.55937 31.278126 89.98125 30.465626Q89.40312 29.653126 88.52812 29.653126Q87.68437 29.653126 87.18437 30.371876Q86.54375 31.29375 86.54375 33.7625Z" fill-rule="nonzero"/><path fill="#000000" d="M105.89259 437.3625Q105.89259 435.58124 106.25197 434.5031Q106.62697 433.40936 107.34572 432.83124Q108.06447 432.2375 109.15822 432.2375Q109.97072 432.2375 110.58009 432.5656Q111.18947 432.89374 111.58009 433.5031Q111.98634 434.1125 112.20509 434.9875Q112.42384 435.8625 112.42384 437.3625Q112.42384 439.1281 112.06447 440.20624Q111.70509 441.28436 110.98634 441.8781Q110.26759 442.47186 109.15822 442.47186Q107.72072 442.47186 106.89259 441.425Q105.89259 440.175 105.89259 437.3625ZM107.15822 437.3625Q107.15822 439.83124 107.73634 440.64374Q108.31447 441.45624 109.15822 441.45624Q110.01759 441.45624 110.59572 440.64374Q111.17384 439.8156 111.17384 437.3625Q111.17384 434.8781 110.59572 434.0656Q110.01759 433.2531 109.14259 433.2531Q108.29884 433.2531 107.79884 433.97186Q107.15822 434.89374 107.15822 437.3625Z" fill-rule="nonzero"/><path fill="#000000" d="M345.6581 439.675L346.955 439.5656Q347.0956 440.5031 347.61124 440.9875Q348.1425 441.45624 348.87686 441.45624Q349.7675 441.45624 350.37686 440.78436Q351.00186 440.1125 351.00186 439.01874Q351.00186 437.95624 350.4081 437.34686Q349.81436 436.7375 348.86124 436.7375Q348.2675 436.7375 347.7831 437.01874Q347.31436 437.28436 347.0331 437.70624L345.87686 437.5656L346.8456 432.40936L351.83 432.40936L351.83 433.59686L347.83 433.59686L347.29874 436.28436Q348.205 435.65936 349.18936 435.65936Q350.50186 435.65936 351.3925 436.5656Q352.29874 437.47186 352.29874 438.90936Q352.29874 440.26874 351.5175 441.2531Q350.54874 442.47186 348.87686 442.47186Q347.5175 442.47186 346.6425 441.70624Q345.7831 440.9406 345.6581 439.675Z" fill-rule="nonzero"/><path fill="#000000" d="M586.0643 442.3L584.8299 442.3L584.8299 434.45624Q584.3924 434.8781 583.658 435.3156Q582.9393 435.7375 582.3768 435.9406L582.3768 434.7531Q583.408 434.26874 584.17365 433.58124Q584.9549 432.89374 585.2674 432.2375L586.0643 432.2375L586.0643 442.3ZM589.42365 437.3625Q589.42365 435.58124 589.783 434.5031Q590.158 433.40936 590.8768 432.83124Q591.5955 432.2375 592.6893 432.2375Q593.5018 432.2375 594.11115 432.5656Q594.7205 432.89374 595.11115 433.5031Q595.5174 434.1125 595.73615 434.9875Q595.9549 435.8625 595.9549 437.3625Q595.9549 439.1281 595.5955 440.20624Q595.23615 441.28436 594.5174 441.8781Q593.79865 442.47186 592.6893 442.47186Q591.2518 442.47186 590.42365 441.425Q589.42365 440.175 589.42365 437.3625ZM590.6893 437.3625Q590.6893 439.83124 591.2674 440.64374Q591.8455 441.45624 592.6893 441.45624Q593.54865 441.45624 594.1268 440.64374Q594.7049 439.8156 594.7049 437.3625Q594.7049 434.8781 594.1268 434.0656Q593.54865 433.2531 592.67365 433.2531Q591.8299 433.2531 591.3299 433.97186Q590.6893 434.89374 590.6893 437.3625Z" fill-rule="nonzero"/><path fill="#4285f4" d="M635.3 29.2L640.49615 38.2L630.1038 38.2Z" fill-rule="nonzero"/><path fill="#1a1a1a" d="M650.3625 43.8875L650.3625 32.403126L651.64374 32.403126L651.64374 33.48125Q652.09686 32.840626 652.65936 32.528126Q653.2375 32.215626 654.05 32.215626Q655.1125 32.215626 655.925 32.7625Q656.7375 33.309376 657.14374 34.309376Q657.5656 35.29375 657.5656 36.48125Q657.5656 37.7625 657.09686 38.778126Q656.64374 39.79375 655.76874 40.340626Q654.90936 40.8875 653.9406 40.8875Q653.2375 40.8875 652.675 40.590626Q652.1281 40.29375 651.76874 39.840626L651.76874 43.8875L650.3625 43.8875ZM651.6281 36.590626Q651.6281 38.2 652.26874 38.965626Q652.925 39.73125 653.84686 39.73125Q654.78436 39.73125 655.45624 38.934376Q656.1281 38.1375 656.1281 36.48125Q656.1281 34.8875 655.47186 34.10625Q654.8156 33.309376 653.90936 33.309376Q653.01874 33.309376 652.3156 34.153126Q651.6281 34.996876 651.6281 36.590626ZM665.03436 38.028126L666.4875 38.2Q666.14374 39.48125 665.20624 40.184376Q664.28436 40.8875 662.84686 40.8875Q661.01874 40.8875 659.95624 39.7625Q658.89374 38.6375 658.89374 36.621876Q658.89374 34.528126 659.97186 33.371876Q661.05 32.215626 662.76874 32.215626Q664.425 32.215626 665.47186 33.35625Q666.53436 34.48125 666.53436 36.528126Q666.53436 36.653126 666.53436 36.903126L660.34686 36.903126Q660.425 38.278126 661.1125 39.0125Q661.8156 39.73125 662.84686 39.73125Q663.6281 39.73125 664.175 39.325Q664.72186 38.91875 665.03436 38.028126ZM660.425 35.746876L665.05 35.746876Q664.95624 34.7 664.51874 34.184376Q663.84686 33.371876 662.78436 33.371876Q661.8156 33.371876 661.14374 34.028126Q660.4875 34.66875 660.425 35.746876ZM673.76874 39.66875Q672.9875 40.340626 672.26874 40.621876Q671.55 40.8875 670.72186 40.8875Q669.34686 40.8875 668.6125 40.215626Q667.8781 39.54375 667.8781 38.5125Q667.8781 37.903126 668.15936 37.403126Q668.4406 36.8875 668.8781 36.590626Q669.33124 36.278126 669.89374 36.121876Q670.3156 36.0125 671.14374 35.91875Q672.84686 35.715626 673.65936 35.434376Q673.65936 35.1375 673.65936 35.059376Q673.65936 34.2 673.26874 33.85625Q672.72186 33.371876 671.65936 33.371876Q670.675 33.371876 670.1906 33.73125Q669.72186 34.075 669.5031 34.95L668.1281 34.7625Q668.3156 33.8875 668.7375 33.340626Q669.175 32.79375 669.9875 32.5125Q670.8 32.215626 671.8625 32.215626Q672.925 32.215626 673.58124 32.465626Q674.2531 32.715626 674.5656 33.090626Q674.8781 33.465626 675.0031 34.04375Q675.08124 34.403126 675.08124 35.340626L675.08124 37.215626Q675.08124 39.184376 675.15936 39.7Q675.2531 40.215626 675.51874 40.7L674.05 40.7Q673.83124 40.2625 673.76874 39.66875ZM673.65936 36.528126Q672.89374 36.840626 671.3625 37.059376Q670.4875 37.184376 670.1281 37.340626Q669.76874 37.496876 669.5656 37.809376Q669.3781 38.10625 669.3781 38.465626Q669.3781 39.028126 669.8 39.403126Q670.2375 39.778126 671.05 39.778126Q671.8625 39.778126 672.4875 39.434376Q673.1281 39.075 673.425 38.45Q673.65936 37.98125 673.65936 37.04375L673.65936 36.528126ZM677.3625 40.7L677.3625 29.246876L678.76874 29.246876L678.76874 35.778126L682.09686 32.403126L683.925 32.403126L680.7531 35.48125L684.2375 40.7L682.5031 40.7L679.76874 36.45L678.76874 37.403126L678.76874 40.7L677.3625 40.7ZM689.3625 40.7L689.3625 32.403126L690.6125 32.403126L690.6125 33.559376Q691.0031 32.95 691.64374 32.590626Q692.3 32.215626 693.1281 32.215626Q694.05 32.215626 694.64374 32.60625Q695.2375 32.98125 695.47186 33.66875Q696.45624 32.215626 698.03436 32.215626Q699.26874 32.215626 699.925 32.903126Q700.59686 33.575 700.59686 34.996876L700.59686 40.7L699.20624 40.7L699.20624 35.465626Q699.20624 34.621876 699.0656 34.2625Q698.925 33.8875 698.5656 33.66875Q698.20624 33.434376 697.72186 33.434376Q696.84686 33.434376 696.26874 34.0125Q695.6906 34.590626 695.6906 35.871876L695.6906 40.7L694.28436 40.7L694.28436 35.309376Q694.28436 34.371876 693.9406 33.903126Q693.59686 33.434376 692.8156 33.434376Q692.22186 33.434376 691.72186 33.746876Q691.22186 34.059376 690.9875 34.66875Q690.76874 35.2625 690.76874 36.3875L690.76874 40.7L689.3625 40.7ZM708.03436 38.028126L709.4875 38.2Q709.14374 39.48125 708.20624 40.184376Q707.28436 40.8875 705.84686 40.8875Q704.01874 40.8875 702.95624 39.7625Q701.89374 38.6375 701.89374 36.621876Q701.89374 34.528126 702.97186 33.371876Q704.05 32.215626 705.76874 32.215626Q707.425 32.215626 708.47186 33.35625Q709.53436 34.48125 709.53436 36.528126Q709.53436 36.653126 709.53436 36.903126L703.34686 36.903126Q703.425 38.278126 704.1125 39.0125Q704.8156 39.73125 705.84686 39.73125Q706.6281 39.73125 707.175 39.325Q707.72186 38.91875 708.03436 38.028126ZM703.425 35.746876L708.05 35.746876Q707.95624 34.7 707.51874 34.184376Q706.84686 33.371876 705.78436 33.371876Q704.8156 33.371876 704.14374 34.028126Q703.4875 34.66875 703.425 35.746876ZM711.3625 40.7L711.3625 32.403126L712.6125 32.403126L712.6125 33.559376Q713.0031 32.95 713.64374 32.590626Q714.3 32.215626 715.1281 32.215626Q716.05 32.215626 716.64374 32.60625Q717.2375 32.98125 717.47186 33.66875Q718.45624 32.215626 720.03436 32.215626Q721.26874 32.215626 721.925 32.903126Q722.59686 33.575 722.59686 34.996876L722.59686 40.7L721.20624 40.7L721.20624 35.465626Q721.20624 34.621876 721.0656 34.2625Q720.925 33.8875 720.5656 33.66875Q720.20624 33.434376 719.72186 33.434376Q718.84686 33.434376 718.26874 34.0125Q717.6906 34.590626 717.6906 35.871876L717.6906 40.7L716.28436 40.7L716.28436 35.309376Q716.28436 34.371876 715.9406 33.903126Q715.59686 33.434376 714.8156 33.434376Q714.22186 33.434376 713.72186 33.746876Q713.22186 34.059376 712.9875 34.66875Q712.76874 35.2625 712.76874 36.3875L712.76874 40.7L711.3625 40.7ZM723.83124 36.54375Q723.83124 34.246876 725.1125 33.1375Q726.1906 32.215626 727.72186 32.215626Q729.4406 32.215626 730.51874 33.340626Q731.6125 34.45 731.6125 36.434376Q731.6125 38.028126 731.1281 38.95Q730.64374 39.871876 729.72186 40.3875Q728.8156 40.8875 727.72186 40.8875Q725.9875 40.8875 724.90936 39.778126Q723.83124 38.653126 723.83124 36.54375ZM725.28436 36.54375Q725.28436 38.1375 725.97186 38.934376Q726.675 39.73125 727.72186 39.73125Q728.76874 39.73125 729.45624 38.934376Q730.15936 38.1375 730.15936 36.496876Q730.15936 34.965626 729.45624 34.16875Q728.76874 33.371876 727.72186 33.371876Q726.675 33.371876 725.97186 34.16875Q725.28436 34.95 725.28436 36.54375ZM733.34686 40.7L733.34686 32.403126L734.6125 32.403126L734.6125 33.653126Q735.09686 32.778126 735.5031 32.496876Q735.90936 32.215626 736.40936 32.215626Q737.1125 32.215626 737.84686 32.66875L737.3625 33.965626Q736.84686 33.66875 736.33124 33.66875Q735.8781 33.66875 735.5031 33.95Q735.14374 34.215626 734.9875 34.715626Q734.7531 35.465626 734.7531 36.35625L734.7531 40.7L733.34686 40.7ZM738.3 43.903126L738.14374 42.575Q738.59686 42.7 738.9406 42.7Q739.40936 42.7 739.6906 42.54375Q739.97186 42.3875 740.15936 42.10625Q740.28436 41.903126 740.58124 41.059376Q740.6281 40.95 740.70624 40.715626L737.5656 32.403126L739.08124 32.403126L740.8 37.2Q741.14374 38.121876 741.40936 39.121876Q741.64374 38.153126 741.9875 37.23125L743.7531 32.403126L745.15936 32.403126L742.0031 40.840626Q741.5031 42.215626 741.22186 42.73125Q740.84686 43.41875 740.3625 43.746876Q739.8781 44.075 739.20624 44.075Q738.8 44.075 738.3 43.903126ZM754.8 40.7L754.8 39.48125Q753.83124 40.8875 752.15936 40.8875Q751.425 40.8875 750.78436 40.60625Q750.15936 40.325 749.84686 39.903126Q749.53436 39.465626 749.40936 38.85625Q749.33124 38.434376 749.33124 37.54375L749.33124 32.403126L750.7375 32.403126L750.7375 36.996876Q750.7375 38.10625 750.8156 38.48125Q750.95624 39.04375 751.3781 39.35625Q751.8156 39.66875 752.4406 39.66875Q753.08124 39.66875 753.6281 39.35625Q754.1906 39.028126 754.40936 38.465626Q754.64374 37.903126 754.64374 36.840626L754.64374 32.403126L756.05 32.403126L756.05 40.7L754.8 40.7ZM756.8 38.215626L758.1906 37.996876Q758.3 38.840626 758.83124 39.29375Q759.3781 39.73125 760.33124 39.73125Q761.3 39.73125 761.76874 39.340626Q762.2375 38.934376 762.2375 38.403126Q762.2375 37.934376 761.83124 37.653126Q761.53436 37.465626 760.39374 37.184376Q758.84686 36.79375 758.2375 36.5125Q757.64374 36.215626 757.33124 35.715626Q757.03436 35.215626 757.03436 34.60625Q757.03436 34.04375 757.28436 33.575Q757.53436 33.10625 757.97186 32.79375Q758.3 32.54375 758.8625 32.3875Q759.4406 32.215626 760.08124 32.215626Q761.0656 32.215626 761.8 32.496876Q762.53436 32.778126 762.8781 33.2625Q763.2375 33.73125 763.3781 34.54375L762.0031 34.73125Q761.90936 34.090626 761.45624 33.73125Q761.0031 33.371876 760.1906 33.371876Q759.22186 33.371876 758.8 33.7Q758.39374 34.0125 758.39374 34.434376Q758.39374 34.715626 758.5656 34.934376Q758.7375 35.153126 759.09686 35.309376Q759.3156 35.3875 760.34686 35.66875Q761.83124 36.059376 762.425 36.325Q763.01874 36.575 763.34686 37.059376Q763.6906 37.54375 763.6906 38.2625Q763.6906 38.965626 763.26874 39.590626Q762.8625 40.2 762.08124 40.54375Q761.3156 40.8875 760.34686 40.8875Q758.72186 40.8875 757.8781 40.215626Q757.03436 39.54375 756.8 38.215626ZM770.76874 39.66875Q769.9875 40.340626 769.26874 40.621876Q768.55 40.8875 767.72186 40.8875Q766.34686 40.8875 765.6125 40.215626Q764.8781 39.54375 764.8781 38.5125Q764.8781 37.903126 765.15936 37.403126Q765.4406 36.8875 765.8781 36.590626Q766.33124 36.278126 766.89374 36.121876Q767.3156 36.0125 768.14374 35.91875Q769.84686 35.715626 770.65936 35.434376Q770.65936 35.1375 770.65936 35.059376Q770.65936 34.2 770.26874 33.85625Q769.72186 33.371876 768.65936 33.371876Q767.675 33.371876 767.1906 33.73125Q766.72186 34.075 766.5031 34.95L765.1281 34.7625Q765.3156 33.8875 765.7375 33.340626Q766.175 32.79375 766.9875 32.5125Q767.8 32.215626 768.8625 32.215626Q769.925 32.215626 770.58124 32.465626Q771.2531 32.715626 771.5656 33.090626Q771.8781 33.465626 772.0031 34.04375Q772.08124 34.403126 772.08124 35.340626L772.08124 37.215626Q772.08124 39.184376 772.15936 39.7Q772.2531 40.215626 772.51874 40.7L771.05 40.7Q770.83124 40.2625 770.76874 39.66875ZM770.65936 36.528126Q769.89374 36.840626 768.3625 37.059376Q767.4875 37.184376 767.1281 37.340626Q766.76874 37.496876 766.5656 37.809376Q766.3781 38.10625 766.3781 38.465626Q766.3781 39.028126 766.8 39.403126Q767.2375 39.778126 768.05 39.778126Q768.8625 39.778126 769.4875 39.434376Q770.1281 39.075 770.425 38.45Q770.65936 37.98125 770.65936 37.04375L770.65936 36.528126ZM774.09686 41.3875L775.47186 41.590626Q775.55 42.23125 775.9406 42.5125Q776.47186 42.903126 777.3781 42.903126Q778.34686 42.903126 778.8781 42.5125Q779.40936 42.121876 779.59686 41.41875Q779.70624 40.996876 779.70624 39.60625Q778.78436 40.7 777.40936 40.7Q775.6906 40.7 774.7531 39.465626Q773.8156 38.23125 773.8156 36.496876Q773.8156 35.309376 774.2375 34.309376Q774.675 33.309376 775.4875 32.7625Q776.3156 32.215626 777.40936 32.215626Q778.8781 32.215626 779.83124 33.403126L779.83124 32.403126L781.1281 32.403126L781.1281 39.575Q781.1281 41.5125 780.7375 42.325Q780.34686 43.1375 779.4875 43.60625Q778.6281 44.075 777.3781 44.075Q775.89374 44.075 774.97186 43.403126Q774.0656 42.73125 774.09686 41.3875ZM775.26874 36.403126Q775.26874 38.028126 775.90936 38.778126Q776.5656 39.528126 777.53436 39.528126Q778.5031 39.528126 779.15936 38.79375Q779.8156 38.04375 779.8156 36.45Q779.8156 34.91875 779.14374 34.153126Q778.47186 33.371876 777.51874 33.371876Q776.58124 33.371876 775.925 34.1375Q775.26874 34.903126 775.26874 36.403126ZM789.03436 38.028126L790.4875 38.2Q790.14374 39.48125 789.20624 40.184376Q788.28436 40.8875 786.84686 40.8875Q785.01874 40.8875 783.95624 39.7625Q782.89374 38.6375 782.89374 36.621876Q782.89374 34.528126 783.97186 33.371876Q785.05 32.215626 786.76874 32.215626Q788.425 32.215626 789.47186 33.35625Q790.53436 34.48125 790.53436 36.528126Q790.53436 36.653126 790.53436 36.903126L784.34686 36.903126Q784.425 38.278126 785.1125 39.0125Q785.8156 39.73125 786.84686 39.73125Q787.6281 39.73125 788.175 39.325Q788.72186 38.91875 789.03436 38.028126ZM784.425 35.746876L789.05 35.746876Q788.95624 34.7 788.51874 34.184376Q787.84686 33.371876 786.78436 33.371876Q785.8156 33.371876 785.14374 34.028126Q784.4875 34.66875 784.425 35.746876Z" fill-rule="nonzero"/><path fill="#ea4335" d="M635.3 58.2L636.6471 62.345898L641.00635 62.345898L637.4796 64.9082L638.8267 69.0541L635.3 66.4918L631.7733 69.0541L633.12036 64.9082L629.5937 62.345898L633.95294 62.345898Z" fill-rule="nonzero"/><path fill="#1a1a1a" d="M649.83124 65.54375Q649.83124 63.246872 651.1125 62.137497Q652.1906 61.215622 653.72186 61.215622Q655.4406 61.215622 656.51874 62.340622Q657.6125 63.449997 657.6125 65.43437Q657.6125 67.02812 657.1281 67.95Q656.64374 68.87187 655.72186 69.3875Q654.8156 69.8875 653.72186 69.8875Q651.9875 69.8875 650.90936 68.77812Q649.83124 67.65312 649.83124 65.54375ZM651.28436 65.54375Q651.28436 67.1375 651.97186 67.93437Q652.675 68.73125 653.72186 68.73125Q654.76874 68.73125 655.45624 67.93437Q656.15936 67.1375 656.15936 65.49687Q656.15936 63.965622 655.45624 63.168747Q654.76874 62.371872 653.72186 62.371872Q652.675 62.371872 651.97186 63.168747Q651.28436 63.949997 651.28436 65.54375ZM660.65936 69.7L659.34686 69.7L659.34686 58.246872L660.7531 58.246872L660.7531 62.324997Q661.64374 61.215622 663.03436 61.215622Q663.8 61.215622 664.47186 61.528122Q665.15936 61.824997 665.59686 62.387497Q666.05 62.949997 666.3 63.746872Q666.55 64.52812 666.55 65.41875Q666.55 67.55937 665.4875 68.73125Q664.4406 69.8875 662.95624 69.8875Q661.4875 69.8875 660.65936 68.65312L660.65936 69.7ZM660.64374 65.48125Q660.64374 66.98125 661.05 67.6375Q661.70624 68.73125 662.84686 68.73125Q663.76874 68.73125 664.4406 67.93437Q665.1125 67.12187 665.1125 65.54375Q665.1125 63.918747 664.45624 63.153122Q663.8156 62.371872 662.90936 62.371872Q661.9875 62.371872 661.3156 63.168747Q660.64374 63.965622 660.64374 65.48125ZM668.6906 69.7L668.6906 62.496872L667.45624 62.496872L667.45624 61.403122L668.6906 61.403122L668.6906 60.512497Q668.6906 59.684372 668.84686 59.278122Q669.05 58.731247 669.55 58.387497Q670.0656 58.043747 670.9875 58.043747Q671.58124 58.043747 672.3 58.184372L672.09686 59.418747Q671.65936 59.340622 671.26874 59.340622Q670.6281 59.340622 670.3625 59.621872Q670.09686 59.887497 670.09686 60.637497L670.09686 61.403122L671.70624 61.403122L671.70624 62.496872L670.09686 62.496872L670.09686 69.7L668.6906 69.7ZM677.8 69.7L677.8 68.48125Q676.83124 69.8875 675.15936 69.8875Q674.425 69.8875 673.78436 69.60625Q673.15936 69.325 672.84686 68.90312Q672.53436 68.46562 672.40936 67.85625Q672.33124 67.43437 672.33124 66.54375L672.33124 61.403122L673.7375 61.403122L673.7375 65.99687Q673.7375 67.10625 673.8156 67.48125Q673.95624 68.04375 674.3781 68.35625Q674.8156 68.66875 675.4406 68.66875Q676.08124 68.66875 676.6281 68.35625Q677.1906 68.02812 677.40936 67.46562Q677.64374 66.90312 677.64374 65.84062L677.64374 61.403122L679.05 61.403122L679.05 69.7L677.8 69.7ZM679.8 67.21562L681.1906 66.99687Q681.3 67.84062 681.83124 68.29375Q682.3781 68.73125 683.33124 68.73125Q684.3 68.73125 684.76874 68.34062Q685.2375 67.93437 685.2375 67.40312Q685.2375 66.93437 684.83124 66.65312Q684.53436 66.46562 683.39374 66.18437Q681.84686 65.79375 681.2375 65.5125Q680.64374 65.21562 680.33124 64.71562Q680.03436 64.21562 680.03436 63.606247Q680.03436 63.043747 680.28436 62.574997Q680.53436 62.106247 680.97186 61.793747Q681.3 61.543747 681.8625 61.387497Q682.4406 61.215622 683.08124 61.215622Q684.0656 61.215622 684.8 61.496872Q685.53436 61.778122 685.8781 62.262497Q686.2375 62.731247 686.3781 63.543747L685.0031 63.731247Q684.90936 63.090622 684.45624 62.731247Q684.0031 62.371872 683.1906 62.371872Q682.22186 62.371872 681.8 62.699997Q681.39374 63.012497 681.39374 63.434372Q681.39374 63.715622 681.5656 63.934372Q681.7375 64.15312 682.09686 64.30937Q682.3156 64.3875 683.34686 64.66875Q684.83124 65.05937 685.425 65.325Q686.01874 65.575 686.34686 66.05937Q686.6906 66.54375 686.6906 67.2625Q686.6906 67.96562 686.26874 68.59062Q685.8625 69.2 685.08124 69.54375Q684.3156 69.8875 683.34686 69.8875Q681.72186 69.8875 680.8781 69.21562Q680.03436 68.54375 679.8 67.21562ZM693.76874 66.65312L695.15936 66.84062Q694.925 68.2625 693.9875 69.075Q693.0656 69.8875 691.70624 69.8875Q690.0031 69.8875 688.95624 68.77812Q687.925 67.65312 687.925 65.575Q687.925 64.23125 688.3625 63.231247Q688.8156 62.215622 689.72186 61.715622Q690.64374 61.215622 691.70624 61.215622Q693.0656 61.215622 693.925 61.903122Q694.78436 62.574997 695.01874 63.840622L693.65936 64.04375Q693.45624 63.215622 692.95624 62.793747Q692.47186 62.371872 691.76874 62.371872Q690.70624 62.371872 690.03436 63.137497Q689.3781 63.887497 689.3781 65.54375Q689.3781 67.21562 690.01874 67.98125Q690.65936 68.73125 691.6906 68.73125Q692.51874 68.73125 693.0656 68.23125Q693.6281 67.71562 693.76874 66.65312ZM701.76874 68.66875Q700.9875 69.34062 700.26874 69.62187Q699.55 69.8875 698.72186 69.8875Q697.34686 69.8875 696.6125 69.21562Q695.8781 68.54375 695.8781 67.5125Q695.8781 66.90312 696.15936 66.40312Q696.4406 65.8875 696.8781 65.59062Q697.33124 65.27812 697.89374 65.12187Q698.3156 65.0125 699.14374 64.91875Q700.84686 64.71562 701.65936 64.43437Q701.65936 64.1375 701.65936 64.05937Q701.65936 63.199997 701.26874 62.856247Q700.72186 62.371872 699.65936 62.371872Q698.675 62.371872 698.1906 62.731247Q697.72186 63.074997 697.5031 63.949997L696.1281 63.762497Q696.3156 62.887497 696.7375 62.340622Q697.175 61.793747 697.9875 61.512497Q698.8 61.215622 699.8625 61.215622Q700.925 61.215622 701.58124 61.465622Q702.2531 61.715622 702.5656 62.090622Q702.8781 62.465622 703.0031 63.043747Q703.08124 63.403122 703.08124 64.34062L703.08124 66.21562Q703.08124 68.18437 703.15936 68.7Q703.2531 69.21562 703.51874 69.7L702.05 69.7Q701.83124 69.2625 701.76874 68.66875ZM701.65936 65.52812Q700.89374 65.84062 699.3625 66.05937Q698.4875 66.18437 698.1281 66.34062Q697.76874 66.49687 697.5656 66.80937Q697.3781 67.10625 697.3781 67.46562Q697.3781 68.02812 697.8 68.40312Q698.2375 68.77812 699.05 68.77812Q699.8625 68.77812 700.4875 68.43437Q701.1281 68.075 701.425 67.45Q701.65936 66.98125 701.65936 66.04375L701.65936 65.52812ZM708.425 68.43437L708.6281 69.68437Q708.03436 69.80937 707.5656 69.80937Q706.8 69.80937 706.3781 69.575Q705.95624 69.325 705.78436 68.93437Q705.6125 68.52812 705.6125 67.2625L705.6125 62.496872L704.58124 62.496872L704.58124 61.403122L705.6125 61.403122L705.6125 59.340622L707.01874 58.496872L707.01874 61.403122L708.425 61.403122L708.425 62.496872L707.01874 62.496872L707.01874 67.34062Q707.01874 67.95 707.08124 68.12187Q707.15936 68.29375 707.33124 68.40312Q707.5031 68.49687 707.8156 68.49687Q708.05 68.49687 708.425 68.43437ZM715.03436 67.02812L716.4875 67.2Q716.14374 68.48125 715.20624 69.18437Q714.28436 69.8875 712.84686 69.8875Q711.01874 69.8875 709.95624 68.7625Q708.89374 67.6375 708.89374 65.62187Q708.89374 63.528122 709.97186 62.371872Q711.05 61.215622 712.76874 61.215622Q714.425 61.215622 715.47186 62.356247Q716.53436 63.481247 716.53436 65.52812Q716.53436 65.65312 716.53436 65.90312L710.34686 65.90312Q710.425 67.27812 711.1125 68.0125Q711.8156 68.73125 712.84686 68.73125Q713.6281 68.73125 714.175 68.325Q714.72186 67.91875 715.03436 67.02812ZM710.425 64.74687L715.05 64.74687Q714.95624 63.699997 714.51874 63.184372Q713.84686 62.371872 712.78436 62.371872Q711.8156 62.371872 711.14374 63.028122Q710.4875 63.668747 710.425 64.74687ZM723.7375 69.7L723.7375 68.65312Q722.95624 69.8875 721.425 69.8875Q720.425 69.8875 719.59686 69.34062Q718.76874 68.79375 718.3 67.80937Q717.84686 66.825 717.84686 65.55937Q717.84686 64.30937 718.2531 63.309372Q718.675 62.293747 719.5031 61.762497Q720.33124 61.215622 721.3625 61.215622Q722.1125 61.215622 722.6906 61.528122Q723.28436 61.840622 723.64374 62.356247L723.64374 58.246872L725.05 58.246872L725.05 69.7L723.7375 69.7ZM719.3 65.55937Q719.3 67.15312 719.97186 67.95Q720.64374 68.73125 721.55 68.73125Q722.47186 68.73125 723.1125 67.98125Q723.76874 67.21562 723.76874 65.66875Q723.76874 63.965622 723.1125 63.168747Q722.45624 62.371872 721.4875 62.371872Q720.55 62.371872 719.925 63.137497Q719.3 63.903122 719.3 65.55937ZM736.76874 66.65312L738.15936 66.84062Q737.925 68.2625 736.9875 69.075Q736.0656 69.8875 734.70624 69.8875Q733.0031 69.8875 731.95624 68.77812Q730.925 67.65312 730.925 65.575Q730.925 64.23125 731.3625 63.231247Q731.8156 62.215622 732.72186 61.715622Q733.64374 61.215622 734.70624 61.215622Q736.0656 61.215622 736.925 61.903122Q737.78436 62.574997 738.01874 63.840622L736.65936 64.04375Q736.45624 63.215622 735.95624 62.793747Q735.47186 62.371872 734.76874 62.371872Q733.70624 62.371872 733.03436 63.137497Q732.3781 63.887497 732.3781 65.54375Q732.3781 67.21562 733.01874 67.98125Q733.65936 68.73125 734.6906 68.73125Q735.51874 68.73125 736.0656 68.23125Q736.6281 67.71562 736.76874 66.65312ZM739.3625 59.856247L739.3625 58.246872L740.76874 58.246872L740.76874 59.856247L739.3625 59.856247ZM739.3625 69.7L739.3625 61.403122L740.76874 61.403122L740.76874 69.7L739.3625 69.7ZM743.34686 69.7L743.34686 61.403122L744.6125 61.403122L744.6125 62.653122Q745.09686 61.778122 745.5031 61.496872Q745.90936 61.215622 746.40936 61.215622Q747.1125 61.215622 747.84686 61.668747L747.3625 62.965622Q746.84686 62.668747 746.33124 62.668747Q745.8781 62.668747 745.5031 62.949997Q745.14374 63.215622 744.9875 63.715622Q744.7531 64.46562 744.7531 65.35625L744.7531 69.7L743.34686 69.7ZM753.76874 66.65312L755.15936 66.84062Q754.925 68.2625 753.9875 69.075Q753.0656 69.8875 751.70624 69.8875Q750.0031 69.8875 748.95624 68.77812Q747.925 67.65312 747.925 65.575Q747.925 64.23125 748.3625 63.231247Q748.8156 62.215622 749.72186 61.715622Q750.64374 61.215622 751.70624 61.215622Q753.0656 61.215622 753.925 61.903122Q754.78436 62.574997 755.01874 63.840622L753.65936 64.04375Q753.45624 63.215622 752.95624 62.793747Q752.47186 62.371872 751.76874 62.371872Q750.70624 62.371872 750.03436 63.137497Q749.3781 63.887497 749.3781 65.54375Q749.3781 67.21562 750.01874 67.98125Q750.65936 68.73125 751.6906 68.73125Q752.51874 68.73125 753.0656 68.23125Q753.6281 67.71562 753.76874 66.65312ZM761.8 69.7L761.8 68.48125Q760.83124 69.8875 759.15936 69.8875Q758.425 69.8875 757.78436 69.60625Q757.15936 69.325 756.84686 68.90312Q756.53436 68.46562 756.40936 67.85625Q756.33124 67.43437 756.33124 66.54375L756.33124 61.403122L757.7375 61.403122L757.7375 65.99687Q757.7375 67.10625 757.8156 67.48125Q757.95624 68.04375 758.3781 68.35625Q758.8156 68.66875 759.4406 68.66875Q760.08124 68.66875 760.6281 68.35625Q761.1906 68.02812 761.40936 67.46562Q761.64374 66.90312 761.64374 65.84062L761.64374 61.403122L763.05 61.403122L763.05 69.7L761.8 69.7ZM764.3625 59.856247L764.3625 58.246872L765.76874 58.246872L765.76874 59.856247L764.3625 59.856247ZM764.3625 69.7L764.3625 61.403122L765.76874 61.403122L765.76874 69.7L764.3625 69.7ZM771.425 68.43437L771.6281 69.68437Q771.03436 69.80937 770.5656 69.80937Q769.8 69.80937 769.3781 69.575Q768.95624 69.325 768.78436 68.93437Q768.6125 68.52812 768.6125 67.2625L768.6125 62.496872L767.58124 62.496872L767.58124 61.403122L768.6125 61.403122L768.6125 59.340622L770.01874 58.496872L770.01874 61.403122L771.425 61.403122L771.425 62.496872L770.01874 62.496872L770.01874 67.34062Q770.01874 67.95 770.08124 68.12187Q770.15936 68.29375 770.33124 68.40312Q770.5031 68.49687 770.8156 68.49687Q771.05 68.49687 771.425 68.43437ZM775.8 67.21562L777.1906 66.99687Q777.3 67.84062 777.83124 68.29375Q778.3781 68.73125 779.33124 68.73125Q780.3 68.73125 780.76874 68.34062Q781.2375 67.93437 781.2375 67.40312Q781.2375 66.93437 780.83124 66.65312Q780.53436 66.46562 779.39374 66.18437Q777.84686 65.79375 777.2375 65.5125Q776.64374 65.21562 776.33124 64.71562Q776.03436 64.21562 776.03436 63.606247Q776.03436 63.043747 776.28436 62.574997Q776.53436 62.106247 776.97186 61.793747Q777.3 61.543747 777.8625 61.387497Q778.4406 61.215622 779.08124 61.215622Q780.0656 61.215622 780.8 61.496872Q781.53436 61.778122 781.8781 62.262497Q782.2375 62.731247 782.3781 63.543747L781.0031 63.731247Q780.90936 63.090622 780.45624 62.731247Q780.0031 62.371872 779.1906 62.371872Q778.22186 62.371872 777.8 62.699997Q777.39374 63.012497 777.39374 63.434372Q777.39374 63.715622 777.5656 63.934372Q777.7375 64.15312 778.09686 64.30937Q778.3156 64.3875 779.34686 64.66875Q780.83124 65.05937 781.425 65.325Q782.01874 65.575 782.34686 66.05937Q782.6906 66.54375 782.6906 67.2625Q782.6906 67.96562 782.26874 68.59062Q781.8625 69.2 781.08124 69.54375Q780.3156 69.8875 779.34686 69.8875Q777.72186 69.8875 776.8781 69.21562Q776.03436 68.54375 775.8 67.21562ZM784.3625 59.856247L784.3625 58.246872L785.76874 58.246872L785.76874 59.856247L784.3625 59.856247ZM784.3625 69.7L784.3625 61.403122L785.76874 61.403122L785.76874 69.7L784.3625 69.7ZM787.6125 69.7L787.6125 68.55937L792.89374 62.496872Q792.0031 62.543747 791.3156 62.543747L787.925 62.543747L787.925 61.403122L794.70624 61.403122L794.70624 62.324997L790.22186 67.59062L789.34686 68.55937Q790.3 68.48125 791.1281 68.48125L794.95624 68.48125L794.95624 69.7L787.6125 69.7ZM801.03436 67.02812L802.4875 67.2Q802.14374 68.48125 801.20624 69.18437Q800.28436 69.8875 798.84686 69.8875Q797.01874 69.8875 795.95624 68.7625Q794.89374 67.6375 794.89374 65.62187Q794.89374 63.528122 795.97186 62.371872Q797.05 61.215622 798.76874 61.215622Q800.425 61.215622 801.47186 62.356247Q802.53436 63.481247 802.53436 65.52812Q802.53436 65.65312 802.53436 65.90312L796.34686 65.90312Q796.425 67.27812 797.1125 68.0125Q797.8156 68.73125 798.84686 68.73125Q799.6281 68.73125 800.175 68.325Q800.72186 67.91875 801.03436 67.02812ZM796.425 64.74687L801.05 64.74687Q800.95624 63.699997 800.51874 63.184372Q799.84686 62.371872 798.78436 62.371872Q797.8156 62.371872 797.14374 63.028122Q796.4875 63.668747 796.425 64.74687Z" fill-rule="nonzero"/></svg>