<svg version="1.1" viewBox="0.0 0.0 536.0 332.0" fill="none" stroke="none" stroke-linecap="square" stroke-miterlimit="10" width="536" height="332" xmlns:xlink="http://www.w3.org/1999/xlink" xmlns="http://www.w3.org/2000/svg"><path fill="#ffffff" d="M0 0L536.0 0L536.0 332.0L0 332.0L0 0Z" fill-rule="nonzero"/><path stroke="#333333" stroke-width="1.0" stroke-linecap="butt" d="M99.5 24.5L99.5 249.5" fill-rule="nonzero"/><path stroke="#cccccc" stroke-width="1.0" stroke-linecap="butt" d="M229.5 24.5L229.5 249.5" fill-rule="nonzero"/><path stroke="#cccccc" stroke-width="1.0" stroke-linecap="butt" d="M359.5 24.5L359.5 249.5" fill-rule="nonzero"/><path stroke="#333333" stroke-width="1.0" stroke-linecap="butt" d="M90.5 249.5L368.5 249.5" fill-rule="nonzero"/><path stroke="#cccccc" stroke-width="1.0" stroke-linecap="butt" d="M90.5 204.5L368.5 204.5" fill-rule="nonzero"/><path stroke="#cccccc" stroke-width="1.0" stroke-linecap="butt" d="M90.5 159.5L368.5 159.5" fill-rule="nonzero"/><path stroke="#cccccc" stroke-width="1.0" stroke-linecap="butt" d="M90.5 114.5L368.5 114.5" fill-rule="nonzero"/><path stroke="#cccccc" stroke-width="1.0" stroke-linecap="butt" d="M90.5 69.5L368.5 69.5" fill-rule="nonzero"/><path stroke="#cccccc" stroke-width="1.0" stroke-linecap="butt" d="M90.5 24.5L368.5 24.5" fill-rule="nonzero"/><path stroke="#e6e6e6" stroke-width="1.0" stroke-linecap="butt" d="M90.5 240.5L368.5 240.5" fill-rule="nonzero"/><path stroke="#e6e6e6" stroke-width="1.0" stroke-linecap="butt" d="M90.5 231.5L368.5 231.5" fill-rule="nonzero"/><path stroke="#e6e6e6" stroke-width="1.0" stroke-linecap="butt" d="M90.5 222.5L368.5 222.5" fill-rule="nonzero"/><path stroke="#e6e6e6" stroke-width="1.0" stroke-linecap="butt" d="M90.5 213.5L368.5 213.5" fill-rule="nonzero"/><path stroke="#e6e6e6" stroke-width="1.0" stroke-linecap="butt" d="M90.5 195.5L368.5 195.5" fill-rule="nonzero"/><path stroke="#e6e6e6" stroke-width="1.0" stroke-linecap="butt" d="M90.5 186.5L368.5 186.5" fill-rule="nonzero"/><path stroke="#e6e6e6" stroke-width="1.0" stroke-linecap="butt" d="M90.5 177.5L368.5 177.5" fill-rule="nonzero"/><path stroke="#e6e6e6" stroke-width="1.0" stroke-linecap="butt" d="M90.5 168.5L368.5 168.5" fill-rule="nonzero"/><path stroke="#e6e6e6" stroke-width="1.0" stroke-linecap="butt" d="M90.5 150.5L368.5 150.5" fill-rule="nonzero"/><path stroke="#e6e6e6" stroke-width="1.0" stroke-linecap="butt" d="M90.5 141.5L368.5 141.5" fill-rule="nonzero"/><path stroke="#e6e6e6" stroke-width="1.0" stroke-linecap="butt" d="M90.5 132.5L368.5 132.5" fill-rule="nonzero"/><path stroke="#e6e6e6" stroke-width="1.0" stroke-linecap="butt" d="M90.5 123.5L368.5 123.5" fill-rule="nonzero"/><path stroke="#e6e6e6" stroke-width="1.0" stroke-linecap="butt" d="M90.5 105.5L368.5 105.5" fill-rule="nonzero"/><path stroke="#e6e6e6" stroke-width="1.0" stroke-linecap="butt" d="M90.5 96.5L368.5 96.5" fill-rule="nonzero"/><path stroke="#e6e6e6" stroke-width="1.0" stroke-linecap="butt" d="M90.5 87.5L368.5 87.5" fill-rule="nonzero"/><path stroke="#e6e6e6" stroke-width="1.0" stroke-linecap="butt" d="M90.5 78.5L368.5 78.5" fill-rule="nonzero"/><path stroke="#e6e6e6" stroke-width="1.0" stroke-linecap="butt" d="M90.5 60.5L368.5 60.5" fill-rule="nonzero"/><path stroke="#e6e6e6" stroke-width="1.0" stroke-linecap="butt" d="M90.5 51.5L368.5 51.5" fill-rule="nonzero"/><path stroke="#e6e6e6" stroke-width="1.0" stroke-linecap="butt" d="M90.5 42.5L368.5 42.5" fill-rule="nonzero"/><path stroke="#e6e6e6" stroke-width="1.0" stroke-linecap="butt" d="M90.5 33.5L368.5 33.5" fill-rule="nonzero"/><clipPath id="id_0"><path d="M90.6 24.6L368.56 24.6L368.56 249.4L90.6 249.4L90.6 24.6Z" clip-rule="nonzero"/></clipPath><path fill="#4285f4" clip-path="url(#id_0)" d="M99.92877 212.55444L105.12492 221.55444L94.73262 221.55444Z" fill-rule="nonzero"/><path fill="#4285f4" clip-path="url(#id_0)" d="M229.58 171.1223L234.77615 180.1223L224.38385 180.1223Z" fill-rule="nonzero"/><path fill="#4285f4" clip-path="url(#id_0)" d="M359.23123 40.972095L364.4274 49.972095L354.03506 49.972095Z" fill-rule="nonzero"/><path fill="#ea4335" clip-path="url(#id_0)" d="M99.92877 237.73195L101.275856 241.87784L105.63511 241.87784L102.1084 244.44016L103.45548 248.58604L99.92877 246.02374L96.402054 248.58604L97.74914 244.44016L94.22243 241.87784L98.58169 241.87784Z" fill-rule="nonzero"/><path fill="#ea4335" clip-path="url(#id_0)" d="M229.58 233.70088L230.92708 237.84679L235.28635 237.84679L231.75963 240.40909L233.1067 244.555L229.58 241.99268L226.05328 244.555L227.40038 240.40909L223.87366 237.84679L228.23291 237.84679Z" fill-rule="nonzero"/><path fill="#ea4335" clip-path="url(#id_0)" d="M359.23123 225.62263L360.5783 229.76852L364.93756 229.76852L361.41086 232.33083L362.75793 236.47673L359.23123 233.91443L355.70453 236.47673L357.0516 232.33083L353.5249 229.76852L357.88416 229.76852Z" fill-rule="nonzero"/><path fill="#000000" d="M164.7675 311.4L164.7675 299.94687L167.04875 299.94687L169.7675 308.05624Q170.1425 309.18124 170.31438 309.74374Q170.50188 309.11874 170.92375 307.91562L173.65813 299.94687L175.705 299.94687L175.705 311.4L174.23625 311.4L174.23625 301.80624L170.90813 311.4L169.54875 311.4L166.23625 301.65L166.23625 311.4L164.7675 311.4ZM183.08 311.4L183.08 310.18124Q182.11125 311.5875 180.43938 311.5875Q179.705 311.5875 179.06438 311.30624Q178.43938 311.025 178.12688 310.60312Q177.81438 310.16562 177.68938 309.55624Q177.61125 309.13437 177.61125 308.24374L177.61125 303.10312L179.0175 303.10312L179.0175 307.69687Q179.0175 308.80624 179.09563 309.18124Q179.23625 309.74374 179.65813 310.05624Q180.09563 310.36874 180.72063 310.36874Q181.36125 310.36874 181.90813 310.05624Q182.47063 309.72812 182.68938 309.16562Q182.92375 308.60312 182.92375 307.54062L182.92375 303.10312L184.33 303.10312L184.33 311.4L183.08 311.4ZM185.61125 311.4L185.61125 299.94687L187.0175 299.94687L187.0175 311.4L185.61125 311.4ZM191.705 310.13437L191.90813 311.38437Q191.31438 311.50937 190.84563 311.50937Q190.08 311.50937 189.65813 311.275Q189.23625 311.025 189.06438 310.63437Q188.8925 310.22812 188.8925 308.9625L188.8925 304.19687L187.86125 304.19687L187.86125 303.10312L188.8925 303.10312L188.8925 301.04062L190.29875 300.19687L190.29875 303.10312L191.705 303.10312L191.705 304.19687L190.29875 304.19687L190.29875 309.04062Q190.29875 309.65 190.36125 309.82187Q190.43938 309.99374 190.61125 310.10312Q190.78313 310.19687 191.09563 310.19687Q191.33 310.19687 191.705 310.13437ZM192.6425 301.55624L192.6425 299.94687L194.04875 299.94687L194.04875 301.55624L192.6425 301.55624ZM192.6425 311.4L192.6425 303.10312L194.04875 303.10312L194.04875 311.4L192.6425 311.4ZM196.6425 314.5875L196.6425 303.10312L197.92375 303.10312L197.92375 304.18124Q198.37688 303.54062 198.93938 303.22812Q199.5175 302.91562 200.33 302.91562Q201.3925 302.91562 202.205 303.4625Q203.0175 304.00937 203.42375 305.00937Q203.84563 305.99374 203.84563 307.18124Q203.84563 308.4625 203.37688 309.47812Q202.92375 310.49374 202.04875 311.04062Q201.18938 311.5875 200.22063 311.5875Q199.5175 311.5875 198.955 311.29062Q198.40813 310.99374 198.04875 310.54062L198.04875 314.5875L196.6425 314.5875ZM197.90813 307.29062Q197.90813 308.9 198.54875 309.66562Q199.205 310.43124 200.12688 310.43124Q201.06438 310.43124 201.73625 309.63437Q202.40813 308.8375 202.40813 307.18124Q202.40813 305.5875 201.75188 304.80624Q201.09563 304.00937 200.18938 304.00937Q199.29875 304.00937 198.59563 304.85312Q197.90813 305.69687 197.90813 307.29062ZM205.61125 311.4L205.61125 299.94687L207.0175 299.94687L207.0175 311.4L205.61125 311.4ZM208.6425 301.55624L208.6425 299.94687L210.04875 299.94687L210.04875 301.55624L208.6425 301.55624ZM208.6425 311.4L208.6425 303.10312L210.04875 303.10312L210.04875 311.4L208.6425 311.4ZM218.04875 308.35312L219.43938 308.54062Q219.205 309.9625 218.2675 310.775Q217.34563 311.5875 215.98625 311.5875Q214.28313 311.5875 213.23625 310.47812Q212.205 309.35312 212.205 307.275Q212.205 305.93124 212.6425 304.93124Q213.09563 303.91562 214.00188 303.41562Q214.92375 302.91562 215.98625 302.91562Q217.34563 302.91562 218.205 303.60312Q219.06438 304.275 219.29875 305.54062L217.93938 305.74374Q217.73625 304.91562 217.23625 304.49374Q216.75188 304.07187 216.04875 304.07187Q214.98625 304.07187 214.31438 304.8375Q213.65813 305.5875 213.65813 307.24374Q213.65813 308.91562 214.29875 309.68124Q214.93938 310.43124 215.97063 310.43124Q216.79875 310.43124 217.34563 309.93124Q217.90813 309.41562 218.04875 308.35312ZM226.04875 310.36874Q225.2675 311.04062 224.54875 311.32187Q223.83 311.5875 223.00188 311.5875Q221.62688 311.5875 220.8925 310.91562Q220.15813 310.24374 220.15813 309.2125Q220.15813 308.60312 220.43938 308.10312Q220.72063 307.5875 221.15813 307.29062Q221.61125 306.97812 222.17375 306.82187Q222.59563 306.7125 223.42375 306.61874Q225.12688 306.41562 225.93938 306.13437Q225.93938 305.8375 225.93938 305.75937Q225.93938 304.9 225.54875 304.55624Q225.00188 304.07187 223.93938 304.07187Q222.955 304.07187 222.47063 304.43124Q222.00188 304.775 221.78313 305.65L220.40813 305.4625Q220.59563 304.5875 221.0175 304.04062Q221.455 303.49374 222.2675 303.2125Q223.08 302.91562 224.1425 302.91562Q225.205 302.91562 225.86125 303.16562Q226.53313 303.41562 226.84563 303.79062Q227.15813 304.16562 227.28313 304.74374Q227.36125 305.10312 227.36125 306.04062L227.36125 307.91562Q227.36125 309.88437 227.43938 310.4Q227.53313 310.91562 227.79875 311.4L226.33 311.4Q226.11125 310.9625 226.04875 310.36874ZM225.93938 307.22812Q225.17375 307.54062 223.6425 307.75937Q222.7675 307.88437 222.40813 308.04062Q222.04875 308.19687 221.84563 308.50937Q221.65813 308.80624 221.65813 309.16562Q221.65813 309.72812 222.08 310.10312Q222.5175 310.47812 223.33 310.47812Q224.1425 310.47812 224.7675 310.13437Q225.40813 309.775 225.705 309.15Q225.93938 308.68124 225.93938 307.74374L225.93938 307.22812ZM232.705 310.13437L232.90813 311.38437Q232.31438 311.50937 231.84563 311.50937Q231.08 311.50937 230.65813 311.275Q230.23625 311.025 230.06438 310.63437Q229.8925 310.22812 229.8925 308.9625L229.8925 304.19687L228.86125 304.19687L228.86125 303.10312L229.8925 303.10312L229.8925 301.04062L231.29875 300.19687L231.29875 303.10312L232.705 303.10312L232.705 304.19687L231.29875 304.19687L231.29875 309.04062Q231.29875 309.65 231.36125 309.82187Q231.43938 309.99374 231.61125 310.10312Q231.78313 310.19687 232.09563 310.19687Q232.33 310.19687 232.705 310.13437ZM233.6425 301.55624L233.6425 299.94687L235.04875 299.94687L235.04875 301.55624L233.6425 301.55624ZM233.6425 311.4L233.6425 303.10312L235.04875 303.10312L235.04875 311.4L233.6425 311.4ZM239.93938 311.4L236.78313 303.10312L238.2675 303.10312L240.04875 308.07187Q240.34563 308.86874 240.58 309.74374Q240.7675 309.0875 241.11125 308.16562L242.955 303.10312L244.3925 303.10312L241.25188 311.4L239.93938 311.4ZM250.31438 308.72812L251.7675 308.9Q251.42375 310.18124 250.48625 310.88437Q249.56438 311.5875 248.12688 311.5875Q246.29875 311.5875 245.23625 310.4625Q244.17375 309.3375 244.17375 307.32187Q244.17375 305.22812 245.25188 304.07187Q246.33 302.91562 248.04875 302.91562Q249.705 302.91562 250.75188 304.05624Q251.81438 305.18124 251.81438 307.22812Q251.81438 307.35312 251.81438 307.60312L245.62688 307.60312Q245.705 308.97812 246.3925 309.7125Q247.09563 310.43124 248.12688 310.43124Q248.90813 310.43124 249.455 310.025Q250.00188 309.61874 250.31438 308.72812ZM245.705 306.44687L250.33 306.44687Q250.23625 305.4 249.79875 304.88437Q249.12688 304.07187 248.06438 304.07187Q247.09563 304.07187 246.42375 304.72812Q245.7675 305.36874 245.705 306.44687ZM263.01752 311.4L263.01752 310.35312Q262.23627 311.5875 260.70502 311.5875Q259.70502 311.5875 258.8769 311.04062Q258.04877 310.49374 257.58002 309.50937Q257.1269 308.525 257.1269 307.25937Q257.1269 306.00937 257.53314 305.00937Q257.95502 303.99374 258.78314 303.4625Q259.61127 302.91562 260.64252 302.91562Q261.39252 302.91562 261.97064 303.22812Q262.5644 303.54062 262.92377 304.05624L262.92377 299.94687L264.33002 299.94687L264.33002 311.4L263.01752 311.4ZM258.58002 307.25937Q258.58002 308.85312 259.2519 309.65Q259.92377 310.43124 260.83002 310.43124Q261.7519 310.43124 262.39252 309.68124Q263.04877 308.91562 263.04877 307.36874Q263.04877 305.66562 262.39252 304.86874Q261.73627 304.07187 260.76752 304.07187Q259.83002 304.07187 259.20502 304.8375Q258.58002 305.60312 258.58002 307.25937ZM272.3144 308.72812L273.76752 308.9Q273.42377 310.18124 272.48627 310.88437Q271.5644 311.5875 270.1269 311.5875Q268.29877 311.5875 267.23627 310.4625Q266.17377 309.3375 266.17377 307.32187Q266.17377 305.22812 267.2519 304.07187Q268.33002 302.91562 270.04877 302.91562Q271.70502 302.91562 272.7519 304.05624Q273.8144 305.18124 273.8144 307.22812Q273.8144 307.35312 273.8144 307.60312L267.6269 307.60312Q267.70502 308.97812 268.39252 309.7125Q269.09564 310.43124 270.1269 310.43124Q270.90814 310.43124 271.45502 310.025Q272.0019 309.61874 272.3144 308.72812ZM267.70502 306.44687L272.33002 306.44687Q272.23627 305.4 271.79877 304.88437Q271.1269 304.07187 270.0644 304.07187Q269.09564 304.07187 268.42377 304.72812Q267.76752 305.36874 267.70502 306.44687ZM275.64252 314.5875L275.64252 303.10312L276.92377 303.10312L276.92377 304.18124Q277.3769 303.54062 277.9394 303.22812Q278.51752 302.91562 279.33002 302.91562Q280.39252 302.91562 281.20502 303.4625Q282.01752 304.00937 282.42377 305.00937Q282.84564 305.99374 282.84564 307.18124Q282.84564 308.4625 282.3769 309.47812Q281.92377 310.49374 281.04877 311.04062Q280.1894 311.5875 279.22064 311.5875Q278.51752 311.5875 277.95502 311.29062Q277.40814 310.99374 277.04877 310.54062L277.04877 314.5875L275.64252 314.5875ZM276.90814 307.29062Q276.90814 308.9 277.54877 309.66562Q278.20502 310.43124 279.1269 310.43124Q280.0644 310.43124 280.73627 309.63437Q281.40814 308.8375 281.40814 307.18124Q281.40814 305.5875 280.7519 304.80624Q280.09564 304.00937 279.1894 304.00937Q278.29877 304.00937 277.59564 304.85312Q276.90814 305.69687 276.90814 307.29062ZM287.70502 310.13437L287.90814 311.38437Q287.3144 311.50937 286.84564 311.50937Q286.08002 311.50937 285.65814 311.275Q285.23627 311.025 285.0644 310.63437Q284.89252 310.22812 284.89252 308.9625L284.89252 304.19687L283.86127 304.19687L283.86127 303.10312L284.89252 303.10312L284.89252 301.04062L286.29877 300.19687L286.29877 303.10312L287.70502 303.10312L287.70502 304.19687L286.29877 304.19687L286.29877 309.04062Q286.29877 309.65 286.36127 309.82187Q286.4394 309.99374 286.61127 310.10312Q286.78314 310.19687 287.09564 310.19687Q287.33002 310.19687 287.70502 310.13437ZM288.64252 311.4L288.64252 299.94687L290.04877 299.94687L290.04877 304.05624Q291.03314 302.91562 292.53314 302.91562Q293.45502 302.91562 294.1269 303.275Q294.8144 303.63437 295.09564 304.275Q295.39252 304.91562 295.39252 306.13437L295.39252 311.4L293.98627 311.4L293.98627 306.13437Q293.98627 305.0875 293.53314 304.60312Q293.08002 304.11874 292.23627 304.11874Q291.61127 304.11874 291.0644 304.44687Q290.51752 304.775 290.28314 305.3375Q290.04877 305.88437 290.04877 306.85312L290.04877 311.4L288.64252 311.4Z" fill-rule="nonzero"/><path fill="#000000" d="M31.599995 191.76562L20.14687 191.76562L20.14687 187.8125Q20.14687 186.48438 20.30312 185.78125Q20.537495 184.79688 21.131245 184.09375Q21.89687 183.1875 23.08437 182.75Q24.27187 182.29688 25.80312 182.29688Q27.11562 182.29688 28.131245 182.60938Q29.131245 182.90625 29.787495 183.39062Q30.443745 183.85938 30.83437 184.42188Q31.20937 184.98438 31.412495 185.79688Q31.599995 186.59375 31.599995 187.625L31.599995 191.76562ZM30.24062 190.25L30.24062 187.79688Q30.24062 186.67188 30.037495 186.03125Q29.818745 185.375 29.443745 185.0Q28.89687 184.45312 27.99062 184.15625Q27.08437 183.85938 25.787495 183.85938Q23.99062 183.85938 23.02187 184.45312Q22.05312 185.03125 21.724995 185.875Q21.49062 186.48438 21.49062 187.84375L21.49062 190.25L30.24062 190.25ZM30.568745 174.53125Q31.24062 175.3125 31.52187 176.03125Q31.787495 176.75 31.787495 177.57812Q31.787495 178.95312 31.11562 179.6875Q30.443745 180.42188 29.412495 180.42188Q28.80312 180.42188 28.30312 180.14062Q27.787495 179.85938 27.49062 179.42188Q27.17812 178.96875 27.02187 178.40625Q26.912495 177.98438 26.818745 177.15625Q26.61562 175.45312 26.33437 174.64062Q26.037495 174.64062 25.95937 174.64062Q25.099995 174.64062 24.756245 175.03125Q24.27187 175.57812 24.27187 176.64062Q24.27187 177.625 24.631245 178.10938Q24.974995 178.57812 25.849995 178.79688L25.662495 180.17188Q24.787495 179.98438 24.24062 179.5625Q23.693745 179.125 23.412495 178.3125Q23.11562 177.5 23.11562 176.4375Q23.11562 175.375 23.36562 174.71875Q23.61562 174.04688 23.99062 173.73438Q24.36562 173.42188 24.943745 173.29688Q25.30312 173.21875 26.24062 173.21875L28.11562 173.21875Q30.08437 173.21875 30.599995 173.14062Q31.11562 173.04688 31.599995 172.78125L31.599995 174.25Q31.162495 174.46875 30.568745 174.53125ZM27.42812 174.64062Q27.74062 175.40625 27.95937 176.9375Q28.08437 177.8125 28.24062 178.17188Q28.39687 178.53125 28.70937 178.73438Q29.006245 178.92188 29.36562 178.92188Q29.92812 178.92188 30.30312 178.5Q30.67812 178.0625 30.67812 177.25Q30.67812 176.4375 30.33437 175.8125Q29.974995 175.17188 29.349995 174.875Q28.881245 174.64062 27.943745 174.64062L27.42812 174.64062ZM30.33437 167.875L31.58437 167.67188Q31.70937 168.26562 31.70937 168.73438Q31.70937 169.5 31.474995 169.92188Q31.224995 170.34375 30.83437 170.51562Q30.42812 170.6875 29.162495 170.6875L24.39687 170.6875L24.39687 171.71875L23.30312 171.71875L23.30312 170.6875L21.24062 170.6875L20.39687 169.28125L23.30312 169.28125L23.30312 167.875L24.39687 167.875L24.39687 169.28125L29.24062 169.28125Q29.849995 169.28125 30.02187 169.21875Q30.193745 169.14062 30.30312 168.96875Q30.39687 168.79688 30.39687 168.48438Q30.39687 168.25 30.33437 167.875ZM30.568745 161.53125Q31.24062 162.3125 31.52187 163.03125Q31.787495 163.75 31.787495 164.57812Q31.787495 165.95312 31.11562 166.6875Q30.443745 167.42188 29.412495 167.42188Q28.80312 167.42188 28.30312 167.14062Q27.787495 166.85938 27.49062 166.42188Q27.17812 165.96875 27.02187 165.40625Q26.912495 164.98438 26.818745 164.15625Q26.61562 162.45312 26.33437 161.64062Q26.037495 161.64062 25.95937 161.64062Q25.099995 161.64062 24.756245 162.03125Q24.27187 162.57812 24.27187 163.64062Q24.27187 164.625 24.631245 165.10938Q24.974995 165.57812 25.849995 165.79688L25.662495 167.17188Q24.787495 166.98438 24.24062 166.5625Q23.693745 166.125 23.412495 165.3125Q23.11562 164.5 23.11562 163.4375Q23.11562 162.375 23.36562 161.71875Q23.61562 161.04688 23.99062 160.73438Q24.36562 160.42188 24.943745 160.29688Q25.30312 160.21875 26.24062 160.21875L28.11562 160.21875Q30.08437 160.21875 30.599995 160.14062Q31.11562 160.04688 31.599995 159.78125L31.599995 161.25Q31.162495 161.46875 30.568745 161.53125ZM27.42812 161.64062Q27.74062 162.40625 27.95937 163.9375Q28.08437 164.8125 28.24062 165.17188Q28.39687 165.53125 28.70937 165.73438Q29.006245 165.92188 29.36562 165.92188Q29.92812 165.92188 30.30312 165.5Q30.67812 165.0625 30.67812 164.25Q30.67812 163.4375 30.33437 162.8125Q29.974995 162.17188 29.349995 161.875Q28.881245 161.64062 27.943745 161.64062L27.42812 161.64062ZM29.11562 154.5L28.89687 153.10938Q29.74062 153.0 30.193745 152.46875Q30.631245 151.92188 30.631245 150.96875Q30.631245 150.0 30.24062 149.53125Q29.83437 149.0625 29.30312 149.0625Q28.83437 149.0625 28.55312 149.46875Q28.36562 149.76562 28.08437 150.90625Q27.693745 152.45312 27.412495 153.0625Q27.11562 153.65625 26.61562 153.96875Q26.11562 154.26562 25.506245 154.26562Q24.943745 154.26562 24.474995 154.01562Q24.006245 153.76562 23.693745 153.32812Q23.443745 153.0 23.287495 152.4375Q23.11562 151.85938 23.11562 151.21875Q23.11562 150.23438 23.39687 149.5Q23.67812 148.76562 24.162495 148.42188Q24.631245 148.0625 25.443745 147.92188L25.631245 149.29688Q24.99062 149.39062 24.631245 149.84375Q24.27187 150.29688 24.27187 151.10938Q24.27187 152.07812 24.599995 152.5Q24.912495 152.90625 25.33437 152.90625Q25.61562 152.90625 25.83437 152.73438Q26.05312 152.5625 26.20937 152.20312Q26.287495 151.98438 26.568745 150.95312Q26.95937 149.46875 27.224995 148.875Q27.474995 148.28125 27.95937 147.95312Q28.443745 147.60938 29.162495 147.60938Q29.86562 147.60938 30.49062 148.03125Q31.099995 148.4375 31.443745 149.21875Q31.787495 149.98438 31.787495 150.95312Q31.787495 152.57812 31.11562 153.42188Q30.443745 154.26562 29.11562 154.5ZM21.756245 145.9375L20.14687 145.9375L20.14687 144.53125L21.756245 144.53125L21.756245 145.9375ZM31.599995 145.9375L23.30312 145.9375L23.30312 144.53125L31.599995 144.53125L31.599995 145.9375ZM31.599995 142.6875L30.45937 142.6875L24.39687 137.40625Q24.443745 138.29688 24.443745 138.98438L24.443745 142.375L23.30312 142.375L23.30312 135.59375L24.224995 135.59375L29.49062 140.07812L30.45937 140.95312Q30.381245 140.0 30.381245 139.17188L30.381245 135.34375L31.599995 135.34375L31.599995 142.6875ZM28.92812 129.26562L29.099995 127.8125Q30.381245 128.15625 31.08437 129.09375Q31.787495 130.01562 31.787495 131.45312Q31.787495 133.28125 30.662495 134.34375Q29.537495 135.40625 27.52187 135.40625Q25.42812 135.40625 24.27187 134.32812Q23.11562 133.25 23.11562 131.53125Q23.11562 129.875 24.256245 128.82812Q25.381245 127.765625 27.42812 127.765625Q27.55312 127.765625 27.80312 127.765625L27.80312 133.95312Q29.17812 133.875 29.912495 133.1875Q30.631245 132.48438 30.631245 131.45312Q30.631245 130.67188 30.224995 130.125Q29.818745 129.57812 28.92812 129.26562ZM26.64687 133.875L26.64687 129.25Q25.599995 129.34375 25.08437 129.78125Q24.27187 130.45312 24.27187 131.51562Q24.27187 132.48438 24.92812 133.15625Q25.568745 133.8125 26.64687 133.875ZM31.80312 123.0L19.943745 119.671875L19.943745 118.546875L31.80312 121.859375L31.80312 123.0ZM27.099995 112.40625L25.756245 112.40625L25.756245 107.546875L30.006245 107.546875Q30.89687 108.671875 31.349995 109.859375Q31.80312 111.046875 31.80312 112.296875Q31.80312 113.984375 31.08437 115.359375Q30.349995 116.734375 28.99062 117.4375Q27.61562 118.140625 25.92812 118.140625Q24.256245 118.140625 22.80312 117.453125Q21.349995 116.75 20.64687 115.4375Q19.943745 114.125 19.943745 112.40625Q19.943745 111.171875 20.349995 110.171875Q20.756245 109.15625 21.474995 108.59375Q22.193745 108.015625 23.349995 107.71875L23.724995 109.09375Q22.849995 109.34375 22.349995 109.734375Q21.849995 110.109375 21.55312 110.828125Q21.24062 111.53125 21.24062 112.40625Q21.24062 113.4375 21.568745 114.203125Q21.881245 114.953125 22.39687 115.421875Q22.912495 115.890625 23.52187 116.140625Q24.58437 116.578125 25.83437 116.578125Q27.36562 116.578125 28.39687 116.0625Q29.42812 115.53125 29.92812 114.53125Q30.42812 113.515625 30.42812 112.375Q30.42812 111.390625 30.05312 110.453125Q29.662495 109.515625 29.24062 109.03125L27.099995 109.03125L27.099995 112.40625ZM31.599995 105.828125L20.14687 105.828125L20.14687 101.53125Q20.14687 100.21875 20.49062 99.421875Q20.83437 98.625 21.568745 98.1875Q22.287495 97.734375 23.068745 97.734375Q23.80312 97.734375 24.45937 98.140625Q25.099995 98.53125 25.506245 99.328125Q25.80312 98.296875 26.537495 97.734375Q27.27187 97.171875 28.27187 97.171875Q29.08437 97.171875 29.77187 97.515625Q30.45937 97.859375 30.83437 98.359375Q31.20937 98.859375 31.412495 99.609375Q31.599995 100.359375 31.599995 101.453125L31.599995 105.828125ZM24.95937 104.3125L24.95937 101.828125Q24.95937 100.828125 24.818745 100.390625Q24.64687 99.8125 24.256245 99.515625Q23.849995 99.21875 23.256245 99.21875Q22.67812 99.21875 22.256245 99.5Q21.818745 99.765625 21.662495 100.28125Q21.49062 100.78125 21.49062 102.015625L21.49062 104.3125L24.95937 104.3125ZM30.24062 104.3125L30.24062 101.453125Q30.24062 100.71875 30.193745 100.421875Q30.099995 99.90625 29.881245 99.5625Q29.662495 99.203125 29.24062 98.984375Q28.818745 98.75 28.27187 98.75Q27.631245 98.75 27.162495 99.078125Q26.693745 99.40625 26.506245 99.984375Q26.30312 100.5625 26.30312 101.65625L26.30312 104.3125L30.24062 104.3125Z" fill-rule="nonzero"/><path fill="#000000" d="M76.17812 249.4625Q76.17812 247.68124 76.5375 246.60312Q76.9125 245.50937 77.63125 244.93124Q78.35 244.3375 79.44375 244.3375Q80.25625 244.3375 80.86562 244.66562Q81.475 244.99374 81.86562 245.60312Q82.27187 246.2125 82.49062 247.0875Q82.70937 247.9625 82.70937 249.4625Q82.70937 251.22812 82.35 252.30624Q81.99062 253.38437 81.27187 253.97812Q80.55312 254.57187 79.44375 254.57187Q78.00625 254.57187 77.17812 253.525Q76.17812 252.275 76.17812 249.4625ZM77.44375 249.4625Q77.44375 251.93124 78.02187 252.74374Q78.6 253.55624 79.44375 253.55624Q80.30312 253.55624 80.88125 252.74374Q81.45937 251.91562 81.45937 249.4625Q81.45937 246.97812 80.88125 246.16562Q80.30312 245.35312 79.42812 245.35312Q78.58437 245.35312 78.08437 246.07187Q77.44375 246.99374 77.44375 249.4625Z" fill-rule="nonzero"/><path fill="#000000" d="M68.17812 206.815L69.475 206.70563Q69.61562 207.64313 70.13125 208.1275Q70.6625 208.59625 71.39687 208.59625Q72.2875 208.59625 72.89687 207.92438Q73.52187 207.2525 73.52187 206.15875Q73.52187 205.09625 72.92812 204.48688Q72.33437 203.8775 71.38125 203.8775Q70.7875 203.8775 70.30312 204.15875Q69.83437 204.42438 69.55312 204.84625L68.39687 204.70563L69.36562 199.54938L74.35 199.54938L74.35 200.73688L70.35 200.73688L69.81875 203.42438Q70.725 202.79938 71.70937 202.79938Q73.02187 202.79938 73.9125 203.70563Q74.81875 204.61188 74.81875 206.04938Q74.81875 207.40875 74.0375 208.39313Q73.06875 209.61188 71.39687 209.61188Q70.0375 209.61188 69.1625 208.84625Q68.30312 208.08063 68.17812 206.815ZM76.17812 204.5025Q76.17812 202.72125 76.5375 201.64313Q76.9125 200.54938 77.63125 199.97125Q78.35 199.3775 79.44375 199.3775Q80.25625 199.3775 80.86562 199.70563Q81.475 200.03375 81.86562 200.64313Q82.27187 201.2525 82.49062 202.1275Q82.70937 203.0025 82.70937 204.5025Q82.70937 206.26813 82.35 207.34625Q81.99062 208.42438 81.27187 209.01813Q80.55312 209.61188 79.44375 209.61188Q78.00625 209.61188 77.17812 208.565Q76.17812 207.315 76.17812 204.5025ZM77.44375 204.5025Q77.44375 206.97125 78.02187 207.78375Q78.6 208.59625 79.44375 208.59625Q80.30312 208.59625 80.88125 207.78375Q81.45937 206.95563 81.45937 204.5025Q81.45937 202.01813 80.88125 201.20563Q80.30312 200.39313 79.42812 200.39313Q78.58437 200.39313 78.08437 201.11188Q77.44375 202.03375 77.44375 204.5025Z" fill-rule="nonzero"/><path fill="#000000" d="M64.81875 164.48L63.584373 164.48L63.584373 156.63625Q63.146873 157.05812 62.4125 157.49562Q61.69375 157.9175 61.13125 158.12062L61.13125 156.93312Q62.1625 156.44875 62.928123 155.76125Q63.709373 155.07375 64.02187 154.4175L64.81875 154.4175L64.81875 164.48ZM68.17812 159.5425Q68.17812 157.76125 68.5375 156.68312Q68.9125 155.58937 69.63125 155.01125Q70.35 154.4175 71.44375 154.4175Q72.25625 154.4175 72.86562 154.74562Q73.475 155.07375 73.86562 155.68312Q74.27187 156.2925 74.49062 157.1675Q74.70937 158.0425 74.70937 159.5425Q74.70937 161.30812 74.35 162.38625Q73.99062 163.46437 73.27187 164.05812Q72.55312 164.65187 71.44375 164.65187Q70.00625 164.65187 69.17812 163.605Q68.17812 162.355 68.17812 159.5425ZM69.44375 159.5425Q69.44375 162.01125 70.02187 162.82375Q70.6 163.63625 71.44375 163.63625Q72.30312 163.63625 72.88125 162.82375Q73.45937 161.99562 73.45937 159.5425Q73.45937 157.05812 72.88125 156.24562Q72.30312 155.43312 71.42812 155.43312Q70.58437 155.43312 70.08437 156.15187Q69.44375 157.07375 69.44375 159.5425ZM76.17812 159.5425Q76.17812 157.76125 76.5375 156.68312Q76.9125 155.58937 77.63125 155.01125Q78.35 154.4175 79.44375 154.4175Q80.25625 154.4175 80.86562 154.74562Q81.475 155.07375 81.86562 155.68312Q82.27187 156.2925 82.49062 157.1675Q82.70937 158.0425 82.70937 159.5425Q82.70937 161.30812 82.35 162.38625Q81.99062 163.46437 81.27187 164.05812Q80.55312 164.65187 79.44375 164.65187Q78.00625 164.65187 77.17812 163.605Q76.17812 162.355 76.17812 159.5425ZM77.44375 159.5425Q77.44375 162.01125 78.02187 162.82375Q78.6 163.63625 79.44375 163.63625Q80.30312 163.63625 80.88125 162.82375Q81.45937 161.99562 81.45937 159.5425Q81.45937 157.05812 80.88125 156.24562Q80.30312 155.43312 79.42812 155.43312Q78.58437 155.43312 78.08437 156.15187Q77.44375 157.07375 77.44375 159.5425Z" fill-rule="nonzero"/><path fill="#000000" d="M64.81875 119.52L63.584373 119.52L63.584373 111.67625Q63.146873 112.09812 62.4125 112.53562Q61.69375 112.9575 61.13125 113.16062L61.13125 111.97312Q62.1625 111.48875 62.928123 110.80125Q63.709373 110.11375 64.02187 109.4575L64.81875 109.4575L64.81875 119.52ZM68.17812 116.895L69.475 116.78562Q69.61562 117.72312 70.13125 118.2075Q70.6625 118.67625 71.39687 118.67625Q72.2875 118.67625 72.89687 118.00437Q73.52187 117.3325 73.52187 116.23875Q73.52187 115.17625 72.92812 114.56687Q72.33437 113.9575 71.38125 113.9575Q70.7875 113.9575 70.30312 114.23875Q69.83437 114.50437 69.55312 114.92625L68.39687 114.78562L69.36562 109.62937L74.35 109.62937L74.35 110.81687L70.35 110.81687L69.81875 113.50437Q70.725 112.87937 71.70937 112.87937Q73.02187 112.87937 73.9125 113.78562Q74.81875 114.69187 74.81875 116.12937Q74.81875 117.48875 74.0375 118.47312Q73.06875 119.69187 71.39687 119.69187Q70.0375 119.69187 69.1625 118.92625Q68.30312 118.16062 68.17812 116.895ZM76.17812 114.5825Q76.17812 112.80125 76.5375 111.72312Q76.9125 110.62937 77.63125 110.05125Q78.35 109.4575 79.44375 109.4575Q80.25625 109.4575 80.86562 109.78562Q81.475 110.11375 81.86562 110.72312Q82.27187 111.3325 82.49062 112.2075Q82.70937 113.0825 82.70937 114.5825Q82.70937 116.34812 82.35 117.42625Q81.99062 118.50437 81.27187 119.09812Q80.55312 119.69187 79.44375 119.69187Q78.00625 119.69187 77.17812 118.645Q76.17812 117.395 76.17812 114.5825ZM77.44375 114.5825Q77.44375 117.05125 78.02187 117.86375Q78.6 118.67625 79.44375 118.67625Q80.30312 118.67625 80.88125 117.86375Q81.45937 117.03562 81.45937 114.5825Q81.45937 112.09812 80.88125 111.28562Q80.30312 110.47312 79.42812 110.47312Q78.58437 110.47312 78.08437 111.19187Q77.44375 112.11375 77.44375 114.5825Z" fill-rule="nonzero"/><path fill="#000000" d="M66.64687 73.3725L66.64687 74.56L60.021873 74.56Q60.00625 74.1225 60.1625 73.70062Q60.428123 73.02875 60.975 72.3725Q61.5375 71.71625 62.584373 70.85687Q64.225 69.51312 64.7875 68.73187Q65.36562 67.95062 65.36562 67.2475Q65.36562 66.51312 64.83437 66.01312Q64.31875 65.51312 63.490623 65.51312Q62.6 65.51312 62.053123 66.04437Q61.521873 66.57562 61.521873 67.52875L60.25625 67.38812Q60.38125 65.98187 61.225 65.2475Q62.084373 64.4975 63.50625 64.4975Q64.95937 64.4975 65.7875 65.29437Q66.63125 66.09125 66.63125 67.27875Q66.63125 67.88812 66.38125 68.46625Q66.14687 69.04437 65.56875 69.685Q65.00625 70.32562 63.678123 71.45062Q62.56875 72.3725 62.25625 72.71625Q61.94375 73.04437 61.740623 73.3725L66.64687 73.3725ZM68.17812 69.6225Q68.17812 67.84125 68.5375 66.76312Q68.9125 65.66937 69.63125 65.09125Q70.35 64.4975 71.44375 64.4975Q72.25625 64.4975 72.86562 64.82562Q73.475 65.15375 73.86562 65.76312Q74.27187 66.3725 74.49062 67.2475Q74.70937 68.1225 74.70937 69.6225Q74.70937 71.38812 74.35 72.46625Q73.99062 73.54437 73.27187 74.13812Q72.55312 74.73187 71.44375 74.73187Q70.00625 74.73187 69.17812 73.685Q68.17812 72.435 68.17812 69.6225ZM69.44375 69.6225Q69.44375 72.09125 70.02187 72.90375Q70.6 73.71625 71.44375 73.71625Q72.30312 73.71625 72.88125 72.90375Q73.45937 72.07562 73.45937 69.6225Q73.45937 67.13812 72.88125 66.32562Q72.30312 65.51312 71.42812 65.51312Q70.58437 65.51312 70.08437 66.23187Q69.44375 67.15375 69.44375 69.6225ZM76.17812 69.6225Q76.17812 67.84125 76.5375 66.76312Q76.9125 65.66937 77.63125 65.09125Q78.35 64.4975 79.44375 64.4975Q80.25625 64.4975 80.86562 64.82562Q81.475 65.15375 81.86562 65.76312Q82.27187 66.3725 82.49062 67.2475Q82.70937 68.1225 82.70937 69.6225Q82.70937 71.38812 82.35 72.46625Q81.99062 73.54437 81.27187 74.13812Q80.55312 74.73187 79.44375 74.73187Q78.00625 74.73187 77.17812 73.685Q76.17812 72.435 76.17812 69.6225ZM77.44375 69.6225Q77.44375 72.09125 78.02187 72.90375Q78.6 73.71625 79.44375 73.71625Q80.30312 73.71625 80.88125 72.90375Q81.45937 72.07562 81.45937 69.6225Q81.45937 67.13812 80.88125 66.32562Q80.30312 65.51312 79.42812 65.51312Q78.58437 65.51312 78.08437 66.23187Q77.44375 67.15375 77.44375 69.6225Z" fill-rule="nonzero"/><path fill="#000000" d="M66.64687 28.4125L66.64687 29.6L60.021873 29.6Q60.00625 29.1625 60.1625 28.740625Q60.428123 28.06875 60.975 27.4125Q61.5375 26.75625 62.584373 25.896875Q64.225 24.553125 64.7875 23.771875Q65.36562 22.990625 65.36562 22.2875Q65.36562 21.553125 64.83437 21.053125Q64.31875 20.553125 63.490623 20.553125Q62.6 20.553125 62.053123 21.084375Q61.521873 21.615625 61.521873 22.56875L60.25625 22.428125Q60.38125 21.021875 61.225 20.2875Q62.084373 19.5375 63.50625 19.5375Q64.95937 19.5375 65.7875 20.334375Q66.63125 21.13125 66.63125 22.31875Q66.63125 22.928125 66.38125 23.50625Q66.14687 24.084375 65.56875 24.725Q65.00625 25.365625 63.678123 26.490625Q62.56875 27.4125 62.25625 27.75625Q61.94375 28.084375 61.740623 28.4125L66.64687 28.4125ZM68.17812 26.975L69.475 26.865625Q69.61562 27.803125 70.13125 28.2875Q70.6625 28.75625 71.39687 28.75625Q72.2875 28.75625 72.89687 28.084375Q73.52187 27.4125 73.52187 26.31875Q73.52187 25.25625 72.92812 24.646875Q72.33437 24.0375 71.38125 24.0375Q70.7875 24.0375 70.30312 24.31875Q69.83437 24.584375 69.55312 25.00625L68.39687 24.865625L69.36562 19.709375L74.35 19.709375L74.35 20.896875L70.35 20.896875L69.81875 23.584375Q70.725 22.959375 71.70937 22.959375Q73.02187 22.959375 73.9125 23.865625Q74.81875 24.771875 74.81875 26.209375Q74.81875 27.56875 74.0375 28.553125Q73.06875 29.771875 71.39687 29.771875Q70.0375 29.771875 69.1625 29.00625Q68.30312 28.240625 68.17812 26.975ZM76.17812 24.6625Q76.17812 22.88125 76.5375 21.803125Q76.9125 20.709375 77.63125 20.13125Q78.35 19.5375 79.44375 19.5375Q80.25625 19.5375 80.86562 19.865625Q81.475 20.19375 81.86562 20.803125Q82.27187 21.4125 82.49062 22.2875Q82.70937 23.1625 82.70937 24.6625Q82.70937 26.428125 82.35 27.50625Q81.99062 28.584375 81.27187 29.178125Q80.55312 29.771875 79.44375 29.771875Q78.00625 29.771875 77.17812 28.725Q76.17812 27.475 76.17812 24.6625ZM77.44375 24.6625Q77.44375 27.13125 78.02187 27.94375Q78.6 28.75625 79.44375 28.75625Q80.30312 28.75625 80.88125 27.94375Q81.45937 27.115625 81.45937 24.6625Q81.45937 22.178125 80.88125 21.365625Q80.30312 20.553125 79.42812 20.553125Q78.58437 20.553125 78.08437 21.271875Q77.44375 22.19375 77.44375 24.6625Z" fill-rule="nonzero"/><path fill="#000000" d="M96.5069 264.4625Q96.5069 262.68124 96.86627 261.60312Q97.24127 260.50937 97.96002 259.93124Q98.67877 259.3375 99.77252 259.3375Q100.58502 259.3375 101.1944 259.66562Q101.80377 259.99374 102.1944 260.60312Q102.60065 261.2125 102.8194 262.0875Q103.03815 262.9625 103.03815 264.4625Q103.03815 266.22812 102.67877 267.30624Q102.3194 268.38437 101.60065 268.97812Q100.8819 269.57187 99.77252 269.57187Q98.33502 269.57187 97.5069 268.525Q96.5069 267.275 96.5069 264.4625ZM97.77252 264.4625Q97.77252 266.93124 98.35065 267.74374Q98.92877 268.55624 99.77252 268.55624Q100.6319 268.55624 101.21002 267.74374Q101.78815 266.91562 101.78815 264.4625Q101.78815 261.97812 101.21002 261.16562Q100.6319 260.35312 99.7569 260.35312Q98.91315 260.35312 98.41315 261.07187Q97.77252 261.99374 97.77252 264.4625Z" fill-rule="nonzero"/><path fill="#000000" d="M226.15813 266.775L227.455 266.66562Q227.59563 267.60312 228.11125 268.0875Q228.6425 268.55624 229.37688 268.55624Q230.2675 268.55624 230.87688 267.88437Q231.50188 267.2125 231.50188 266.11874Q231.50188 265.05624 230.90813 264.44687Q230.31438 263.8375 229.36125 263.8375Q228.7675 263.8375 228.28313 264.11874Q227.81438 264.38437 227.53313 264.80624L226.37688 264.66562L227.34563 259.50937L232.33 259.50937L232.33 260.69687L228.33 260.69687L227.79875 263.38437Q228.705 262.75937 229.68938 262.75937Q231.00188 262.75937 231.8925 263.66562Q232.79875 264.57187 232.79875 266.00937Q232.79875 267.36874 232.0175 268.35312Q231.04875 269.57187 229.37688 269.57187Q228.0175 269.57187 227.1425 268.80624Q226.28313 268.04062 226.15813 266.775Z" fill-rule="nonzero"/><path fill="#000000" d="M356.44998 269.4L355.2156 269.4L355.2156 261.55624Q354.7781 261.97812 354.04373 262.41562Q353.32498 262.8375 352.76248 263.04062L352.76248 261.85312Q353.79373 261.36874 354.55936 260.68124Q355.3406 259.99374 355.6531 259.3375L356.44998 259.3375L356.44998 269.4ZM359.80936 264.4625Q359.80936 262.68124 360.16873 261.60312Q360.54373 260.50937 361.26248 259.93124Q361.98123 259.3375 363.07498 259.3375Q363.88748 259.3375 364.49686 259.66562Q365.10623 259.99374 365.49686 260.60312Q365.9031 261.2125 366.12186 262.0875Q366.3406 262.9625 366.3406 264.4625Q366.3406 266.22812 365.98123 267.30624Q365.62186 268.38437 364.9031 268.97812Q364.18436 269.57187 363.07498 269.57187Q361.63748 269.57187 360.80936 268.525Q359.80936 267.275 359.80936 264.4625ZM361.07498 264.4625Q361.07498 266.93124 361.6531 267.74374Q362.23123 268.55624 363.07498 268.55624Q363.93436 268.55624 364.51248 267.74374Q365.0906 266.91562 365.0906 264.4625Q365.0906 261.97812 364.51248 261.16562Q363.93436 260.35312 363.05936 260.35312Q362.2156 260.35312 361.7156 261.07187Q361.07498 261.99374 361.07498 264.4625Z" fill-rule="nonzero"/><path fill="#4285f4" d="M394.48 20.1L399.67615 29.1L389.28384 29.1Z" fill-rule="nonzero"/><path fill="#1a1a1a" d="M409.5425 34.7875L409.5425 23.303125L410.82376 23.303125L410.82376 24.38125Q411.2769 23.740625 411.8394 23.428125Q412.4175 23.115625 413.23 23.115625Q414.2925 23.115625 415.105 23.6625Q415.9175 24.209375 416.32376 25.209375Q416.74564 26.19375 416.74564 27.38125Q416.74564 28.6625 416.2769 29.678125Q415.82376 30.69375 414.94876 31.240625Q414.0894 31.7875 413.12064 31.7875Q412.4175 31.7875 411.855 31.490625Q411.30814 31.19375 410.94876 30.740625L410.94876 34.7875L409.5425 34.7875ZM410.80814 27.490625Q410.80814 29.1 411.44876 29.865625Q412.105 30.63125 413.0269 30.63125Q413.9644 30.63125 414.63626 29.834375Q415.30814 29.0375 415.30814 27.38125Q415.30814 25.7875 414.6519 25.00625Q413.99564 24.209375 413.0894 24.209375Q412.19876 24.209375 411.49564 25.053125Q410.80814 25.896875 410.80814 27.490625ZM424.2144 28.928125L425.6675 29.1Q425.32376 30.38125 424.38626 31.084375Q423.4644 31.7875 422.0269 31.7875Q420.19876 31.7875 419.13626 30.6625Q418.07376 29.5375 418.07376 27.521875Q418.07376 25.428125 419.1519 24.271875Q420.23 23.115625 421.94876 23.115625Q423.605 23.115625 424.6519 24.25625Q425.7144 25.38125 425.7144 27.428125Q425.7144 27.553125 425.7144 27.803125L419.5269 27.803125Q419.605 29.178125 420.2925 29.9125Q420.99564 30.63125 422.0269 30.63125Q422.80814 30.63125 423.355 30.225Q423.9019 29.81875 424.2144 28.928125ZM419.605 26.646875L424.23 26.646875Q424.13626 25.6 423.69876 25.084375Q423.0269 24.271875 421.9644 24.271875Q420.99564 24.271875 420.32376 24.928125Q419.6675 25.56875 419.605 26.646875ZM432.94876 30.56875Q432.1675 31.240625 431.44876 31.521875Q430.73 31.7875 429.9019 31.7875Q428.5269 31.7875 427.7925 31.115625Q427.05814 30.44375 427.05814 29.4125Q427.05814 28.803125 427.3394 28.303125Q427.62064 27.7875 428.05814 27.490625Q428.51126 27.178125 429.07376 27.021875Q429.49564 26.9125 430.32376 26.81875Q432.0269 26.615625 432.8394 26.334375Q432.8394 26.0375 432.8394 25.959375Q432.8394 25.1 432.44876 24.75625Q431.9019 24.271875 430.8394 24.271875Q429.855 24.271875 429.37064 24.63125Q428.9019 24.975 428.68314 25.85L427.30814 25.6625Q427.49564 24.7875 427.9175 24.240625Q428.355 23.69375 429.1675 23.4125Q429.98 23.115625 431.0425 23.115625Q432.105 23.115625 432.76126 23.365625Q433.43314 23.615625 433.74564 23.990625Q434.05814 24.365625 434.18314 24.94375Q434.26126 25.303125 434.26126 26.240625L434.26126 28.115625Q434.26126 30.084375 434.3394 30.6Q434.43314 31.115625 434.69876 31.6L433.23 31.6Q433.01126 31.1625 432.94876 30.56875ZM432.8394 27.428125Q432.07376 27.740625 430.5425 27.959375Q429.6675 28.084375 429.30814 28.240625Q428.94876 28.396875 428.74564 28.709375Q428.55814 29.00625 428.55814 29.365625Q428.55814 29.928125 428.98 30.303125Q429.4175 30.678125 430.23 30.678125Q431.0425 30.678125 431.6675 30.334375Q432.30814 29.975 432.605 29.35Q432.8394 28.88125 432.8394 27.94375L432.8394 27.428125ZM436.5425 31.6L436.5425 20.146875L437.94876 20.146875L437.94876 26.678125L441.2769 23.303125L443.105 23.303125L439.93314 26.38125L443.4175 31.6L441.68314 31.6L438.94876 27.35L437.94876 28.303125L437.94876 31.6L436.5425 31.6ZM448.5425 31.6L448.5425 23.303125L449.7925 23.303125L449.7925 24.459375Q450.18314 23.85 450.82376 23.490625Q451.48 23.115625 452.30814 23.115625Q453.23 23.115625 453.82376 23.50625Q454.4175 23.88125 454.6519 24.56875Q455.63626 23.115625 457.2144 23.115625Q458.44876 23.115625 459.105 23.803125Q459.7769 24.475 459.7769 25.896875L459.7769 31.6L458.38626 31.6L458.38626 26.365625Q458.38626 25.521875 458.24564 25.1625Q458.105 24.7875 457.74564 24.56875Q457.38626 24.334375 456.9019 24.334375Q456.0269 24.334375 455.44876 24.9125Q454.87064 25.490625 454.87064 26.771875L454.87064 31.6L453.4644 31.6L453.4644 26.209375Q453.4644 25.271875 453.12064 24.803125Q452.7769 24.334375 451.99564 24.334375Q451.4019 24.334375 450.9019 24.646875Q450.4019 24.959375 450.1675 25.56875Q449.94876 26.1625 449.94876 27.2875L449.94876 31.6L448.5425 31.6ZM467.2144 28.928125L468.6675 29.1Q468.32376 30.38125 467.38626 31.084375Q466.4644 31.7875 465.0269 31.7875Q463.19876 31.7875 462.13626 30.6625Q461.07376 29.5375 461.07376 27.521875Q461.07376 25.428125 462.1519 24.271875Q463.23 23.115625 464.94876 23.115625Q466.605 23.115625 467.6519 24.25625Q468.7144 25.38125 468.7144 27.428125Q468.7144 27.553125 468.7144 27.803125L462.5269 27.803125Q462.605 29.178125 463.2925 29.9125Q463.99564 30.63125 465.0269 30.63125Q465.80814 30.63125 466.355 30.225Q466.9019 29.81875 467.2144 28.928125ZM462.605 26.646875L467.23 26.646875Q467.13626 25.6 466.69876 25.084375Q466.0269 24.271875 464.9644 24.271875Q463.99564 24.271875 463.32376 24.928125Q462.6675 25.56875 462.605 26.646875ZM470.5425 31.6L470.5425 23.303125L471.7925 23.303125L471.7925 24.459375Q472.18314 23.85 472.82376 23.490625Q473.48 23.115625 474.30814 23.115625Q475.23 23.115625 475.82376 23.50625Q476.4175 23.88125 476.6519 24.56875Q477.63626 23.115625 479.2144 23.115625Q480.44876 23.115625 481.105 23.803125Q481.7769 24.475 481.7769 25.896875L481.7769 31.6L480.38626 31.6L480.38626 26.365625Q480.38626 25.521875 480.24564 25.1625Q480.105 24.7875 479.74564 24.56875Q479.38626 24.334375 478.9019 24.334375Q478.0269 24.334375 477.44876 24.9125Q476.87064 25.490625 476.87064 26.771875L476.87064 31.6L475.4644 31.6L475.4644 26.209375Q475.4644 25.271875 475.12064 24.803125Q474.7769 24.334375 473.99564 24.334375Q473.4019 24.334375 472.9019 24.646875Q472.4019 24.959375 472.1675 25.56875Q471.94876 26.1625 471.94876 27.2875L471.94876 31.6L470.5425 31.6ZM483.01126 27.44375Q483.01126 25.146875 484.2925 24.0375Q485.37064 23.115625 486.9019 23.115625Q488.62064 23.115625 489.69876 24.240625Q490.7925 25.35 490.7925 27.334375Q490.7925 28.928125 490.30814 29.85Q489.82376 30.771875 488.9019 31.2875Q487.99564 31.7875 486.9019 31.7875Q485.1675 31.7875 484.0894 30.678125Q483.01126 29.553125 483.01126 27.44375ZM484.4644 27.44375Q484.4644 29.0375 485.1519 29.834375Q485.855 30.63125 486.9019 30.63125Q487.94876 30.63125 488.63626 29.834375Q489.3394 29.0375 489.3394 27.396875Q489.3394 25.865625 488.63626 25.06875Q487.94876 24.271875 486.9019 24.271875Q485.855 24.271875 485.1519 25.06875Q484.4644 25.85 484.4644 27.44375ZM492.5269 31.6L492.5269 23.303125L493.7925 23.303125L493.7925 24.553125Q494.2769 23.678125 494.68314 23.396875Q495.0894 23.115625 495.5894 23.115625Q496.2925 23.115625 497.0269 23.56875L496.5425 24.865625Q496.0269 24.56875 495.51126 24.56875Q495.05814 24.56875 494.68314 24.85Q494.32376 25.115625 494.1675 25.615625Q493.93314 26.365625 493.93314 27.25625L493.93314 31.6L492.5269 31.6ZM497.48 34.803123L497.32376 33.475Q497.7769 33.6 498.12064 33.6Q498.5894 33.6 498.87064 33.44375Q499.1519 33.2875 499.3394 33.00625Q499.4644 32.803123 499.76126 31.959375Q499.80814 31.85 499.88626 31.615625L496.74564 23.303125L498.26126 23.303125L499.98 28.1Q500.32376 29.021875 500.5894 30.021875Q500.82376 29.053125 501.1675 28.13125L502.93314 23.303125L504.3394 23.303125L501.18314 31.740625Q500.68314 33.115623 500.4019 33.63125Q500.0269 34.31875 499.5425 34.646873Q499.05814 34.975 498.38626 34.975Q497.98 34.975 497.48 34.803123Z" fill-rule="nonzero"/><path fill="#1a1a1a" d="M414.98 50.6L414.98 49.38125Q414.01126 50.7875 412.3394 50.7875Q411.605 50.7875 410.9644 50.50625Q410.3394 50.225 410.0269 49.803123Q409.7144 49.365623 409.5894 48.75625Q409.51126 48.334373 409.51126 47.44375L409.51126 42.303123L410.9175 42.303123L410.9175 46.896873Q410.9175 48.00625 410.99564 48.38125Q411.13626 48.94375 411.55814 49.25625Q411.99564 49.56875 412.62064 49.56875Q413.26126 49.56875 413.80814 49.25625Q414.37064 48.928123 414.5894 48.365623Q414.82376 47.803123 414.82376 46.740623L414.82376 42.303123L416.23 42.303123L416.23 50.6L414.98 50.6ZM416.98 48.115623L418.37064 47.896873Q418.48 48.740623 419.01126 49.19375Q419.55814 49.63125 420.51126 49.63125Q421.48 49.63125 421.94876 49.240623Q422.4175 48.834373 422.4175 48.303123Q422.4175 47.834373 422.01126 47.553123Q421.7144 47.365623 420.57376 47.084373Q419.0269 46.69375 418.4175 46.4125Q417.82376 46.115623 417.51126 45.615623Q417.2144 45.115623 417.2144 44.50625Q417.2144 43.94375 417.4644 43.475Q417.7144 43.00625 418.1519 42.69375Q418.48 42.44375 419.0425 42.2875Q419.62064 42.115623 420.26126 42.115623Q421.24564 42.115623 421.98 42.396873Q422.7144 42.678123 423.05814 43.1625Q423.4175 43.63125 423.55814 44.44375L422.18314 44.63125Q422.0894 43.990623 421.63626 43.63125Q421.18314 43.271873 420.37064 43.271873Q419.4019 43.271873 418.98 43.6Q418.57376 43.9125 418.57376 44.334373Q418.57376 44.615623 418.74564 44.834373Q418.9175 45.053123 419.2769 45.209373Q419.49564 45.2875 420.5269 45.56875Q422.01126 45.959373 422.605 46.225Q423.19876 46.475 423.5269 46.959373Q423.87064 47.44375 423.87064 48.1625Q423.87064 48.865623 423.44876 49.490623Q423.0425 50.1 422.26126 50.44375Q421.49564 50.7875 420.5269 50.7875Q418.9019 50.7875 418.05814 50.115623Q417.2144 49.44375 416.98 48.115623ZM430.94876 49.56875Q430.1675 50.240623 429.44876 50.521873Q428.73 50.7875 427.9019 50.7875Q426.5269 50.7875 425.7925 50.115623Q425.05814 49.44375 425.05814 48.4125Q425.05814 47.803123 425.3394 47.303123Q425.62064 46.7875 426.05814 46.490623Q426.51126 46.178123 427.07376 46.021873Q427.49564 45.9125 428.32376 45.81875Q430.0269 45.615623 430.8394 45.334373Q430.8394 45.0375 430.8394 44.959373Q430.8394 44.1 430.44876 43.75625Q429.9019 43.271873 428.8394 43.271873Q427.855 43.271873 427.37064 43.63125Q426.9019 43.975 426.68314 44.85L425.30814 44.6625Q425.49564 43.7875 425.9175 43.240623Q426.355 42.69375 427.1675 42.4125Q427.98 42.115623 429.0425 42.115623Q430.105 42.115623 430.76126 42.365623Q431.43314 42.615623 431.74564 42.990623Q432.05814 43.365623 432.18314 43.94375Q432.26126 44.303123 432.26126 45.240623L432.26126 47.115623Q432.26126 49.084373 432.3394 49.6Q432.43314 50.115623 432.69876 50.6L431.23 50.6Q431.01126 50.1625 430.94876 49.56875ZM430.8394 46.428123Q430.07376 46.740623 428.5425 46.959373Q427.6675 47.084373 427.30814 47.240623Q426.94876 47.396873 426.74564 47.709373Q426.55814 48.00625 426.55814 48.365623Q426.55814 48.928123 426.98 49.303123Q427.4175 49.678123 428.23 49.678123Q429.0425 49.678123 429.6675 49.334373Q430.30814 48.975 430.605 48.35Q430.8394 47.88125 430.8394 46.94375L430.8394 46.428123ZM434.2769 51.2875L435.6519 51.490623Q435.73 52.13125 436.12064 52.4125Q436.6519 52.803123 437.55814 52.803123Q438.5269 52.803123 439.05814 52.4125Q439.5894 52.021873 439.7769 51.31875Q439.88626 50.896873 439.88626 49.50625Q438.9644 50.6 437.5894 50.6Q435.87064 50.6 434.93314 49.365623Q433.99564 48.13125 433.99564 46.396873Q433.99564 45.209373 434.4175 44.209373Q434.855 43.209373 435.6675 42.6625Q436.49564 42.115623 437.5894 42.115623Q439.05814 42.115623 440.01126 43.303123L440.01126 42.303123L441.30814 42.303123L441.30814 49.475Q441.30814 51.4125 440.9175 52.225Q440.5269 53.0375 439.6675 53.50625Q438.80814 53.975 437.55814 53.975Q436.07376 53.975 435.1519 53.303123Q434.24564 52.63125 434.2769 51.2875ZM435.44876 46.303123Q435.44876 47.928123 436.0894 48.678123Q436.74564 49.428123 437.7144 49.428123Q438.68314 49.428123 439.3394 48.69375Q439.99564 47.94375 439.99564 46.35Q439.99564 44.81875 439.32376 44.053123Q438.6519 43.271873 437.69876 43.271873Q436.76126 43.271873 436.105 44.0375Q435.44876 44.803123 435.44876 46.303123ZM449.2144 47.928123L450.6675 48.1Q450.32376 49.38125 449.38626 50.084373Q448.4644 50.7875 447.0269 50.7875Q445.19876 50.7875 444.13626 49.6625Q443.07376 48.5375 443.07376 46.521873Q443.07376 44.428123 444.1519 43.271873Q445.23 42.115623 446.94876 42.115623Q448.605 42.115623 449.6519 43.25625Q450.7144 44.38125 450.7144 46.428123Q450.7144 46.553123 450.7144 46.803123L444.5269 46.803123Q444.605 48.178123 445.2925 48.9125Q445.99564 49.63125 447.0269 49.63125Q447.80814 49.63125 448.355 49.225Q448.9019 48.81875 449.2144 47.928123ZM444.605 45.646873L449.23 45.646873Q449.13626 44.6 448.69876 44.084373Q448.0269 43.271873 446.9644 43.271873Q445.99564 43.271873 445.32376 43.928123Q444.6675 44.56875 444.605 45.646873Z" fill-rule="nonzero"/><path fill="#ea4335" d="M394.48 68.1L395.8271 72.245895L400.18634 72.245895L396.65964 74.808205L398.0067 78.9541L394.48 76.39179L390.95328 78.9541L392.30038 74.808205L388.77365 72.245895L393.1329 72.245895Z" fill-rule="nonzero"/><path fill="#1a1a1a" d="M409.01126 75.44375Q409.01126 73.14687 410.2925 72.0375Q411.37064 71.11562 412.9019 71.11562Q414.62064 71.11562 415.69876 72.24062Q416.7925 73.35 416.7925 75.33437Q416.7925 76.92812 416.30814 77.85Q415.82376 78.77187 414.9019 79.2875Q413.99564 79.7875 412.9019 79.7875Q411.1675 79.7875 410.0894 78.67812Q409.01126 77.55312 409.01126 75.44375ZM410.4644 75.44375Q410.4644 77.0375 411.1519 77.83437Q411.855 78.63125 412.9019 78.63125Q413.94876 78.63125 414.63626 77.83437Q415.3394 77.0375 415.3394 75.39687Q415.3394 73.86562 414.63626 73.06875Q413.94876 72.27187 412.9019 72.27187Q411.855 72.27187 411.1519 73.06875Q410.4644 73.85 410.4644 75.44375ZM419.8394 79.6L418.5269 79.6L418.5269 68.14687L419.93314 68.14687L419.93314 72.225Q420.82376 71.11562 422.2144 71.11562Q422.98 71.11562 423.6519 71.42812Q424.3394 71.725 424.7769 72.2875Q425.23 72.85 425.48 73.64687Q425.73 74.42812 425.73 75.31875Q425.73 77.45937 424.6675 78.63125Q423.62064 79.7875 422.13626 79.7875Q420.6675 79.7875 419.8394 78.55312L419.8394 79.6ZM419.82376 75.38125Q419.82376 76.88125 420.23 77.5375Q420.88626 78.63125 422.0269 78.63125Q422.94876 78.63125 423.62064 77.83437Q424.2925 77.02187 424.2925 75.44375Q424.2925 73.81875 423.63626 73.05312Q422.99564 72.27187 422.0894 72.27187Q421.1675 72.27187 420.49564 73.06875Q419.82376 73.86562 419.82376 75.38125ZM427.87064 79.6L427.87064 72.39687L426.63626 72.39687L426.63626 71.30312L427.87064 71.30312L427.87064 70.4125Q427.87064 69.58437 428.0269 69.17812Q428.23 68.63125 428.73 68.2875Q429.24564 67.94375 430.1675 67.94375Q430.76126 67.94375 431.48 68.08437L431.2769 69.31875Q430.8394 69.24062 430.44876 69.24062Q429.80814 69.24062 429.5425 69.52187Q429.2769 69.7875 429.2769 70.5375L429.2769 71.30312L430.88626 71.30312L430.88626 72.39687L429.2769 72.39687L429.2769 79.6L427.87064 79.6ZM436.98 79.6L436.98 78.38125Q436.01126 79.7875 434.3394 79.7875Q433.605 79.7875 432.9644 79.50625Q432.3394 79.225 432.0269 78.80312Q431.7144 78.36562 431.5894 77.75625Q431.51126 77.33437 431.51126 76.44375L431.51126 71.30312L432.9175 71.30312L432.9175 75.89687Q432.9175 77.00625 432.99564 77.38125Q433.13626 77.94375 433.55814 78.25625Q433.99564 78.56875 434.62064 78.56875Q435.26126 78.56875 435.80814 78.25625Q436.37064 77.92812 436.5894 77.36562Q436.82376 76.80312 436.82376 75.74062L436.82376 71.30312L438.23 71.30312L438.23 79.6L436.98 79.6ZM438.98 77.11562L440.37064 76.89687Q440.48 77.74062 441.01126 78.19375Q441.55814 78.63125 442.51126 78.63125Q443.48 78.63125 443.94876 78.24062Q444.4175 77.83437 444.4175 77.30312Q444.4175 76.83437 444.01126 76.55312Q443.7144 76.36562 442.57376 76.08437Q441.0269 75.69375 440.4175 75.4125Q439.82376 75.11562 439.51126 74.61562Q439.2144 74.11562 439.2144 73.50625Q439.2144 72.94375 439.4644 72.475Q439.7144 72.00625 440.1519 71.69375Q440.48 71.44375 441.0425 71.2875Q441.62064 71.11562 442.26126 71.11562Q443.24564 71.11562 443.98 71.39687Q444.7144 71.67812 445.05814 72.1625Q445.4175 72.63125 445.55814 73.44375L444.18314 73.63125Q444.0894 72.99062 443.63626 72.63125Q443.18314 72.27187 442.37064 72.27187Q441.4019 72.27187 440.98 72.6Q440.57376 72.9125 440.57376 73.33437Q440.57376 73.61562 440.74564 73.83437Q440.9175 74.05312 441.2769 74.20937Q441.49564 74.2875 442.5269 74.56875Q444.01126 74.95937 444.605 75.225Q445.19876 75.475 445.5269 75.95937Q445.87064 76.44375 445.87064 77.1625Q445.87064 77.86562 445.44876 78.49062Q445.0425 79.1 444.26126 79.44375Q443.49564 79.7875 442.5269 79.7875Q440.9019 79.7875 440.05814 79.11562Q439.2144 78.44375 438.98 77.11562ZM452.94876 76.55312L454.3394 76.74062Q454.105 78.1625 453.1675 78.975Q452.24564 79.7875 450.88626 79.7875Q449.18314 79.7875 448.13626 78.67812Q447.105 77.55312 447.105 75.475Q447.105 74.13125 447.5425 73.13125Q447.99564 72.11562 448.9019 71.61562Q449.82376 71.11562 450.88626 71.11562Q452.24564 71.11562 453.105 71.80312Q453.9644 72.475 454.19876 73.74062L452.8394 73.94375Q452.63626 73.11562 452.13626 72.69375Q451.6519 72.27187 450.94876 72.27187Q449.88626 72.27187 449.2144 73.0375Q448.55814 73.7875 448.55814 75.44375Q448.55814 77.11562 449.19876 77.88125Q449.8394 78.63125 450.87064 78.63125Q451.69876 78.63125 452.24564 78.13125Q452.80814 77.61562 452.94876 76.55312ZM460.94876 78.56875Q460.1675 79.24062 459.44876 79.52187Q458.73 79.7875 457.9019 79.7875Q456.5269 79.7875 455.7925 79.11562Q455.05814 78.44375 455.05814 77.4125Q455.05814 76.80312 455.3394 76.30312Q455.62064 75.7875 456.05814 75.49062Q456.51126 75.17812 457.07376 75.02187Q457.49564 74.9125 458.32376 74.81875Q460.0269 74.61562 460.8394 74.33437Q460.8394 74.0375 460.8394 73.95937Q460.8394 73.1 460.44876 72.75625Q459.9019 72.27187 458.8394 72.27187Q457.855 72.27187 457.37064 72.63125Q456.9019 72.975 456.68314 73.85L455.30814 73.6625Q455.49564 72.7875 455.9175 72.24062Q456.355 71.69375 457.1675 71.4125Q457.98 71.11562 459.0425 71.11562Q460.105 71.11562 460.76126 71.36562Q461.43314 71.61562 461.74564 71.99062Q462.05814 72.36562 462.18314 72.94375Q462.26126 73.30312 462.26126 74.24062L462.26126 76.11562Q462.26126 78.08437 462.3394 78.6Q462.43314 79.11562 462.69876 79.6L461.23 79.6Q461.01126 79.1625 460.94876 78.56875ZM460.8394 75.42812Q460.07376 75.74062 458.5425 75.95937Q457.6675 76.08437 457.30814 76.24062Q456.94876 76.39687 456.74564 76.70937Q456.55814 77.00625 456.55814 77.36562Q456.55814 77.92812 456.98 78.30312Q457.4175 78.67812 458.23 78.67812Q459.0425 78.67812 459.6675 78.33437Q460.30814 77.975 460.605 77.35Q460.8394 76.88125 460.8394 75.94375L460.8394 75.42812ZM467.605 78.33437L467.80814 79.58437Q467.2144 79.70937 466.74564 79.70937Q465.98 79.70937 465.55814 79.475Q465.13626 79.225 464.9644 78.83437Q464.7925 78.42812 464.7925 77.1625L464.7925 72.39687L463.76126 72.39687L463.76126 71.30312L464.7925 71.30312L464.7925 69.24062L466.19876 68.39687L466.19876 71.30312L467.605 71.30312L467.605 72.39687L466.19876 72.39687L466.19876 77.24062Q466.19876 77.85 466.26126 78.02187Q466.3394 78.19375 466.51126 78.30312Q466.68314 78.39687 466.99564 78.39687Q467.23 78.39687 467.605 78.33437ZM474.2144 76.92812L475.6675 77.1Q475.32376 78.38125 474.38626 79.08437Q473.4644 79.7875 472.0269 79.7875Q470.19876 79.7875 469.13626 78.6625Q468.07376 77.5375 468.07376 75.52187Q468.07376 73.42812 469.1519 72.27187Q470.23 71.11562 471.94876 71.11562Q473.605 71.11562 474.6519 72.25625Q475.7144 73.38125 475.7144 75.42812Q475.7144 75.55312 475.7144 75.80312L469.5269 75.80312Q469.605 77.17812 470.2925 77.9125Q470.99564 78.63125 472.0269 78.63125Q472.80814 78.63125 473.355 78.225Q473.9019 77.81875 474.2144 76.92812ZM469.605 74.64687L474.23 74.64687Q474.13626 73.6 473.69876 73.08437Q473.0269 72.27187 471.9644 72.27187Q470.99564 72.27187 470.32376 72.92812Q469.6675 73.56875 469.605 74.64687ZM482.9175 79.6L482.9175 78.55312Q482.13626 79.7875 480.605 79.7875Q479.605 79.7875 478.7769 79.24062Q477.94876 78.69375 477.48 77.70937Q477.0269 76.725 477.0269 75.45937Q477.0269 74.20937 477.43314 73.20937Q477.855 72.19375 478.68314 71.6625Q479.51126 71.11562 480.5425 71.11562Q481.2925 71.11562 481.87064 71.42812Q482.4644 71.74062 482.82376 72.25625L482.82376 68.14687L484.23 68.14687L484.23 79.6L482.9175 79.6ZM478.48 75.45937Q478.48 77.05312 479.1519 77.85Q479.82376 78.63125 480.73 78.63125Q481.6519 78.63125 482.2925 77.88125Q482.94876 77.11562 482.94876 75.56875Q482.94876 73.86562 482.2925 73.06875Q481.63626 72.27187 480.6675 72.27187Q479.73 72.27187 479.105 73.0375Q478.48 73.80312 478.48 75.45937Z" fill-rule="nonzero"/><path fill="#1a1a1a" d="M414.94876 95.55312L416.3394 95.74062Q416.105 97.1625 415.1675 97.975Q414.24564 98.7875 412.88626 98.7875Q411.18314 98.7875 410.13626 97.67812Q409.105 96.55312 409.105 94.475Q409.105 93.13125 409.5425 92.13125Q409.99564 91.11562 410.9019 90.61562Q411.82376 90.11562 412.88626 90.11562Q414.24564 90.11562 415.105 90.80312Q415.9644 91.475 416.19876 92.74062L414.8394 92.94375Q414.63626 92.11562 414.13626 91.69375Q413.6519 91.27187 412.94876 91.27187Q411.88626 91.27187 411.2144 92.0375Q410.55814 92.7875 410.55814 94.44375Q410.55814 96.11562 411.19876 96.88125Q411.8394 97.63125 412.87064 97.63125Q413.69876 97.63125 414.24564 97.13125Q414.80814 96.61562 414.94876 95.55312ZM417.5425 88.75625L417.5425 87.14687L418.94876 87.14687L418.94876 88.75625L417.5425 88.75625ZM417.5425 98.6L417.5425 90.30312L418.94876 90.30312L418.94876 98.6L417.5425 98.6ZM421.5269 98.6L421.5269 90.30312L422.7925 90.30312L422.7925 91.55312Q423.2769 90.67812 423.68314 90.39687Q424.0894 90.11562 424.5894 90.11562Q425.2925 90.11562 426.0269 90.56875L425.5425 91.86562Q425.0269 91.56875 424.51126 91.56875Q424.05814 91.56875 423.68314 91.85Q423.32376 92.11562 423.1675 92.61562Q422.93314 93.36562 422.93314 94.25625L422.93314 98.6L421.5269 98.6ZM431.94876 95.55312L433.3394 95.74062Q433.105 97.1625 432.1675 97.975Q431.24564 98.7875 429.88626 98.7875Q428.18314 98.7875 427.13626 97.67812Q426.105 96.55312 426.105 94.475Q426.105 93.13125 426.5425 92.13125Q426.99564 91.11562 427.9019 90.61562Q428.82376 90.11562 429.88626 90.11562Q431.24564 90.11562 432.105 90.80312Q432.9644 91.475 433.19876 92.74062L431.8394 92.94375Q431.63626 92.11562 431.13626 91.69375Q430.6519 91.27187 429.94876 91.27187Q428.88626 91.27187 428.2144 92.0375Q427.55814 92.7875 427.55814 94.44375Q427.55814 96.11562 428.19876 96.88125Q428.8394 97.63125 429.87064 97.63125Q430.69876 97.63125 431.24564 97.13125Q431.80814 96.61562 431.94876 95.55312ZM439.98 98.6L439.98 97.38125Q439.01126 98.7875 437.3394 98.7875Q436.605 98.7875 435.9644 98.50625Q435.3394 98.225 435.0269 97.80312Q434.7144 97.36562 434.5894 96.75625Q434.51126 96.33437 434.51126 95.44375L434.51126 90.30312L435.9175 90.30312L435.9175 94.89687Q435.9175 96.00625 435.99564 96.38125Q436.13626 96.94375 436.55814 97.25625Q436.99564 97.56875 437.62064 97.56875Q438.26126 97.56875 438.80814 97.25625Q439.37064 96.92812 439.5894 96.36562Q439.82376 95.80312 439.82376 94.74062L439.82376 90.30312L441.23 90.30312L441.23 98.6L439.98 98.6ZM442.5425 88.75625L442.5425 87.14687L443.94876 87.14687L443.94876 88.75625L442.5425 88.75625ZM442.5425 98.6L442.5425 90.30312L443.94876 90.30312L443.94876 98.6L442.5425 98.6ZM449.605 97.33437L449.80814 98.58437Q449.2144 98.70937 448.74564 98.70937Q447.98 98.70937 447.55814 98.475Q447.13626 98.225 446.9644 97.83437Q446.7925 97.42812 446.7925 96.1625L446.7925 91.39687L445.76126 91.39687L445.76126 90.30312L446.7925 90.30312L446.7925 88.24062L448.19876 87.39687L448.19876 90.30312L449.605 90.30312L449.605 91.39687L448.19876 91.39687L448.19876 96.24062Q448.19876 96.85 448.26126 97.02187Q448.3394 97.19375 448.51126 97.30312Q448.68314 97.39687 448.99564 97.39687Q449.23 97.39687 449.605 97.33437ZM453.98 96.11562L455.37064 95.89687Q455.48 96.74062 456.01126 97.19375Q456.55814 97.63125 457.51126 97.63125Q458.48 97.63125 458.94876 97.24062Q459.4175 96.83437 459.4175 96.30312Q459.4175 95.83437 459.01126 95.55312Q458.7144 95.36562 457.57376 95.08437Q456.0269 94.69375 455.4175 94.4125Q454.82376 94.11562 454.51126 93.61562Q454.2144 93.11562 454.2144 92.50625Q454.2144 91.94375 454.4644 91.475Q454.7144 91.00625 455.1519 90.69375Q455.48 90.44375 456.0425 90.2875Q456.62064 90.11562 457.26126 90.11562Q458.24564 90.11562 458.98 90.39687Q459.7144 90.67812 460.05814 91.1625Q460.4175 91.63125 460.55814 92.44375L459.18314 92.63125Q459.0894 91.99062 458.63626 91.63125Q458.18314 91.27187 457.37064 91.27187Q456.4019 91.27187 455.98 91.6Q455.57376 91.9125 455.57376 92.33437Q455.57376 92.61562 455.74564 92.83437Q455.9175 93.05312 456.2769 93.20937Q456.49564 93.2875 457.5269 93.56875Q459.01126 93.95937 459.605 94.225Q460.19876 94.475 460.5269 94.95937Q460.87064 95.44375 460.87064 96.1625Q460.87064 96.86562 460.44876 97.49062Q460.0425 98.1 459.26126 98.44375Q458.49564 98.7875 457.5269 98.7875Q455.9019 98.7875 455.05814 98.11562Q454.2144 97.44375 453.98 96.11562ZM462.5425 88.75625L462.5425 87.14687L463.94876 87.14687L463.94876 88.75625L462.5425 88.75625ZM462.5425 98.6L462.5425 90.30312L463.94876 90.30312L463.94876 98.6L462.5425 98.6ZM465.7925 98.6L465.7925 97.45937L471.07376 91.39687Q470.18314 91.44375 469.49564 91.44375L466.105 91.44375L466.105 90.30312L472.88626 90.30312L472.88626 91.225L468.4019 96.49062L467.5269 97.45937Q468.48 97.38125 469.30814 97.38125L473.13626 97.38125L473.13626 98.6L465.7925 98.6ZM479.2144 95.92812L480.6675 96.1Q480.32376 97.38125 479.38626 98.08437Q478.4644 98.7875 477.0269 98.7875Q475.19876 98.7875 474.13626 97.6625Q473.07376 96.5375 473.07376 94.52187Q473.07376 92.42812 474.1519 91.27187Q475.23 90.11562 476.94876 90.11562Q478.605 90.11562 479.6519 91.25625Q480.7144 92.38125 480.7144 94.42812Q480.7144 94.55312 480.7144 94.80312L474.5269 94.80312Q474.605 96.17812 475.2925 96.9125Q475.99564 97.63125 477.0269 97.63125Q477.80814 97.63125 478.355 97.225Q478.9019 96.81875 479.2144 95.92812ZM474.605 93.64687L479.23 93.64687Q479.13626 92.6 478.69876 92.08437Q478.0269 91.27187 476.9644 91.27187Q475.99564 91.27187 475.32376 91.92812Q474.6675 92.56875 474.605 93.64687Z" fill-rule="nonzero"/></svg>