<svg version="1.1" viewBox="0.0 0.0 536.0 332.0" fill="none" stroke="none" stroke-linecap="square" stroke-miterlimit="10" width="536" height="332" xmlns:xlink="http://www.w3.org/1999/xlink" xmlns="http://www.w3.org/2000/svg"><path fill="#ffffff" d="M0 0L536.0 0L536.0 332.0L0 332.0L0 0Z" fill-rule="nonzero"/><path stroke="#cccccc" stroke-width="1.0" stroke-linecap="butt" d="M99.5 24.5L99.5 249.5" fill-rule="nonzero"/><path stroke="#cccccc" stroke-width="1.0" stroke-linecap="butt" d="M186.5 24.5L186.5 249.5" fill-rule="nonzero"/><path stroke="#cccccc" stroke-width="1.0" stroke-linecap="butt" d="M272.5 24.5L272.5 249.5" fill-rule="nonzero"/><path stroke="#cccccc" stroke-width="1.0" stroke-linecap="butt" d="M359.5 24.5L359.5 249.5" fill-rule="nonzero"/><path stroke="#000000" stroke-width="1.0" stroke-linecap="butt" stroke-opacity="0.0" d="M128.5 24.5L128.5 249.5" fill-rule="nonzero"/><path stroke="#000000" stroke-width="1.0" stroke-linecap="butt" stroke-opacity="0.0" d="M157.5 24.5L157.5 249.5" fill-rule="nonzero"/><path stroke="#000000" stroke-width="1.0" stroke-linecap="butt" stroke-opacity="0.0" d="M215.5 24.5L215.5 249.5" fill-rule="nonzero"/><path stroke="#000000" stroke-width="1.0" stroke-linecap="butt" stroke-opacity="0.0" d="M243.5 24.5L243.5 249.5" fill-rule="nonzero"/><path stroke="#000000" stroke-width="1.0" stroke-linecap="butt" stroke-opacity="0.0" d="M301.5 24.5L301.5 249.5" fill-rule="nonzero"/><path stroke="#000000" stroke-width="1.0" stroke-linecap="butt" stroke-opacity="0.0" d="M330.5 24.5L330.5 249.5" fill-rule="nonzero"/><path stroke="#333333" stroke-width="1.0" stroke-linecap="butt" d="M90.5 249.5L368.5 249.5" fill-rule="nonzero"/><path stroke="#cccccc" stroke-width="1.0" stroke-linecap="butt" d="M90.5 174.5L368.5 174.5" fill-rule="nonzero"/><path stroke="#cccccc" stroke-width="1.0" stroke-linecap="butt" d="M90.5 99.5L368.5 99.5" fill-rule="nonzero"/><path stroke="#cccccc" stroke-width="1.0" stroke-linecap="butt" d="M90.5 24.5L368.5 24.5" fill-rule="nonzero"/><path stroke="#e6e6e6" stroke-width="1.0" stroke-linecap="butt" d="M90.5 241.5L368.5 241.5" fill-rule="nonzero"/><path stroke="#e6e6e6" stroke-width="1.0" stroke-linecap="butt" d="M90.5 234.5L368.5 234.5" fill-rule="nonzero"/><path stroke="#e6e6e6" stroke-width="1.0" stroke-linecap="butt" d="M90.5 226.5L368.5 226.5" fill-rule="nonzero"/><path stroke="#e6e6e6" stroke-width="1.0" stroke-linecap="butt" d="M90.5 219.5L368.5 219.5" fill-rule="nonzero"/><path stroke="#e6e6e6" stroke-width="1.0" stroke-linecap="butt" d="M90.5 211.5L368.5 211.5" fill-rule="nonzero"/><path stroke="#e6e6e6" stroke-width="1.0" stroke-linecap="butt" d="M90.5 204.5L368.5 204.5" fill-rule="nonzero"/><path stroke="#e6e6e6" stroke-width="1.0" stroke-linecap="butt" d="M90.5 196.5L368.5 196.5" fill-rule="nonzero"/><path stroke="#e6e6e6" stroke-width="1.0" stroke-linecap="butt" d="M90.5 189.5L368.5 189.5" fill-rule="nonzero"/><path stroke="#e6e6e6" stroke-width="1.0" stroke-linecap="butt" d="M90.5 181.5L368.5 181.5" fill-rule="nonzero"/><path stroke="#e6e6e6" stroke-width="1.0" stroke-linecap="butt" d="M90.5 166.5L368.5 166.5" fill-rule="nonzero"/><path stroke="#e6e6e6" stroke-width="1.0" stroke-linecap="butt" d="M90.5 159.5L368.5 159.5" fill-rule="nonzero"/><path stroke="#e6e6e6" stroke-width="1.0" stroke-linecap="butt" d="M90.5 151.5L368.5 151.5" fill-rule="nonzero"/><path stroke="#e6e6e6" stroke-width="1.0" stroke-linecap="butt" d="M90.5 144.5L368.5 144.5" fill-rule="nonzero"/><path stroke="#e6e6e6" stroke-width="1.0" stroke-linecap="butt" d="M90.5 137.5L368.5 137.5" fill-rule="nonzero"/><path stroke="#e6e6e6" stroke-width="1.0" stroke-linecap="butt" d="M90.5 129.5L368.5 129.5" fill-rule="nonzero"/><path stroke="#e6e6e6" stroke-width="1.0" stroke-linecap="butt" d="M90.5 122.5L368.5 122.5" fill-rule="nonzero"/><path stroke="#e6e6e6" stroke-width="1.0" stroke-linecap="butt" d="M90.5 114.5L368.5 114.5" fill-rule="nonzero"/><path stroke="#e6e6e6" stroke-width="1.0" stroke-linecap="butt" d="M90.5 107.5L368.5 107.5" fill-rule="nonzero"/><path stroke="#e6e6e6" stroke-width="1.0" stroke-linecap="butt" d="M90.5 92.5L368.5 92.5" fill-rule="nonzero"/><path stroke="#e6e6e6" stroke-width="1.0" stroke-linecap="butt" d="M90.5 84.5L368.5 84.5" fill-rule="nonzero"/><path stroke="#e6e6e6" stroke-width="1.0" stroke-linecap="butt" d="M90.5 77.5L368.5 77.5" fill-rule="nonzero"/><path stroke="#e6e6e6" stroke-width="1.0" stroke-linecap="butt" d="M90.5 69.5L368.5 69.5" fill-rule="nonzero"/><path stroke="#e6e6e6" stroke-width="1.0" stroke-linecap="butt" d="M90.5 62.5L368.5 62.5" fill-rule="nonzero"/><path stroke="#e6e6e6" stroke-width="1.0" stroke-linecap="butt" d="M90.5 54.5L368.5 54.5" fill-rule="nonzero"/><path stroke="#e6e6e6" stroke-width="1.0" stroke-linecap="butt" d="M90.5 47.5L368.5 47.5" fill-rule="nonzero"/><path stroke="#e6e6e6" stroke-width="1.0" stroke-linecap="butt" d="M90.5 39.5L368.5 39.5" fill-rule="nonzero"/><path stroke="#e6e6e6" stroke-width="1.0" stroke-linecap="butt" d="M90.5 32.5L368.5 32.5" fill-rule="nonzero"/><clipPath id="id_0"><path d="M90.6 24.6L368.56 24.6L368.56 249.4L90.6 249.4L90.6 24.6Z" clip-rule="nonzero"/></clipPath><path fill="#4285f4" clip-path="url(#id_0)" d="M99.92877 227.81137L105.12492 236.81137L94.73262 236.81137Z" fill-rule="nonzero"/><path fill="#4285f4" clip-path="url(#id_0)" d="M186.36293 196.21698L191.55908 205.21698L181.16676 205.21698Z" fill-rule="nonzero"/><path fill="#4285f4" clip-path="url(#id_0)" d="M359.23123 40.700336L364.4274 49.700336L354.03506 49.700336Z" fill-rule="nonzero"/><path fill="#ea4335" clip-path="url(#id_0)" d="M99.92877 238.67662L101.275856 242.82251L105.63511 242.82251L102.1084 245.38483L103.45548 249.53072L99.92877 246.96841L96.402054 249.53072L97.74914 245.38483L94.22243 242.82251L98.58169 242.82251Z" fill-rule="nonzero"/><path fill="#ea4335" clip-path="url(#id_0)" d="M186.36293 227.84137L187.71 231.98727L192.06926 231.98727L188.54256 234.54958L189.88963 238.69548L186.36293 236.13316L182.83621 238.69548L184.18329 234.54958L180.65659 231.98727L185.01584 231.98727Z" fill-rule="nonzero"/><path fill="#ea4335" clip-path="url(#id_0)" d="M359.23123 177.41826L360.5783 181.56416L364.93756 181.56416L361.41086 184.12646L362.75793 188.27235L359.23123 185.71005L355.70453 188.27235L357.0516 184.12646L353.5249 181.56416L357.88416 181.56416Z" fill-rule="nonzero"/><path fill="#000000" d="M186.58 311.4L186.58 299.94687L188.09563 299.94687L188.09563 311.4L186.58 311.4ZM189.1425 311.4L189.1425 303.10312L190.40813 303.10312L190.40813 304.275Q191.31438 302.91562 193.04875 302.91562Q193.79875 302.91562 194.42375 303.18124Q195.04875 303.44687 195.36125 303.88437Q195.67375 304.32187 195.79875 304.93124Q195.87688 305.32187 195.87688 306.29062L195.87688 311.4L194.47063 311.4L194.47063 306.35312Q194.47063 305.49374 194.29875 305.07187Q194.1425 304.63437 193.72063 304.38437Q193.31438 304.13437 192.75188 304.13437Q191.84563 304.13437 191.18938 304.7125Q190.54875 305.275 190.54875 306.86874L190.54875 311.4L189.1425 311.4ZM197.1425 314.5875L197.1425 303.10312L198.42375 303.10312L198.42375 304.18124Q198.87688 303.54062 199.43938 303.22812Q200.0175 302.91562 200.83 302.91562Q201.8925 302.91562 202.705 303.4625Q203.5175 304.00937 203.92375 305.00937Q204.34563 305.99374 204.34563 307.18124Q204.34563 308.4625 203.87688 309.47812Q203.42375 310.49374 202.54875 311.04062Q201.68938 311.5875 200.72063 311.5875Q200.0175 311.5875 199.455 311.29062Q198.90813 310.99374 198.54875 310.54062L198.54875 314.5875L197.1425 314.5875ZM198.40813 307.29062Q198.40813 308.9 199.04875 309.66562Q199.705 310.43124 200.62688 310.43124Q201.56438 310.43124 202.23625 309.63437Q202.90813 308.8375 202.90813 307.18124Q202.90813 305.5875 202.25188 304.80624Q201.59563 304.00937 200.68938 304.00937Q199.79875 304.00937 199.09563 304.85312Q198.40813 305.69687 198.40813 307.29062ZM211.58 311.4L211.58 310.18124Q210.61125 311.5875 208.93938 311.5875Q208.205 311.5875 207.56438 311.30624Q206.93938 311.025 206.62688 310.60312Q206.31438 310.16562 206.18938 309.55624Q206.11125 309.13437 206.11125 308.24374L206.11125 303.10312L207.5175 303.10312L207.5175 307.69687Q207.5175 308.80624 207.59563 309.18124Q207.73625 309.74374 208.15813 310.05624Q208.59563 310.36874 209.22063 310.36874Q209.86125 310.36874 210.40813 310.05624Q210.97063 309.72812 211.18938 309.16562Q211.42375 308.60312 211.42375 307.54062L211.42375 303.10312L212.83 303.10312L212.83 311.4L211.58 311.4ZM217.205 310.13437L217.40813 311.38437Q216.81438 311.50937 216.34563 311.50937Q215.58 311.50937 215.15813 311.275Q214.73625 311.025 214.56438 310.63437Q214.3925 310.22812 214.3925 308.9625L214.3925 304.19687L213.36125 304.19687L213.36125 303.10312L214.3925 303.10312L214.3925 301.04062L215.79875 300.19687L215.79875 303.10312L217.205 303.10312L217.205 304.19687L215.79875 304.19687L215.79875 309.04062Q215.79875 309.65 215.86125 309.82187Q215.93938 309.99374 216.11125 310.10312Q216.28313 310.19687 216.59563 310.19687Q216.83 310.19687 217.205 310.13437ZM221.58 308.91562L222.97063 308.69687Q223.08 309.54062 223.61125 309.99374Q224.15813 310.43124 225.11125 310.43124Q226.08 310.43124 226.54875 310.04062Q227.0175 309.63437 227.0175 309.10312Q227.0175 308.63437 226.61125 308.35312Q226.31438 308.16562 225.17375 307.88437Q223.62688 307.49374 223.0175 307.2125Q222.42375 306.91562 222.11125 306.41562Q221.81438 305.91562 221.81438 305.30624Q221.81438 304.74374 222.06438 304.275Q222.31438 303.80624 222.75188 303.49374Q223.08 303.24374 223.6425 303.0875Q224.22063 302.91562 224.86125 302.91562Q225.84563 302.91562 226.58 303.19687Q227.31438 303.47812 227.65813 303.9625Q228.0175 304.43124 228.15813 305.24374L226.78313 305.43124Q226.68938 304.79062 226.23625 304.43124Q225.78313 304.07187 224.97063 304.07187Q224.00188 304.07187 223.58 304.4Q223.17375 304.7125 223.17375 305.13437Q223.17375 305.41562 223.34563 305.63437Q223.5175 305.85312 223.87688 306.00937Q224.09563 306.0875 225.12688 306.36874Q226.61125 306.75937 227.205 307.025Q227.79875 307.275 228.12688 307.75937Q228.47063 308.24374 228.47063 308.9625Q228.47063 309.66562 228.04875 310.29062Q227.6425 310.9 226.86125 311.24374Q226.09563 311.5875 225.12688 311.5875Q223.50188 311.5875 222.65813 310.91562Q221.81438 310.24374 221.58 308.91562ZM230.1425 301.55624L230.1425 299.94687L231.54875 299.94687L231.54875 301.55624L230.1425 301.55624ZM230.1425 311.4L230.1425 303.10312L231.54875 303.10312L231.54875 311.4L230.1425 311.4ZM233.3925 311.4L233.3925 310.25937L238.67375 304.19687Q237.78313 304.24374 237.09563 304.24374L233.705 304.24374L233.705 303.10312L240.48625 303.10312L240.48625 304.025L236.00188 309.29062L235.12688 310.25937Q236.08 310.18124 236.90813 310.18124L240.73625 310.18124L240.73625 311.4L233.3925 311.4ZM246.81438 308.72812L248.2675 308.9Q247.92375 310.18124 246.98625 310.88437Q246.06438 311.5875 244.62688 311.5875Q242.79875 311.5875 241.73625 310.4625Q240.67375 309.3375 240.67375 307.32187Q240.67375 305.22812 241.75188 304.07187Q242.83 302.91562 244.54875 302.91562Q246.205 302.91562 247.25188 304.05624Q248.31438 305.18124 248.31438 307.22812Q248.31438 307.35312 248.31438 307.60312L242.12688 307.60312Q242.205 308.97812 242.8925 309.7125Q243.59563 310.43124 244.62688 310.43124Q245.40813 310.43124 245.955 310.025Q246.50188 309.61874 246.81438 308.72812ZM242.205 306.44687L246.83 306.44687Q246.73625 305.4 246.29875 304.88437Q245.62688 304.07187 244.56438 304.07187Q243.59563 304.07187 242.92375 304.72812Q242.2675 305.36874 242.205 306.44687ZM253.08 311.60312L256.40814 299.74374L257.53314 299.74374L254.22063 311.60312L253.08 311.60312ZM259.4394 311.4L258.1269 311.4L258.1269 299.94687L259.53314 299.94687L259.53314 304.025Q260.42377 302.91562 261.8144 302.91562Q262.58002 302.91562 263.2519 303.22812Q263.9394 303.525 264.3769 304.0875Q264.83002 304.65 265.08002 305.44687Q265.33002 306.22812 265.33002 307.11874Q265.33002 309.25937 264.26752 310.43124Q263.22064 311.5875 261.73627 311.5875Q260.26752 311.5875 259.4394 310.35312L259.4394 311.4ZM259.42377 307.18124Q259.42377 308.68124 259.83002 309.3375Q260.48627 310.43124 261.6269 310.43124Q262.54877 310.43124 263.22064 309.63437Q263.89252 308.82187 263.89252 307.24374Q263.89252 305.61874 263.23627 304.85312Q262.59564 304.07187 261.6894 304.07187Q260.76752 304.07187 260.09564 304.86874Q259.42377 305.66562 259.42377 307.18124ZM267.14252 301.55624L267.14252 299.94687L268.54877 299.94687L268.54877 301.55624L267.14252 301.55624ZM267.14252 311.4L267.14252 303.10312L268.54877 303.10312L268.54877 311.4L267.14252 311.4ZM274.20502 310.13437L274.40814 311.38437Q273.8144 311.50937 273.34564 311.50937Q272.58002 311.50937 272.15814 311.275Q271.73627 311.025 271.5644 310.63437Q271.39252 310.22812 271.39252 308.9625L271.39252 304.19687L270.36127 304.19687L270.36127 303.10312L271.39252 303.10312L271.39252 301.04062L272.79877 300.19687L272.79877 303.10312L274.20502 303.10312L274.20502 304.19687L272.79877 304.19687L272.79877 309.04062Q272.79877 309.65 272.86127 309.82187Q272.9394 309.99374 273.11127 310.10312Q273.28314 310.19687 273.59564 310.19687Q273.83002 310.19687 274.20502 310.13437Z" fill-rule="nonzero"/><path fill="#000000" d="M31.599995 191.76562L20.14687 191.76562L20.14687 187.8125Q20.14687 186.48438 20.30312 185.78125Q20.537495 184.79688 21.131245 184.09375Q21.89687 183.1875 23.08437 182.75Q24.27187 182.29688 25.80312 182.29688Q27.11562 182.29688 28.131245 182.60938Q29.131245 182.90625 29.787495 183.39062Q30.443745 183.85938 30.83437 184.42188Q31.20937 184.98438 31.412495 185.79688Q31.599995 186.59375 31.599995 187.625L31.599995 191.76562ZM30.24062 190.25L30.24062 187.79688Q30.24062 186.67188 30.037495 186.03125Q29.818745 185.375 29.443745 185.0Q28.89687 184.45312 27.99062 184.15625Q27.08437 183.85938 25.787495 183.85938Q23.99062 183.85938 23.02187 184.45312Q22.05312 185.03125 21.724995 185.875Q21.49062 186.48438 21.49062 187.84375L21.49062 190.25L30.24062 190.25ZM30.568745 174.53125Q31.24062 175.3125 31.52187 176.03125Q31.787495 176.75 31.787495 177.57812Q31.787495 178.95312 31.11562 179.6875Q30.443745 180.42188 29.412495 180.42188Q28.80312 180.42188 28.30312 180.14062Q27.787495 179.85938 27.49062 179.42188Q27.17812 178.96875 27.02187 178.40625Q26.912495 177.98438 26.818745 177.15625Q26.61562 175.45312 26.33437 174.64062Q26.037495 174.64062 25.95937 174.64062Q25.099995 174.64062 24.756245 175.03125Q24.27187 175.57812 24.27187 176.64062Q24.27187 177.625 24.631245 178.10938Q24.974995 178.57812 25.849995 178.79688L25.662495 180.17188Q24.787495 179.98438 24.24062 179.5625Q23.693745 179.125 23.412495 178.3125Q23.11562 177.5 23.11562 176.4375Q23.11562 175.375 23.36562 174.71875Q23.61562 174.04688 23.99062 173.73438Q24.36562 173.42188 24.943745 173.29688Q25.30312 173.21875 26.24062 173.21875L28.11562 173.21875Q30.08437 173.21875 30.599995 173.14062Q31.11562 173.04688 31.599995 172.78125L31.599995 174.25Q31.162495 174.46875 30.568745 174.53125ZM27.42812 174.64062Q27.74062 175.40625 27.95937 176.9375Q28.08437 177.8125 28.24062 178.17188Q28.39687 178.53125 28.70937 178.73438Q29.006245 178.92188 29.36562 178.92188Q29.92812 178.92188 30.30312 178.5Q30.67812 178.0625 30.67812 177.25Q30.67812 176.4375 30.33437 175.8125Q29.974995 175.17188 29.349995 174.875Q28.881245 174.64062 27.943745 174.64062L27.42812 174.64062ZM30.33437 167.875L31.58437 167.67188Q31.70937 168.26562 31.70937 168.73438Q31.70937 169.5 31.474995 169.92188Q31.224995 170.34375 30.83437 170.51562Q30.42812 170.6875 29.162495 170.6875L24.39687 170.6875L24.39687 171.71875L23.30312 171.71875L23.30312 170.6875L21.24062 170.6875L20.39687 169.28125L23.30312 169.28125L23.30312 167.875L24.39687 167.875L24.39687 169.28125L29.24062 169.28125Q29.849995 169.28125 30.02187 169.21875Q30.193745 169.14062 30.30312 168.96875Q30.39687 168.79688 30.39687 168.48438Q30.39687 168.25 30.33437 167.875ZM30.568745 161.53125Q31.24062 162.3125 31.52187 163.03125Q31.787495 163.75 31.787495 164.57812Q31.787495 165.95312 31.11562 166.6875Q30.443745 167.42188 29.412495 167.42188Q28.80312 167.42188 28.30312 167.14062Q27.787495 166.85938 27.49062 166.42188Q27.17812 165.96875 27.02187 165.40625Q26.912495 164.98438 26.818745 164.15625Q26.61562 162.45312 26.33437 161.64062Q26.037495 161.64062 25.95937 161.64062Q25.099995 161.64062 24.756245 162.03125Q24.27187 162.57812 24.27187 163.64062Q24.27187 164.625 24.631245 165.10938Q24.974995 165.57812 25.849995 165.79688L25.662495 167.17188Q24.787495 166.98438 24.24062 166.5625Q23.693745 166.125 23.412495 165.3125Q23.11562 164.5 23.11562 163.4375Q23.11562 162.375 23.36562 161.71875Q23.61562 161.04688 23.99062 160.73438Q24.36562 160.42188 24.943745 160.29688Q25.30312 160.21875 26.24062 160.21875L28.11562 160.21875Q30.08437 160.21875 30.599995 160.14062Q31.11562 160.04688 31.599995 159.78125L31.599995 161.25Q31.162495 161.46875 30.568745 161.53125ZM27.42812 161.64062Q27.74062 162.40625 27.95937 163.9375Q28.08437 164.8125 28.24062 165.17188Q28.39687 165.53125 28.70937 165.73438Q29.006245 165.92188 29.36562 165.92188Q29.92812 165.92188 30.30312 165.5Q30.67812 165.0625 30.67812 164.25Q30.67812 163.4375 30.33437 162.8125Q29.974995 162.17188 29.349995 161.875Q28.881245 161.64062 27.943745 161.64062L27.42812 161.64062ZM29.11562 154.5L28.89687 153.10938Q29.74062 153.0 30.193745 152.46875Q30.631245 151.92188 30.631245 150.96875Q30.631245 150.0 30.24062 149.53125Q29.83437 149.0625 29.30312 149.0625Q28.83437 149.0625 28.55312 149.46875Q28.36562 149.76562 28.08437 150.90625Q27.693745 152.45312 27.412495 153.0625Q27.11562 153.65625 26.61562 153.96875Q26.11562 154.26562 25.506245 154.26562Q24.943745 154.26562 24.474995 154.01562Q24.006245 153.76562 23.693745 153.32812Q23.443745 153.0 23.287495 152.4375Q23.11562 151.85938 23.11562 151.21875Q23.11562 150.23438 23.39687 149.5Q23.67812 148.76562 24.162495 148.42188Q24.631245 148.0625 25.443745 147.92188L25.631245 149.29688Q24.99062 149.39062 24.631245 149.84375Q24.27187 150.29688 24.27187 151.10938Q24.27187 152.07812 24.599995 152.5Q24.912495 152.90625 25.33437 152.90625Q25.61562 152.90625 25.83437 152.73438Q26.05312 152.5625 26.20937 152.20312Q26.287495 151.98438 26.568745 150.95312Q26.95937 149.46875 27.224995 148.875Q27.474995 148.28125 27.95937 147.95312Q28.443745 147.60938 29.162495 147.60938Q29.86562 147.60938 30.49062 148.03125Q31.099995 148.4375 31.443745 149.21875Q31.787495 149.98438 31.787495 150.95312Q31.787495 152.57812 31.11562 153.42188Q30.443745 154.26562 29.11562 154.5ZM21.756245 145.9375L20.14687 145.9375L20.14687 144.53125L21.756245 144.53125L21.756245 145.9375ZM31.599995 145.9375L23.30312 145.9375L23.30312 144.53125L31.599995 144.53125L31.599995 145.9375ZM31.599995 142.6875L30.45937 142.6875L24.39687 137.40625Q24.443745 138.29688 24.443745 138.98438L24.443745 142.375L23.30312 142.375L23.30312 135.59375L24.224995 135.59375L29.49062 140.07812L30.45937 140.95312Q30.381245 140.0 30.381245 139.17188L30.381245 135.34375L31.599995 135.34375L31.599995 142.6875ZM28.92812 129.26562L29.099995 127.8125Q30.381245 128.15625 31.08437 129.09375Q31.787495 130.01562 31.787495 131.45312Q31.787495 133.28125 30.662495 134.34375Q29.537495 135.40625 27.52187 135.40625Q25.42812 135.40625 24.27187 134.32812Q23.11562 133.25 23.11562 131.53125Q23.11562 129.875 24.256245 128.82812Q25.381245 127.765625 27.42812 127.765625Q27.55312 127.765625 27.80312 127.765625L27.80312 133.95312Q29.17812 133.875 29.912495 133.1875Q30.631245 132.48438 30.631245 131.45312Q30.631245 130.67188 30.224995 130.125Q29.818745 129.57812 28.92812 129.26562ZM26.64687 133.875L26.64687 129.25Q25.599995 129.34375 25.08437 129.78125Q24.27187 130.45312 24.27187 131.51562Q24.27187 132.48438 24.92812 133.15625Q25.568745 133.8125 26.64687 133.875ZM31.80312 123.0L19.943745 119.671875L19.943745 118.546875L31.80312 121.859375L31.80312 123.0ZM27.099995 112.40625L25.756245 112.40625L25.756245 107.546875L30.006245 107.546875Q30.89687 108.671875 31.349995 109.859375Q31.80312 111.046875 31.80312 112.296875Q31.80312 113.984375 31.08437 115.359375Q30.349995 116.734375 28.99062 117.4375Q27.61562 118.140625 25.92812 118.140625Q24.256245 118.140625 22.80312 117.453125Q21.349995 116.75 20.64687 115.4375Q19.943745 114.125 19.943745 112.40625Q19.943745 111.171875 20.349995 110.171875Q20.756245 109.15625 21.474995 108.59375Q22.193745 108.015625 23.349995 107.71875L23.724995 109.09375Q22.849995 109.34375 22.349995 109.734375Q21.849995 110.109375 21.55312 110.828125Q21.24062 111.53125 21.24062 112.40625Q21.24062 113.4375 21.568745 114.203125Q21.881245 114.953125 22.39687 115.421875Q22.912495 115.890625 23.52187 116.140625Q24.58437 116.578125 25.83437 116.578125Q27.36562 116.578125 28.39687 116.0625Q29.42812 115.53125 29.92812 114.53125Q30.42812 113.515625 30.42812 112.375Q30.42812 111.390625 30.05312 110.453125Q29.662495 109.515625 29.24062 109.03125L27.099995 109.03125L27.099995 112.40625ZM31.599995 105.828125L20.14687 105.828125L20.14687 101.53125Q20.14687 100.21875 20.49062 99.421875Q20.83437 98.625 21.568745 98.1875Q22.287495 97.734375 23.068745 97.734375Q23.80312 97.734375 24.45937 98.140625Q25.099995 98.53125 25.506245 99.328125Q25.80312 98.296875 26.537495 97.734375Q27.27187 97.171875 28.27187 97.171875Q29.08437 97.171875 29.77187 97.515625Q30.45937 97.859375 30.83437 98.359375Q31.20937 98.859375 31.412495 99.609375Q31.599995 100.359375 31.599995 101.453125L31.599995 105.828125ZM24.95937 104.3125L24.95937 101.828125Q24.95937 100.828125 24.818745 100.390625Q24.64687 99.8125 24.256245 99.515625Q23.849995 99.21875 23.256245 99.21875Q22.67812 99.21875 22.256245 99.5Q21.818745 99.765625 21.662495 100.28125Q21.49062 100.78125 21.49062 102.015625L21.49062 104.3125L24.95937 104.3125ZM30.24062 104.3125L30.24062 101.453125Q30.24062 100.71875 30.193745 100.421875Q30.099995 99.90625 29.881245 99.5625Q29.662495 99.203125 29.24062 98.984375Q28.818745 98.75 28.27187 98.75Q27.631245 98.75 27.162495 99.078125Q26.693745 99.40625 26.506245 99.984375Q26.30312 100.5625 26.30312 101.65625L26.30312 104.3125L30.24062 104.3125Z" fill-rule="nonzero"/><path fill="#000000" d="M76.17812 249.4625Q76.17812 247.68124 76.5375 246.60312Q76.9125 245.50937 77.63125 244.93124Q78.35 244.3375 79.44375 244.3375Q80.25625 244.3375 80.86562 244.66562Q81.475 244.99374 81.86562 245.60312Q82.27187 246.2125 82.49062 247.0875Q82.70937 247.9625 82.70937 249.4625Q82.70937 251.22812 82.35 252.30624Q81.99062 253.38437 81.27187 253.97812Q80.55312 254.57187 79.44375 254.57187Q78.00625 254.57187 77.17812 253.525Q76.17812 252.275 76.17812 249.4625ZM77.44375 249.4625Q77.44375 251.93124 78.02187 252.74374Q78.6 253.55624 79.44375 253.55624Q80.30312 253.55624 80.88125 252.74374Q81.45937 251.91562 81.45937 249.4625Q81.45937 246.97812 80.88125 246.16562Q80.30312 245.35312 79.42812 245.35312Q78.58437 245.35312 78.08437 246.07187Q77.44375 246.99374 77.44375 249.4625Z" fill-rule="nonzero"/><path fill="#000000" d="M64.81875 179.46666L63.584373 179.46666L63.584373 171.62291Q63.146873 172.04478 62.4125 172.48228Q61.69375 172.90416 61.13125 173.10728L61.13125 171.91978Q62.1625 171.43541 62.928123 170.74791Q63.709373 170.06041 64.02187 169.40416L64.81875 169.40416L64.81875 179.46666ZM68.17812 174.52916Q68.17812 172.74791 68.5375 171.66978Q68.9125 170.57603 69.63125 169.99791Q70.35 169.40416 71.44375 169.40416Q72.25625 169.40416 72.86562 169.73228Q73.475 170.06041 73.86562 170.66978Q74.27187 171.27916 74.49062 172.15416Q74.70937 173.02916 74.70937 174.52916Q74.70937 176.29478 74.35 177.37291Q73.99062 178.45103 73.27187 179.04478Q72.55312 179.63853 71.44375 179.63853Q70.00625 179.63853 69.17812 178.59166Q68.17812 177.34166 68.17812 174.52916ZM69.44375 174.52916Q69.44375 176.99791 70.02187 177.81041Q70.6 178.62291 71.44375 178.62291Q72.30312 178.62291 72.88125 177.81041Q73.45937 176.98228 73.45937 174.52916Q73.45937 172.04478 72.88125 171.23228Q72.30312 170.41978 71.42812 170.41978Q70.58437 170.41978 70.08437 171.13853Q69.44375 172.06041 69.44375 174.52916ZM76.17812 174.52916Q76.17812 172.74791 76.5375 171.66978Q76.9125 170.57603 77.63125 169.99791Q78.35 169.40416 79.44375 169.40416Q80.25625 169.40416 80.86562 169.73228Q81.475 170.06041 81.86562 170.66978Q82.27187 171.27916 82.49062 172.15416Q82.70937 173.02916 82.70937 174.52916Q82.70937 176.29478 82.35 177.37291Q81.99062 178.45103 81.27187 179.04478Q80.55312 179.63853 79.44375 179.63853Q78.00625 179.63853 77.17812 178.59166Q76.17812 177.34166 76.17812 174.52916ZM77.44375 174.52916Q77.44375 176.99791 78.02187 177.81041Q78.6 178.62291 79.44375 178.62291Q80.30312 178.62291 80.88125 177.81041Q81.45937 176.98228 81.45937 174.52916Q81.45937 172.04478 80.88125 171.23228Q80.30312 170.41978 79.42812 170.41978Q78.58437 170.41978 78.08437 171.13853Q77.44375 172.06041 77.44375 174.52916Z" fill-rule="nonzero"/><path fill="#000000" d="M66.64687 103.34583L66.64687 104.53333L60.021873 104.53333Q60.00625 104.09583 60.1625 103.67396Q60.428123 103.00208 60.975 102.34583Q61.5375 101.68958 62.584373 100.83021Q64.225 99.48646 64.7875 98.70521Q65.36562 97.92396 65.36562 97.22083Q65.36562 96.48646 64.83437 95.98646Q64.31875 95.48646 63.490623 95.48646Q62.6 95.48646 62.053123 96.01771Q61.521873 96.54896 61.521873 97.50208L60.25625 97.36146Q60.38125 95.95521 61.225 95.22083Q62.084373 94.47083 63.50625 94.47083Q64.95937 94.47083 65.7875 95.26771Q66.63125 96.06458 66.63125 97.25208Q66.63125 97.86146 66.38125 98.43958Q66.14687 99.01771 65.56875 99.65833Q65.00625 100.29896 63.678123 101.42396Q62.56875 102.34583 62.25625 102.68958Q61.94375 103.01771 61.740623 103.34583L66.64687 103.34583ZM68.17812 99.59583Q68.17812 97.81458 68.5375 96.73646Q68.9125 95.64271 69.63125 95.06458Q70.35 94.47083 71.44375 94.47083Q72.25625 94.47083 72.86562 94.79896Q73.475 95.12708 73.86562 95.73646Q74.27187 96.34583 74.49062 97.22083Q74.70937 98.09583 74.70937 99.59583Q74.70937 101.36146 74.35 102.43958Q73.99062 103.51771 73.27187 104.11146Q72.55312 104.70521 71.44375 104.70521Q70.00625 104.70521 69.17812 103.65833Q68.17812 102.40833 68.17812 99.59583ZM69.44375 99.59583Q69.44375 102.06458 70.02187 102.87708Q70.6 103.68958 71.44375 103.68958Q72.30312 103.68958 72.88125 102.87708Q73.45937 102.04896 73.45937 99.59583Q73.45937 97.11146 72.88125 96.29896Q72.30312 95.48646 71.42812 95.48646Q70.58437 95.48646 70.08437 96.20521Q69.44375 97.12708 69.44375 99.59583ZM76.17812 99.59583Q76.17812 97.81458 76.5375 96.73646Q76.9125 95.64271 77.63125 95.06458Q78.35 94.47083 79.44375 94.47083Q80.25625 94.47083 80.86562 94.79896Q81.475 95.12708 81.86562 95.73646Q82.27187 96.34583 82.49062 97.22083Q82.70937 98.09583 82.70937 99.59583Q82.70937 101.36146 82.35 102.43958Q81.99062 103.51771 81.27187 104.11146Q80.55312 104.70521 79.44375 104.70521Q78.00625 104.70521 77.17812 103.65833Q76.17812 102.40833 76.17812 99.59583ZM77.44375 99.59583Q77.44375 102.06458 78.02187 102.87708Q78.6 103.68958 79.44375 103.68958Q80.30312 103.68958 80.88125 102.87708Q81.45937 102.04896 81.45937 99.59583Q81.45937 97.11146 80.88125 96.29896Q80.30312 95.48646 79.42812 95.48646Q78.58437 95.48646 78.08437 96.20521Q77.44375 97.12708 77.44375 99.59583Z" fill-rule="nonzero"/><path fill="#000000" d="M60.19375 26.959375L61.4125 26.7875Q61.63125 27.834375 62.13125 28.303125Q62.646873 28.75625 63.38125 28.75625Q64.25625 28.75625 64.85 28.1625Q65.44375 27.553125 65.44375 26.6625Q65.44375 25.81875 64.88125 25.271875Q64.33437 24.725 63.490623 24.725Q63.13125 24.725 62.615623 24.85L62.75625 23.771875Q62.88125 23.7875 62.94375 23.7875Q63.740623 23.7875 64.36562 23.38125Q64.99062 22.975 64.99062 22.115625Q64.99062 21.44375 64.5375 21.00625Q64.08437 20.553125 63.35 20.553125Q62.63125 20.553125 62.146873 21.00625Q61.678123 21.44375 61.5375 22.35L60.31875 22.13125Q60.5375 20.896875 61.334373 20.225Q62.13125 19.5375 63.31875 19.5375Q64.14687 19.5375 64.83437 19.896875Q65.52187 20.240625 65.88125 20.85Q66.25625 21.459375 66.25625 22.146875Q66.25625 22.7875 65.9125 23.31875Q65.56875 23.85 64.88125 24.178125Q65.77187 24.38125 66.25625 25.021875Q66.75625 25.6625 66.75625 26.646875Q66.75625 27.959375 65.7875 28.865625Q64.83437 29.771875 63.38125 29.771875Q62.053123 29.771875 61.178123 28.990625Q60.31875 28.209375 60.19375 26.959375ZM68.17812 24.6625Q68.17812 22.88125 68.5375 21.803125Q68.9125 20.709375 69.63125 20.13125Q70.35 19.5375 71.44375 19.5375Q72.25625 19.5375 72.86562 19.865625Q73.475 20.19375 73.86562 20.803125Q74.27187 21.4125 74.49062 22.2875Q74.70937 23.1625 74.70937 24.6625Q74.70937 26.428125 74.35 27.50625Q73.99062 28.584375 73.27187 29.178125Q72.55312 29.771875 71.44375 29.771875Q70.00625 29.771875 69.17812 28.725Q68.17812 27.475 68.17812 24.6625ZM69.44375 24.6625Q69.44375 27.13125 70.02187 27.94375Q70.6 28.75625 71.44375 28.75625Q72.30312 28.75625 72.88125 27.94375Q73.45937 27.115625 73.45937 24.6625Q73.45937 22.178125 72.88125 21.365625Q72.30312 20.553125 71.42812 20.553125Q70.58437 20.553125 70.08437 21.271875Q69.44375 22.19375 69.44375 24.6625ZM76.17812 24.6625Q76.17812 22.88125 76.5375 21.803125Q76.9125 20.709375 77.63125 20.13125Q78.35 19.5375 79.44375 19.5375Q80.25625 19.5375 80.86562 19.865625Q81.475 20.19375 81.86562 20.803125Q82.27187 21.4125 82.49062 22.2875Q82.70937 23.1625 82.70937 24.6625Q82.70937 26.428125 82.35 27.50625Q81.99062 28.584375 81.27187 29.178125Q80.55312 29.771875 79.44375 29.771875Q78.00625 29.771875 77.17812 28.725Q76.17812 27.475 76.17812 24.6625ZM77.44375 24.6625Q77.44375 27.13125 78.02187 27.94375Q78.6 28.75625 79.44375 28.75625Q80.30312 28.75625 80.88125 27.94375Q81.45937 27.115625 81.45937 24.6625Q81.45937 22.178125 80.88125 21.365625Q80.30312 20.553125 79.42812 20.553125Q78.58437 20.553125 78.08437 21.271875Q77.44375 22.19375 77.44375 24.6625Z" fill-rule="nonzero"/><path fill="#000000" d="M101.14752 269.4L99.91315 269.4L99.91315 261.55624Q99.47565 261.97812 98.74127 262.41562Q98.02252 262.8375 97.46002 263.04062L97.46002 261.85312Q98.49127 261.36874 99.2569 260.68124Q100.03815 259.99374 100.35065 259.3375L101.14752 259.3375L101.14752 269.4Z" fill-rule="nonzero"/><path fill="#000000" d="M189.4098 268.2125L189.4098 269.4L182.7848 269.4Q182.76918 268.9625 182.92543 268.54062Q183.19106 267.86874 183.73793 267.2125Q184.30043 266.55624 185.3473 265.69687Q186.98793 264.35312 187.55043 263.57187Q188.12856 262.79062 188.12856 262.0875Q188.12856 261.35312 187.5973 260.85312Q187.08168 260.35312 186.25356 260.35312Q185.36293 260.35312 184.81606 260.88437Q184.2848 261.41562 184.2848 262.36874L183.01918 262.22812Q183.14418 260.82187 183.98793 260.0875Q184.8473 259.3375 186.26918 259.3375Q187.7223 259.3375 188.55043 260.13437Q189.39418 260.93124 189.39418 262.11874Q189.39418 262.72812 189.14418 263.30624Q188.9098 263.88437 188.33168 264.525Q187.76918 265.16562 186.44106 266.29062Q185.33168 267.2125 185.01918 267.55624Q184.70668 267.88437 184.50356 268.2125L189.4098 268.2125Z" fill-rule="nonzero"/><path fill="#000000" d="M269.39084 266.75937L270.6096 266.5875Q270.82834 267.63437 271.32834 268.10312Q271.84396 268.55624 272.57834 268.55624Q273.45334 268.55624 274.0471 267.9625Q274.64084 267.35312 274.64084 266.4625Q274.64084 265.61874 274.07834 265.07187Q273.53146 264.525 272.6877 264.525Q272.32834 264.525 271.8127 264.65L271.95334 263.57187Q272.07834 263.5875 272.14084 263.5875Q272.9377 263.5875 273.5627 263.18124Q274.1877 262.775 274.1877 261.91562Q274.1877 261.24374 273.7346 260.80624Q273.28146 260.35312 272.5471 260.35312Q271.82834 260.35312 271.34396 260.80624Q270.8752 261.24374 270.7346 262.15L269.51584 261.93124Q269.7346 260.69687 270.53146 260.025Q271.32834 259.3375 272.51584 259.3375Q273.34396 259.3375 274.03146 259.69687Q274.71896 260.04062 275.07834 260.65Q275.45334 261.25937 275.45334 261.94687Q275.45334 262.5875 275.1096 263.11874Q274.76584 263.65 274.07834 263.97812Q274.96896 264.18124 275.45334 264.82187Q275.95334 265.4625 275.95334 266.44687Q275.95334 267.75937 274.9846 268.66562Q274.03146 269.57187 272.57834 269.57187Q271.2502 269.57187 270.3752 268.79062Q269.51584 268.00937 269.39084 266.75937Z" fill-rule="nonzero"/><path fill="#000000" d="M359.76248 269.4L359.76248 266.99374L355.4031 266.99374L355.4031 265.86874L359.98123 259.38437L360.98123 259.38437L360.98123 265.86874L362.3406 265.86874L362.3406 266.99374L360.98123 266.99374L360.98123 269.4L359.76248 269.4ZM359.76248 265.86874L359.76248 261.35312L356.62186 265.86874L359.76248 265.86874Z" fill-rule="nonzero"/><path fill="#4285f4" d="M394.48 20.1L399.67615 29.1L389.28384 29.1Z" fill-rule="nonzero"/><path fill="#1a1a1a" d="M409.5425 34.7875L409.5425 23.303125L410.82376 23.303125L410.82376 24.38125Q411.2769 23.740625 411.8394 23.428125Q412.4175 23.115625 413.23 23.115625Q414.2925 23.115625 415.105 23.6625Q415.9175 24.209375 416.32376 25.209375Q416.74564 26.19375 416.74564 27.38125Q416.74564 28.6625 416.2769 29.678125Q415.82376 30.69375 414.94876 31.240625Q414.0894 31.7875 413.12064 31.7875Q412.4175 31.7875 411.855 31.490625Q411.30814 31.19375 410.94876 30.740625L410.94876 34.7875L409.5425 34.7875ZM410.80814 27.490625Q410.80814 29.1 411.44876 29.865625Q412.105 30.63125 413.0269 30.63125Q413.9644 30.63125 414.63626 29.834375Q415.30814 29.0375 415.30814 27.38125Q415.30814 25.7875 414.6519 25.00625Q413.99564 24.209375 413.0894 24.209375Q412.19876 24.209375 411.49564 25.053125Q410.80814 25.896875 410.80814 27.490625ZM424.2144 28.928125L425.6675 29.1Q425.32376 30.38125 424.38626 31.084375Q423.4644 31.7875 422.0269 31.7875Q420.19876 31.7875 419.13626 30.6625Q418.07376 29.5375 418.07376 27.521875Q418.07376 25.428125 419.1519 24.271875Q420.23 23.115625 421.94876 23.115625Q423.605 23.115625 424.6519 24.25625Q425.7144 25.38125 425.7144 27.428125Q425.7144 27.553125 425.7144 27.803125L419.5269 27.803125Q419.605 29.178125 420.2925 29.9125Q420.99564 30.63125 422.0269 30.63125Q422.80814 30.63125 423.355 30.225Q423.9019 29.81875 424.2144 28.928125ZM419.605 26.646875L424.23 26.646875Q424.13626 25.6 423.69876 25.084375Q423.0269 24.271875 421.9644 24.271875Q420.99564 24.271875 420.32376 24.928125Q419.6675 25.56875 419.605 26.646875ZM432.94876 30.56875Q432.1675 31.240625 431.44876 31.521875Q430.73 31.7875 429.9019 31.7875Q428.5269 31.7875 427.7925 31.115625Q427.05814 30.44375 427.05814 29.4125Q427.05814 28.803125 427.3394 28.303125Q427.62064 27.7875 428.05814 27.490625Q428.51126 27.178125 429.07376 27.021875Q429.49564 26.9125 430.32376 26.81875Q432.0269 26.615625 432.8394 26.334375Q432.8394 26.0375 432.8394 25.959375Q432.8394 25.1 432.44876 24.75625Q431.9019 24.271875 430.8394 24.271875Q429.855 24.271875 429.37064 24.63125Q428.9019 24.975 428.68314 25.85L427.30814 25.6625Q427.49564 24.7875 427.9175 24.240625Q428.355 23.69375 429.1675 23.4125Q429.98 23.115625 431.0425 23.115625Q432.105 23.115625 432.76126 23.365625Q433.43314 23.615625 433.74564 23.990625Q434.05814 24.365625 434.18314 24.94375Q434.26126 25.303125 434.26126 26.240625L434.26126 28.115625Q434.26126 30.084375 434.3394 30.6Q434.43314 31.115625 434.69876 31.6L433.23 31.6Q433.01126 31.1625 432.94876 30.56875ZM432.8394 27.428125Q432.07376 27.740625 430.5425 27.959375Q429.6675 28.084375 429.30814 28.240625Q428.94876 28.396875 428.74564 28.709375Q428.55814 29.00625 428.55814 29.365625Q428.55814 29.928125 428.98 30.303125Q429.4175 30.678125 430.23 30.678125Q431.0425 30.678125 431.6675 30.334375Q432.30814 29.975 432.605 29.35Q432.8394 28.88125 432.8394 27.94375L432.8394 27.428125ZM436.5425 31.6L436.5425 20.146875L437.94876 20.146875L437.94876 26.678125L441.2769 23.303125L443.105 23.303125L439.93314 26.38125L443.4175 31.6L441.68314 31.6L438.94876 27.35L437.94876 28.303125L437.94876 31.6L436.5425 31.6ZM448.5425 31.6L448.5425 23.303125L449.7925 23.303125L449.7925 24.459375Q450.18314 23.85 450.82376 23.490625Q451.48 23.115625 452.30814 23.115625Q453.23 23.115625 453.82376 23.50625Q454.4175 23.88125 454.6519 24.56875Q455.63626 23.115625 457.2144 23.115625Q458.44876 23.115625 459.105 23.803125Q459.7769 24.475 459.7769 25.896875L459.7769 31.6L458.38626 31.6L458.38626 26.365625Q458.38626 25.521875 458.24564 25.1625Q458.105 24.7875 457.74564 24.56875Q457.38626 24.334375 456.9019 24.334375Q456.0269 24.334375 455.44876 24.9125Q454.87064 25.490625 454.87064 26.771875L454.87064 31.6L453.4644 31.6L453.4644 26.209375Q453.4644 25.271875 453.12064 24.803125Q452.7769 24.334375 451.99564 24.334375Q451.4019 24.334375 450.9019 24.646875Q450.4019 24.959375 450.1675 25.56875Q449.94876 26.1625 449.94876 27.2875L449.94876 31.6L448.5425 31.6ZM467.2144 28.928125L468.6675 29.1Q468.32376 30.38125 467.38626 31.084375Q466.4644 31.7875 465.0269 31.7875Q463.19876 31.7875 462.13626 30.6625Q461.07376 29.5375 461.07376 27.521875Q461.07376 25.428125 462.1519 24.271875Q463.23 23.115625 464.94876 23.115625Q466.605 23.115625 467.6519 24.25625Q468.7144 25.38125 468.7144 27.428125Q468.7144 27.553125 468.7144 27.803125L462.5269 27.803125Q462.605 29.178125 463.2925 29.9125Q463.99564 30.63125 465.0269 30.63125Q465.80814 30.63125 466.355 30.225Q466.9019 29.81875 467.2144 28.928125ZM462.605 26.646875L467.23 26.646875Q467.13626 25.6 466.69876 25.084375Q466.0269 24.271875 464.9644 24.271875Q463.99564 24.271875 463.32376 24.928125Q462.6675 25.56875 462.605 26.646875ZM470.5425 31.6L470.5425 23.303125L471.7925 23.303125L471.7925 24.459375Q472.18314 23.85 472.82376 23.490625Q473.48 23.115625 474.30814 23.115625Q475.23 23.115625 475.82376 23.50625Q476.4175 23.88125 476.6519 24.56875Q477.63626 23.115625 479.2144 23.115625Q480.44876 23.115625 481.105 23.803125Q481.7769 24.475 481.7769 25.896875L481.7769 31.6L480.38626 31.6L480.38626 26.365625Q480.38626 25.521875 480.24564 25.1625Q480.105 24.7875 479.74564 24.56875Q479.38626 24.334375 478.9019 24.334375Q478.0269 24.334375 477.44876 24.9125Q476.87064 25.490625 476.87064 26.771875L476.87064 31.6L475.4644 31.6L475.4644 26.209375Q475.4644 25.271875 475.12064 24.803125Q474.7769 24.334375 473.99564 24.334375Q473.4019 24.334375 472.9019 24.646875Q472.4019 24.959375 472.1675 25.56875Q471.94876 26.1625 471.94876 27.2875L471.94876 31.6L470.5425 31.6ZM483.01126 27.44375Q483.01126 25.146875 484.2925 24.0375Q485.37064 23.115625 486.9019 23.115625Q488.62064 23.115625 489.69876 24.240625Q490.7925 25.35 490.7925 27.334375Q490.7925 28.928125 490.30814 29.85Q489.82376 30.771875 488.9019 31.2875Q487.99564 31.7875 486.9019 31.7875Q485.1675 31.7875 484.0894 30.678125Q483.01126 29.553125 483.01126 27.44375ZM484.4644 27.44375Q484.4644 29.0375 485.1519 29.834375Q485.855 30.63125 486.9019 30.63125Q487.94876 30.63125 488.63626 29.834375Q489.3394 29.0375 489.3394 27.396875Q489.3394 25.865625 488.63626 25.06875Q487.94876 24.271875 486.9019 24.271875Q485.855 24.271875 485.1519 25.06875Q484.4644 25.85 484.4644 27.44375ZM492.5269 31.6L492.5269 23.303125L493.7925 23.303125L493.7925 24.553125Q494.2769 23.678125 494.68314 23.396875Q495.0894 23.115625 495.5894 23.115625Q496.2925 23.115625 497.0269 23.56875L496.5425 24.865625Q496.0269 24.56875 495.51126 24.56875Q495.05814 24.56875 494.68314 24.85Q494.32376 25.115625 494.1675 25.615625Q493.93314 26.365625 493.93314 27.25625L493.93314 31.6L492.5269 31.6ZM497.48 34.803123L497.32376 33.475Q497.7769 33.6 498.12064 33.6Q498.5894 33.6 498.87064 33.44375Q499.1519 33.2875 499.3394 33.00625Q499.4644 32.803123 499.76126 31.959375Q499.80814 31.85 499.88626 31.615625L496.74564 23.303125L498.26126 23.303125L499.98 28.1Q500.32376 29.021875 500.5894 30.021875Q500.82376 29.053125 501.1675 28.13125L502.93314 23.303125L504.3394 23.303125L501.18314 31.740625Q500.68314 33.115623 500.4019 33.63125Q500.0269 34.31875 499.5425 34.646873Q499.05814 34.975 498.38626 34.975Q497.98 34.975 497.48 34.803123Z" fill-rule="nonzero"/><path fill="#1a1a1a" d="M414.98 50.6L414.98 49.38125Q414.01126 50.7875 412.3394 50.7875Q411.605 50.7875 410.9644 50.50625Q410.3394 50.225 410.0269 49.803123Q409.7144 49.365623 409.5894 48.75625Q409.51126 48.334373 409.51126 47.44375L409.51126 42.303123L410.9175 42.303123L410.9175 46.896873Q410.9175 48.00625 410.99564 48.38125Q411.13626 48.94375 411.55814 49.25625Q411.99564 49.56875 412.62064 49.56875Q413.26126 49.56875 413.80814 49.25625Q414.37064 48.928123 414.5894 48.365623Q414.82376 47.803123 414.82376 46.740623L414.82376 42.303123L416.23 42.303123L416.23 50.6L414.98 50.6ZM416.98 48.115623L418.37064 47.896873Q418.48 48.740623 419.01126 49.19375Q419.55814 49.63125 420.51126 49.63125Q421.48 49.63125 421.94876 49.240623Q422.4175 48.834373 422.4175 48.303123Q422.4175 47.834373 422.01126 47.553123Q421.7144 47.365623 420.57376 47.084373Q419.0269 46.69375 418.4175 46.4125Q417.82376 46.115623 417.51126 45.615623Q417.2144 45.115623 417.2144 44.50625Q417.2144 43.94375 417.4644 43.475Q417.7144 43.00625 418.1519 42.69375Q418.48 42.44375 419.0425 42.2875Q419.62064 42.115623 420.26126 42.115623Q421.24564 42.115623 421.98 42.396873Q422.7144 42.678123 423.05814 43.1625Q423.4175 43.63125 423.55814 44.44375L422.18314 44.63125Q422.0894 43.990623 421.63626 43.63125Q421.18314 43.271873 420.37064 43.271873Q419.4019 43.271873 418.98 43.6Q418.57376 43.9125 418.57376 44.334373Q418.57376 44.615623 418.74564 44.834373Q418.9175 45.053123 419.2769 45.209373Q419.49564 45.2875 420.5269 45.56875Q422.01126 45.959373 422.605 46.225Q423.19876 46.475 423.5269 46.959373Q423.87064 47.44375 423.87064 48.1625Q423.87064 48.865623 423.44876 49.490623Q423.0425 50.1 422.26126 50.44375Q421.49564 50.7875 420.5269 50.7875Q418.9019 50.7875 418.05814 50.115623Q417.2144 49.44375 416.98 48.115623ZM430.94876 49.56875Q430.1675 50.240623 429.44876 50.521873Q428.73 50.7875 427.9019 50.7875Q426.5269 50.7875 425.7925 50.115623Q425.05814 49.44375 425.05814 48.4125Q425.05814 47.803123 425.3394 47.303123Q425.62064 46.7875 426.05814 46.490623Q426.51126 46.178123 427.07376 46.021873Q427.49564 45.9125 428.32376 45.81875Q430.0269 45.615623 430.8394 45.334373Q430.8394 45.0375 430.8394 44.959373Q430.8394 44.1 430.44876 43.75625Q429.9019 43.271873 428.8394 43.271873Q427.855 43.271873 427.37064 43.63125Q426.9019 43.975 426.68314 44.85L425.30814 44.6625Q425.49564 43.7875 425.9175 43.240623Q426.355 42.69375 427.1675 42.4125Q427.98 42.115623 429.0425 42.115623Q430.105 42.115623 430.76126 42.365623Q431.43314 42.615623 431.74564 42.990623Q432.05814 43.365623 432.18314 43.94375Q432.26126 44.303123 432.26126 45.240623L432.26126 47.115623Q432.26126 49.084373 432.3394 49.6Q432.43314 50.115623 432.69876 50.6L431.23 50.6Q431.01126 50.1625 430.94876 49.56875ZM430.8394 46.428123Q430.07376 46.740623 428.5425 46.959373Q427.6675 47.084373 427.30814 47.240623Q426.94876 47.396873 426.74564 47.709373Q426.55814 48.00625 426.55814 48.365623Q426.55814 48.928123 426.98 49.303123Q427.4175 49.678123 428.23 49.678123Q429.0425 49.678123 429.6675 49.334373Q430.30814 48.975 430.605 48.35Q430.8394 47.88125 430.8394 46.94375L430.8394 46.428123ZM434.2769 51.2875L435.6519 51.490623Q435.73 52.13125 436.12064 52.4125Q436.6519 52.803123 437.55814 52.803123Q438.5269 52.803123 439.05814 52.4125Q439.5894 52.021873 439.7769 51.31875Q439.88626 50.896873 439.88626 49.50625Q438.9644 50.6 437.5894 50.6Q435.87064 50.6 434.93314 49.365623Q433.99564 48.13125 433.99564 46.396873Q433.99564 45.209373 434.4175 44.209373Q434.855 43.209373 435.6675 42.6625Q436.49564 42.115623 437.5894 42.115623Q439.05814 42.115623 440.01126 43.303123L440.01126 42.303123L441.30814 42.303123L441.30814 49.475Q441.30814 51.4125 440.9175 52.225Q440.5269 53.0375 439.6675 53.50625Q438.80814 53.975 437.55814 53.975Q436.07376 53.975 435.1519 53.303123Q434.24564 52.63125 434.2769 51.2875ZM435.44876 46.303123Q435.44876 47.928123 436.0894 48.678123Q436.74564 49.428123 437.7144 49.428123Q438.68314 49.428123 439.3394 48.69375Q439.99564 47.94375 439.99564 46.35Q439.99564 44.81875 439.32376 44.053123Q438.6519 43.271873 437.69876 43.271873Q436.76126 43.271873 436.105 44.0375Q435.44876 44.803123 435.44876 46.303123ZM449.2144 47.928123L450.6675 48.1Q450.32376 49.38125 449.38626 50.084373Q448.4644 50.7875 447.0269 50.7875Q445.19876 50.7875 444.13626 49.6625Q443.07376 48.5375 443.07376 46.521873Q443.07376 44.428123 444.1519 43.271873Q445.23 42.115623 446.94876 42.115623Q448.605 42.115623 449.6519 43.25625Q450.7144 44.38125 450.7144 46.428123Q450.7144 46.553123 450.7144 46.803123L444.5269 46.803123Q444.605 48.178123 445.2925 48.9125Q445.99564 49.63125 447.0269 49.63125Q447.80814 49.63125 448.355 49.225Q448.9019 48.81875 449.2144 47.928123ZM444.605 45.646873L449.23 45.646873Q449.13626 44.6 448.69876 44.084373Q448.0269 43.271873 446.9644 43.271873Q445.99564 43.271873 445.32376 43.928123Q444.6675 44.56875 444.605 45.646873Z" fill-rule="nonzero"/><path fill="#ea4335" d="M394.48 68.1L395.8271 72.245895L400.18634 72.245895L396.65964 74.808205L398.0067 78.9541L394.48 76.39179L390.95328 78.9541L392.30038 74.808205L388.77365 72.245895L393.1329 72.245895Z" fill-rule="nonzero"/><path fill="#1a1a1a" d="M409.01126 75.44375Q409.01126 73.14687 410.2925 72.0375Q411.37064 71.11562 412.9019 71.11562Q414.62064 71.11562 415.69876 72.24062Q416.7925 73.35 416.7925 75.33437Q416.7925 76.92812 416.30814 77.85Q415.82376 78.77187 414.9019 79.2875Q413.99564 79.7875 412.9019 79.7875Q411.1675 79.7875 410.0894 78.67812Q409.01126 77.55312 409.01126 75.44375ZM410.4644 75.44375Q410.4644 77.0375 411.1519 77.83437Q411.855 78.63125 412.9019 78.63125Q413.94876 78.63125 414.63626 77.83437Q415.3394 77.0375 415.3394 75.39687Q415.3394 73.86562 414.63626 73.06875Q413.94876 72.27187 412.9019 72.27187Q411.855 72.27187 411.1519 73.06875Q410.4644 73.85 410.4644 75.44375ZM419.8394 79.6L418.5269 79.6L418.5269 68.14687L419.93314 68.14687L419.93314 72.225Q420.82376 71.11562 422.2144 71.11562Q422.98 71.11562 423.6519 71.42812Q424.3394 71.725 424.7769 72.2875Q425.23 72.85 425.48 73.64687Q425.73 74.42812 425.73 75.31875Q425.73 77.45937 424.6675 78.63125Q423.62064 79.7875 422.13626 79.7875Q420.6675 79.7875 419.8394 78.55312L419.8394 79.6ZM419.82376 75.38125Q419.82376 76.88125 420.23 77.5375Q420.88626 78.63125 422.0269 78.63125Q422.94876 78.63125 423.62064 77.83437Q424.2925 77.02187 424.2925 75.44375Q424.2925 73.81875 423.63626 73.05312Q422.99564 72.27187 422.0894 72.27187Q421.1675 72.27187 420.49564 73.06875Q419.82376 73.86562 419.82376 75.38125ZM427.87064 79.6L427.87064 72.39687L426.63626 72.39687L426.63626 71.30312L427.87064 71.30312L427.87064 70.4125Q427.87064 69.58437 428.0269 69.17812Q428.23 68.63125 428.73 68.2875Q429.24564 67.94375 430.1675 67.94375Q430.76126 67.94375 431.48 68.08437L431.2769 69.31875Q430.8394 69.24062 430.44876 69.24062Q429.80814 69.24062 429.5425 69.52187Q429.2769 69.7875 429.2769 70.5375L429.2769 71.30312L430.88626 71.30312L430.88626 72.39687L429.2769 72.39687L429.2769 79.6L427.87064 79.6ZM436.98 79.6L436.98 78.38125Q436.01126 79.7875 434.3394 79.7875Q433.605 79.7875 432.9644 79.50625Q432.3394 79.225 432.0269 78.80312Q431.7144 78.36562 431.5894 77.75625Q431.51126 77.33437 431.51126 76.44375L431.51126 71.30312L432.9175 71.30312L432.9175 75.89687Q432.9175 77.00625 432.99564 77.38125Q433.13626 77.94375 433.55814 78.25625Q433.99564 78.56875 434.62064 78.56875Q435.26126 78.56875 435.80814 78.25625Q436.37064 77.92812 436.5894 77.36562Q436.82376 76.80312 436.82376 75.74062L436.82376 71.30312L438.23 71.30312L438.23 79.6L436.98 79.6ZM438.98 77.11562L440.37064 76.89687Q440.48 77.74062 441.01126 78.19375Q441.55814 78.63125 442.51126 78.63125Q443.48 78.63125 443.94876 78.24062Q444.4175 77.83437 444.4175 77.30312Q444.4175 76.83437 444.01126 76.55312Q443.7144 76.36562 442.57376 76.08437Q441.0269 75.69375 440.4175 75.4125Q439.82376 75.11562 439.51126 74.61562Q439.2144 74.11562 439.2144 73.50625Q439.2144 72.94375 439.4644 72.475Q439.7144 72.00625 440.1519 71.69375Q440.48 71.44375 441.0425 71.2875Q441.62064 71.11562 442.26126 71.11562Q443.24564 71.11562 443.98 71.39687Q444.7144 71.67812 445.05814 72.1625Q445.4175 72.63125 445.55814 73.44375L444.18314 73.63125Q444.0894 72.99062 443.63626 72.63125Q443.18314 72.27187 442.37064 72.27187Q441.4019 72.27187 440.98 72.6Q440.57376 72.9125 440.57376 73.33437Q440.57376 73.61562 440.74564 73.83437Q440.9175 74.05312 441.2769 74.20937Q441.49564 74.2875 442.5269 74.56875Q444.01126 74.95937 444.605 75.225Q445.19876 75.475 445.5269 75.95937Q445.87064 76.44375 445.87064 77.1625Q445.87064 77.86562 445.44876 78.49062Q445.0425 79.1 444.26126 79.44375Q443.49564 79.7875 442.5269 79.7875Q440.9019 79.7875 440.05814 79.11562Q439.2144 78.44375 438.98 77.11562ZM452.94876 76.55312L454.3394 76.74062Q454.105 78.1625 453.1675 78.975Q452.24564 79.7875 450.88626 79.7875Q449.18314 79.7875 448.13626 78.67812Q447.105 77.55312 447.105 75.475Q447.105 74.13125 447.5425 73.13125Q447.99564 72.11562 448.9019 71.61562Q449.82376 71.11562 450.88626 71.11562Q452.24564 71.11562 453.105 71.80312Q453.9644 72.475 454.19876 73.74062L452.8394 73.94375Q452.63626 73.11562 452.13626 72.69375Q451.6519 72.27187 450.94876 72.27187Q449.88626 72.27187 449.2144 73.0375Q448.55814 73.7875 448.55814 75.44375Q448.55814 77.11562 449.19876 77.88125Q449.8394 78.63125 450.87064 78.63125Q451.69876 78.63125 452.24564 78.13125Q452.80814 77.61562 452.94876 76.55312ZM460.94876 78.56875Q460.1675 79.24062 459.44876 79.52187Q458.73 79.7875 457.9019 79.7875Q456.5269 79.7875 455.7925 79.11562Q455.05814 78.44375 455.05814 77.4125Q455.05814 76.80312 455.3394 76.30312Q455.62064 75.7875 456.05814 75.49062Q456.51126 75.17812 457.07376 75.02187Q457.49564 74.9125 458.32376 74.81875Q460.0269 74.61562 460.8394 74.33437Q460.8394 74.0375 460.8394 73.95937Q460.8394 73.1 460.44876 72.75625Q459.9019 72.27187 458.8394 72.27187Q457.855 72.27187 457.37064 72.63125Q456.9019 72.975 456.68314 73.85L455.30814 73.6625Q455.49564 72.7875 455.9175 72.24062Q456.355 71.69375 457.1675 71.4125Q457.98 71.11562 459.0425 71.11562Q460.105 71.11562 460.76126 71.36562Q461.43314 71.61562 461.74564 71.99062Q462.05814 72.36562 462.18314 72.94375Q462.26126 73.30312 462.26126 74.24062L462.26126 76.11562Q462.26126 78.08437 462.3394 78.6Q462.43314 79.11562 462.69876 79.6L461.23 79.6Q461.01126 79.1625 460.94876 78.56875ZM460.8394 75.42812Q460.07376 75.74062 458.5425 75.95937Q457.6675 76.08437 457.30814 76.24062Q456.94876 76.39687 456.74564 76.70937Q456.55814 77.00625 456.55814 77.36562Q456.55814 77.92812 456.98 78.30312Q457.4175 78.67812 458.23 78.67812Q459.0425 78.67812 459.6675 78.33437Q460.30814 77.975 460.605 77.35Q460.8394 76.88125 460.8394 75.94375L460.8394 75.42812ZM467.605 78.33437L467.80814 79.58437Q467.2144 79.70937 466.74564 79.70937Q465.98 79.70937 465.55814 79.475Q465.13626 79.225 464.9644 78.83437Q464.7925 78.42812 464.7925 77.1625L464.7925 72.39687L463.76126 72.39687L463.76126 71.30312L464.7925 71.30312L464.7925 69.24062L466.19876 68.39687L466.19876 71.30312L467.605 71.30312L467.605 72.39687L466.19876 72.39687L466.19876 77.24062Q466.19876 77.85 466.26126 78.02187Q466.3394 78.19375 466.51126 78.30312Q466.68314 78.39687 466.99564 78.39687Q467.23 78.39687 467.605 78.33437ZM474.2144 76.92812L475.6675 77.1Q475.32376 78.38125 474.38626 79.08437Q473.4644 79.7875 472.0269 79.7875Q470.19876 79.7875 469.13626 78.6625Q468.07376 77.5375 468.07376 75.52187Q468.07376 73.42812 469.1519 72.27187Q470.23 71.11562 471.94876 71.11562Q473.605 71.11562 474.6519 72.25625Q475.7144 73.38125 475.7144 75.42812Q475.7144 75.55312 475.7144 75.80312L469.5269 75.80312Q469.605 77.17812 470.2925 77.9125Q470.99564 78.63125 472.0269 78.63125Q472.80814 78.63125 473.355 78.225Q473.9019 77.81875 474.2144 76.92812ZM469.605 74.64687L474.23 74.64687Q474.13626 73.6 473.69876 73.08437Q473.0269 72.27187 471.9644 72.27187Q470.99564 72.27187 470.32376 72.92812Q469.6675 73.56875 469.605 74.64687ZM482.9175 79.6L482.9175 78.55312Q482.13626 79.7875 480.605 79.7875Q479.605 79.7875 478.7769 79.24062Q477.94876 78.69375 477.48 77.70937Q477.0269 76.725 477.0269 75.45937Q477.0269 74.20937 477.43314 73.20937Q477.855 72.19375 478.68314 71.6625Q479.51126 71.11562 480.5425 71.11562Q481.2925 71.11562 481.87064 71.42812Q482.4644 71.74062 482.82376 72.25625L482.82376 68.14687L484.23 68.14687L484.23 79.6L482.9175 79.6ZM478.48 75.45937Q478.48 77.05312 479.1519 77.85Q479.82376 78.63125 480.73 78.63125Q481.6519 78.63125 482.2925 77.88125Q482.94876 77.11562 482.94876 75.56875Q482.94876 73.86562 482.2925 73.06875Q481.63626 72.27187 480.6675 72.27187Q479.73 72.27187 479.105 73.0375Q478.48 73.80312 478.48 75.45937Z" fill-rule="nonzero"/><path fill="#1a1a1a" d="M414.94876 95.55312L416.3394 95.74062Q416.105 97.1625 415.1675 97.975Q414.24564 98.7875 412.88626 98.7875Q411.18314 98.7875 410.13626 97.67812Q409.105 96.55312 409.105 94.475Q409.105 93.13125 409.5425 92.13125Q409.99564 91.11562 410.9019 90.61562Q411.82376 90.11562 412.88626 90.11562Q414.24564 90.11562 415.105 90.80312Q415.9644 91.475 416.19876 92.74062L414.8394 92.94375Q414.63626 92.11562 414.13626 91.69375Q413.6519 91.27187 412.94876 91.27187Q411.88626 91.27187 411.2144 92.0375Q410.55814 92.7875 410.55814 94.44375Q410.55814 96.11562 411.19876 96.88125Q411.8394 97.63125 412.87064 97.63125Q413.69876 97.63125 414.24564 97.13125Q414.80814 96.61562 414.94876 95.55312ZM417.5425 88.75625L417.5425 87.14687L418.94876 87.14687L418.94876 88.75625L417.5425 88.75625ZM417.5425 98.6L417.5425 90.30312L418.94876 90.30312L418.94876 98.6L417.5425 98.6ZM421.5269 98.6L421.5269 90.30312L422.7925 90.30312L422.7925 91.55312Q423.2769 90.67812 423.68314 90.39687Q424.0894 90.11562 424.5894 90.11562Q425.2925 90.11562 426.0269 90.56875L425.5425 91.86562Q425.0269 91.56875 424.51126 91.56875Q424.05814 91.56875 423.68314 91.85Q423.32376 92.11562 423.1675 92.61562Q422.93314 93.36562 422.93314 94.25625L422.93314 98.6L421.5269 98.6ZM431.94876 95.55312L433.3394 95.74062Q433.105 97.1625 432.1675 97.975Q431.24564 98.7875 429.88626 98.7875Q428.18314 98.7875 427.13626 97.67812Q426.105 96.55312 426.105 94.475Q426.105 93.13125 426.5425 92.13125Q426.99564 91.11562 427.9019 90.61562Q428.82376 90.11562 429.88626 90.11562Q431.24564 90.11562 432.105 90.80312Q432.9644 91.475 433.19876 92.74062L431.8394 92.94375Q431.63626 92.11562 431.13626 91.69375Q430.6519 91.27187 429.94876 91.27187Q428.88626 91.27187 428.2144 92.0375Q427.55814 92.7875 427.55814 94.44375Q427.55814 96.11562 428.19876 96.88125Q428.8394 97.63125 429.87064 97.63125Q430.69876 97.63125 431.24564 97.13125Q431.80814 96.61562 431.94876 95.55312ZM439.98 98.6L439.98 97.38125Q439.01126 98.7875 437.3394 98.7875Q436.605 98.7875 435.9644 98.50625Q435.3394 98.225 435.0269 97.80312Q434.7144 97.36562 434.5894 96.75625Q434.51126 96.33437 434.51126 95.44375L434.51126 90.30312L435.9175 90.30312L435.9175 94.89687Q435.9175 96.00625 435.99564 96.38125Q436.13626 96.94375 436.55814 97.25625Q436.99564 97.56875 437.62064 97.56875Q438.26126 97.56875 438.80814 97.25625Q439.37064 96.92812 439.5894 96.36562Q439.82376 95.80312 439.82376 94.74062L439.82376 90.30312L441.23 90.30312L441.23 98.6L439.98 98.6ZM442.5425 88.75625L442.5425 87.14687L443.94876 87.14687L443.94876 88.75625L442.5425 88.75625ZM442.5425 98.6L442.5425 90.30312L443.94876 90.30312L443.94876 98.6L442.5425 98.6ZM449.605 97.33437L449.80814 98.58437Q449.2144 98.70937 448.74564 98.70937Q447.98 98.70937 447.55814 98.475Q447.13626 98.225 446.9644 97.83437Q446.7925 97.42812 446.7925 96.1625L446.7925 91.39687L445.76126 91.39687L445.76126 90.30312L446.7925 90.30312L446.7925 88.24062L448.19876 87.39687L448.19876 90.30312L449.605 90.30312L449.605 91.39687L448.19876 91.39687L448.19876 96.24062Q448.19876 96.85 448.26126 97.02187Q448.3394 97.19375 448.51126 97.30312Q448.68314 97.39687 448.99564 97.39687Q449.23 97.39687 449.605 97.33437ZM453.98 96.11562L455.37064 95.89687Q455.48 96.74062 456.01126 97.19375Q456.55814 97.63125 457.51126 97.63125Q458.48 97.63125 458.94876 97.24062Q459.4175 96.83437 459.4175 96.30312Q459.4175 95.83437 459.01126 95.55312Q458.7144 95.36562 457.57376 95.08437Q456.0269 94.69375 455.4175 94.4125Q454.82376 94.11562 454.51126 93.61562Q454.2144 93.11562 454.2144 92.50625Q454.2144 91.94375 454.4644 91.475Q454.7144 91.00625 455.1519 90.69375Q455.48 90.44375 456.0425 90.2875Q456.62064 90.11562 457.26126 90.11562Q458.24564 90.11562 458.98 90.39687Q459.7144 90.67812 460.05814 91.1625Q460.4175 91.63125 460.55814 92.44375L459.18314 92.63125Q459.0894 91.99062 458.63626 91.63125Q458.18314 91.27187 457.37064 91.27187Q456.4019 91.27187 455.98 91.6Q455.57376 91.9125 455.57376 92.33437Q455.57376 92.61562 455.74564 92.83437Q455.9175 93.05312 456.2769 93.20937Q456.49564 93.2875 457.5269 93.56875Q459.01126 93.95937 459.605 94.225Q460.19876 94.475 460.5269 94.95937Q460.87064 95.44375 460.87064 96.1625Q460.87064 96.86562 460.44876 97.49062Q460.0425 98.1 459.26126 98.44375Q458.49564 98.7875 457.5269 98.7875Q455.9019 98.7875 455.05814 98.11562Q454.2144 97.44375 453.98 96.11562ZM462.5425 88.75625L462.5425 87.14687L463.94876 87.14687L463.94876 88.75625L462.5425 88.75625ZM462.5425 98.6L462.5425 90.30312L463.94876 90.30312L463.94876 98.6L462.5425 98.6ZM465.7925 98.6L465.7925 97.45937L471.07376 91.39687Q470.18314 91.44375 469.49564 91.44375L466.105 91.44375L466.105 90.30312L472.88626 90.30312L472.88626 91.225L468.4019 96.49062L467.5269 97.45937Q468.48 97.38125 469.30814 97.38125L473.13626 97.38125L473.13626 98.6L465.7925 98.6ZM479.2144 95.92812L480.6675 96.1Q480.32376 97.38125 479.38626 98.08437Q478.4644 98.7875 477.0269 98.7875Q475.19876 98.7875 474.13626 97.6625Q473.07376 96.5375 473.07376 94.52187Q473.07376 92.42812 474.1519 91.27187Q475.23 90.11562 476.94876 90.11562Q478.605 90.11562 479.6519 91.25625Q480.7144 92.38125 480.7144 94.42812Q480.7144 94.55312 480.7144 94.80312L474.5269 94.80312Q474.605 96.17812 475.2925 96.9125Q475.99564 97.63125 477.0269 97.63125Q477.80814 97.63125 478.355 97.225Q478.9019 96.81875 479.2144 95.92812ZM474.605 93.64687L479.23 93.64687Q479.13626 92.6 478.69876 92.08437Q478.0269 91.27187 476.9644 91.27187Q475.99564 91.27187 475.32376 91.92812Q474.6675 92.56875 474.605 93.64687Z" fill-rule="nonzero"/></svg>