<svg version="1.1" viewBox="0.0 0.0 536.0 332.0" fill="none" stroke="none" stroke-linecap="square" stroke-miterlimit="10" width="536" height="332" xmlns:xlink="http://www.w3.org/1999/xlink" xmlns="http://www.w3.org/2000/svg"><path fill="#ffffff" d="M0 0L536.0 0L536.0 332.0L0 332.0L0 0Z" fill-rule="nonzero"/><path stroke="#cccccc" stroke-width="1.0" stroke-linecap="butt" d="M99.5 24.5L99.5 249.5" fill-rule="nonzero"/><path stroke="#cccccc" stroke-width="1.0" stroke-linecap="butt" d="M196.5 24.5L196.5 249.5" fill-rule="nonzero"/><path stroke="#cccccc" stroke-width="1.0" stroke-linecap="butt" d="M293.5 24.5L293.5 249.5" fill-rule="nonzero"/><path stroke="#cccccc" stroke-width="1.0" stroke-linecap="butt" d="M390.5 24.5L390.5 249.5" fill-rule="nonzero"/><path stroke="#000000" stroke-width="1.0" stroke-linecap="butt" stroke-opacity="0.0" d="M132.5 24.5L132.5 249.5" fill-rule="nonzero"/><path stroke="#000000" stroke-width="1.0" stroke-linecap="butt" stroke-opacity="0.0" d="M164.5 24.5L164.5 249.5" fill-rule="nonzero"/><path stroke="#000000" stroke-width="1.0" stroke-linecap="butt" stroke-opacity="0.0" d="M228.5 24.5L228.5 249.5" fill-rule="nonzero"/><path stroke="#000000" stroke-width="1.0" stroke-linecap="butt" stroke-opacity="0.0" d="M261.5 24.5L261.5 249.5" fill-rule="nonzero"/><path stroke="#000000" stroke-width="1.0" stroke-linecap="butt" stroke-opacity="0.0" d="M325.5 24.5L325.5 249.5" fill-rule="nonzero"/><path stroke="#000000" stroke-width="1.0" stroke-linecap="butt" stroke-opacity="0.0" d="M357.5 24.5L357.5 249.5" fill-rule="nonzero"/><path stroke="#333333" stroke-width="1.0" stroke-linecap="butt" d="M90.5 249.5L399.5 249.5" fill-rule="nonzero"/><path stroke="#cccccc" stroke-width="1.0" stroke-linecap="butt" d="M90.5 193.5L399.5 193.5" fill-rule="nonzero"/><path stroke="#cccccc" stroke-width="1.0" stroke-linecap="butt" d="M90.5 137.5L399.5 137.5" fill-rule="nonzero"/><path stroke="#cccccc" stroke-width="1.0" stroke-linecap="butt" d="M90.5 80.5L399.5 80.5" fill-rule="nonzero"/><path stroke="#cccccc" stroke-width="1.0" stroke-linecap="butt" d="M90.5 24.5L399.5 24.5" fill-rule="nonzero"/><path stroke="#e6e6e6" stroke-width="1.0" stroke-linecap="butt" d="M90.5 243.5L399.5 243.5" fill-rule="nonzero"/><path stroke="#e6e6e6" stroke-width="1.0" stroke-linecap="butt" d="M90.5 238.5L399.5 238.5" fill-rule="nonzero"/><path stroke="#e6e6e6" stroke-width="1.0" stroke-linecap="butt" d="M90.5 232.5L399.5 232.5" fill-rule="nonzero"/><path stroke="#e6e6e6" stroke-width="1.0" stroke-linecap="butt" d="M90.5 226.5L399.5 226.5" fill-rule="nonzero"/><path stroke="#e6e6e6" stroke-width="1.0" stroke-linecap="butt" d="M90.5 221.5L399.5 221.5" fill-rule="nonzero"/><path stroke="#e6e6e6" stroke-width="1.0" stroke-linecap="butt" d="M90.5 215.5L399.5 215.5" fill-rule="nonzero"/><path stroke="#e6e6e6" stroke-width="1.0" stroke-linecap="butt" d="M90.5 210.5L399.5 210.5" fill-rule="nonzero"/><path stroke="#e6e6e6" stroke-width="1.0" stroke-linecap="butt" d="M90.5 204.5L399.5 204.5" fill-rule="nonzero"/><path stroke="#e6e6e6" stroke-width="1.0" stroke-linecap="butt" d="M90.5 198.5L399.5 198.5" fill-rule="nonzero"/><path stroke="#e6e6e6" stroke-width="1.0" stroke-linecap="butt" d="M90.5 187.5L399.5 187.5" fill-rule="nonzero"/><path stroke="#e6e6e6" stroke-width="1.0" stroke-linecap="butt" d="M90.5 181.5L399.5 181.5" fill-rule="nonzero"/><path stroke="#e6e6e6" stroke-width="1.0" stroke-linecap="butt" d="M90.5 176.5L399.5 176.5" fill-rule="nonzero"/><path stroke="#e6e6e6" stroke-width="1.0" stroke-linecap="butt" d="M90.5 170.5L399.5 170.5" fill-rule="nonzero"/><path stroke="#e6e6e6" stroke-width="1.0" stroke-linecap="butt" d="M90.5 165.5L399.5 165.5" fill-rule="nonzero"/><path stroke="#e6e6e6" stroke-width="1.0" stroke-linecap="butt" d="M90.5 159.5L399.5 159.5" fill-rule="nonzero"/><path stroke="#e6e6e6" stroke-width="1.0" stroke-linecap="butt" d="M90.5 153.5L399.5 153.5" fill-rule="nonzero"/><path stroke="#e6e6e6" stroke-width="1.0" stroke-linecap="butt" d="M90.5 148.5L399.5 148.5" fill-rule="nonzero"/><path stroke="#e6e6e6" stroke-width="1.0" stroke-linecap="butt" d="M90.5 142.5L399.5 142.5" fill-rule="nonzero"/><path stroke="#e6e6e6" stroke-width="1.0" stroke-linecap="butt" d="M90.5 131.5L399.5 131.5" fill-rule="nonzero"/><path stroke="#e6e6e6" stroke-width="1.0" stroke-linecap="butt" d="M90.5 125.5L399.5 125.5" fill-rule="nonzero"/><path stroke="#e6e6e6" stroke-width="1.0" stroke-linecap="butt" d="M90.5 120.5L399.5 120.5" fill-rule="nonzero"/><path stroke="#e6e6e6" stroke-width="1.0" stroke-linecap="butt" d="M90.5 114.5L399.5 114.5" fill-rule="nonzero"/><path stroke="#e6e6e6" stroke-width="1.0" stroke-linecap="butt" d="M90.5 108.5L399.5 108.5" fill-rule="nonzero"/><path stroke="#e6e6e6" stroke-width="1.0" stroke-linecap="butt" d="M90.5 103.5L399.5 103.5" fill-rule="nonzero"/><path stroke="#e6e6e6" stroke-width="1.0" stroke-linecap="butt" d="M90.5 97.5L399.5 97.5" fill-rule="nonzero"/><path stroke="#e6e6e6" stroke-width="1.0" stroke-linecap="butt" d="M90.5 92.5L399.5 92.5" fill-rule="nonzero"/><path stroke="#e6e6e6" stroke-width="1.0" stroke-linecap="butt" d="M90.5 86.5L399.5 86.5" fill-rule="nonzero"/><path stroke="#e6e6e6" stroke-width="1.0" stroke-linecap="butt" d="M90.5 75.5L399.5 75.5" fill-rule="nonzero"/><path stroke="#e6e6e6" stroke-width="1.0" stroke-linecap="butt" d="M90.5 69.5L399.5 69.5" fill-rule="nonzero"/><path stroke="#e6e6e6" stroke-width="1.0" stroke-linecap="butt" d="M90.5 63.5L399.5 63.5" fill-rule="nonzero"/><path stroke="#e6e6e6" stroke-width="1.0" stroke-linecap="butt" d="M90.5 58.5L399.5 58.5" fill-rule="nonzero"/><path stroke="#e6e6e6" stroke-width="1.0" stroke-linecap="butt" d="M90.5 52.5L399.5 52.5" fill-rule="nonzero"/><path stroke="#e6e6e6" stroke-width="1.0" stroke-linecap="butt" d="M90.5 47.5L399.5 47.5" fill-rule="nonzero"/><path stroke="#e6e6e6" stroke-width="1.0" stroke-linecap="butt" d="M90.5 41.5L399.5 41.5" fill-rule="nonzero"/><path stroke="#e6e6e6" stroke-width="1.0" stroke-linecap="butt" d="M90.5 35.5L399.5 35.5" fill-rule="nonzero"/><path stroke="#e6e6e6" stroke-width="1.0" stroke-linecap="butt" d="M90.5 30.5L399.5 30.5" fill-rule="nonzero"/><clipPath id="id_0"><path d="M90.6 24.6L399.48 24.6L399.48 249.4L90.6 249.4L90.6 24.6Z" clip-rule="nonzero"/></clipPath><path fill="#4285f4" clip-path="url(#id_0)" d="M99.991875 236.34634L105.18803 245.34634L94.79572 245.34634Z" fill-rule="nonzero"/><path fill="#4285f4" clip-path="url(#id_0)" d="M196.69063 214.17216L201.88678 223.17216L191.49448 223.17216Z" fill-rule="nonzero"/><path fill="#4285f4" clip-path="url(#id_0)" d="M390.08813 33.89906L395.28427 42.89906L384.89197 42.89906Z" fill-rule="nonzero"/><path fill="#ea4335" clip-path="url(#id_0)" d="M99.991875 241.75595L101.33896 245.90186L105.69821 245.90186L102.1715 248.46416L103.518585 252.61006L99.991875 250.04774L96.465164 252.61006L97.81225 248.46416L94.28554 245.90186L98.64479 245.90186Z" fill-rule="nonzero"/><path fill="#ea4335" clip-path="url(#id_0)" d="M196.69063 236.91469L198.0377 241.06058L202.39696 241.06058L198.87025 243.62288L200.21733 247.76878L196.69063 245.20648L193.16391 247.76878L194.511 243.62288L190.98428 241.06058L195.34354 241.06058Z" fill-rule="nonzero"/><path fill="#ea4335" clip-path="url(#id_0)" d="M390.08813 195.52461L391.4352 199.67052L395.79446 199.67052L392.26776 202.23282L393.61484 206.37872L390.08813 203.8164L386.5614 206.37872L387.9085 202.23282L384.38177 199.67052L388.74103 199.67052Z" fill-rule="nonzero"/><path fill="#000000" d="M202.04 311.4L202.04 299.94687L203.55562 299.94687L203.55562 311.4L202.04 311.4ZM204.6025 311.4L204.6025 303.10312L205.86812 303.10312L205.86812 304.275Q206.77437 302.91562 208.50874 302.91562Q209.25874 302.91562 209.88374 303.18124Q210.50874 303.44687 210.82124 303.88437Q211.13374 304.32187 211.25874 304.93124Q211.33687 305.32187 211.33687 306.29062L211.33687 311.4L209.93062 311.4L209.93062 306.35312Q209.93062 305.49374 209.75874 305.07187Q209.6025 304.63437 209.18062 304.38437Q208.77437 304.13437 208.21187 304.13437Q207.30562 304.13437 206.64937 304.7125Q206.00874 305.275 206.00874 306.86874L206.00874 311.4L204.6025 311.4ZM212.6025 314.5875L212.6025 303.10312L213.88374 303.10312L213.88374 304.18124Q214.33687 303.54062 214.89937 303.22812Q215.4775 302.91562 216.29 302.91562Q217.3525 302.91562 218.165 303.4625Q218.9775 304.00937 219.38374 305.00937Q219.80562 305.99374 219.80562 307.18124Q219.80562 308.4625 219.33687 309.47812Q218.88374 310.49374 218.00874 311.04062Q217.14937 311.5875 216.18062 311.5875Q215.4775 311.5875 214.915 311.29062Q214.36812 310.99374 214.00874 310.54062L214.00874 314.5875L212.6025 314.5875ZM213.86812 307.29062Q213.86812 308.9 214.50874 309.66562Q215.165 310.43124 216.08687 310.43124Q217.02437 310.43124 217.69624 309.63437Q218.36812 308.8375 218.36812 307.18124Q218.36812 305.5875 217.71187 304.80624Q217.05562 304.00937 216.14937 304.00937Q215.25874 304.00937 214.55562 304.85312Q213.86812 305.69687 213.86812 307.29062ZM227.04 311.4L227.04 310.18124Q226.07124 311.5875 224.39937 311.5875Q223.665 311.5875 223.02437 311.30624Q222.39937 311.025 222.08687 310.60312Q221.77437 310.16562 221.64937 309.55624Q221.57124 309.13437 221.57124 308.24374L221.57124 303.10312L222.9775 303.10312L222.9775 307.69687Q222.9775 308.80624 223.05562 309.18124Q223.19624 309.74374 223.61812 310.05624Q224.05562 310.36874 224.68062 310.36874Q225.32124 310.36874 225.86812 310.05624Q226.43062 309.72812 226.64937 309.16562Q226.88374 308.60312 226.88374 307.54062L226.88374 303.10312L228.29 303.10312L228.29 311.4L227.04 311.4ZM232.665 310.13437L232.86812 311.38437Q232.27437 311.50937 231.80562 311.50937Q231.04 311.50937 230.61812 311.275Q230.19624 311.025 230.02437 310.63437Q229.8525 310.22812 229.8525 308.9625L229.8525 304.19687L228.82124 304.19687L228.82124 303.10312L229.8525 303.10312L229.8525 301.04062L231.25874 300.19687L231.25874 303.10312L232.665 303.10312L232.665 304.19687L231.25874 304.19687L231.25874 309.04062Q231.25874 309.65 231.32124 309.82187Q231.39937 309.99374 231.57124 310.10312Q231.74312 310.19687 232.05562 310.19687Q232.29 310.19687 232.665 310.13437ZM237.04 308.91562L238.43062 308.69687Q238.54 309.54062 239.07124 309.99374Q239.61812 310.43124 240.57124 310.43124Q241.54 310.43124 242.00874 310.04062Q242.4775 309.63437 242.4775 309.10312Q242.4775 308.63437 242.07124 308.35312Q241.77437 308.16562 240.63374 307.88437Q239.08687 307.49374 238.4775 307.2125Q237.88374 306.91562 237.57124 306.41562Q237.27437 305.91562 237.27437 305.30624Q237.27437 304.74374 237.52437 304.275Q237.77437 303.80624 238.21187 303.49374Q238.54 303.24374 239.1025 303.0875Q239.68062 302.91562 240.32124 302.91562Q241.30562 302.91562 242.04 303.19687Q242.77437 303.47812 243.11812 303.9625Q243.4775 304.43124 243.61812 305.24374L242.24312 305.43124Q242.14937 304.79062 241.69624 304.43124Q241.24312 304.07187 240.43062 304.07187Q239.46187 304.07187 239.04 304.4Q238.63374 304.7125 238.63374 305.13437Q238.63374 305.41562 238.80562 305.63437Q238.9775 305.85312 239.33687 306.00937Q239.55562 306.0875 240.58687 306.36874Q242.07124 306.75937 242.665 307.025Q243.25874 307.275 243.58687 307.75937Q243.93062 308.24374 243.93062 308.9625Q243.93062 309.66562 243.50874 310.29062Q243.1025 310.9 242.32124 311.24374Q241.55562 311.5875 240.58687 311.5875Q238.96187 311.5875 238.11812 310.91562Q237.27437 310.24374 237.04 308.91562ZM245.6025 301.55624L245.6025 299.94687L247.00874 299.94687L247.00874 301.55624L245.6025 301.55624ZM245.6025 311.4L245.6025 303.10312L247.00874 303.10312L247.00874 311.4L245.6025 311.4ZM248.8525 311.4L248.8525 310.25937L254.13374 304.19687Q253.24312 304.24374 252.55562 304.24374L249.165 304.24374L249.165 303.10312L255.94624 303.10312L255.94624 304.025L251.46187 309.29062L250.58687 310.25937Q251.54 310.18124 252.36812 310.18124L256.19623 310.18124L256.19623 311.4L248.8525 311.4ZM262.27435 308.72812L263.72748 308.9Q263.38373 310.18124 262.44623 310.88437Q261.52435 311.5875 260.08685 311.5875Q258.25873 311.5875 257.19623 310.4625Q256.13373 309.3375 256.13373 307.32187Q256.13373 305.22812 257.21185 304.07187Q258.28998 302.91562 260.00873 302.91562Q261.66498 302.91562 262.71185 304.05624Q263.77435 305.18124 263.77435 307.22812Q263.77435 307.35312 263.77435 307.60312L257.58685 307.60312Q257.66498 308.97812 258.35248 309.7125Q259.0556 310.43124 260.08685 310.43124Q260.8681 310.43124 261.41498 310.025Q261.96185 309.61874 262.27435 308.72812ZM257.66498 306.44687L262.28998 306.44687Q262.19623 305.4 261.75873 304.88437Q261.08685 304.07187 260.02435 304.07187Q259.0556 304.07187 258.38373 304.72812Q257.72748 305.36874 257.66498 306.44687ZM268.53998 311.60312L271.8681 299.74374L272.9931 299.74374L269.6806 311.60312L268.53998 311.60312ZM274.89935 311.4L273.58685 311.4L273.58685 299.94687L274.9931 299.94687L274.9931 304.025Q275.88373 302.91562 277.27435 302.91562Q278.03998 302.91562 278.71185 303.22812Q279.39935 303.525 279.83685 304.0875Q280.28998 304.65 280.53998 305.44687Q280.78998 306.22812 280.78998 307.11874Q280.78998 309.25937 279.72748 310.43124Q278.6806 311.5875 277.19623 311.5875Q275.72748 311.5875 274.89935 310.35312L274.89935 311.4ZM274.88373 307.18124Q274.88373 308.68124 275.28998 309.3375Q275.94623 310.43124 277.08685 310.43124Q278.00873 310.43124 278.6806 309.63437Q279.35248 308.82187 279.35248 307.24374Q279.35248 305.61874 278.69623 304.85312Q278.0556 304.07187 277.14935 304.07187Q276.22748 304.07187 275.5556 304.86874Q274.88373 305.66562 274.88373 307.18124ZM282.60248 301.55624L282.60248 299.94687L284.00873 299.94687L284.00873 301.55624L282.60248 301.55624ZM282.60248 311.4L282.60248 303.10312L284.00873 303.10312L284.00873 311.4L282.60248 311.4ZM289.66498 310.13437L289.8681 311.38437Q289.27435 311.50937 288.8056 311.50937Q288.03998 311.50937 287.6181 311.275Q287.19623 311.025 287.02435 310.63437Q286.85248 310.22812 286.85248 308.9625L286.85248 304.19687L285.82123 304.19687L285.82123 303.10312L286.85248 303.10312L286.85248 301.04062L288.25873 300.19687L288.25873 303.10312L289.66498 303.10312L289.66498 304.19687L288.25873 304.19687L288.25873 309.04062Q288.25873 309.65 288.32123 309.82187Q288.39935 309.99374 288.57123 310.10312Q288.7431 310.19687 289.0556 310.19687Q289.28998 310.19687 289.66498 310.13437Z" fill-rule="nonzero"/><path fill="#000000" d="M31.599995 210.73438L20.14687 210.73438L20.14687 202.45312L21.49062 202.45312L21.49062 209.21875L25.006245 209.21875L25.006245 202.875L26.349995 202.875L26.349995 209.21875L30.24062 209.21875L30.24062 202.1875L31.599995 202.1875L31.599995 210.73438ZM31.599995 200.875L27.287495 197.84375L23.30312 200.65625L23.30312 198.89062L25.24062 197.625Q25.80312 197.26562 26.17812 197.04688Q25.662495 196.70312 25.256245 196.40625L23.30312 195.01562L23.30312 193.32812L27.20937 196.20312L31.599995 193.10938L31.599995 194.84375L29.02187 196.54688L28.318745 197.0L31.599995 199.17188L31.599995 200.875ZM28.92812 187.26562L29.099995 185.8125Q30.381245 186.15625 31.08437 187.09375Q31.787495 188.01562 31.787495 189.45312Q31.787495 191.28125 30.662495 192.34375Q29.537495 193.40625 27.52187 193.40625Q25.42812 193.40625 24.27187 192.32812Q23.11562 191.25 23.11562 189.53125Q23.11562 187.875 24.256245 186.82812Q25.381245 185.76562 27.42812 185.76562Q27.55312 185.76562 27.80312 185.76562L27.80312 191.95312Q29.17812 191.875 29.912495 191.1875Q30.631245 190.48438 30.631245 189.45312Q30.631245 188.67188 30.224995 188.125Q29.818745 187.57812 28.92812 187.26562ZM26.64687 191.875L26.64687 187.25Q25.599995 187.34375 25.08437 187.78125Q24.27187 188.45312 24.27187 189.51562Q24.27187 190.48438 24.92812 191.15625Q25.568745 191.8125 26.64687 191.875ZM28.55312 178.53125L28.74062 177.14062Q30.162495 177.375 30.974995 178.3125Q31.787495 179.23438 31.787495 180.59375Q31.787495 182.29688 30.67812 183.34375Q29.55312 184.375 27.474995 184.375Q26.131245 184.375 25.131245 183.9375Q24.11562 183.48438 23.61562 182.57812Q23.11562 181.65625 23.11562 180.59375Q23.11562 179.23438 23.80312 178.375Q24.474995 177.51562 25.74062 177.28125L25.943745 178.64062Q25.11562 178.84375 24.693745 179.34375Q24.27187 179.82812 24.27187 180.53125Q24.27187 181.59375 25.037495 182.26562Q25.787495 182.92188 27.443745 182.92188Q29.11562 182.92188 29.881245 182.28125Q30.631245 181.64062 30.631245 180.60938Q30.631245 179.78125 30.131245 179.23438Q29.61562 178.67188 28.55312 178.53125ZM31.599995 170.5L30.381245 170.5Q31.787495 171.46875 31.787495 173.14062Q31.787495 173.875 31.506245 174.51562Q31.224995 175.14062 30.80312 175.45312Q30.36562 175.76562 29.756245 175.89062Q29.33437 175.96875 28.443745 175.96875L23.30312 175.96875L23.30312 174.5625L27.89687 174.5625Q29.006245 174.5625 29.381245 174.48438Q29.943745 174.34375 30.256245 173.92188Q30.568745 173.48438 30.568745 172.85938Q30.568745 172.21875 30.256245 171.67188Q29.92812 171.10938 29.36562 170.89062Q28.80312 170.65625 27.74062 170.65625L23.30312 170.65625L23.30312 169.25L31.599995 169.25L31.599995 170.5ZM30.33437 164.875L31.58437 164.67188Q31.70937 165.26562 31.70937 165.73438Q31.70937 166.5 31.474995 166.92188Q31.224995 167.34375 30.83437 167.51562Q30.42812 167.6875 29.162495 167.6875L24.39687 167.6875L24.39687 168.71875L23.30312 168.71875L23.30312 167.6875L21.24062 167.6875L20.39687 166.28125L23.30312 166.28125L23.30312 164.875L24.39687 164.875L24.39687 166.28125L29.24062 166.28125Q29.849995 166.28125 30.02187 166.21875Q30.193745 166.14062 30.30312 165.96875Q30.39687 165.79688 30.39687 165.48438Q30.39687 165.25 30.33437 164.875ZM21.756245 163.9375L20.14687 163.9375L20.14687 162.53125L21.756245 162.53125L21.756245 163.9375ZM31.599995 163.9375L23.30312 163.9375L23.30312 162.53125L31.599995 162.53125L31.599995 163.9375ZM27.443745 160.46875Q25.14687 160.46875 24.037495 159.1875Q23.11562 158.10938 23.11562 156.57812Q23.11562 154.85938 24.24062 153.78125Q25.349995 152.6875 27.33437 152.6875Q28.92812 152.6875 29.849995 153.17188Q30.77187 153.65625 31.287495 154.57812Q31.787495 155.48438 31.787495 156.57812Q31.787495 158.3125 30.67812 159.39062Q29.55312 160.46875 27.443745 160.46875ZM27.443745 159.01562Q29.037495 159.01562 29.83437 158.32812Q30.631245 157.625 30.631245 156.57812Q30.631245 155.53125 29.83437 154.84375Q29.037495 154.14062 27.39687 154.14062Q25.86562 154.14062 25.068745 154.84375Q24.27187 155.53125 24.27187 156.57812Q24.27187 157.625 25.068745 158.32812Q25.849995 159.01562 27.443745 159.01562ZM31.599995 150.9375L23.30312 150.9375L23.30312 149.67188L24.474995 149.67188Q23.11562 148.76562 23.11562 147.03125Q23.11562 146.28125 23.381245 145.65625Q23.64687 145.03125 24.08437 144.71875Q24.52187 144.40625 25.131245 144.28125Q25.52187 144.20312 26.49062 144.20312L31.599995 144.20312L31.599995 145.60938L26.55312 145.60938Q25.693745 145.60938 25.27187 145.78125Q24.83437 145.9375 24.58437 146.35938Q24.33437 146.76562 24.33437 147.32812Q24.33437 148.23438 24.912495 148.89062Q25.474995 149.53125 27.068745 149.53125L31.599995 149.53125L31.599995 150.9375ZM30.33437 135.875L31.58437 135.67188Q31.70937 136.26562 31.70937 136.73438Q31.70937 137.5 31.474995 137.92188Q31.224995 138.34375 30.83437 138.51562Q30.42812 138.6875 29.162495 138.6875L24.39687 138.6875L24.39687 139.71875L23.30312 139.71875L23.30312 138.6875L21.24062 138.6875L20.39687 137.28125L23.30312 137.28125L23.30312 135.875L24.39687 135.875L24.39687 137.28125L29.24062 137.28125Q29.849995 137.28125 30.02187 137.21875Q30.193745 137.14062 30.30312 136.96875Q30.39687 136.79688 30.39687 136.48438Q30.39687 136.25 30.33437 135.875ZM21.756245 134.9375L20.14687 134.9375L20.14687 133.53125L21.756245 133.53125L21.756245 134.9375ZM31.599995 134.9375L23.30312 134.9375L23.30312 133.53125L31.599995 133.53125L31.599995 134.9375ZM31.599995 130.9375L23.30312 130.9375L23.30312 129.6875L24.45937 129.6875Q23.849995 129.29688 23.49062 128.65625Q23.11562 128.0 23.11562 127.171875Q23.11562 126.25 23.506245 125.65625Q23.881245 125.0625 24.568745 124.828125Q23.11562 123.84375 23.11562 122.265625Q23.11562 121.03125 23.80312 120.375Q24.474995 119.703125 25.89687 119.703125L31.599995 119.703125L31.599995 121.09375L26.36562 121.09375Q25.52187 121.09375 25.162495 121.234375Q24.787495 121.375 24.568745 121.734375Q24.33437 122.09375 24.33437 122.578125Q24.33437 123.453125 24.912495 124.03125Q25.49062 124.609375 26.77187 124.609375L31.599995 124.609375L31.599995 126.015625L26.20937 126.015625Q25.27187 126.015625 24.80312 126.359375Q24.33437 126.703125 24.33437 127.484375Q24.33437 128.07812 24.64687 128.57812Q24.95937 129.07812 25.568745 129.3125Q26.162495 129.53125 27.287495 129.53125L31.599995 129.53125L31.599995 130.9375ZM28.92812 112.265625L29.099995 110.8125Q30.381245 111.15625 31.08437 112.09375Q31.787495 113.015625 31.787495 114.453125Q31.787495 116.28125 30.662495 117.34375Q29.537495 118.40625 27.52187 118.40625Q25.42812 118.40625 24.27187 117.328125Q23.11562 116.25 23.11562 114.53125Q23.11562 112.875 24.256245 111.828125Q25.381245 110.765625 27.42812 110.765625Q27.55312 110.765625 27.80312 110.765625L27.80312 116.953125Q29.17812 116.875 29.912495 116.1875Q30.631245 115.484375 30.631245 114.453125Q30.631245 113.671875 30.224995 113.125Q29.818745 112.578125 28.92812 112.265625ZM26.64687 116.875L26.64687 112.25Q25.599995 112.34375 25.08437 112.78125Q24.27187 113.453125 24.27187 114.515625Q24.27187 115.484375 24.92812 116.15625Q25.568745 116.8125 26.64687 116.875ZM31.80312 106.0L19.943745 102.671875L19.943745 101.546875L31.80312 104.859375L31.80312 106.0ZM31.599995 100.9375L23.30312 100.9375L23.30312 99.6875L24.45937 99.6875Q23.849995 99.296875 23.49062 98.65625Q23.11562 98.0 23.11562 97.171875Q23.11562 96.25 23.506245 95.65625Q23.881245 95.0625 24.568745 94.828125Q23.11562 93.84375 23.11562 92.265625Q23.11562 91.03125 23.80312 90.375Q24.474995 89.703125 25.89687 89.703125L31.599995 89.703125L31.599995 91.09375L26.36562 91.09375Q25.52187 91.09375 25.162495 91.234375Q24.787495 91.375 24.568745 91.734375Q24.33437 92.09375 24.33437 92.578125Q24.33437 93.453125 24.912495 94.03125Q25.49062 94.609375 26.77187 94.609375L31.599995 94.609375L31.599995 96.015625L26.20937 96.015625Q25.27187 96.015625 24.80312 96.359375Q24.33437 96.703125 24.33437 97.484375Q24.33437 98.078125 24.64687 98.578125Q24.95937 99.078125 25.568745 99.3125Q26.162495 99.53125 27.287495 99.53125L31.599995 99.53125L31.599995 100.9375ZM21.756245 87.9375L20.14687 87.9375L20.14687 86.53125L21.756245 86.53125L21.756245 87.9375ZM31.599995 87.9375L23.30312 87.9375L23.30312 86.53125L31.599995 86.53125L31.599995 87.9375ZM31.599995 83.9375L23.30312 83.9375L23.30312 82.671875L24.474995 82.671875Q23.11562 81.765625 23.11562 80.03125Q23.11562 79.28125 23.381245 78.65625Q23.64687 78.03125 24.08437 77.71875Q24.52187 77.40625 25.131245 77.28125Q25.52187 77.203125 26.49062 77.203125L31.599995 77.203125L31.599995 78.609375L26.55312 78.609375Q25.693745 78.609375 25.27187 78.78125Q24.83437 78.9375 24.58437 79.359375Q24.33437 79.765625 24.33437 80.328125Q24.33437 81.234375 24.912495 81.890625Q25.474995 82.53125 27.068745 82.53125L31.599995 82.53125L31.599995 83.9375Z" fill-rule="nonzero"/><path fill="#000000" d="M76.17812 249.4625Q76.17812 247.68124 76.5375 246.60312Q76.9125 245.50937 77.63125 244.93124Q78.35 244.3375 79.44375 244.3375Q80.25625 244.3375 80.86562 244.66562Q81.475 244.99374 81.86562 245.60312Q82.27187 246.2125 82.49062 247.0875Q82.70937 247.9625 82.70937 249.4625Q82.70937 251.22812 82.35 252.30624Q81.99062 253.38437 81.27187 253.97812Q80.55312 254.57187 79.44375 254.57187Q78.00625 254.57187 77.17812 253.525Q76.17812 252.275 76.17812 249.4625ZM77.44375 249.4625Q77.44375 251.93124 78.02187 252.74374Q78.6 253.55624 79.44375 253.55624Q80.30312 253.55624 80.88125 252.74374Q81.45937 251.91562 81.45937 249.4625Q81.45937 246.97812 80.88125 246.16562Q80.30312 245.35312 79.42812 245.35312Q78.58437 245.35312 78.08437 246.07187Q77.44375 246.99374 77.44375 249.4625Z" fill-rule="nonzero"/><path fill="#000000" d="M64.81875 198.2L63.584373 198.2L63.584373 190.35625Q63.146873 190.77812 62.4125 191.21562Q61.69375 191.6375 61.13125 191.84062L61.13125 190.65312Q62.1625 190.16875 62.928123 189.48125Q63.709373 188.79375 64.02187 188.1375L64.81875 188.1375L64.81875 198.2ZM68.17812 193.2625Q68.17812 191.48125 68.5375 190.40312Q68.9125 189.30937 69.63125 188.73125Q70.35 188.1375 71.44375 188.1375Q72.25625 188.1375 72.86562 188.46562Q73.475 188.79375 73.86562 189.40312Q74.27187 190.0125 74.49062 190.8875Q74.70937 191.7625 74.70937 193.2625Q74.70937 195.02812 74.35 196.10625Q73.99062 197.18437 73.27187 197.77812Q72.55312 198.37187 71.44375 198.37187Q70.00625 198.37187 69.17812 197.325Q68.17812 196.075 68.17812 193.2625ZM69.44375 193.2625Q69.44375 195.73125 70.02187 196.54375Q70.6 197.35625 71.44375 197.35625Q72.30312 197.35625 72.88125 196.54375Q73.45937 195.71562 73.45937 193.2625Q73.45937 190.77812 72.88125 189.96562Q72.30312 189.15312 71.42812 189.15312Q70.58437 189.15312 70.08437 189.87187Q69.44375 190.79375 69.44375 193.2625ZM76.17812 193.2625Q76.17812 191.48125 76.5375 190.40312Q76.9125 189.30937 77.63125 188.73125Q78.35 188.1375 79.44375 188.1375Q80.25625 188.1375 80.86562 188.46562Q81.475 188.79375 81.86562 189.40312Q82.27187 190.0125 82.49062 190.8875Q82.70937 191.7625 82.70937 193.2625Q82.70937 195.02812 82.35 196.10625Q81.99062 197.18437 81.27187 197.77812Q80.55312 198.37187 79.44375 198.37187Q78.00625 198.37187 77.17812 197.325Q76.17812 196.075 76.17812 193.2625ZM77.44375 193.2625Q77.44375 195.73125 78.02187 196.54375Q78.6 197.35625 79.44375 197.35625Q80.30312 197.35625 80.88125 196.54375Q81.45937 195.71562 81.45937 193.2625Q81.45937 190.77812 80.88125 189.96562Q80.30312 189.15312 79.42812 189.15312Q78.58437 189.15312 78.08437 189.87187Q77.44375 190.79375 77.44375 193.2625Z" fill-rule="nonzero"/><path fill="#000000" d="M66.64687 140.8125L66.64687 142.0L60.021873 142.0Q60.00625 141.5625 60.1625 141.14062Q60.428123 140.46875 60.975 139.8125Q61.5375 139.15625 62.584373 138.29688Q64.225 136.95312 64.7875 136.17188Q65.36562 135.39062 65.36562 134.6875Q65.36562 133.95312 64.83437 133.45312Q64.31875 132.95312 63.490623 132.95312Q62.6 132.95312 62.053123 133.48438Q61.521873 134.01562 61.521873 134.96875L60.25625 134.82812Q60.38125 133.42188 61.225 132.6875Q62.084373 131.9375 63.50625 131.9375Q64.95937 131.9375 65.7875 132.73438Q66.63125 133.53125 66.63125 134.71875Q66.63125 135.32812 66.38125 135.90625Q66.14687 136.48438 65.56875 137.125Q65.00625 137.76562 63.678123 138.89062Q62.56875 139.8125 62.25625 140.15625Q61.94375 140.48438 61.740623 140.8125L66.64687 140.8125ZM68.17812 137.0625Q68.17812 135.28125 68.5375 134.20312Q68.9125 133.10938 69.63125 132.53125Q70.35 131.9375 71.44375 131.9375Q72.25625 131.9375 72.86562 132.26562Q73.475 132.59375 73.86562 133.20312Q74.27187 133.8125 74.49062 134.6875Q74.70937 135.5625 74.70937 137.0625Q74.70937 138.82812 74.35 139.90625Q73.99062 140.98438 73.27187 141.57812Q72.55312 142.17188 71.44375 142.17188Q70.00625 142.17188 69.17812 141.125Q68.17812 139.875 68.17812 137.0625ZM69.44375 137.0625Q69.44375 139.53125 70.02187 140.34375Q70.6 141.15625 71.44375 141.15625Q72.30312 141.15625 72.88125 140.34375Q73.45937 139.51562 73.45937 137.0625Q73.45937 134.57812 72.88125 133.76562Q72.30312 132.95312 71.42812 132.95312Q70.58437 132.95312 70.08437 133.67188Q69.44375 134.59375 69.44375 137.0625ZM76.17812 137.0625Q76.17812 135.28125 76.5375 134.20312Q76.9125 133.10938 77.63125 132.53125Q78.35 131.9375 79.44375 131.9375Q80.25625 131.9375 80.86562 132.26562Q81.475 132.59375 81.86562 133.20312Q82.27187 133.8125 82.49062 134.6875Q82.70937 135.5625 82.70937 137.0625Q82.70937 138.82812 82.35 139.90625Q81.99062 140.98438 81.27187 141.57812Q80.55312 142.17188 79.44375 142.17188Q78.00625 142.17188 77.17812 141.125Q76.17812 139.875 76.17812 137.0625ZM77.44375 137.0625Q77.44375 139.53125 78.02187 140.34375Q78.6 141.15625 79.44375 141.15625Q80.30312 141.15625 80.88125 140.34375Q81.45937 139.51562 81.45937 137.0625Q81.45937 134.57812 80.88125 133.76562Q80.30312 132.95312 79.42812 132.95312Q78.58437 132.95312 78.08437 133.67188Q77.44375 134.59375 77.44375 137.0625Z" fill-rule="nonzero"/><path fill="#000000" d="M60.19375 83.15938L61.4125 82.9875Q61.63125 84.03438 62.13125 84.50313Q62.646873 84.95625 63.38125 84.95625Q64.25625 84.95625 64.85 84.3625Q65.44375 83.75313 65.44375 82.8625Q65.44375 82.01875 64.88125 81.47188Q64.33437 80.925 63.490623 80.925Q63.13125 80.925 62.615623 81.05L62.75625 79.97188Q62.88125 79.9875 62.94375 79.9875Q63.740623 79.9875 64.36562 79.58125Q64.99062 79.175 64.99062 78.31563Q64.99062 77.64375 64.5375 77.20625Q64.08437 76.75313 63.35 76.75313Q62.63125 76.75313 62.146873 77.20625Q61.678123 77.64375 61.5375 78.55L60.31875 78.33125Q60.5375 77.09688 61.334373 76.425Q62.13125 75.7375 63.31875 75.7375Q64.14687 75.7375 64.83437 76.09688Q65.52187 76.44063 65.88125 77.05Q66.25625 77.65938 66.25625 78.34688Q66.25625 78.9875 65.9125 79.51875Q65.56875 80.05 64.88125 80.37813Q65.77187 80.58125 66.25625 81.22188Q66.75625 81.8625 66.75625 82.84688Q66.75625 84.15938 65.7875 85.06563Q64.83437 85.97188 63.38125 85.97188Q62.053123 85.97188 61.178123 85.19063Q60.31875 84.40938 60.19375 83.15938ZM68.17812 80.8625Q68.17812 79.08125 68.5375 78.00313Q68.9125 76.90938 69.63125 76.33125Q70.35 75.7375 71.44375 75.7375Q72.25625 75.7375 72.86562 76.06563Q73.475 76.39375 73.86562 77.00313Q74.27187 77.6125 74.49062 78.4875Q74.70937 79.3625 74.70937 80.8625Q74.70937 82.62813 74.35 83.70625Q73.99062 84.78438 73.27187 85.37813Q72.55312 85.97188 71.44375 85.97188Q70.00625 85.97188 69.17812 84.925Q68.17812 83.675 68.17812 80.8625ZM69.44375 80.8625Q69.44375 83.33125 70.02187 84.14375Q70.6 84.95625 71.44375 84.95625Q72.30312 84.95625 72.88125 84.14375Q73.45937 83.31563 73.45937 80.8625Q73.45937 78.37813 72.88125 77.56563Q72.30312 76.75313 71.42812 76.75313Q70.58437 76.75313 70.08437 77.47188Q69.44375 78.39375 69.44375 80.8625ZM76.17812 80.8625Q76.17812 79.08125 76.5375 78.00313Q76.9125 76.90938 77.63125 76.33125Q78.35 75.7375 79.44375 75.7375Q80.25625 75.7375 80.86562 76.06563Q81.475 76.39375 81.86562 77.00313Q82.27187 77.6125 82.49062 78.4875Q82.70937 79.3625 82.70937 80.8625Q82.70937 82.62813 82.35 83.70625Q81.99062 84.78438 81.27187 85.37813Q80.55312 85.97188 79.44375 85.97188Q78.00625 85.97188 77.17812 84.925Q76.17812 83.675 76.17812 80.8625ZM77.44375 80.8625Q77.44375 83.33125 78.02187 84.14375Q78.6 84.95625 79.44375 84.95625Q80.30312 84.95625 80.88125 84.14375Q81.45937 83.31563 81.45937 80.8625Q81.45937 78.37813 80.88125 77.56563Q80.30312 76.75313 79.42812 76.75313Q78.58437 76.75313 78.08437 77.47188Q77.44375 78.39375 77.44375 80.8625Z" fill-rule="nonzero"/><path fill="#000000" d="M64.13125 29.6L64.13125 27.19375L59.771873 27.19375L59.771873 26.06875L64.35 19.584375L65.35 19.584375L65.35 26.06875L66.70937 26.06875L66.70937 27.19375L65.35 27.19375L65.35 29.6L64.13125 29.6ZM64.13125 26.06875L64.13125 21.553125L60.990623 26.06875L64.13125 26.06875ZM68.17812 24.6625Q68.17812 22.88125 68.5375 21.803125Q68.9125 20.709375 69.63125 20.13125Q70.35 19.5375 71.44375 19.5375Q72.25625 19.5375 72.86562 19.865625Q73.475 20.19375 73.86562 20.803125Q74.27187 21.4125 74.49062 22.2875Q74.70937 23.1625 74.70937 24.6625Q74.70937 26.428125 74.35 27.50625Q73.99062 28.584375 73.27187 29.178125Q72.55312 29.771875 71.44375 29.771875Q70.00625 29.771875 69.17812 28.725Q68.17812 27.475 68.17812 24.6625ZM69.44375 24.6625Q69.44375 27.13125 70.02187 27.94375Q70.6 28.75625 71.44375 28.75625Q72.30312 28.75625 72.88125 27.94375Q73.45937 27.115625 73.45937 24.6625Q73.45937 22.178125 72.88125 21.365625Q72.30312 20.553125 71.42812 20.553125Q70.58437 20.553125 70.08437 21.271875Q69.44375 22.19375 69.44375 24.6625ZM76.17812 24.6625Q76.17812 22.88125 76.5375 21.803125Q76.9125 20.709375 77.63125 20.13125Q78.35 19.5375 79.44375 19.5375Q80.25625 19.5375 80.86562 19.865625Q81.475 20.19375 81.86562 20.803125Q82.27187 21.4125 82.49062 22.2875Q82.70937 23.1625 82.70937 24.6625Q82.70937 26.428125 82.35 27.50625Q81.99062 28.584375 81.27187 29.178125Q80.55312 29.771875 79.44375 29.771875Q78.00625 29.771875 77.17812 28.725Q76.17812 27.475 76.17812 24.6625ZM77.44375 24.6625Q77.44375 27.13125 78.02187 27.94375Q78.6 28.75625 79.44375 28.75625Q80.30312 28.75625 80.88125 27.94375Q81.45937 27.115625 81.45937 24.6625Q81.45937 22.178125 80.88125 21.365625Q80.30312 20.553125 79.42812 20.553125Q78.58437 20.553125 78.08437 21.271875Q77.44375 22.19375 77.44375 24.6625Z" fill-rule="nonzero"/><path fill="#000000" d="M101.210625 269.4L99.97625 269.4L99.97625 261.55624Q99.53875 261.97812 98.804375 262.41562Q98.085625 262.8375 97.523125 263.04062L97.523125 261.85312Q98.554375 261.36874 99.32 260.68124Q100.10125 259.99374 100.41375 259.3375L101.210625 259.3375L101.210625 269.4Z" fill-rule="nonzero"/><path fill="#000000" d="M199.7375 268.2125L199.7375 269.4L193.1125 269.4Q193.09688 268.9625 193.25313 268.54062Q193.51875 267.86874 194.06563 267.2125Q194.62813 266.55624 195.675 265.69687Q197.31563 264.35312 197.87813 263.57187Q198.45625 262.79062 198.45625 262.0875Q198.45625 261.35312 197.925 260.85312Q197.40938 260.35312 196.58125 260.35312Q195.69063 260.35312 195.14375 260.88437Q194.6125 261.41562 194.6125 262.36874L193.34688 262.22812Q193.47188 260.82187 194.31563 260.0875Q195.175 259.3375 196.59688 259.3375Q198.05 259.3375 198.87813 260.13437Q199.72188 260.93124 199.72188 262.11874Q199.72188 262.72812 199.47188 263.30624Q199.2375 263.88437 198.65938 264.525Q198.09688 265.16562 196.76875 266.29062Q195.65938 267.2125 195.34688 267.55624Q195.03438 267.88437 194.83125 268.2125L199.7375 268.2125Z" fill-rule="nonzero"/><path fill="#000000" d="M289.98312 266.75937L291.20187 266.5875Q291.42062 267.63437 291.92062 268.10312Q292.43625 268.55624 293.17062 268.55624Q294.04562 268.55624 294.63937 267.9625Q295.23312 267.35312 295.23312 266.4625Q295.23312 265.61874 294.67062 265.07187Q294.12375 264.525 293.28 264.525Q292.92062 264.525 292.405 264.65L292.54562 263.57187Q292.67062 263.5875 292.73312 263.5875Q293.53 263.5875 294.155 263.18124Q294.78 262.775 294.78 261.91562Q294.78 261.24374 294.32687 260.80624Q293.87375 260.35312 293.13937 260.35312Q292.42062 260.35312 291.93625 260.80624Q291.4675 261.24374 291.32687 262.15L290.10812 261.93124Q290.32687 260.69687 291.12375 260.025Q291.92062 259.3375 293.10812 259.3375Q293.93625 259.3375 294.62375 259.69687Q295.31125 260.04062 295.67062 260.65Q296.04562 261.25937 296.04562 261.94687Q296.04562 262.5875 295.70187 263.11874Q295.35812 263.65 294.67062 263.97812Q295.56125 264.18124 296.04562 264.82187Q296.54562 265.4625 296.54562 266.44687Q296.54562 267.75937 295.57687 268.66562Q294.62375 269.57187 293.17062 269.57187Q291.8425 269.57187 290.9675 268.79062Q290.10812 268.00937 289.98312 266.75937Z" fill-rule="nonzero"/><path fill="#000000" d="M390.6194 269.4L390.6194 266.99374L386.26 266.99374L386.26 265.86874L390.83813 259.38437L391.83813 259.38437L391.83813 265.86874L393.1975 265.86874L393.1975 266.99374L391.83813 266.99374L391.83813 269.4L390.6194 269.4ZM390.6194 265.86874L390.6194 261.35312L387.47876 265.86874L390.6194 265.86874Z" fill-rule="nonzero"/><path fill="#4285f4" d="M425.4 20.1L430.59616 29.1L420.20386 29.1Z" fill-rule="nonzero"/><path fill="#1a1a1a" d="M439.93124 27.44375Q439.93124 25.146875 441.2125 24.0375Q442.29062 23.115625 443.82187 23.115625Q445.54062 23.115625 446.61874 24.240625Q447.7125 25.35 447.7125 27.334375Q447.7125 28.928125 447.22812 29.85Q446.74374 30.771875 445.82187 31.2875Q444.91562 31.7875 443.82187 31.7875Q442.0875 31.7875 441.00937 30.678125Q439.93124 29.553125 439.93124 27.44375ZM441.38437 27.44375Q441.38437 29.0375 442.07187 29.834375Q442.775 30.63125 443.82187 30.63125Q444.86874 30.63125 445.55624 29.834375Q446.25937 29.0375 446.25937 27.396875Q446.25937 25.865625 445.55624 25.06875Q444.86874 24.271875 443.82187 24.271875Q442.775 24.271875 442.07187 25.06875Q441.38437 25.85 441.38437 27.44375ZM450.75937 31.6L449.44687 31.6L449.44687 20.146875L450.85312 20.146875L450.85312 24.225Q451.74374 23.115625 453.13437 23.115625Q453.9 23.115625 454.57187 23.428125Q455.25937 23.725 455.69687 24.2875Q456.15 24.85 456.4 25.646875Q456.65 26.428125 456.65 27.31875Q456.65 29.459375 455.5875 30.63125Q454.54062 31.7875 453.05624 31.7875Q451.5875 31.7875 450.75937 30.553125L450.75937 31.6ZM450.74374 27.38125Q450.74374 28.88125 451.15 29.5375Q451.80624 30.63125 452.94687 30.63125Q453.86874 30.63125 454.54062 29.834375Q455.2125 29.021875 455.2125 27.44375Q455.2125 25.81875 454.55624 25.053125Q453.91562 24.271875 453.00937 24.271875Q452.0875 24.271875 451.41562 25.06875Q450.74374 25.865625 450.74374 27.38125ZM458.79062 31.6L458.79062 24.396875L457.55624 24.396875L457.55624 23.303125L458.79062 23.303125L458.79062 22.4125Q458.79062 21.584375 458.94687 21.178125Q459.15 20.63125 459.65 20.2875Q460.16562 19.94375 461.0875 19.94375Q461.68124 19.94375 462.4 20.084375L462.19687 21.31875Q461.75937 21.240625 461.36874 21.240625Q460.72812 21.240625 460.4625 21.521875Q460.19687 21.7875 460.19687 22.5375L460.19687 23.303125L461.80624 23.303125L461.80624 24.396875L460.19687 24.396875L460.19687 31.6L458.79062 31.6ZM467.9 31.6L467.9 30.38125Q466.93124 31.7875 465.25937 31.7875Q464.525 31.7875 463.88437 31.50625Q463.25937 31.225 462.94687 30.803125Q462.63437 30.365625 462.50937 29.75625Q462.43124 29.334375 462.43124 28.44375L462.43124 23.303125L463.8375 23.303125L463.8375 27.896875Q463.8375 29.00625 463.91562 29.38125Q464.05624 29.94375 464.47812 30.25625Q464.91562 30.56875 465.54062 30.56875Q466.18124 30.56875 466.72812 30.25625Q467.29062 29.928125 467.50937 29.365625Q467.74374 28.803125 467.74374 27.740625L467.74374 23.303125L469.15 23.303125L469.15 31.6L467.9 31.6ZM469.9 29.115625L471.29062 28.896875Q471.4 29.740625 471.93124 30.19375Q472.47812 30.63125 473.43124 30.63125Q474.4 30.63125 474.86874 30.240625Q475.3375 29.834375 475.3375 29.303125Q475.3375 28.834375 474.93124 28.553125Q474.63437 28.365625 473.49374 28.084375Q471.94687 27.69375 471.3375 27.4125Q470.74374 27.115625 470.43124 26.615625Q470.13437 26.115625 470.13437 25.50625Q470.13437 24.94375 470.38437 24.475Q470.63437 24.00625 471.07187 23.69375Q471.4 23.44375 471.9625 23.2875Q472.54062 23.115625 473.18124 23.115625Q474.16562 23.115625 474.9 23.396875Q475.63437 23.678125 475.97812 24.1625Q476.3375 24.63125 476.47812 25.44375L475.10312 25.63125Q475.00937 24.990625 474.55624 24.63125Q474.10312 24.271875 473.29062 24.271875Q472.32187 24.271875 471.9 24.6Q471.49374 24.9125 471.49374 25.334375Q471.49374 25.615625 471.66562 25.834375Q471.8375 26.053125 472.19687 26.209375Q472.41562 26.2875 473.44687 26.56875Q474.93124 26.959375 475.525 27.225Q476.11874 27.475 476.44687 27.959375Q476.79062 28.44375 476.79062 29.1625Q476.79062 29.865625 476.36874 30.490625Q475.9625 31.1 475.18124 31.44375Q474.41562 31.7875 473.44687 31.7875Q471.82187 31.7875 470.97812 31.115625Q470.13437 30.44375 469.9 29.115625ZM483.86874 28.553125L485.25937 28.740625Q485.025 30.1625 484.0875 30.975Q483.16562 31.7875 481.80624 31.7875Q480.10312 31.7875 479.05624 30.678125Q478.025 29.553125 478.025 27.475Q478.025 26.13125 478.4625 25.13125Q478.91562 24.115625 479.82187 23.615625Q480.74374 23.115625 481.80624 23.115625Q483.16562 23.115625 484.025 23.803125Q484.88437 24.475 485.11874 25.740625L483.75937 25.94375Q483.55624 25.115625 483.05624 24.69375Q482.57187 24.271875 481.86874 24.271875Q480.80624 24.271875 480.13437 25.0375Q479.47812 25.7875 479.47812 27.44375Q479.47812 29.115625 480.11874 29.88125Q480.75937 30.63125 481.79062 30.63125Q482.61874 30.63125 483.16562 30.13125Q483.72812 29.615625 483.86874 28.553125ZM491.86874 30.56875Q491.0875 31.240625 490.36874 31.521875Q489.65 31.7875 488.82187 31.7875Q487.44687 31.7875 486.7125 31.115625Q485.97812 30.44375 485.97812 29.4125Q485.97812 28.803125 486.25937 28.303125Q486.54062 27.7875 486.97812 27.490625Q487.43124 27.178125 487.99374 27.021875Q488.41562 26.9125 489.24374 26.81875Q490.94687 26.615625 491.75937 26.334375Q491.75937 26.0375 491.75937 25.959375Q491.75937 25.1 491.36874 24.75625Q490.82187 24.271875 489.75937 24.271875Q488.775 24.271875 488.29062 24.63125Q487.82187 24.975 487.60312 25.85L486.22812 25.6625Q486.41562 24.7875 486.8375 24.240625Q487.275 23.69375 488.0875 23.4125Q488.9 23.115625 489.9625 23.115625Q491.025 23.115625 491.68124 23.365625Q492.35312 23.615625 492.66562 23.990625Q492.97812 24.365625 493.10312 24.94375Q493.18124 25.303125 493.18124 26.240625L493.18124 28.115625Q493.18124 30.084375 493.25937 30.6Q493.35312 31.115625 493.61874 31.6L492.15 31.6Q491.93124 31.1625 491.86874 30.56875ZM491.75937 27.428125Q490.99374 27.740625 489.4625 27.959375Q488.5875 28.084375 488.22812 28.240625Q487.86874 28.396875 487.66562 28.709375Q487.47812 29.00625 487.47812 29.365625Q487.47812 29.928125 487.9 30.303125Q488.3375 30.678125 489.15 30.678125Q489.9625 30.678125 490.5875 30.334375Q491.22812 29.975 491.525 29.35Q491.75937 28.88125 491.75937 27.94375L491.75937 27.428125ZM498.525 30.334375L498.72812 31.584375Q498.13437 31.709375 497.66562 31.709375Q496.9 31.709375 496.47812 31.475Q496.05624 31.225 495.88437 30.834375Q495.7125 30.428125 495.7125 29.1625L495.7125 24.396875L494.68124 24.396875L494.68124 23.303125L495.7125 23.303125L495.7125 21.240625L497.11874 20.396875L497.11874 23.303125L498.525 23.303125L498.525 24.396875L497.11874 24.396875L497.11874 29.240625Q497.11874 29.85 497.18124 30.021875Q497.25937 30.19375 497.43124 30.303125Q497.60312 30.396875 497.91562 30.396875Q498.15 30.396875 498.525 30.334375ZM499.4625 21.75625L499.4625 20.146875L500.86874 20.146875L500.86874 21.75625L499.4625 21.75625ZM499.4625 31.6L499.4625 23.303125L500.86874 23.303125L500.86874 31.6L499.4625 31.6ZM502.93124 27.44375Q502.93124 25.146875 504.2125 24.0375Q505.29062 23.115625 506.82187 23.115625Q508.54062 23.115625 509.61874 24.240625Q510.7125 25.35 510.7125 27.334375Q510.7125 28.928125 510.22812 29.85Q509.74374 30.771875 508.82187 31.2875Q507.91562 31.7875 506.82187 31.7875Q505.0875 31.7875 504.00937 30.678125Q502.93124 29.553125 502.93124 27.44375ZM504.38437 27.44375Q504.38437 29.0375 505.07187 29.834375Q505.775 30.63125 506.82187 30.63125Q507.86874 30.63125 508.55624 29.834375Q509.25937 29.0375 509.25937 27.396875Q509.25937 25.865625 508.55624 25.06875Q507.86874 24.271875 506.82187 24.271875Q505.775 24.271875 505.07187 25.06875Q504.38437 25.85 504.38437 27.44375ZM512.4625 31.6L512.4625 23.303125L513.72815 23.303125L513.72815 24.475Q514.6344 23.115625 516.3688 23.115625Q517.1188 23.115625 517.7438 23.38125Q518.3688 23.646875 518.6813 24.084375Q518.9938 24.521875 519.1188 25.13125Q519.1969 25.521875 519.1969 26.490625L519.1969 31.6L517.79065 31.6L517.79065 26.553125Q517.79065 25.69375 517.6188 25.271875Q517.4625 24.834375 517.04065 24.584375Q516.6344 24.334375 516.0719 24.334375Q515.16565 24.334375 514.5094 24.9125Q513.8688 25.475 513.8688 27.06875L513.8688 31.6L512.4625 31.6Z" fill-rule="nonzero"/><path fill="#ea4335" d="M425.4 49.1L426.74707 53.2459L431.10635 53.2459L427.57962 55.808205L428.9267 59.9541L425.4 57.391796L421.8733 59.9541L423.22037 55.808205L419.69366 53.2459L424.05292 53.2459Z" fill-rule="nonzero"/><path fill="#1a1a1a" d="M446.13437 57.928123L447.5875 58.1Q447.24374 59.38125 446.30624 60.084373Q445.38437 60.7875 443.94687 60.7875Q442.11874 60.7875 441.05624 59.6625Q439.99374 58.5375 439.99374 56.521873Q439.99374 54.428123 441.07187 53.271873Q442.15 52.115623 443.86874 52.115623Q445.525 52.115623 446.57187 53.25625Q447.63437 54.38125 447.63437 56.428123Q447.63437 56.553123 447.63437 56.803123L441.44687 56.803123Q441.525 58.178123 442.2125 58.9125Q442.91562 59.63125 443.94687 59.63125Q444.72812 59.63125 445.275 59.225Q445.82187 58.81875 446.13437 57.928123ZM441.525 55.646873L446.15 55.646873Q446.05624 54.6 445.61874 54.084373Q444.94687 53.271873 443.88437 53.271873Q442.91562 53.271873 442.24374 53.928123Q441.5875 54.56875 441.525 55.646873ZM451.75937 60.6L448.60312 52.303123L450.0875 52.303123L451.86874 57.271873Q452.16562 58.06875 452.4 58.94375Q452.5875 58.2875 452.93124 57.365623L454.775 52.303123L456.2125 52.303123L453.07187 60.6L451.75937 60.6ZM461.86874 59.56875Q461.0875 60.240623 460.36874 60.521873Q459.65 60.7875 458.82187 60.7875Q457.44687 60.7875 456.7125 60.115623Q455.97812 59.44375 455.97812 58.4125Q455.97812 57.803123 456.25937 57.303123Q456.54062 56.7875 456.97812 56.490623Q457.43124 56.178123 457.99374 56.021873Q458.41562 55.9125 459.24374 55.81875Q460.94687 55.615623 461.75937 55.334373Q461.75937 55.0375 461.75937 54.959373Q461.75937 54.1 461.36874 53.75625Q460.82187 53.271873 459.75937 53.271873Q458.775 53.271873 458.29062 53.63125Q457.82187 53.975 457.60312 54.85L456.22812 54.6625Q456.41562 53.7875 456.8375 53.240623Q457.275 52.69375 458.0875 52.4125Q458.9 52.115623 459.9625 52.115623Q461.025 52.115623 461.68124 52.365623Q462.35312 52.615623 462.66562 52.990623Q462.97812 53.365623 463.10312 53.94375Q463.18124 54.303123 463.18124 55.240623L463.18124 57.115623Q463.18124 59.084373 463.25937 59.6Q463.35312 60.115623 463.61874 60.6L462.15 60.6Q461.93124 60.1625 461.86874 59.56875ZM461.75937 56.428123Q460.99374 56.740623 459.4625 56.959373Q458.5875 57.084373 458.22812 57.240623Q457.86874 57.396873 457.66562 57.709373Q457.47812 58.00625 457.47812 58.365623Q457.47812 58.928123 457.9 59.303123Q458.3375 59.678123 459.15 59.678123Q459.9625 59.678123 460.5875 59.334373Q461.22812 58.975 461.525 58.35Q461.75937 57.88125 461.75937 56.94375L461.75937 56.428123ZM465.43124 60.6L465.43124 49.146873L466.8375 49.146873L466.8375 60.6L465.43124 60.6ZM473.9 60.6L473.9 59.38125Q472.93124 60.7875 471.25937 60.7875Q470.525 60.7875 469.88437 60.50625Q469.25937 60.225 468.94687 59.803123Q468.63437 59.365623 468.50937 58.75625Q468.43124 58.334373 468.43124 57.44375L468.43124 52.303123L469.8375 52.303123L469.8375 56.896873Q469.8375 58.00625 469.91562 58.38125Q470.05624 58.94375 470.47812 59.25625Q470.91562 59.56875 471.54062 59.56875Q472.18124 59.56875 472.72812 59.25625Q473.29062 58.928123 473.50937 58.365623Q473.74374 57.803123 473.74374 56.740623L473.74374 52.303123L475.15 52.303123L475.15 60.6L473.9 60.6ZM481.86874 59.56875Q481.0875 60.240623 480.36874 60.521873Q479.65 60.7875 478.82187 60.7875Q477.44687 60.7875 476.7125 60.115623Q475.97812 59.44375 475.97812 58.4125Q475.97812 57.803123 476.25937 57.303123Q476.54062 56.7875 476.97812 56.490623Q477.43124 56.178123 477.99374 56.021873Q478.41562 55.9125 479.24374 55.81875Q480.94687 55.615623 481.75937 55.334373Q481.75937 55.0375 481.75937 54.959373Q481.75937 54.1 481.36874 53.75625Q480.82187 53.271873 479.75937 53.271873Q478.775 53.271873 478.29062 53.63125Q477.82187 53.975 477.60312 54.85L476.22812 54.6625Q476.41562 53.7875 476.8375 53.240623Q477.275 52.69375 478.0875 52.4125Q478.9 52.115623 479.9625 52.115623Q481.025 52.115623 481.68124 52.365623Q482.35312 52.615623 482.66562 52.990623Q482.97812 53.365623 483.10312 53.94375Q483.18124 54.303123 483.18124 55.240623L483.18124 57.115623Q483.18124 59.084373 483.25937 59.6Q483.35312 60.115623 483.61874 60.6L482.15 60.6Q481.93124 60.1625 481.86874 59.56875ZM481.75937 56.428123Q480.99374 56.740623 479.4625 56.959373Q478.5875 57.084373 478.22812 57.240623Q477.86874 57.396873 477.66562 57.709373Q477.47812 58.00625 477.47812 58.365623Q477.47812 58.928123 477.9 59.303123Q478.3375 59.678123 479.15 59.678123Q479.9625 59.678123 480.5875 59.334373Q481.22812 58.975 481.525 58.35Q481.75937 57.88125 481.75937 56.94375L481.75937 56.428123ZM488.525 59.334373L488.72812 60.584373Q488.13437 60.709373 487.66562 60.709373Q486.9 60.709373 486.47812 60.475Q486.05624 60.225 485.88437 59.834373Q485.7125 59.428123 485.7125 58.1625L485.7125 53.396873L484.68124 53.396873L484.68124 52.303123L485.7125 52.303123L485.7125 50.240623L487.11874 49.396873L487.11874 52.303123L488.525 52.303123L488.525 53.396873L487.11874 53.396873L487.11874 58.240623Q487.11874 58.85 487.18124 59.021873Q487.25937 59.19375 487.43124 59.303123Q487.60312 59.396873 487.91562 59.396873Q488.15 59.396873 488.525 59.334373ZM489.4625 50.75625L489.4625 49.146873L490.86874 49.146873L490.86874 50.75625L489.4625 50.75625ZM489.4625 60.6L489.4625 52.303123L490.86874 52.303123L490.86874 60.6L489.4625 60.6ZM492.93124 56.44375Q492.93124 54.146873 494.2125 53.0375Q495.29062 52.115623 496.82187 52.115623Q498.54062 52.115623 499.61874 53.240623Q500.7125 54.35 500.7125 56.334373Q500.7125 57.928123 500.22812 58.85Q499.74374 59.771873 498.82187 60.2875Q497.91562 60.7875 496.82187 60.7875Q495.0875 60.7875 494.00937 59.678123Q492.93124 58.553123 492.93124 56.44375ZM494.38437 56.44375Q494.38437 58.0375 495.07187 58.834373Q495.775 59.63125 496.82187 59.63125Q497.86874 59.63125 498.55624 58.834373Q499.25937 58.0375 499.25937 56.396873Q499.25937 54.865623 498.55624 54.06875Q497.86874 53.271873 496.82187 53.271873Q495.775 53.271873 495.07187 54.06875Q494.38437 54.85 494.38437 56.44375ZM502.4625 60.6L502.4625 52.303123L503.72812 52.303123L503.72812 53.475Q504.63437 52.115623 506.36874 52.115623Q507.11874 52.115623 507.74374 52.38125Q508.36874 52.646873 508.68124 53.084373Q508.99374 53.521873 509.11874 54.13125Q509.19687 54.521873 509.19687 55.490623L509.19687 60.6L507.79062 60.6L507.79062 55.553123Q507.79062 54.69375 507.61874 54.271873Q507.4625 53.834373 507.04062 53.584373Q506.63437 53.334373 506.07187 53.334373Q505.16562 53.334373 504.50937 53.9125Q503.86874 54.475 503.86874 56.06875L503.86874 60.6L502.4625 60.6Z" fill-rule="nonzero"/></svg>