<svg version="1.1" viewBox="0.0 0.0 829.0 514.0" fill="none" stroke="none" stroke-linecap="square" stroke-miterlimit="10" width="829" height="514" xmlns:xlink="http://www.w3.org/1999/xlink" xmlns="http://www.w3.org/2000/svg"><path fill="#ffffff" d="M0 0L829.0 0L829.0 514.0L0 514.0L0 0Z" fill-rule="nonzero"/><path stroke="#333333" stroke-width="1.0" stroke-linecap="butt" d="M109.5 33.5L109.5 422.5" fill-rule="nonzero"/><path stroke="#cccccc" stroke-width="1.0" stroke-linecap="butt" d="M386.5 33.5L386.5 422.5" fill-rule="nonzero"/><path stroke="#cccccc" stroke-width="1.0" stroke-linecap="butt" d="M662.5 33.5L662.5 422.5" fill-rule="nonzero"/><path stroke="#333333" stroke-width="1.0" stroke-linecap="butt" d="M99.5 422.5L672.5 422.5" fill-rule="nonzero"/><path stroke="#cccccc" stroke-width="1.0" stroke-linecap="butt" d="M99.5 357.5L672.5 357.5" fill-rule="nonzero"/><path stroke="#cccccc" stroke-width="1.0" stroke-linecap="butt" d="M99.5 292.5L672.5 292.5" fill-rule="nonzero"/><path stroke="#cccccc" stroke-width="1.0" stroke-linecap="butt" d="M99.5 228.5L672.5 228.5" fill-rule="nonzero"/><path stroke="#cccccc" stroke-width="1.0" stroke-linecap="butt" d="M99.5 163.5L672.5 163.5" fill-rule="nonzero"/><path stroke="#cccccc" stroke-width="1.0" stroke-linecap="butt" d="M99.5 98.5L672.5 98.5" fill-rule="nonzero"/><path stroke="#cccccc" stroke-width="1.0" stroke-linecap="butt" d="M99.5 33.5L672.5 33.5" fill-rule="nonzero"/><path stroke="#e6e6e6" stroke-width="1.0" stroke-linecap="butt" d="M99.5 409.5L672.5 409.5" fill-rule="nonzero"/><path stroke="#e6e6e6" stroke-width="1.0" stroke-linecap="butt" d="M99.5 396.5L672.5 396.5" fill-rule="nonzero"/><path stroke="#e6e6e6" stroke-width="1.0" stroke-linecap="butt" d="M99.5 383.5L672.5 383.5" fill-rule="nonzero"/><path stroke="#e6e6e6" stroke-width="1.0" stroke-linecap="butt" d="M99.5 370.5L672.5 370.5" fill-rule="nonzero"/><path stroke="#e6e6e6" stroke-width="1.0" stroke-linecap="butt" d="M99.5 344.5L672.5 344.5" fill-rule="nonzero"/><path stroke="#e6e6e6" stroke-width="1.0" stroke-linecap="butt" d="M99.5 331.5L672.5 331.5" fill-rule="nonzero"/><path stroke="#e6e6e6" stroke-width="1.0" stroke-linecap="butt" d="M99.5 318.5L672.5 318.5" fill-rule="nonzero"/><path stroke="#e6e6e6" stroke-width="1.0" stroke-linecap="butt" d="M99.5 305.5L672.5 305.5" fill-rule="nonzero"/><path stroke="#e6e6e6" stroke-width="1.0" stroke-linecap="butt" d="M99.5 279.5L672.5 279.5" fill-rule="nonzero"/><path stroke="#e6e6e6" stroke-width="1.0" stroke-linecap="butt" d="M99.5 266.5L672.5 266.5" fill-rule="nonzero"/><path stroke="#e6e6e6" stroke-width="1.0" stroke-linecap="butt" d="M99.5 253.5L672.5 253.5" fill-rule="nonzero"/><path stroke="#e6e6e6" stroke-width="1.0" stroke-linecap="butt" d="M99.5 240.5L672.5 240.5" fill-rule="nonzero"/><path stroke="#e6e6e6" stroke-width="1.0" stroke-linecap="butt" d="M99.5 215.5L672.5 215.5" fill-rule="nonzero"/><path stroke="#e6e6e6" stroke-width="1.0" stroke-linecap="butt" d="M99.5 202.5L672.5 202.5" fill-rule="nonzero"/><path stroke="#e6e6e6" stroke-width="1.0" stroke-linecap="butt" d="M99.5 189.5L672.5 189.5" fill-rule="nonzero"/><path stroke="#e6e6e6" stroke-width="1.0" stroke-linecap="butt" d="M99.5 176.5L672.5 176.5" fill-rule="nonzero"/><path stroke="#e6e6e6" stroke-width="1.0" stroke-linecap="butt" d="M99.5 150.5L672.5 150.5" fill-rule="nonzero"/><path stroke="#e6e6e6" stroke-width="1.0" stroke-linecap="butt" d="M99.5 137.5L672.5 137.5" fill-rule="nonzero"/><path stroke="#e6e6e6" stroke-width="1.0" stroke-linecap="butt" d="M99.5 124.5L672.5 124.5" fill-rule="nonzero"/><path stroke="#e6e6e6" stroke-width="1.0" stroke-linecap="butt" d="M99.5 111.5L672.5 111.5" fill-rule="nonzero"/><path stroke="#e6e6e6" stroke-width="1.0" stroke-linecap="butt" d="M99.5 85.5L672.5 85.5" fill-rule="nonzero"/><path stroke="#e6e6e6" stroke-width="1.0" stroke-linecap="butt" d="M99.5 72.5L672.5 72.5" fill-rule="nonzero"/><path stroke="#e6e6e6" stroke-width="1.0" stroke-linecap="butt" d="M99.5 59.5L672.5 59.5" fill-rule="nonzero"/><path stroke="#e6e6e6" stroke-width="1.0" stroke-linecap="butt" d="M99.5 46.5L672.5 46.5" fill-rule="nonzero"/><clipPath id="id_0"><path d="M99.7 33.7L672.46 33.7L672.46 422.3L99.7 422.3L99.7 33.7Z" clip-rule="nonzero"/></clipPath><path fill="#4285f4" clip-path="url(#id_0)" d="M109.362595 375.37094L114.55875 384.37094L104.16644 384.37094Z" fill-rule="nonzero"/><path fill="#4285f4" clip-path="url(#id_0)" d="M386.08 313.0673L391.27615 322.0673L380.88385 322.0673Z" fill-rule="nonzero"/><path fill="#4285f4" clip-path="url(#id_0)" d="M662.7974 81.24251L667.9935 90.24251L657.60126 90.24251Z" fill-rule="nonzero"/><path fill="#ea4335" clip-path="url(#id_0)" d="M109.362595 404.44678L110.70968 408.59265L115.06893 408.59265L111.54222 411.15497L112.889305 415.30087L109.362595 412.73856L105.835884 415.30087L107.18297 411.15497L103.65626 408.59265L108.01551 408.59265Z" fill-rule="nonzero"/><path fill="#ea4335" clip-path="url(#id_0)" d="M386.08 383.0447L387.4271 387.1906L391.78635 387.1906L388.2596 389.7529L389.60672 393.8988L386.08 391.3365L382.55328 393.8988L383.90036 389.7529L380.37366 387.1906L384.7329 387.1906Z" fill-rule="nonzero"/><path fill="#ea4335" clip-path="url(#id_0)" d="M662.7974 307.08456L664.1445 311.23044L668.5037 311.23044L664.97705 313.79276L666.3241 317.93866L662.7974 315.37634L659.2707 317.93866L660.6178 313.79276L657.09106 311.23044L661.4503 311.23044Z" fill-rule="nonzero"/><path fill="#fbbc04" clip-path="url(#id_0)" d="M109.362595 409.71365L115.362595 415.71365L109.362595 421.71365L103.362595 415.71365Z" fill-rule="nonzero"/><path fill="#fbbc04" clip-path="url(#id_0)" d="M386.08 396.1214L392.08 402.1214L386.08 408.1214L380.08 402.1214Z" fill-rule="nonzero"/><path fill="#fbbc04" clip-path="url(#id_0)" d="M662.7974 338.72702L668.7974 344.72702L662.7974 350.72702L656.7974 344.72702Z" fill-rule="nonzero"/><path fill="#000000" d="M321.2675 484.3L321.2675 472.84686L323.54874 472.84686L326.2675 480.95624Q326.6425 482.08124 326.81436 482.64374Q327.00186 482.01874 327.42374 480.8156L330.1581 472.84686L332.205 472.84686L332.205 484.3L330.73624 484.3L330.73624 474.70624L327.4081 484.3L326.04874 484.3L322.73624 474.55L322.73624 484.3L321.2675 484.3ZM339.58 484.3L339.58 483.08124Q338.61124 484.4875 336.93936 484.4875Q336.205 484.4875 335.56436 484.20624Q334.93936 483.925 334.62686 483.5031Q334.31436 483.0656 334.18936 482.45624Q334.11124 482.03436 334.11124 481.14374L334.11124 476.0031L335.5175 476.0031L335.5175 480.59686Q335.5175 481.70624 335.5956 482.08124Q335.73624 482.64374 336.1581 482.95624Q336.5956 483.26874 337.2206 483.26874Q337.86124 483.26874 338.4081 482.95624Q338.9706 482.6281 339.18936 482.0656Q339.42374 481.5031 339.42374 480.4406L339.42374 476.0031L340.83 476.0031L340.83 484.3L339.58 484.3ZM342.11124 484.3L342.11124 472.84686L343.5175 472.84686L343.5175 484.3L342.11124 484.3ZM348.205 483.03436L348.4081 484.28436Q347.81436 484.40936 347.3456 484.40936Q346.58 484.40936 346.1581 484.175Q345.73624 483.925 345.56436 483.53436Q345.3925 483.1281 345.3925 481.8625L345.3925 477.09686L344.36124 477.09686L344.36124 476.0031L345.3925 476.0031L345.3925 473.9406L346.79874 473.09686L346.79874 476.0031L348.205 476.0031L348.205 477.09686L346.79874 477.09686L346.79874 481.9406Q346.79874 482.55 346.86124 482.72186Q346.93936 482.89374 347.11124 483.0031Q347.2831 483.09686 347.5956 483.09686Q347.83 483.09686 348.205 483.03436ZM349.1425 474.45624L349.1425 472.84686L350.54874 472.84686L350.54874 474.45624L349.1425 474.45624ZM349.1425 484.3L349.1425 476.0031L350.54874 476.0031L350.54874 484.3L349.1425 484.3ZM353.1425 487.4875L353.1425 476.0031L354.42374 476.0031L354.42374 477.08124Q354.87686 476.4406 355.43936 476.1281Q356.0175 475.8156 356.83 475.8156Q357.8925 475.8156 358.705 476.3625Q359.5175 476.90936 359.92374 477.90936Q360.3456 478.89374 360.3456 480.08124Q360.3456 481.3625 359.87686 482.3781Q359.42374 483.39374 358.54874 483.9406Q357.68936 484.4875 356.7206 484.4875Q356.0175 484.4875 355.455 484.1906Q354.9081 483.89374 354.54874 483.4406L354.54874 487.4875L353.1425 487.4875ZM354.4081 480.1906Q354.4081 481.8 355.04874 482.5656Q355.705 483.33124 356.62686 483.33124Q357.56436 483.33124 358.23624 482.53436Q358.9081 481.7375 358.9081 480.08124Q358.9081 478.4875 358.25186 477.70624Q357.5956 476.90936 356.68936 476.90936Q355.79874 476.90936 355.0956 477.7531Q354.4081 478.59686 354.4081 480.1906ZM362.11124 484.3L362.11124 472.84686L363.5175 472.84686L363.5175 484.3L362.11124 484.3ZM365.1425 474.45624L365.1425 472.84686L366.54874 472.84686L366.54874 474.45624L365.1425 474.45624ZM365.1425 484.3L365.1425 476.0031L366.54874 476.0031L366.54874 484.3L365.1425 484.3ZM374.54874 481.2531L375.93936 481.4406Q375.705 482.8625 374.7675 483.675Q373.8456 484.4875 372.48624 484.4875Q370.7831 484.4875 369.73624 483.3781Q368.705 482.2531 368.705 480.175Q368.705 478.83124 369.1425 477.83124Q369.5956 476.8156 370.50186 476.3156Q371.42374 475.8156 372.48624 475.8156Q373.8456 475.8156 374.705 476.5031Q375.56436 477.175 375.79874 478.4406L374.43936 478.64374Q374.23624 477.8156 373.73624 477.39374Q373.25186 476.97186 372.54874 476.97186Q371.48624 476.97186 370.81436 477.7375Q370.1581 478.4875 370.1581 480.14374Q370.1581 481.8156 370.79874 482.58124Q371.43936 483.33124 372.4706 483.33124Q373.29874 483.33124 373.8456 482.83124Q374.4081 482.3156 374.54874 481.2531ZM382.54874 483.26874Q381.7675 483.9406 381.04874 484.22186Q380.33 484.4875 379.50186 484.4875Q378.12686 484.4875 377.3925 483.8156Q376.6581 483.14374 376.6581 482.1125Q376.6581 481.5031 376.93936 481.0031Q377.2206 480.4875 377.6581 480.1906Q378.11124 479.8781 378.67374 479.72186Q379.0956 479.6125 379.92374 479.51874Q381.62686 479.3156 382.43936 479.03436Q382.43936 478.7375 382.43936 478.65936Q382.43936 477.8 382.04874 477.45624Q381.50186 476.97186 380.43936 476.97186Q379.455 476.97186 378.9706 477.33124Q378.50186 477.675 378.2831 478.55L376.9081 478.3625Q377.0956 477.4875 377.5175 476.9406Q377.955 476.39374 378.7675 476.1125Q379.58 475.8156 380.6425 475.8156Q381.705 475.8156 382.36124 476.0656Q383.0331 476.3156 383.3456 476.6906Q383.6581 477.0656 383.7831 477.64374Q383.86124 478.0031 383.86124 478.9406L383.86124 480.8156Q383.86124 482.78436 383.93936 483.3Q384.0331 483.8156 384.29874 484.3L382.83 484.3Q382.61124 483.8625 382.54874 483.26874ZM382.43936 480.1281Q381.67374 480.4406 380.1425 480.65936Q379.2675 480.78436 378.9081 480.9406Q378.54874 481.09686 378.3456 481.40936Q378.1581 481.70624 378.1581 482.0656Q378.1581 482.6281 378.58 483.0031Q379.0175 483.3781 379.83 483.3781Q380.6425 483.3781 381.2675 483.03436Q381.9081 482.675 382.205 482.05Q382.43936 481.58124 382.43936 480.64374L382.43936 480.1281ZM389.205 483.03436L389.4081 484.28436Q388.81436 484.40936 388.3456 484.40936Q387.58 484.40936 387.1581 484.175Q386.73624 483.925 386.56436 483.53436Q386.3925 483.1281 386.3925 481.8625L386.3925 477.09686L385.36124 477.09686L385.36124 476.0031L386.3925 476.0031L386.3925 473.9406L387.79874 473.09686L387.79874 476.0031L389.205 476.0031L389.205 477.09686L387.79874 477.09686L387.79874 481.9406Q387.79874 482.55 387.86124 482.72186Q387.93936 482.89374 388.11124 483.0031Q388.2831 483.09686 388.5956 483.09686Q388.83 483.09686 389.205 483.03436ZM390.1425 474.45624L390.1425 472.84686L391.54874 472.84686L391.54874 474.45624L390.1425 474.45624ZM390.1425 484.3L390.1425 476.0031L391.54874 476.0031L391.54874 484.3L390.1425 484.3ZM396.43936 484.3L393.2831 476.0031L394.7675 476.0031L396.54874 480.97186Q396.8456 481.76874 397.08 482.64374Q397.2675 481.9875 397.61124 481.0656L399.455 476.0031L400.8925 476.0031L397.75186 484.3L396.43936 484.3ZM406.81436 481.6281L408.2675 481.8Q407.92374 483.08124 406.98624 483.78436Q406.06436 484.4875 404.62686 484.4875Q402.79874 484.4875 401.73624 483.3625Q400.67374 482.2375 400.67374 480.22186Q400.67374 478.1281 401.75186 476.97186Q402.83 475.8156 404.54874 475.8156Q406.205 475.8156 407.25186 476.95624Q408.31436 478.08124 408.31436 480.1281Q408.31436 480.2531 408.31436 480.5031L402.12686 480.5031Q402.205 481.8781 402.8925 482.6125Q403.5956 483.33124 404.62686 483.33124Q405.4081 483.33124 405.955 482.925Q406.50186 482.51874 406.81436 481.6281ZM402.205 479.34686L406.83 479.34686Q406.73624 478.3 406.29874 477.78436Q405.62686 476.97186 404.56436 476.97186Q403.5956 476.97186 402.92374 477.6281Q402.2675 478.26874 402.205 479.34686ZM419.5175 484.3L419.5175 483.2531Q418.73624 484.4875 417.205 484.4875Q416.205 484.4875 415.37686 483.9406Q414.54874 483.39374 414.08 482.40936Q413.62686 481.425 413.62686 480.15936Q413.62686 478.90936 414.0331 477.90936Q414.455 476.89374 415.2831 476.3625Q416.11124 475.8156 417.1425 475.8156Q417.8925 475.8156 418.4706 476.1281Q419.06436 476.4406 419.42374 476.95624L419.42374 472.84686L420.83 472.84686L420.83 484.3L419.5175 484.3ZM415.08 480.15936Q415.08 481.7531 415.75186 482.55Q416.42374 483.33124 417.33 483.33124Q418.25186 483.33124 418.8925 482.58124Q419.54874 481.8156 419.54874 480.26874Q419.54874 478.5656 418.8925 477.76874Q418.23624 476.97186 417.2675 476.97186Q416.33 476.97186 415.705 477.7375Q415.08 478.5031 415.08 480.15936ZM428.81436 481.6281L430.2675 481.8Q429.92374 483.08124 428.98624 483.78436Q428.06436 484.4875 426.62686 484.4875Q424.79874 484.4875 423.73624 483.3625Q422.67374 482.2375 422.67374 480.22186Q422.67374 478.1281 423.75186 476.97186Q424.83 475.8156 426.54874 475.8156Q428.205 475.8156 429.25186 476.95624Q430.31436 478.08124 430.31436 480.1281Q430.31436 480.2531 430.31436 480.5031L424.12686 480.5031Q424.205 481.8781 424.8925 482.6125Q425.5956 483.33124 426.62686 483.33124Q427.4081 483.33124 427.955 482.925Q428.50186 482.51874 428.81436 481.6281ZM424.205 479.34686L428.83 479.34686Q428.73624 478.3 428.29874 477.78436Q427.62686 476.97186 426.56436 476.97186Q425.5956 476.97186 424.92374 477.6281Q424.2675 478.26874 424.205 479.34686ZM432.1425 487.4875L432.1425 476.0031L433.42374 476.0031L433.42374 477.08124Q433.87686 476.4406 434.43936 476.1281Q435.0175 475.8156 435.83 475.8156Q436.8925 475.8156 437.705 476.3625Q438.5175 476.90936 438.92374 477.90936Q439.3456 478.89374 439.3456 480.08124Q439.3456 481.3625 438.87686 482.3781Q438.42374 483.39374 437.54874 483.9406Q436.68936 484.4875 435.7206 484.4875Q435.0175 484.4875 434.455 484.1906Q433.9081 483.89374 433.54874 483.4406L433.54874 487.4875L432.1425 487.4875ZM433.4081 480.1906Q433.4081 481.8 434.04874 482.5656Q434.705 483.33124 435.62686 483.33124Q436.56436 483.33124 437.23624 482.53436Q437.9081 481.7375 437.9081 480.08124Q437.9081 478.4875 437.25186 477.70624Q436.5956 476.90936 435.68936 476.90936Q434.79874 476.90936 434.0956 477.7531Q433.4081 478.59686 433.4081 480.1906ZM444.205 483.03436L444.4081 484.28436Q443.81436 484.40936 443.3456 484.40936Q442.58 484.40936 442.1581 484.175Q441.73624 483.925 441.56436 483.53436Q441.3925 483.1281 441.3925 481.8625L441.3925 477.09686L440.36124 477.09686L440.36124 476.0031L441.3925 476.0031L441.3925 473.9406L442.79874 473.09686L442.79874 476.0031L444.205 476.0031L444.205 477.09686L442.79874 477.09686L442.79874 481.9406Q442.79874 482.55 442.86124 482.72186Q442.93936 482.89374 443.11124 483.0031Q443.2831 483.09686 443.5956 483.09686Q443.83 483.09686 444.205 483.03436ZM445.1425 484.3L445.1425 472.84686L446.54874 472.84686L446.54874 476.95624Q447.5331 475.8156 449.0331 475.8156Q449.955 475.8156 450.62686 476.175Q451.31436 476.53436 451.5956 477.175Q451.8925 477.8156 451.8925 479.03436L451.8925 484.3L450.48624 484.3L450.48624 479.03436Q450.48624 477.9875 450.0331 477.5031Q449.58 477.01874 448.73624 477.01874Q448.11124 477.01874 447.56436 477.34686Q447.0175 477.675 446.7831 478.2375Q446.54874 478.78436 446.54874 479.7531L446.54874 484.3L445.1425 484.3Z" fill-rule="nonzero"/><path fill="#000000" d="M40.69999 301.73438L29.246862 301.73438L29.246862 293.45312L30.590612 293.45312L30.590612 300.21875L34.10624 300.21875L34.10624 293.875L35.44999 293.875L35.44999 300.21875L39.340614 300.21875L39.340614 293.1875L40.69999 293.1875L40.69999 301.73438ZM40.69999 291.875L36.38749 288.84375L32.403114 291.65625L32.403114 289.89062L34.340614 288.625Q34.903114 288.26562 35.278114 288.04688Q34.76249 287.70312 34.35624 287.40625L32.403114 286.01562L32.403114 284.32812L36.309364 287.20312L40.69999 284.10938L40.69999 285.84375L38.121864 287.54688L37.41874 288.0L40.69999 290.17188L40.69999 291.875ZM38.028114 278.26562L38.19999 276.8125Q39.48124 277.15625 40.184364 278.09375Q40.88749 279.01562 40.88749 280.45312Q40.88749 282.28125 39.76249 283.34375Q38.63749 284.40625 36.621864 284.40625Q34.528114 284.40625 33.371864 283.32812Q32.215614 282.25 32.215614 280.53125Q32.215614 278.875 33.35624 277.82812Q34.48124 276.76562 36.528114 276.76562Q36.653114 276.76562 36.903114 276.76562L36.903114 282.95312Q38.278114 282.875 39.01249 282.1875Q39.73124 281.48438 39.73124 280.45312Q39.73124 279.67188 39.32499 279.125Q38.91874 278.57812 38.028114 278.26562ZM35.746864 282.875L35.746864 278.25Q34.69999 278.34375 34.184364 278.78125Q33.371864 279.45312 33.371864 280.51562Q33.371864 281.48438 34.028114 282.15625Q34.66874 282.8125 35.746864 282.875ZM37.653114 269.53125L37.840614 268.14062Q39.26249 268.375 40.07499 269.3125Q40.88749 270.23438 40.88749 271.59375Q40.88749 273.29688 39.778114 274.34375Q38.653114 275.375 36.57499 275.375Q35.23124 275.375 34.23124 274.9375Q33.215614 274.48438 32.715614 273.57812Q32.215614 272.65625 32.215614 271.59375Q32.215614 270.23438 32.903114 269.375Q33.57499 268.51562 34.840614 268.28125L35.04374 269.64062Q34.215614 269.84375 33.79374 270.34375Q33.371864 270.82812 33.371864 271.53125Q33.371864 272.59375 34.13749 273.26562Q34.88749 273.92188 36.54374 273.92188Q38.215614 273.92188 38.98124 273.28125Q39.73124 272.64062 39.73124 271.60938Q39.73124 270.78125 39.23124 270.23438Q38.715614 269.67188 37.653114 269.53125ZM40.69999 261.5L39.48124 261.5Q40.88749 262.46875 40.88749 264.14062Q40.88749 264.875 40.60624 265.51562Q40.32499 266.14062 39.903114 266.45312Q39.465614 266.76562 38.85624 266.89062Q38.434364 266.96875 37.54374 266.96875L32.403114 266.96875L32.403114 265.5625L36.996864 265.5625Q38.10624 265.5625 38.48124 265.48438Q39.04374 265.34375 39.35624 264.92188Q39.66874 264.48438 39.66874 263.85938Q39.66874 263.21875 39.35624 262.67188Q39.028114 262.10938 38.465614 261.89062Q37.903114 261.65625 36.840614 261.65625L32.403114 261.65625L32.403114 260.25L40.69999 260.25L40.69999 261.5ZM39.434364 255.875L40.684364 255.67188Q40.809364 256.26562 40.809364 256.73438Q40.809364 257.5 40.57499 257.92188Q40.32499 258.34375 39.934364 258.51562Q39.528114 258.6875 38.26249 258.6875L33.496864 258.6875L33.496864 259.71875L32.403114 259.71875L32.403114 258.6875L30.340612 258.6875L29.496862 257.28125L32.403114 257.28125L32.403114 255.875L33.496864 255.875L33.496864 257.28125L38.340614 257.28125Q38.94999 257.28125 39.121864 257.21875Q39.29374 257.14062 39.403114 256.96875Q39.496864 256.79688 39.496864 256.48438Q39.496864 256.25 39.434364 255.875ZM30.856237 254.9375L29.246862 254.9375L29.246862 253.53125L30.856237 253.53125L30.856237 254.9375ZM40.69999 254.9375L32.403114 254.9375L32.403114 253.53125L40.69999 253.53125L40.69999 254.9375ZM36.54374 251.46875Q34.246864 251.46875 33.13749 250.1875Q32.215614 249.10938 32.215614 247.57812Q32.215614 245.85938 33.340614 244.78125Q34.44999 243.6875 36.434364 243.6875Q38.028114 243.6875 38.94999 244.17188Q39.871864 244.65625 40.38749 245.57812Q40.88749 246.48438 40.88749 247.57812Q40.88749 249.3125 39.778114 250.39062Q38.653114 251.46875 36.54374 251.46875ZM36.54374 250.01562Q38.13749 250.01562 38.934364 249.32812Q39.73124 248.625 39.73124 247.57812Q39.73124 246.53125 38.934364 245.84375Q38.13749 245.14062 36.496864 245.14062Q34.965614 245.14062 34.16874 245.84375Q33.371864 246.53125 33.371864 247.57812Q33.371864 248.625 34.16874 249.32812Q34.94999 250.01562 36.54374 250.01562ZM40.69999 241.9375L32.403114 241.9375L32.403114 240.67188L33.57499 240.67188Q32.215614 239.76562 32.215614 238.03125Q32.215614 237.28125 32.48124 236.65625Q32.746864 236.03125 33.184364 235.71875Q33.621864 235.40625 34.23124 235.28125Q34.621864 235.20312 35.590614 235.20312L40.69999 235.20312L40.69999 236.60938L35.653114 236.60938Q34.79374 236.60938 34.371864 236.78125Q33.934364 236.9375 33.684364 237.35938Q33.434364 237.76562 33.434364 238.32812Q33.434364 239.23438 34.01249 239.89062Q34.57499 240.53125 36.16874 240.53125L40.69999 240.53125L40.69999 241.9375ZM39.434364 226.875L40.684364 226.67188Q40.809364 227.26562 40.809364 227.73438Q40.809364 228.5 40.57499 228.92188Q40.32499 229.34375 39.934364 229.51562Q39.528114 229.6875 38.26249 229.6875L33.496864 229.6875L33.496864 230.71875L32.403114 230.71875L32.403114 229.6875L30.340612 229.6875L29.496862 228.28125L32.403114 228.28125L32.403114 226.875L33.496864 226.875L33.496864 228.28125L38.340614 228.28125Q38.94999 228.28125 39.121864 228.21875Q39.29374 228.14062 39.403114 227.96875Q39.496864 227.79688 39.496864 227.48438Q39.496864 227.25 39.434364 226.875ZM30.856237 225.9375L29.246862 225.9375L29.246862 224.53125L30.856237 224.53125L30.856237 225.9375ZM40.69999 225.9375L32.403114 225.9375L32.403114 224.53125L40.69999 224.53125L40.69999 225.9375ZM40.69999 221.9375L32.403114 221.9375L32.403114 220.6875L33.559364 220.6875Q32.94999 220.29688 32.590614 219.65625Q32.215614 219.0 32.215614 218.17188Q32.215614 217.25 32.60624 216.65625Q32.98124 216.0625 33.66874 215.82812Q32.215614 214.84375 32.215614 213.26562Q32.215614 212.03125 32.903114 211.375Q33.57499 210.70312 34.996864 210.70312L40.69999 210.70312L40.69999 212.09375L35.465614 212.09375Q34.621864 212.09375 34.26249 212.23438Q33.88749 212.375 33.66874 212.73438Q33.434364 213.09375 33.434364 213.57812Q33.434364 214.45312 34.01249 215.03125Q34.590614 215.60938 35.871864 215.60938L40.69999 215.60938L40.69999 217.01562L35.309364 217.01562Q34.371864 217.01562 33.903114 217.35938Q33.434364 217.70312 33.434364 218.48438Q33.434364 219.07812 33.746864 219.57812Q34.059364 220.07812 34.66874 220.3125Q35.26249 220.53125 36.38749 220.53125L40.69999 220.53125L40.69999 221.9375ZM38.028114 203.26562L38.19999 201.8125Q39.48124 202.15625 40.184364 203.09375Q40.88749 204.01562 40.88749 205.45312Q40.88749 207.28125 39.76249 208.34375Q38.63749 209.40625 36.621864 209.40625Q34.528114 209.40625 33.371864 208.32812Q32.215614 207.25 32.215614 205.53125Q32.215614 203.875 33.35624 202.82812Q34.48124 201.76562 36.528114 201.76562Q36.653114 201.76562 36.903114 201.76562L36.903114 207.95312Q38.278114 207.875 39.01249 207.1875Q39.73124 206.48438 39.73124 205.45312Q39.73124 204.67188 39.32499 204.125Q38.91874 203.57812 38.028114 203.26562ZM35.746864 207.875L35.746864 203.25Q34.69999 203.34375 34.184364 203.78125Q33.371864 204.45312 33.371864 205.51562Q33.371864 206.48438 34.028114 207.15625Q34.66874 207.8125 35.746864 207.875ZM40.903114 197.0L29.043737 193.67188L29.043737 192.54688L40.903114 195.85938L40.903114 197.0ZM40.69999 191.9375L32.403114 191.9375L32.403114 190.6875L33.559364 190.6875Q32.94999 190.29688 32.590614 189.65625Q32.215614 189.0 32.215614 188.17188Q32.215614 187.25 32.60624 186.65625Q32.98124 186.0625 33.66874 185.82812Q32.215614 184.84375 32.215614 183.26562Q32.215614 182.03125 32.903114 181.375Q33.57499 180.70312 34.996864 180.70312L40.69999 180.70312L40.69999 182.09375L35.465614 182.09375Q34.621864 182.09375 34.26249 182.23438Q33.88749 182.375 33.66874 182.73438Q33.434364 183.09375 33.434364 183.57812Q33.434364 184.45312 34.01249 185.03125Q34.590614 185.60938 35.871864 185.60938L40.69999 185.60938L40.69999 187.01562L35.309364 187.01562Q34.371864 187.01562 33.903114 187.35938Q33.434364 187.70312 33.434364 188.48438Q33.434364 189.07812 33.746864 189.57812Q34.059364 190.07812 34.66874 190.3125Q35.26249 190.53125 36.38749 190.53125L40.69999 190.53125L40.69999 191.9375ZM30.856237 178.9375L29.246862 178.9375L29.246862 177.53125L30.856237 177.53125L30.856237 178.9375ZM40.69999 178.9375L32.403114 178.9375L32.403114 177.53125L40.69999 177.53125L40.69999 178.9375ZM40.69999 174.9375L32.403114 174.9375L32.403114 173.67188L33.57499 173.67188Q32.215614 172.76562 32.215614 171.03125Q32.215614 170.28125 32.48124 169.65625Q32.746864 169.03125 33.184364 168.71875Q33.621864 168.40625 34.23124 168.28125Q34.621864 168.20312 35.590614 168.20312L40.69999 168.20312L40.69999 169.60938L35.653114 169.60938Q34.79374 169.60938 34.371864 169.78125Q33.934364 169.9375 33.684364 170.35938Q33.434364 170.76562 33.434364 171.32812Q33.434364 172.23438 34.01249 172.89062Q34.57499 173.53125 36.16874 173.53125L40.69999 173.53125L40.69999 174.9375Z" fill-rule="nonzero"/><path fill="#000000" d="M85.27812 422.3625Q85.27812 420.58124 85.6375 419.5031Q86.0125 418.40936 86.73125 417.83124Q87.45 417.2375 88.54375 417.2375Q89.35625 417.2375 89.96562 417.5656Q90.575 417.89374 90.96562 418.5031Q91.37187 419.1125 91.59062 419.9875Q91.80937 420.8625 91.80937 422.3625Q91.80937 424.1281 91.45 425.20624Q91.09062 426.28436 90.37187 426.8781Q89.65312 427.47186 88.54375 427.47186Q87.10625 427.47186 86.27812 426.425Q85.27812 425.175 85.27812 422.3625ZM86.54375 422.3625Q86.54375 424.83124 87.12187 425.64374Q87.7 426.45624 88.54375 426.45624Q89.40312 426.45624 89.98125 425.64374Q90.55937 424.8156 90.55937 422.3625Q90.55937 419.8781 89.98125 419.0656Q89.40312 418.2531 88.52812 418.2531Q87.68437 418.2531 87.18437 418.97186Q86.54375 419.89374 86.54375 422.3625Z" fill-rule="nonzero"/><path fill="#000000" d="M83.74687 361.34583L83.74687 362.53333L77.12187 362.53333Q77.10625 362.09583 77.2625 361.67395Q77.52812 361.00208 78.075 360.34583Q78.6375 359.68958 79.68437 358.8302Q81.325 357.48645 81.8875 356.7052Q82.46562 355.92395 82.46562 355.22083Q82.46562 354.48645 81.93437 353.98645Q81.41875 353.48645 80.59062 353.48645Q79.7 353.48645 79.15312 354.0177Q78.62187 354.54895 78.62187 355.50208L77.35625 355.36145Q77.48125 353.9552 78.325 353.22083Q79.18437 352.47083 80.60625 352.47083Q82.05937 352.47083 82.8875 353.2677Q83.73125 354.06458 83.73125 355.25208Q83.73125 355.86145 83.48125 356.43958Q83.24687 357.0177 82.66875 357.65833Q82.10625 358.29895 80.77812 359.42395Q79.66875 360.34583 79.35625 360.68958Q79.04375 361.0177 78.84062 361.34583L83.74687 361.34583ZM85.27812 359.90833L86.575 359.79895Q86.71562 360.73645 87.23125 361.22083Q87.7625 361.68958 88.49687 361.68958Q89.3875 361.68958 89.99687 361.0177Q90.62187 360.34583 90.62187 359.25208Q90.62187 358.18958 90.02812 357.5802Q89.43437 356.97083 88.48125 356.97083Q87.8875 356.97083 87.40312 357.25208Q86.93437 357.5177 86.65312 357.93958L85.49687 357.79895L86.46562 352.6427L91.45 352.6427L91.45 353.8302L87.45 353.8302L86.91875 356.5177Q87.825 355.8927 88.80937 355.8927Q90.12187 355.8927 91.0125 356.79895Q91.91875 357.7052 91.91875 359.1427Q91.91875 360.50208 91.1375 361.48645Q90.16875 362.7052 88.49687 362.7052Q87.1375 362.7052 86.2625 361.93958Q85.40312 361.17395 85.27812 359.90833Z" fill-rule="nonzero"/><path fill="#000000" d="M77.27812 295.14166L78.575 295.0323Q78.71562 295.9698 79.23125 296.45416Q79.7625 296.9229 80.49687 296.9229Q81.3875 296.9229 81.99687 296.25104Q82.62187 295.57916 82.62187 294.4854Q82.62187 293.4229 82.02812 292.81354Q81.43437 292.20416 80.48125 292.20416Q79.8875 292.20416 79.40312 292.4854Q78.93437 292.75104 78.65312 293.1729L77.49687 293.0323L78.46562 287.87604L83.45 287.87604L83.45 289.06354L79.45 289.06354L78.91875 291.75104Q79.825 291.12604 80.80937 291.12604Q82.12187 291.12604 83.0125 292.0323Q83.91875 292.93854 83.91875 294.37604Q83.91875 295.7354 83.1375 296.7198Q82.16875 297.93854 80.49687 297.93854Q79.1375 297.93854 78.2625 297.1729Q77.40312 296.4073 77.27812 295.14166ZM85.27812 292.82916Q85.27812 291.0479 85.6375 289.9698Q86.0125 288.87604 86.73125 288.2979Q87.45 287.70416 88.54375 287.70416Q89.35625 287.70416 89.96562 288.0323Q90.575 288.3604 90.96562 288.9698Q91.37187 289.57916 91.59062 290.45416Q91.80937 291.32916 91.80937 292.82916Q91.80937 294.5948 91.45 295.6729Q91.09062 296.75104 90.37187 297.3448Q89.65312 297.93854 88.54375 297.93854Q87.10625 297.93854 86.27812 296.89166Q85.27812 295.64166 85.27812 292.82916ZM86.54375 292.82916Q86.54375 295.2979 87.12187 296.1104Q87.7 296.9229 88.54375 296.9229Q89.40312 296.9229 89.98125 296.1104Q90.55937 295.2823 90.55937 292.82916Q90.55937 290.3448 89.98125 289.5323Q89.40312 288.7198 88.52812 288.7198Q87.68437 288.7198 87.18437 289.43854Q86.54375 290.3604 86.54375 292.82916Z" fill-rule="nonzero"/><path fill="#000000" d="M77.35625 224.29688L77.35625 223.10938L83.85625 223.10938L83.85625 224.0625Q82.8875 225.07812 81.95 226.76562Q81.0125 228.45312 80.49687 230.25Q80.1375 231.5 80.02812 233.0L78.7625 233.0Q78.77812 231.8125 79.21562 230.14062Q79.66875 228.46875 80.49687 226.92188Q81.34062 225.35938 82.27812 224.29688L77.35625 224.29688ZM85.27812 230.375L86.575 230.26562Q86.71562 231.20312 87.23125 231.6875Q87.7625 232.15625 88.49687 232.15625Q89.3875 232.15625 89.99687 231.48438Q90.62187 230.8125 90.62187 229.71875Q90.62187 228.65625 90.02812 228.04688Q89.43437 227.4375 88.48125 227.4375Q87.8875 227.4375 87.40312 227.71875Q86.93437 227.98438 86.65312 228.40625L85.49687 228.26562L86.46562 223.10938L91.45 223.10938L91.45 224.29688L87.45 224.29688L86.91875 226.98438Q87.825 226.35938 88.80937 226.35938Q90.12187 226.35938 91.0125 227.26562Q91.91875 228.17188 91.91875 229.60938Q91.91875 230.96875 91.1375 231.95312Q90.16875 233.17188 88.49687 233.17188Q87.1375 233.17188 86.2625 232.40625Q85.40312 231.64062 85.27812 230.375Z" fill-rule="nonzero"/><path fill="#000000" d="M73.91875 168.23334L72.68437 168.23334L72.68437 160.38959Q72.24687 160.81146 71.5125 161.24896Q70.79375 161.67084 70.23125 161.87396L70.23125 160.68646Q71.2625 160.20209 72.02812 159.51459Q72.80937 158.82709 73.12187 158.17084L73.91875 158.17084L73.91875 168.23334ZM77.27812 163.29584Q77.27812 161.51459 77.6375 160.43646Q78.0125 159.34271 78.73125 158.76459Q79.45 158.17084 80.54375 158.17084Q81.35625 158.17084 81.96562 158.49896Q82.575 158.82709 82.96562 159.43646Q83.37187 160.04584 83.59062 160.92084Q83.80937 161.79584 83.80937 163.29584Q83.80937 165.06146 83.45 166.13959Q83.09062 167.21771 82.37187 167.81146Q81.65312 168.40521 80.54375 168.40521Q79.10625 168.40521 78.27812 167.35834Q77.27812 166.10834 77.27812 163.29584ZM78.54375 163.29584Q78.54375 165.76459 79.12187 166.57709Q79.7 167.38959 80.54375 167.38959Q81.40312 167.38959 81.98125 166.57709Q82.55937 165.74896 82.55937 163.29584Q82.55937 160.81146 81.98125 159.99896Q81.40312 159.18646 80.52812 159.18646Q79.68437 159.18646 79.18437 159.90521Q78.54375 160.82709 78.54375 163.29584ZM85.27812 163.29584Q85.27812 161.51459 85.6375 160.43646Q86.0125 159.34271 86.73125 158.76459Q87.45 158.17084 88.54375 158.17084Q89.35625 158.17084 89.96562 158.49896Q90.575 158.82709 90.96562 159.43646Q91.37187 160.04584 91.59062 160.92084Q91.80937 161.79584 91.80937 163.29584Q91.80937 165.06146 91.45 166.13959Q91.09062 167.21771 90.37187 167.81146Q89.65312 168.40521 88.54375 168.40521Q87.10625 168.40521 86.27812 167.35834Q85.27812 166.10834 85.27812 163.29584ZM86.54375 163.29584Q86.54375 165.76459 87.12187 166.57709Q87.7 167.38959 88.54375 167.38959Q89.40312 167.38959 89.98125 166.57709Q90.55937 165.74896 90.55937 163.29584Q90.55937 160.81146 89.98125 159.99896Q89.40312 159.18646 88.52812 159.18646Q87.68437 159.18646 87.18437 159.90521Q86.54375 160.82709 86.54375 163.29584Z" fill-rule="nonzero"/><path fill="#000000" d="M73.91875 103.46667L72.68437 103.46667L72.68437 95.62292Q72.24687 96.04479 71.5125 96.48229Q70.79375 96.90417 70.23125 97.10729L70.23125 95.91979Q71.2625 95.43542 72.02812 94.74792Q72.80937 94.06042 73.12187 93.40417L73.91875 93.40417L73.91875 103.46667ZM83.74687 102.27917L83.74687 103.46667L77.12187 103.46667Q77.10625 103.02917 77.2625 102.60729Q77.52812 101.93542 78.075 101.27917Q78.6375 100.62292 79.68437 99.76354Q81.325 98.41979 81.8875 97.63854Q82.46562 96.85729 82.46562 96.15417Q82.46562 95.41979 81.93437 94.91979Q81.41875 94.41979 80.59062 94.41979Q79.7 94.41979 79.15312 94.95104Q78.62187 95.48229 78.62187 96.43542L77.35625 96.29479Q77.48125 94.88854 78.325 94.15417Q79.18437 93.40417 80.60625 93.40417Q82.05937 93.40417 82.8875 94.20104Q83.73125 94.99792 83.73125 96.18542Q83.73125 96.79479 83.48125 97.37292Q83.24687 97.95104 82.66875 98.59167Q82.10625 99.23229 80.77812 100.35729Q79.66875 101.27917 79.35625 101.62292Q79.04375 101.95104 78.84062 102.27917L83.74687 102.27917ZM85.27812 100.84167L86.575 100.73229Q86.71562 101.66979 87.23125 102.15417Q87.7625 102.62292 88.49687 102.62292Q89.3875 102.62292 89.99687 101.95104Q90.62187 101.27917 90.62187 100.18542Q90.62187 99.12292 90.02812 98.51354Q89.43437 97.90417 88.48125 97.90417Q87.8875 97.90417 87.40312 98.18542Q86.93437 98.45104 86.65312 98.87292L85.49687 98.73229L86.46562 93.57604L91.45 93.57604L91.45 94.76354L87.45 94.76354L86.91875 97.45104Q87.825 96.82604 88.80937 96.82604Q90.12187 96.82604 91.0125 97.73229Q91.91875 98.63854 91.91875 100.07604Q91.91875 101.43542 91.1375 102.41979Q90.16875 103.63854 88.49687 103.63854Q87.1375 103.63854 86.2625 102.87292Q85.40312 102.10729 85.27812 100.84167Z" fill-rule="nonzero"/><path fill="#000000" d="M73.91875 38.7L72.68437 38.7L72.68437 30.85625Q72.24687 31.278126 71.5125 31.715626Q70.79375 32.1375 70.23125 32.340626L70.23125 31.153126Q71.2625 30.66875 72.02812 29.98125Q72.80937 29.29375 73.12187 28.6375L73.91875 28.6375L73.91875 38.7ZM77.27812 36.075L78.575 35.965626Q78.71562 36.903126 79.23125 37.3875Q79.7625 37.85625 80.49687 37.85625Q81.3875 37.85625 81.99687 37.184376Q82.62187 36.5125 82.62187 35.41875Q82.62187 34.35625 82.02812 33.746876Q81.43437 33.1375 80.48125 33.1375Q79.8875 33.1375 79.40312 33.41875Q78.93437 33.684376 78.65312 34.10625L77.49687 33.965626L78.46562 28.809376L83.45 28.809376L83.45 29.996876L79.45 29.996876L78.91875 32.684376Q79.825 32.059376 80.80937 32.059376Q82.12187 32.059376 83.0125 32.965626Q83.91875 33.871876 83.91875 35.309376Q83.91875 36.66875 83.1375 37.653126Q82.16875 38.871876 80.49687 38.871876Q79.1375 38.871876 78.2625 38.10625Q77.40312 37.340626 77.27812 36.075ZM85.27812 33.7625Q85.27812 31.98125 85.6375 30.903126Q86.0125 29.809376 86.73125 29.23125Q87.45 28.6375 88.54375 28.6375Q89.35625 28.6375 89.96562 28.965626Q90.575 29.29375 90.96562 29.903126Q91.37187 30.5125 91.59062 31.3875Q91.80937 32.2625 91.80937 33.7625Q91.80937 35.528126 91.45 36.60625Q91.09062 37.684376 90.37187 38.278126Q89.65312 38.871876 88.54375 38.871876Q87.10625 38.871876 86.27812 37.825Q85.27812 36.575 85.27812 33.7625ZM86.54375 33.7625Q86.54375 36.23125 87.12187 37.04375Q87.7 37.85625 88.54375 37.85625Q89.40312 37.85625 89.98125 37.04375Q90.55937 36.215626 90.55937 33.7625Q90.55937 31.278126 89.98125 30.465626Q89.40312 29.653126 88.52812 29.653126Q87.68437 29.653126 87.18437 30.371876Q86.54375 31.29375 86.54375 33.7625Z" fill-rule="nonzero"/><path fill="#000000" d="M105.94072 437.3625Q105.94072 435.58124 106.300095 434.5031Q106.675095 433.40936 107.393845 432.83124Q108.112595 432.2375 109.206345 432.2375Q110.018845 432.2375 110.62822 432.5656Q111.237595 432.89374 111.62822 433.5031Q112.03447 434.1125 112.25322 434.9875Q112.47197 435.8625 112.47197 437.3625Q112.47197 439.1281 112.112595 440.20624Q111.75322 441.28436 111.03447 441.8781Q110.31572 442.47186 109.206345 442.47186Q107.768845 442.47186 106.94072 441.425Q105.94072 440.175 105.94072 437.3625ZM107.206345 437.3625Q107.206345 439.83124 107.78447 440.64374Q108.362595 441.45624 109.206345 441.45624Q110.06572 441.45624 110.643845 440.64374Q111.22197 439.8156 111.22197 437.3625Q111.22197 434.8781 110.643845 434.0656Q110.06572 433.2531 109.19072 433.2531Q108.34697 433.2531 107.84697 433.97186Q107.206345 434.89374 107.206345 437.3625Z" fill-rule="nonzero"/><path fill="#000000" d="M382.6581 439.675L383.955 439.5656Q384.0956 440.5031 384.61124 440.9875Q385.1425 441.45624 385.87686 441.45624Q386.7675 441.45624 387.37686 440.78436Q388.00186 440.1125 388.00186 439.01874Q388.00186 437.95624 387.4081 437.34686Q386.81436 436.7375 385.86124 436.7375Q385.2675 436.7375 384.7831 437.01874Q384.31436 437.28436 384.0331 437.70624L382.87686 437.5656L383.8456 432.40936L388.83 432.40936L388.83 433.59686L384.83 433.59686L384.29874 436.28436Q385.205 435.65936 386.18936 435.65936Q387.50186 435.65936 388.3925 436.5656Q389.29874 437.47186 389.29874 438.90936Q389.29874 440.26874 388.5175 441.2531Q387.54874 442.47186 385.87686 442.47186Q384.5175 442.47186 383.6425 441.70624Q382.7831 440.9406 382.6581 439.675Z" fill-rule="nonzero"/><path fill="#000000" d="M660.0162 442.3L658.7818 442.3L658.7818 434.45624Q658.3443 434.8781 657.6099 435.3156Q656.8912 435.7375 656.3287 435.9406L656.3287 434.7531Q657.3599 434.26874 658.12555 433.58124Q658.9068 432.89374 659.2193 432.2375L660.0162 432.2375L660.0162 442.3ZM663.37555 437.3625Q663.37555 435.58124 663.7349 434.5031Q664.1099 433.40936 664.8287 432.83124Q665.5474 432.2375 666.6412 432.2375Q667.4537 432.2375 668.06305 432.5656Q668.6724 432.89374 669.06305 433.5031Q669.4693 434.1125 669.68805 434.9875Q669.9068 435.8625 669.9068 437.3625Q669.9068 439.1281 669.5474 440.20624Q669.18805 441.28436 668.4693 441.8781Q667.75055 442.47186 666.6412 442.47186Q665.2037 442.47186 664.37555 441.425Q663.37555 440.175 663.37555 437.3625ZM664.6412 437.3625Q664.6412 439.83124 665.2193 440.64374Q665.7974 441.45624 666.6412 441.45624Q667.50055 441.45624 668.0787 440.64374Q668.6568 439.8156 668.6568 437.3625Q668.6568 434.8781 668.0787 434.0656Q667.50055 433.2531 666.62555 433.2531Q665.7818 433.2531 665.2818 433.97186Q664.6412 434.89374 664.6412 437.3625Z" fill-rule="nonzero"/><path fill="#4285f4" d="M709.3 29.2L714.49615 38.2L704.1038 38.2Z" fill-rule="nonzero"/><path fill="#1a1a1a" d="M723.83124 36.54375Q723.83124 34.246876 725.1125 33.1375Q726.1906 32.215626 727.72186 32.215626Q729.4406 32.215626 730.51874 33.340626Q731.6125 34.45 731.6125 36.434376Q731.6125 38.028126 731.1281 38.95Q730.64374 39.871876 729.72186 40.3875Q728.8156 40.8875 727.72186 40.8875Q725.9875 40.8875 724.90936 39.778126Q723.83124 38.653126 723.83124 36.54375ZM725.28436 36.54375Q725.28436 38.1375 725.97186 38.934376Q726.675 39.73125 727.72186 39.73125Q728.76874 39.73125 729.45624 38.934376Q730.15936 38.1375 730.15936 36.496876Q730.15936 34.965626 729.45624 34.16875Q728.76874 33.371876 727.72186 33.371876Q726.675 33.371876 725.97186 34.16875Q725.28436 34.95 725.28436 36.54375ZM734.65936 40.7L733.34686 40.7L733.34686 29.246876L734.7531 29.246876L734.7531 33.325Q735.64374 32.215626 737.03436 32.215626Q737.8 32.215626 738.47186 32.528126Q739.15936 32.825 739.59686 33.3875Q740.05 33.95 740.3 34.746876Q740.55 35.528126 740.55 36.41875Q740.55 38.559376 739.4875 39.73125Q738.4406 40.8875 736.95624 40.8875Q735.4875 40.8875 734.65936 39.653126L734.65936 40.7ZM734.64374 36.48125Q734.64374 37.98125 735.05 38.6375Q735.70624 39.73125 736.84686 39.73125Q737.76874 39.73125 738.4406 38.934376Q739.1125 38.121876 739.1125 36.54375Q739.1125 34.91875 738.45624 34.153126Q737.8156 33.371876 736.90936 33.371876Q735.9875 33.371876 735.3156 34.16875Q734.64374 34.965626 734.64374 36.48125ZM742.6906 40.7L742.6906 33.496876L741.45624 33.496876L741.45624 32.403126L742.6906 32.403126L742.6906 31.5125Q742.6906 30.684376 742.84686 30.278126Q743.05 29.73125 743.55 29.3875Q744.0656 29.04375 744.9875 29.04375Q745.58124 29.04375 746.3 29.184376L746.09686 30.41875Q745.65936 30.340626 745.26874 30.340626Q744.6281 30.340626 744.3625 30.621876Q744.09686 30.8875 744.09686 31.6375L744.09686 32.403126L745.70624 32.403126L745.70624 33.496876L744.09686 33.496876L744.09686 40.7L742.6906 40.7ZM751.8 40.7L751.8 39.48125Q750.83124 40.8875 749.15936 40.8875Q748.425 40.8875 747.78436 40.60625Q747.15936 40.325 746.84686 39.903126Q746.53436 39.465626 746.40936 38.85625Q746.33124 38.434376 746.33124 37.54375L746.33124 32.403126L747.7375 32.403126L747.7375 36.996876Q747.7375 38.10625 747.8156 38.48125Q747.95624 39.04375 748.3781 39.35625Q748.8156 39.66875 749.4406 39.66875Q750.08124 39.66875 750.6281 39.35625Q751.1906 39.028126 751.40936 38.465626Q751.64374 37.903126 751.64374 36.840626L751.64374 32.403126L753.05 32.403126L753.05 40.7L751.8 40.7ZM753.8 38.215626L755.1906 37.996876Q755.3 38.840626 755.83124 39.29375Q756.3781 39.73125 757.33124 39.73125Q758.3 39.73125 758.76874 39.340626Q759.2375 38.934376 759.2375 38.403126Q759.2375 37.934376 758.83124 37.653126Q758.53436 37.465626 757.39374 37.184376Q755.84686 36.79375 755.2375 36.5125Q754.64374 36.215626 754.33124 35.715626Q754.03436 35.215626 754.03436 34.60625Q754.03436 34.04375 754.28436 33.575Q754.53436 33.10625 754.97186 32.79375Q755.3 32.54375 755.8625 32.3875Q756.4406 32.215626 757.08124 32.215626Q758.0656 32.215626 758.8 32.496876Q759.53436 32.778126 759.8781 33.2625Q760.2375 33.73125 760.3781 34.54375L759.0031 34.73125Q758.90936 34.090626 758.45624 33.73125Q758.0031 33.371876 757.1906 33.371876Q756.22186 33.371876 755.8 33.7Q755.39374 34.0125 755.39374 34.434376Q755.39374 34.715626 755.5656 34.934376Q755.7375 35.153126 756.09686 35.309376Q756.3156 35.3875 757.34686 35.66875Q758.83124 36.059376 759.425 36.325Q760.01874 36.575 760.34686 37.059376Q760.6906 37.54375 760.6906 38.2625Q760.6906 38.965626 760.26874 39.590626Q759.8625 40.2 759.08124 40.54375Q758.3156 40.8875 757.34686 40.8875Q755.72186 40.8875 754.8781 40.215626Q754.03436 39.54375 753.8 38.215626ZM767.76874 37.653126L769.15936 37.840626Q768.925 39.2625 767.9875 40.075Q767.0656 40.8875 765.70624 40.8875Q764.0031 40.8875 762.95624 39.778126Q761.925 38.653126 761.925 36.575Q761.925 35.23125 762.3625 34.23125Q762.8156 33.215626 763.72186 32.715626Q764.64374 32.215626 765.70624 32.215626Q767.0656 32.215626 767.925 32.903126Q768.78436 33.575 769.01874 34.840626L767.65936 35.04375Q767.45624 34.215626 766.95624 33.79375Q766.47186 33.371876 765.76874 33.371876Q764.70624 33.371876 764.03436 34.1375Q763.3781 34.8875 763.3781 36.54375Q763.3781 38.215626 764.01874 38.98125Q764.65936 39.73125 765.6906 39.73125Q766.51874 39.73125 767.0656 39.23125Q767.6281 38.715626 767.76874 37.653126ZM775.76874 39.66875Q774.9875 40.340626 774.26874 40.621876Q773.55 40.8875 772.72186 40.8875Q771.34686 40.8875 770.6125 40.215626Q769.8781 39.54375 769.8781 38.5125Q769.8781 37.903126 770.15936 37.403126Q770.4406 36.8875 770.8781 36.590626Q771.33124 36.278126 771.89374 36.121876Q772.3156 36.0125 773.14374 35.91875Q774.84686 35.715626 775.65936 35.434376Q775.65936 35.1375 775.65936 35.059376Q775.65936 34.2 775.26874 33.85625Q774.72186 33.371876 773.65936 33.371876Q772.675 33.371876 772.1906 33.73125Q771.72186 34.075 771.5031 34.95L770.1281 34.7625Q770.3156 33.8875 770.7375 33.340626Q771.175 32.79375 771.9875 32.5125Q772.8 32.215626 773.8625 32.215626Q774.925 32.215626 775.58124 32.465626Q776.2531 32.715626 776.5656 33.090626Q776.8781 33.465626 777.0031 34.04375Q777.08124 34.403126 777.08124 35.340626L777.08124 37.215626Q777.08124 39.184376 777.15936 39.7Q777.2531 40.215626 777.51874 40.7L776.05 40.7Q775.83124 40.2625 775.76874 39.66875ZM775.65936 36.528126Q774.89374 36.840626 773.3625 37.059376Q772.4875 37.184376 772.1281 37.340626Q771.76874 37.496876 771.5656 37.809376Q771.3781 38.10625 771.3781 38.465626Q771.3781 39.028126 771.8 39.403126Q772.2375 39.778126 773.05 39.778126Q773.8625 39.778126 774.4875 39.434376Q775.1281 39.075 775.425 38.45Q775.65936 37.98125 775.65936 37.04375L775.65936 36.528126ZM782.425 39.434376L782.6281 40.684376Q782.03436 40.809376 781.5656 40.809376Q780.8 40.809376 780.3781 40.575Q779.95624 40.325 779.78436 39.934376Q779.6125 39.528126 779.6125 38.2625L779.6125 33.496876L778.58124 33.496876L778.58124 32.403126L779.6125 32.403126L779.6125 30.340626L781.01874 29.496876L781.01874 32.403126L782.425 32.403126L782.425 33.496876L781.01874 33.496876L781.01874 38.340626Q781.01874 38.95 781.08124 39.121876Q781.15936 39.29375 781.33124 39.403126Q781.5031 39.496876 781.8156 39.496876Q782.05 39.496876 782.425 39.434376ZM783.3625 30.85625L783.3625 29.246876L784.76874 29.246876L784.76874 30.85625L783.3625 30.85625ZM783.3625 40.7L783.3625 32.403126L784.76874 32.403126L784.76874 40.7L783.3625 40.7ZM786.83124 36.54375Q786.83124 34.246876 788.1125 33.1375Q789.1906 32.215626 790.72186 32.215626Q792.4406 32.215626 793.51874 33.340626Q794.6125 34.45 794.6125 36.434376Q794.6125 38.028126 794.1281 38.95Q793.64374 39.871876 792.72186 40.3875Q791.8156 40.8875 790.72186 40.8875Q788.9875 40.8875 787.90936 39.778126Q786.83124 38.653126 786.83124 36.54375ZM788.28436 36.54375Q788.28436 38.1375 788.97186 38.934376Q789.675 39.73125 790.72186 39.73125Q791.76874 39.73125 792.45624 38.934376Q793.15936 38.1375 793.15936 36.496876Q793.15936 34.965626 792.45624 34.16875Q791.76874 33.371876 790.72186 33.371876Q789.675 33.371876 788.97186 34.16875Q788.28436 34.95 788.28436 36.54375ZM796.3625 40.7L796.3625 32.403126L797.6281 32.403126L797.6281 33.575Q798.53436 32.215626 800.26874 32.215626Q801.01874 32.215626 801.64374 32.48125Q802.26874 32.746876 802.58124 33.184376Q802.89374 33.621876 803.01874 34.23125Q803.09686 34.621876 803.09686 35.590626L803.09686 40.7L801.6906 40.7L801.6906 35.653126Q801.6906 34.79375 801.51874 34.371876Q801.3625 33.934376 800.9406 33.684376Q800.53436 33.434376 799.97186 33.434376Q799.0656 33.434376 798.40936 34.0125Q797.76874 34.575 797.76874 36.16875L797.76874 40.7L796.3625 40.7Z" fill-rule="nonzero"/><path fill="#ea4335" d="M709.3 58.2L710.6471 62.345898L715.00635 62.345898L711.4796 64.9082L712.8267 69.0541L709.3 66.4918L705.7733 69.0541L707.12036 64.9082L703.5937 62.345898L707.95294 62.345898Z" fill-rule="nonzero"/><path fill="#1a1a1a" d="M724.33124 69.7L724.33124 58.246872L725.7375 58.246872L725.7375 69.7L724.33124 69.7ZM726.83124 65.54375Q726.83124 63.246872 728.1125 62.137497Q729.1906 61.215622 730.72186 61.215622Q732.4406 61.215622 733.51874 62.340622Q734.6125 63.449997 734.6125 65.43437Q734.6125 67.02812 734.1281 67.95Q733.64374 68.87187 732.72186 69.3875Q731.8156 69.8875 730.72186 69.8875Q728.9875 69.8875 727.90936 68.77812Q726.83124 67.65312 726.83124 65.54375ZM728.28436 65.54375Q728.28436 67.1375 728.97186 67.93437Q729.675 68.73125 730.72186 68.73125Q731.76874 68.73125 732.45624 67.93437Q733.15936 67.1375 733.15936 65.49687Q733.15936 63.965622 732.45624 63.168747Q731.76874 62.371872 730.72186 62.371872Q729.675 62.371872 728.97186 63.168747Q728.28436 63.949997 728.28436 65.54375ZM741.76874 68.66875Q740.9875 69.34062 740.26874 69.62187Q739.55 69.8875 738.72186 69.8875Q737.34686 69.8875 736.6125 69.21562Q735.8781 68.54375 735.8781 67.5125Q735.8781 66.90312 736.15936 66.40312Q736.4406 65.8875 736.8781 65.59062Q737.33124 65.27812 737.89374 65.12187Q738.3156 65.0125 739.14374 64.91875Q740.84686 64.71562 741.65936 64.43437Q741.65936 64.1375 741.65936 64.05937Q741.65936 63.199997 741.26874 62.856247Q740.72186 62.371872 739.65936 62.371872Q738.675 62.371872 738.1906 62.731247Q737.72186 63.074997 737.5031 63.949997L736.1281 63.762497Q736.3156 62.887497 736.7375 62.340622Q737.175 61.793747 737.9875 61.512497Q738.8 61.215622 739.8625 61.215622Q740.925 61.215622 741.58124 61.465622Q742.2531 61.715622 742.5656 62.090622Q742.8781 62.465622 743.0031 63.043747Q743.08124 63.403122 743.08124 64.34062L743.08124 66.21562Q743.08124 68.18437 743.15936 68.7Q743.2531 69.21562 743.51874 69.7L742.05 69.7Q741.83124 69.2625 741.76874 68.66875ZM741.65936 65.52812Q740.89374 65.84062 739.3625 66.05937Q738.4875 66.18437 738.1281 66.34062Q737.76874 66.49687 737.5656 66.80937Q737.3781 67.10625 737.3781 67.46562Q737.3781 68.02812 737.8 68.40312Q738.2375 68.77812 739.05 68.77812Q739.8625 68.77812 740.4875 68.43437Q741.1281 68.075 741.425 67.45Q741.65936 66.98125 741.65936 66.04375L741.65936 65.52812ZM750.7375 69.7L750.7375 68.65312Q749.95624 69.8875 748.425 69.8875Q747.425 69.8875 746.59686 69.34062Q745.76874 68.79375 745.3 67.80937Q744.84686 66.825 744.84686 65.55937Q744.84686 64.30937 745.2531 63.309372Q745.675 62.293747 746.5031 61.762497Q747.33124 61.215622 748.3625 61.215622Q749.1125 61.215622 749.6906 61.528122Q750.28436 61.840622 750.64374 62.356247L750.64374 58.246872L752.05 58.246872L752.05 69.7L750.7375 69.7ZM746.3 65.55937Q746.3 67.15312 746.97186 67.95Q747.64374 68.73125 748.55 68.73125Q749.47186 68.73125 750.1125 67.98125Q750.76874 67.21562 750.76874 65.66875Q750.76874 63.965622 750.1125 63.168747Q749.45624 62.371872 748.4875 62.371872Q747.55 62.371872 746.925 63.137497Q746.3 63.903122 746.3 65.55937ZM754.3625 59.856247L754.3625 58.246872L755.76874 58.246872L755.76874 59.856247L754.3625 59.856247ZM754.3625 69.7L754.3625 61.403122L755.76874 61.403122L755.76874 69.7L754.3625 69.7ZM758.3625 69.7L758.3625 61.403122L759.6281 61.403122L759.6281 62.574997Q760.53436 61.215622 762.26874 61.215622Q763.01874 61.215622 763.64374 61.481247Q764.26874 61.746872 764.58124 62.184372Q764.89374 62.621872 765.01874 63.231247Q765.09686 63.621872 765.09686 64.59062L765.09686 69.7L763.6906 69.7L763.6906 64.65312Q763.6906 63.793747 763.51874 63.371872Q763.3625 62.934372 762.9406 62.684372Q762.53436 62.434372 761.97186 62.434372Q761.0656 62.434372 760.40936 63.012497Q759.76874 63.574997 759.76874 65.16875L759.76874 69.7L758.3625 69.7ZM766.09686 70.3875L767.47186 70.59062Q767.55 71.23125 767.9406 71.5125Q768.47186 71.90312 769.3781 71.90312Q770.34686 71.90312 770.8781 71.5125Q771.40936 71.12187 771.59686 70.41875Q771.70624 69.99687 771.70624 68.60625Q770.78436 69.7 769.40936 69.7Q767.6906 69.7 766.7531 68.46562Q765.8156 67.23125 765.8156 65.49687Q765.8156 64.30937 766.2375 63.309372Q766.675 62.309372 767.4875 61.762497Q768.3156 61.215622 769.40936 61.215622Q770.8781 61.215622 771.83124 62.403122L771.83124 61.403122L773.1281 61.403122L773.1281 68.575Q773.1281 70.5125 772.7375 71.325Q772.34686 72.1375 771.4875 72.60625Q770.6281 73.075 769.3781 73.075Q767.89374 73.075 766.97186 72.40312Q766.0656 71.73125 766.09686 70.3875ZM767.26874 65.40312Q767.26874 67.02812 767.90936 67.77812Q768.5656 68.52812 769.53436 68.52812Q770.5031 68.52812 771.15936 67.79375Q771.8156 67.04375 771.8156 65.45Q771.8156 63.918747 771.14374 63.153122Q770.47186 62.371872 769.51874 62.371872Q768.58124 62.371872 767.925 63.137497Q767.26874 63.903122 767.26874 65.40312Z" fill-rule="nonzero"/><path fill="#fbbc04" d="M709.3 87.2L715.3 93.2L709.3 99.2L703.3 93.2Z" fill-rule="nonzero"/><path fill="#1a1a1a" d="M730.03436 96.02812L731.4875 96.2Q731.14374 97.48125 730.20624 98.18437Q729.28436 98.8875 727.84686 98.8875Q726.01874 98.8875 724.95624 97.7625Q723.89374 96.6375 723.89374 94.62187Q723.89374 92.52812 724.97186 91.37187Q726.05 90.21562 727.76874 90.21562Q729.425 90.21562 730.47186 91.35625Q731.53436 92.48125 731.53436 94.52812Q731.53436 94.65312 731.53436 94.90312L725.34686 94.90312Q725.425 96.27812 726.1125 97.0125Q726.8156 97.73125 727.84686 97.73125Q728.6281 97.73125 729.175 97.325Q729.72186 96.91875 730.03436 96.02812ZM725.425 93.74687L730.05 93.74687Q729.95624 92.7 729.51874 92.18437Q728.84686 91.37187 727.78436 91.37187Q726.8156 91.37187 726.14374 92.02812Q725.4875 92.66875 725.425 93.74687ZM735.65936 98.7L732.5031 90.40312L733.9875 90.40312L735.76874 95.37187Q736.0656 96.16875 736.3 97.04375Q736.4875 96.3875 736.83124 95.46562L738.675 90.40312L740.1125 90.40312L736.97186 98.7L735.65936 98.7ZM745.76874 97.66875Q744.9875 98.34062 744.26874 98.62187Q743.55 98.8875 742.72186 98.8875Q741.34686 98.8875 740.6125 98.21562Q739.8781 97.54375 739.8781 96.5125Q739.8781 95.90312 740.15936 95.40312Q740.4406 94.8875 740.8781 94.59062Q741.33124 94.27812 741.89374 94.12187Q742.3156 94.0125 743.14374 93.91875Q744.84686 93.71562 745.65936 93.43437Q745.65936 93.1375 745.65936 93.05937Q745.65936 92.2 745.26874 91.85625Q744.72186 91.37187 743.65936 91.37187Q742.675 91.37187 742.1906 91.73125Q741.72186 92.075 741.5031 92.95L740.1281 92.7625Q740.3156 91.8875 740.7375 91.34062Q741.175 90.79375 741.9875 90.5125Q742.8 90.21562 743.8625 90.21562Q744.925 90.21562 745.58124 90.46562Q746.2531 90.71562 746.5656 91.09062Q746.8781 91.46562 747.0031 92.04375Q747.08124 92.40312 747.08124 93.34062L747.08124 95.21562Q747.08124 97.18437 747.15936 97.7Q747.2531 98.21562 747.51874 98.7L746.05 98.7Q745.83124 98.2625 745.76874 97.66875ZM745.65936 94.52812Q744.89374 94.84062 743.3625 95.05937Q742.4875 95.18437 742.1281 95.34062Q741.76874 95.49687 741.5656 95.80937Q741.3781 96.10625 741.3781 96.46562Q741.3781 97.02812 741.8 97.40312Q742.2375 97.77812 743.05 97.77812Q743.8625 97.77812 744.4875 97.43437Q745.1281 97.075 745.425 96.45Q745.65936 95.98125 745.65936 95.04375L745.65936 94.52812ZM749.33124 98.7L749.33124 87.24687L750.7375 87.24687L750.7375 98.7L749.33124 98.7ZM757.8 98.7L757.8 97.48125Q756.83124 98.8875 755.15936 98.8875Q754.425 98.8875 753.78436 98.60625Q753.15936 98.325 752.84686 97.90312Q752.53436 97.46562 752.40936 96.85625Q752.33124 96.43437 752.33124 95.54375L752.33124 90.40312L753.7375 90.40312L753.7375 94.99687Q753.7375 96.10625 753.8156 96.48125Q753.95624 97.04375 754.3781 97.35625Q754.8156 97.66875 755.4406 97.66875Q756.08124 97.66875 756.6281 97.35625Q757.1906 97.02812 757.40936 96.46562Q757.64374 95.90312 757.64374 94.84062L757.64374 90.40312L759.05 90.40312L759.05 98.7L757.8 98.7ZM765.76874 97.66875Q764.9875 98.34062 764.26874 98.62187Q763.55 98.8875 762.72186 98.8875Q761.34686 98.8875 760.6125 98.21562Q759.8781 97.54375 759.8781 96.5125Q759.8781 95.90312 760.15936 95.40312Q760.4406 94.8875 760.8781 94.59062Q761.33124 94.27812 761.89374 94.12187Q762.3156 94.0125 763.14374 93.91875Q764.84686 93.71562 765.65936 93.43437Q765.65936 93.1375 765.65936 93.05937Q765.65936 92.2 765.26874 91.85625Q764.72186 91.37187 763.65936 91.37187Q762.675 91.37187 762.1906 91.73125Q761.72186 92.075 761.5031 92.95L760.1281 92.7625Q760.3156 91.8875 760.7375 91.34062Q761.175 90.79375 761.9875 90.5125Q762.8 90.21562 763.8625 90.21562Q764.925 90.21562 765.58124 90.46562Q766.2531 90.71562 766.5656 91.09062Q766.8781 91.46562 767.0031 92.04375Q767.08124 92.40312 767.08124 93.34062L767.08124 95.21562Q767.08124 97.18437 767.15936 97.7Q767.2531 98.21562 767.51874 98.7L766.05 98.7Q765.83124 98.2625 765.76874 97.66875ZM765.65936 94.52812Q764.89374 94.84062 763.3625 95.05937Q762.4875 95.18437 762.1281 95.34062Q761.76874 95.49687 761.5656 95.80937Q761.3781 96.10625 761.3781 96.46562Q761.3781 97.02812 761.8 97.40312Q762.2375 97.77812 763.05 97.77812Q763.8625 97.77812 764.4875 97.43437Q765.1281 97.075 765.425 96.45Q765.65936 95.98125 765.65936 95.04375L765.65936 94.52812ZM772.425 97.43437L772.6281 98.68437Q772.03436 98.80937 771.5656 98.80937Q770.8 98.80937 770.3781 98.575Q769.95624 98.325 769.78436 97.93437Q769.6125 97.52812 769.6125 96.2625L769.6125 91.49687L768.58124 91.49687L768.58124 90.40312L769.6125 90.40312L769.6125 88.34062L771.01874 87.49687L771.01874 90.40312L772.425 90.40312L772.425 91.49687L771.01874 91.49687L771.01874 96.34062Q771.01874 96.95 771.08124 97.12187Q771.15936 97.29375 771.33124 97.40312Q771.5031 97.49687 771.8156 97.49687Q772.05 97.49687 772.425 97.43437ZM773.3625 88.85625L773.3625 87.24687L774.76874 87.24687L774.76874 88.85625L773.3625 88.85625ZM773.3625 98.7L773.3625 90.40312L774.76874 90.40312L774.76874 98.7L773.3625 98.7ZM776.83124 94.54375Q776.83124 92.24687 778.1125 91.1375Q779.1906 90.21562 780.72186 90.21562Q782.4406 90.21562 783.51874 91.34062Q784.6125 92.45 784.6125 94.43437Q784.6125 96.02812 784.1281 96.95Q783.64374 97.87187 782.72186 98.3875Q781.8156 98.8875 780.72186 98.8875Q778.9875 98.8875 777.90936 97.77812Q776.83124 96.65312 776.83124 94.54375ZM778.28436 94.54375Q778.28436 96.1375 778.97186 96.93437Q779.675 97.73125 780.72186 97.73125Q781.76874 97.73125 782.45624 96.93437Q783.15936 96.1375 783.15936 94.49687Q783.15936 92.96562 782.45624 92.16875Q781.76874 91.37187 780.72186 91.37187Q779.675 91.37187 778.97186 92.16875Q778.28436 92.95 778.28436 94.54375ZM786.3625 98.7L786.3625 90.40312L787.6281 90.40312L787.6281 91.575Q788.53436 90.21562 790.26874 90.21562Q791.01874 90.21562 791.64374 90.48125Q792.26874 90.74687 792.58124 91.18437Q792.89374 91.62187 793.01874 92.23125Q793.09686 92.62187 793.09686 93.59062L793.09686 98.7L791.6906 98.7L791.6906 93.65312Q791.6906 92.79375 791.51874 92.37187Q791.3625 91.93437 790.9406 91.68437Q790.53436 91.43437 789.97186 91.43437Q789.0656 91.43437 788.40936 92.0125Q787.76874 92.575 787.76874 94.16875L787.76874 98.7L786.3625 98.7Z" fill-rule="nonzero"/></svg>