<svg version="1.1" viewBox="0.0 0.0 829.0 514.0" fill="none" stroke="none" stroke-linecap="square" stroke-miterlimit="10" width="829" height="514" xmlns:xlink="http://www.w3.org/1999/xlink" xmlns="http://www.w3.org/2000/svg"><path fill="#ffffff" d="M0 0L829.0 0L829.0 514.0L0 514.0L0 0Z" fill-rule="nonzero"/><path stroke="#cccccc" stroke-width="1.0" stroke-linecap="butt" d="M109.5 33.5L109.5 422.5" fill-rule="nonzero"/><path stroke="#cccccc" stroke-width="1.0" stroke-linecap="butt" d="M293.5 33.5L293.5 422.5" fill-rule="nonzero"/><path stroke="#cccccc" stroke-width="1.0" stroke-linecap="butt" d="M478.5 33.5L478.5 422.5" fill-rule="nonzero"/><path stroke="#cccccc" stroke-width="1.0" stroke-linecap="butt" d="M662.5 33.5L662.5 422.5" fill-rule="nonzero"/><path stroke="#000000" stroke-width="1.0" stroke-linecap="butt" stroke-opacity="0.0" d="M170.5 33.5L170.5 422.5" fill-rule="nonzero"/><path stroke="#000000" stroke-width="1.0" stroke-linecap="butt" stroke-opacity="0.0" d="M232.5 33.5L232.5 422.5" fill-rule="nonzero"/><path stroke="#000000" stroke-width="1.0" stroke-linecap="butt" stroke-opacity="0.0" d="M355.5 33.5L355.5 422.5" fill-rule="nonzero"/><path stroke="#000000" stroke-width="1.0" stroke-linecap="butt" stroke-opacity="0.0" d="M416.5 33.5L416.5 422.5" fill-rule="nonzero"/><path stroke="#000000" stroke-width="1.0" stroke-linecap="butt" stroke-opacity="0.0" d="M539.5 33.5L539.5 422.5" fill-rule="nonzero"/><path stroke="#000000" stroke-width="1.0" stroke-linecap="butt" stroke-opacity="0.0" d="M601.5 33.5L601.5 422.5" fill-rule="nonzero"/><path stroke="#333333" stroke-width="1.0" stroke-linecap="butt" d="M99.5 422.5L672.5 422.5" fill-rule="nonzero"/><path stroke="#cccccc" stroke-width="1.0" stroke-linecap="butt" d="M99.5 325.5L672.5 325.5" fill-rule="nonzero"/><path stroke="#cccccc" stroke-width="1.0" stroke-linecap="butt" d="M99.5 228.5L672.5 228.5" fill-rule="nonzero"/><path stroke="#cccccc" stroke-width="1.0" stroke-linecap="butt" d="M99.5 130.5L672.5 130.5" fill-rule="nonzero"/><path stroke="#cccccc" stroke-width="1.0" stroke-linecap="butt" d="M99.5 33.5L672.5 33.5" fill-rule="nonzero"/><path stroke="#e6e6e6" stroke-width="1.0" stroke-linecap="butt" d="M99.5 412.5L672.5 412.5" fill-rule="nonzero"/><path stroke="#e6e6e6" stroke-width="1.0" stroke-linecap="butt" d="M99.5 402.5L672.5 402.5" fill-rule="nonzero"/><path stroke="#e6e6e6" stroke-width="1.0" stroke-linecap="butt" d="M99.5 393.5L672.5 393.5" fill-rule="nonzero"/><path stroke="#e6e6e6" stroke-width="1.0" stroke-linecap="butt" d="M99.5 383.5L672.5 383.5" fill-rule="nonzero"/><path stroke="#e6e6e6" stroke-width="1.0" stroke-linecap="butt" d="M99.5 373.5L672.5 373.5" fill-rule="nonzero"/><path stroke="#e6e6e6" stroke-width="1.0" stroke-linecap="butt" d="M99.5 364.5L672.5 364.5" fill-rule="nonzero"/><path stroke="#e6e6e6" stroke-width="1.0" stroke-linecap="butt" d="M99.5 354.5L672.5 354.5" fill-rule="nonzero"/><path stroke="#e6e6e6" stroke-width="1.0" stroke-linecap="butt" d="M99.5 344.5L672.5 344.5" fill-rule="nonzero"/><path stroke="#e6e6e6" stroke-width="1.0" stroke-linecap="butt" d="M99.5 334.5L672.5 334.5" fill-rule="nonzero"/><path stroke="#e6e6e6" stroke-width="1.0" stroke-linecap="butt" d="M99.5 315.5L672.5 315.5" fill-rule="nonzero"/><path stroke="#e6e6e6" stroke-width="1.0" stroke-linecap="butt" d="M99.5 305.5L672.5 305.5" fill-rule="nonzero"/><path stroke="#e6e6e6" stroke-width="1.0" stroke-linecap="butt" d="M99.5 296.5L672.5 296.5" fill-rule="nonzero"/><path stroke="#e6e6e6" stroke-width="1.0" stroke-linecap="butt" d="M99.5 286.5L672.5 286.5" fill-rule="nonzero"/><path stroke="#e6e6e6" stroke-width="1.0" stroke-linecap="butt" d="M99.5 276.5L672.5 276.5" fill-rule="nonzero"/><path stroke="#e6e6e6" stroke-width="1.0" stroke-linecap="butt" d="M99.5 266.5L672.5 266.5" fill-rule="nonzero"/><path stroke="#e6e6e6" stroke-width="1.0" stroke-linecap="butt" d="M99.5 257.5L672.5 257.5" fill-rule="nonzero"/><path stroke="#e6e6e6" stroke-width="1.0" stroke-linecap="butt" d="M99.5 247.5L672.5 247.5" fill-rule="nonzero"/><path stroke="#e6e6e6" stroke-width="1.0" stroke-linecap="butt" d="M99.5 237.5L672.5 237.5" fill-rule="nonzero"/><path stroke="#e6e6e6" stroke-width="1.0" stroke-linecap="butt" d="M99.5 218.5L672.5 218.5" fill-rule="nonzero"/><path stroke="#e6e6e6" stroke-width="1.0" stroke-linecap="butt" d="M99.5 208.5L672.5 208.5" fill-rule="nonzero"/><path stroke="#e6e6e6" stroke-width="1.0" stroke-linecap="butt" d="M99.5 198.5L672.5 198.5" fill-rule="nonzero"/><path stroke="#e6e6e6" stroke-width="1.0" stroke-linecap="butt" d="M99.5 189.5L672.5 189.5" fill-rule="nonzero"/><path stroke="#e6e6e6" stroke-width="1.0" stroke-linecap="butt" d="M99.5 179.5L672.5 179.5" fill-rule="nonzero"/><path stroke="#e6e6e6" stroke-width="1.0" stroke-linecap="butt" d="M99.5 169.5L672.5 169.5" fill-rule="nonzero"/><path stroke="#e6e6e6" stroke-width="1.0" stroke-linecap="butt" d="M99.5 159.5L672.5 159.5" fill-rule="nonzero"/><path stroke="#e6e6e6" stroke-width="1.0" stroke-linecap="butt" d="M99.5 150.5L672.5 150.5" fill-rule="nonzero"/><path stroke="#e6e6e6" stroke-width="1.0" stroke-linecap="butt" d="M99.5 140.5L672.5 140.5" fill-rule="nonzero"/><path stroke="#e6e6e6" stroke-width="1.0" stroke-linecap="butt" d="M99.5 121.5L672.5 121.5" fill-rule="nonzero"/><path stroke="#e6e6e6" stroke-width="1.0" stroke-linecap="butt" d="M99.5 111.5L672.5 111.5" fill-rule="nonzero"/><path stroke="#e6e6e6" stroke-width="1.0" stroke-linecap="butt" d="M99.5 101.5L672.5 101.5" fill-rule="nonzero"/><path stroke="#e6e6e6" stroke-width="1.0" stroke-linecap="butt" d="M99.5 91.5L672.5 91.5" fill-rule="nonzero"/><path stroke="#e6e6e6" stroke-width="1.0" stroke-linecap="butt" d="M99.5 82.5L672.5 82.5" fill-rule="nonzero"/><path stroke="#e6e6e6" stroke-width="1.0" stroke-linecap="butt" d="M99.5 72.5L672.5 72.5" fill-rule="nonzero"/><path stroke="#e6e6e6" stroke-width="1.0" stroke-linecap="butt" d="M99.5 62.5L672.5 62.5" fill-rule="nonzero"/><path stroke="#e6e6e6" stroke-width="1.0" stroke-linecap="butt" d="M99.5 53.5L672.5 53.5" fill-rule="nonzero"/><path stroke="#e6e6e6" stroke-width="1.0" stroke-linecap="butt" d="M99.5 43.5L672.5 43.5" fill-rule="nonzero"/><clipPath id="id_0"><path d="M99.7 33.7L672.46 33.7L672.46 422.3L99.7 422.3L99.7 33.7Z" clip-rule="nonzero"/></clipPath><path fill="#4285f4" clip-path="url(#id_0)" d="M109.362595 404.10672L114.55875 413.10672L104.16644 413.10672Z" fill-rule="nonzero"/><path fill="#4285f4" clip-path="url(#id_0)" d="M293.84085 365.77536L299.03702 374.77536L288.6447 374.77536Z" fill-rule="nonzero"/><path fill="#4285f4" clip-path="url(#id_0)" d="M662.7974 54.146683L667.9935 63.146683L657.60126 63.146683Z" fill-rule="nonzero"/><path fill="#ea4335" clip-path="url(#id_0)" d="M109.362595 413.45804L110.70968 417.6039L115.06893 417.6039L111.54222 420.16623L112.889305 424.31213L109.362595 421.74982L105.835884 424.31213L107.18297 420.16623L103.65626 417.6039L108.01551 417.6039Z" fill-rule="nonzero"/><path fill="#ea4335" clip-path="url(#id_0)" d="M293.84085 405.08917L295.18796 409.23508L299.5472 409.23508L296.0205 411.79736L297.36758 415.94327L293.84085 413.38095L290.31415 415.94327L291.66122 411.79736L288.13452 409.23508L292.49377 409.23508Z" fill-rule="nonzero"/><path fill="#ea4335" clip-path="url(#id_0)" d="M662.7974 333.5403L664.1445 337.68622L668.5037 337.68622L664.97705 340.24854L666.3241 344.39444L662.7974 341.83212L659.2707 344.39444L660.6178 340.24854L657.09106 337.68622L661.4503 337.68622Z" fill-rule="nonzero"/><path fill="#000000" d="M343.08 484.3L343.08 472.84686L344.5956 472.84686L344.5956 484.3L343.08 484.3ZM345.6425 484.3L345.6425 476.0031L346.9081 476.0031L346.9081 477.175Q347.81436 475.8156 349.54874 475.8156Q350.29874 475.8156 350.92374 476.08124Q351.54874 476.34686 351.86124 476.78436Q352.17374 477.22186 352.29874 477.83124Q352.37686 478.22186 352.37686 479.1906L352.37686 484.3L350.9706 484.3L350.9706 479.2531Q350.9706 478.39374 350.79874 477.97186Q350.6425 477.53436 350.2206 477.28436Q349.81436 477.03436 349.25186 477.03436Q348.3456 477.03436 347.68936 477.6125Q347.04874 478.175 347.04874 479.76874L347.04874 484.3L345.6425 484.3ZM353.6425 487.4875L353.6425 476.0031L354.92374 476.0031L354.92374 477.08124Q355.37686 476.4406 355.93936 476.1281Q356.5175 475.8156 357.33 475.8156Q358.3925 475.8156 359.205 476.3625Q360.0175 476.90936 360.42374 477.90936Q360.8456 478.89374 360.8456 480.08124Q360.8456 481.3625 360.37686 482.3781Q359.92374 483.39374 359.04874 483.9406Q358.18936 484.4875 357.2206 484.4875Q356.5175 484.4875 355.955 484.1906Q355.4081 483.89374 355.04874 483.4406L355.04874 487.4875L353.6425 487.4875ZM354.9081 480.1906Q354.9081 481.8 355.54874 482.5656Q356.205 483.33124 357.12686 483.33124Q358.06436 483.33124 358.73624 482.53436Q359.4081 481.7375 359.4081 480.08124Q359.4081 478.4875 358.75186 477.70624Q358.0956 476.90936 357.18936 476.90936Q356.29874 476.90936 355.5956 477.7531Q354.9081 478.59686 354.9081 480.1906ZM368.08 484.3L368.08 483.08124Q367.11124 484.4875 365.43936 484.4875Q364.705 484.4875 364.06436 484.20624Q363.43936 483.925 363.12686 483.5031Q362.81436 483.0656 362.68936 482.45624Q362.61124 482.03436 362.61124 481.14374L362.61124 476.0031L364.0175 476.0031L364.0175 480.59686Q364.0175 481.70624 364.0956 482.08124Q364.23624 482.64374 364.6581 482.95624Q365.0956 483.26874 365.7206 483.26874Q366.36124 483.26874 366.9081 482.95624Q367.4706 482.6281 367.68936 482.0656Q367.92374 481.5031 367.92374 480.4406L367.92374 476.0031L369.33 476.0031L369.33 484.3L368.08 484.3ZM373.705 483.03436L373.9081 484.28436Q373.31436 484.40936 372.8456 484.40936Q372.08 484.40936 371.6581 484.175Q371.23624 483.925 371.06436 483.53436Q370.8925 483.1281 370.8925 481.8625L370.8925 477.09686L369.86124 477.09686L369.86124 476.0031L370.8925 476.0031L370.8925 473.9406L372.29874 473.09686L372.29874 476.0031L373.705 476.0031L373.705 477.09686L372.29874 477.09686L372.29874 481.9406Q372.29874 482.55 372.36124 482.72186Q372.43936 482.89374 372.61124 483.0031Q372.7831 483.09686 373.0956 483.09686Q373.33 483.09686 373.705 483.03436ZM378.08 481.8156L379.4706 481.59686Q379.58 482.4406 380.11124 482.89374Q380.6581 483.33124 381.61124 483.33124Q382.58 483.33124 383.04874 482.9406Q383.5175 482.53436 383.5175 482.0031Q383.5175 481.53436 383.11124 481.2531Q382.81436 481.0656 381.67374 480.78436Q380.12686 480.39374 379.5175 480.1125Q378.92374 479.8156 378.61124 479.3156Q378.31436 478.8156 378.31436 478.20624Q378.31436 477.64374 378.56436 477.175Q378.81436 476.70624 379.25186 476.39374Q379.58 476.14374 380.1425 475.9875Q380.7206 475.8156 381.36124 475.8156Q382.3456 475.8156 383.08 476.09686Q383.81436 476.3781 384.1581 476.8625Q384.5175 477.33124 384.6581 478.14374L383.2831 478.33124Q383.18936 477.6906 382.73624 477.33124Q382.2831 476.97186 381.4706 476.97186Q380.50186 476.97186 380.08 477.3Q379.67374 477.6125 379.67374 478.03436Q379.67374 478.3156 379.8456 478.53436Q380.0175 478.7531 380.37686 478.90936Q380.5956 478.9875 381.62686 479.26874Q383.11124 479.65936 383.705 479.925Q384.29874 480.175 384.62686 480.65936Q384.9706 481.14374 384.9706 481.8625Q384.9706 482.5656 384.54874 483.1906Q384.1425 483.8 383.36124 484.14374Q382.5956 484.4875 381.62686 484.4875Q380.00186 484.4875 379.1581 483.8156Q378.31436 483.14374 378.08 481.8156ZM386.6425 474.45624L386.6425 472.84686L388.04874 472.84686L388.04874 474.45624L386.6425 474.45624ZM386.6425 484.3L386.6425 476.0031L388.04874 476.0031L388.04874 484.3L386.6425 484.3ZM389.8925 484.3L389.8925 483.15936L395.17374 477.09686Q394.2831 477.14374 393.5956 477.14374L390.205 477.14374L390.205 476.0031L396.98624 476.0031L396.98624 476.925L392.50186 482.1906L391.62686 483.15936Q392.58 483.08124 393.4081 483.08124L397.23624 483.08124L397.23624 484.3L389.8925 484.3ZM403.31436 481.6281L404.7675 481.8Q404.42374 483.08124 403.48624 483.78436Q402.56436 484.4875 401.12686 484.4875Q399.29874 484.4875 398.23624 483.3625Q397.17374 482.2375 397.17374 480.22186Q397.17374 478.1281 398.25186 476.97186Q399.33 475.8156 401.04874 475.8156Q402.705 475.8156 403.75186 476.95624Q404.81436 478.08124 404.81436 480.1281Q404.81436 480.2531 404.81436 480.5031L398.62686 480.5031Q398.705 481.8781 399.3925 482.6125Q400.0956 483.33124 401.12686 483.33124Q401.9081 483.33124 402.455 482.925Q403.00186 482.51874 403.31436 481.6281ZM398.705 479.34686L403.33 479.34686Q403.23624 478.3 402.79874 477.78436Q402.12686 476.97186 401.06436 476.97186Q400.0956 476.97186 399.42374 477.6281Q398.7675 478.26874 398.705 479.34686ZM409.58 484.5031L412.9081 472.64374L414.0331 472.64374L410.7206 484.5031L409.58 484.5031ZM415.93936 484.3L414.62686 484.3L414.62686 472.84686L416.0331 472.84686L416.0331 476.925Q416.92374 475.8156 418.31436 475.8156Q419.08 475.8156 419.75186 476.1281Q420.43936 476.425 420.87686 476.9875Q421.33 477.55 421.58 478.34686Q421.83 479.1281 421.83 480.01874Q421.83 482.15936 420.7675 483.33124Q419.7206 484.4875 418.23624 484.4875Q416.7675 484.4875 415.93936 483.2531L415.93936 484.3ZM415.92374 480.08124Q415.92374 481.58124 416.33 482.2375Q416.98624 483.33124 418.12686 483.33124Q419.04874 483.33124 419.7206 482.53436Q420.3925 481.72186 420.3925 480.14374Q420.3925 478.51874 419.73624 477.7531Q419.0956 476.97186 418.18936 476.97186Q417.2675 476.97186 416.5956 477.76874Q415.92374 478.5656 415.92374 480.08124ZM423.6425 474.45624L423.6425 472.84686L425.04874 472.84686L425.04874 474.45624L423.6425 474.45624ZM423.6425 484.3L423.6425 476.0031L425.04874 476.0031L425.04874 484.3L423.6425 484.3ZM430.705 483.03436L430.9081 484.28436Q430.31436 484.40936 429.8456 484.40936Q429.08 484.40936 428.6581 484.175Q428.23624 483.925 428.06436 483.53436Q427.8925 483.1281 427.8925 481.8625L427.8925 477.09686L426.86124 477.09686L426.86124 476.0031L427.8925 476.0031L427.8925 473.9406L429.29874 473.09686L429.29874 476.0031L430.705 476.0031L430.705 477.09686L429.29874 477.09686L429.29874 481.9406Q429.29874 482.55 429.36124 482.72186Q429.43936 482.89374 429.61124 483.0031Q429.7831 483.09686 430.0956 483.09686Q430.33 483.09686 430.705 483.03436Z" fill-rule="nonzero"/><path fill="#000000" d="M40.69999 301.73438L29.246862 301.73438L29.246862 293.45312L30.590612 293.45312L30.590612 300.21875L34.10624 300.21875L34.10624 293.875L35.44999 293.875L35.44999 300.21875L39.340614 300.21875L39.340614 293.1875L40.69999 293.1875L40.69999 301.73438ZM40.69999 291.875L36.38749 288.84375L32.403114 291.65625L32.403114 289.89062L34.340614 288.625Q34.903114 288.26562 35.278114 288.04688Q34.76249 287.70312 34.35624 287.40625L32.403114 286.01562L32.403114 284.32812L36.309364 287.20312L40.69999 284.10938L40.69999 285.84375L38.121864 287.54688L37.41874 288.0L40.69999 290.17188L40.69999 291.875ZM38.028114 278.26562L38.19999 276.8125Q39.48124 277.15625 40.184364 278.09375Q40.88749 279.01562 40.88749 280.45312Q40.88749 282.28125 39.76249 283.34375Q38.63749 284.40625 36.621864 284.40625Q34.528114 284.40625 33.371864 283.32812Q32.215614 282.25 32.215614 280.53125Q32.215614 278.875 33.35624 277.82812Q34.48124 276.76562 36.528114 276.76562Q36.653114 276.76562 36.903114 276.76562L36.903114 282.95312Q38.278114 282.875 39.01249 282.1875Q39.73124 281.48438 39.73124 280.45312Q39.73124 279.67188 39.32499 279.125Q38.91874 278.57812 38.028114 278.26562ZM35.746864 282.875L35.746864 278.25Q34.69999 278.34375 34.184364 278.78125Q33.371864 279.45312 33.371864 280.51562Q33.371864 281.48438 34.028114 282.15625Q34.66874 282.8125 35.746864 282.875ZM37.653114 269.53125L37.840614 268.14062Q39.26249 268.375 40.07499 269.3125Q40.88749 270.23438 40.88749 271.59375Q40.88749 273.29688 39.778114 274.34375Q38.653114 275.375 36.57499 275.375Q35.23124 275.375 34.23124 274.9375Q33.215614 274.48438 32.715614 273.57812Q32.215614 272.65625 32.215614 271.59375Q32.215614 270.23438 32.903114 269.375Q33.57499 268.51562 34.840614 268.28125L35.04374 269.64062Q34.215614 269.84375 33.79374 270.34375Q33.371864 270.82812 33.371864 271.53125Q33.371864 272.59375 34.13749 273.26562Q34.88749 273.92188 36.54374 273.92188Q38.215614 273.92188 38.98124 273.28125Q39.73124 272.64062 39.73124 271.60938Q39.73124 270.78125 39.23124 270.23438Q38.715614 269.67188 37.653114 269.53125ZM40.69999 261.5L39.48124 261.5Q40.88749 262.46875 40.88749 264.14062Q40.88749 264.875 40.60624 265.51562Q40.32499 266.14062 39.903114 266.45312Q39.465614 266.76562 38.85624 266.89062Q38.434364 266.96875 37.54374 266.96875L32.403114 266.96875L32.403114 265.5625L36.996864 265.5625Q38.10624 265.5625 38.48124 265.48438Q39.04374 265.34375 39.35624 264.92188Q39.66874 264.48438 39.66874 263.85938Q39.66874 263.21875 39.35624 262.67188Q39.028114 262.10938 38.465614 261.89062Q37.903114 261.65625 36.840614 261.65625L32.403114 261.65625L32.403114 260.25L40.69999 260.25L40.69999 261.5ZM39.434364 255.875L40.684364 255.67188Q40.809364 256.26562 40.809364 256.73438Q40.809364 257.5 40.57499 257.92188Q40.32499 258.34375 39.934364 258.51562Q39.528114 258.6875 38.26249 258.6875L33.496864 258.6875L33.496864 259.71875L32.403114 259.71875L32.403114 258.6875L30.340612 258.6875L29.496862 257.28125L32.403114 257.28125L32.403114 255.875L33.496864 255.875L33.496864 257.28125L38.340614 257.28125Q38.94999 257.28125 39.121864 257.21875Q39.29374 257.14062 39.403114 256.96875Q39.496864 256.79688 39.496864 256.48438Q39.496864 256.25 39.434364 255.875ZM30.856237 254.9375L29.246862 254.9375L29.246862 253.53125L30.856237 253.53125L30.856237 254.9375ZM40.69999 254.9375L32.403114 254.9375L32.403114 253.53125L40.69999 253.53125L40.69999 254.9375ZM36.54374 251.46875Q34.246864 251.46875 33.13749 250.1875Q32.215614 249.10938 32.215614 247.57812Q32.215614 245.85938 33.340614 244.78125Q34.44999 243.6875 36.434364 243.6875Q38.028114 243.6875 38.94999 244.17188Q39.871864 244.65625 40.38749 245.57812Q40.88749 246.48438 40.88749 247.57812Q40.88749 249.3125 39.778114 250.39062Q38.653114 251.46875 36.54374 251.46875ZM36.54374 250.01562Q38.13749 250.01562 38.934364 249.32812Q39.73124 248.625 39.73124 247.57812Q39.73124 246.53125 38.934364 245.84375Q38.13749 245.14062 36.496864 245.14062Q34.965614 245.14062 34.16874 245.84375Q33.371864 246.53125 33.371864 247.57812Q33.371864 248.625 34.16874 249.32812Q34.94999 250.01562 36.54374 250.01562ZM40.69999 241.9375L32.403114 241.9375L32.403114 240.67188L33.57499 240.67188Q32.215614 239.76562 32.215614 238.03125Q32.215614 237.28125 32.48124 236.65625Q32.746864 236.03125 33.184364 235.71875Q33.621864 235.40625 34.23124 235.28125Q34.621864 235.20312 35.590614 235.20312L40.69999 235.20312L40.69999 236.60938L35.653114 236.60938Q34.79374 236.60938 34.371864 236.78125Q33.934364 236.9375 33.684364 237.35938Q33.434364 237.76562 33.434364 238.32812Q33.434364 239.23438 34.01249 239.89062Q34.57499 240.53125 36.16874 240.53125L40.69999 240.53125L40.69999 241.9375ZM39.434364 226.875L40.684364 226.67188Q40.809364 227.26562 40.809364 227.73438Q40.809364 228.5 40.57499 228.92188Q40.32499 229.34375 39.934364 229.51562Q39.528114 229.6875 38.26249 229.6875L33.496864 229.6875L33.496864 230.71875L32.403114 230.71875L32.403114 229.6875L30.340612 229.6875L29.496862 228.28125L32.403114 228.28125L32.403114 226.875L33.496864 226.875L33.496864 228.28125L38.340614 228.28125Q38.94999 228.28125 39.121864 228.21875Q39.29374 228.14062 39.403114 227.96875Q39.496864 227.79688 39.496864 227.48438Q39.496864 227.25 39.434364 226.875ZM30.856237 225.9375L29.246862 225.9375L29.246862 224.53125L30.856237 224.53125L30.856237 225.9375ZM40.69999 225.9375L32.403114 225.9375L32.403114 224.53125L40.69999 224.53125L40.69999 225.9375ZM40.69999 221.9375L32.403114 221.9375L32.403114 220.6875L33.559364 220.6875Q32.94999 220.29688 32.590614 219.65625Q32.215614 219.0 32.215614 218.17188Q32.215614 217.25 32.60624 216.65625Q32.98124 216.0625 33.66874 215.82812Q32.215614 214.84375 32.215614 213.26562Q32.215614 212.03125 32.903114 211.375Q33.57499 210.70312 34.996864 210.70312L40.69999 210.70312L40.69999 212.09375L35.465614 212.09375Q34.621864 212.09375 34.26249 212.23438Q33.88749 212.375 33.66874 212.73438Q33.434364 213.09375 33.434364 213.57812Q33.434364 214.45312 34.01249 215.03125Q34.590614 215.60938 35.871864 215.60938L40.69999 215.60938L40.69999 217.01562L35.309364 217.01562Q34.371864 217.01562 33.903114 217.35938Q33.434364 217.70312 33.434364 218.48438Q33.434364 219.07812 33.746864 219.57812Q34.059364 220.07812 34.66874 220.3125Q35.26249 220.53125 36.38749 220.53125L40.69999 220.53125L40.69999 221.9375ZM38.028114 203.26562L38.19999 201.8125Q39.48124 202.15625 40.184364 203.09375Q40.88749 204.01562 40.88749 205.45312Q40.88749 207.28125 39.76249 208.34375Q38.63749 209.40625 36.621864 209.40625Q34.528114 209.40625 33.371864 208.32812Q32.215614 207.25 32.215614 205.53125Q32.215614 203.875 33.35624 202.82812Q34.48124 201.76562 36.528114 201.76562Q36.653114 201.76562 36.903114 201.76562L36.903114 207.95312Q38.278114 207.875 39.01249 207.1875Q39.73124 206.48438 39.73124 205.45312Q39.73124 204.67188 39.32499 204.125Q38.91874 203.57812 38.028114 203.26562ZM35.746864 207.875L35.746864 203.25Q34.69999 203.34375 34.184364 203.78125Q33.371864 204.45312 33.371864 205.51562Q33.371864 206.48438 34.028114 207.15625Q34.66874 207.8125 35.746864 207.875ZM40.903114 197.0L29.043737 193.67188L29.043737 192.54688L40.903114 195.85938L40.903114 197.0ZM40.69999 191.9375L32.403114 191.9375L32.403114 190.6875L33.559364 190.6875Q32.94999 190.29688 32.590614 189.65625Q32.215614 189.0 32.215614 188.17188Q32.215614 187.25 32.60624 186.65625Q32.98124 186.0625 33.66874 185.82812Q32.215614 184.84375 32.215614 183.26562Q32.215614 182.03125 32.903114 181.375Q33.57499 180.70312 34.996864 180.70312L40.69999 180.70312L40.69999 182.09375L35.465614 182.09375Q34.621864 182.09375 34.26249 182.23438Q33.88749 182.375 33.66874 182.73438Q33.434364 183.09375 33.434364 183.57812Q33.434364 184.45312 34.01249 185.03125Q34.590614 185.60938 35.871864 185.60938L40.69999 185.60938L40.69999 187.01562L35.309364 187.01562Q34.371864 187.01562 33.903114 187.35938Q33.434364 187.70312 33.434364 188.48438Q33.434364 189.07812 33.746864 189.57812Q34.059364 190.07812 34.66874 190.3125Q35.26249 190.53125 36.38749 190.53125L40.69999 190.53125L40.69999 191.9375ZM30.856237 178.9375L29.246862 178.9375L29.246862 177.53125L30.856237 177.53125L30.856237 178.9375ZM40.69999 178.9375L32.403114 178.9375L32.403114 177.53125L40.69999 177.53125L40.69999 178.9375ZM40.69999 174.9375L32.403114 174.9375L32.403114 173.67188L33.57499 173.67188Q32.215614 172.76562 32.215614 171.03125Q32.215614 170.28125 32.48124 169.65625Q32.746864 169.03125 33.184364 168.71875Q33.621864 168.40625 34.23124 168.28125Q34.621864 168.20312 35.590614 168.20312L40.69999 168.20312L40.69999 169.60938L35.653114 169.60938Q34.79374 169.60938 34.371864 169.78125Q33.934364 169.9375 33.684364 170.35938Q33.434364 170.76562 33.434364 171.32812Q33.434364 172.23438 34.01249 172.89062Q34.57499 173.53125 36.16874 173.53125L40.69999 173.53125L40.69999 174.9375Z" fill-rule="nonzero"/><path fill="#000000" d="M85.27812 422.3625Q85.27812 420.58124 85.6375 419.5031Q86.0125 418.40936 86.73125 417.83124Q87.45 417.2375 88.54375 417.2375Q89.35625 417.2375 89.96562 417.5656Q90.575 417.89374 90.96562 418.5031Q91.37187 419.1125 91.59062 419.9875Q91.80937 420.8625 91.80937 422.3625Q91.80937 424.1281 91.45 425.20624Q91.09062 426.28436 90.37187 426.8781Q89.65312 427.47186 88.54375 427.47186Q87.10625 427.47186 86.27812 426.425Q85.27812 425.175 85.27812 422.3625ZM86.54375 422.3625Q86.54375 424.83124 87.12187 425.64374Q87.7 426.45624 88.54375 426.45624Q89.40312 426.45624 89.98125 425.64374Q90.55937 424.8156 90.55937 422.3625Q90.55937 419.8781 89.98125 419.0656Q89.40312 418.2531 88.52812 418.2531Q87.68437 418.2531 87.18437 418.97186Q86.54375 419.89374 86.54375 422.3625Z" fill-rule="nonzero"/><path fill="#000000" d="M73.91875 330.15L72.68437 330.15L72.68437 322.30624Q72.24687 322.72812 71.5125 323.16562Q70.79375 323.5875 70.23125 323.79062L70.23125 322.60312Q71.2625 322.11874 72.02812 321.43124Q72.80937 320.74374 73.12187 320.0875L73.91875 320.0875L73.91875 330.15ZM77.27812 325.2125Q77.27812 323.43124 77.6375 322.35312Q78.0125 321.25937 78.73125 320.68124Q79.45 320.0875 80.54375 320.0875Q81.35625 320.0875 81.96562 320.41562Q82.575 320.74374 82.96562 321.35312Q83.37187 321.9625 83.59062 322.8375Q83.80937 323.7125 83.80937 325.2125Q83.80937 326.97812 83.45 328.05624Q83.09062 329.13437 82.37187 329.72812Q81.65312 330.32187 80.54375 330.32187Q79.10625 330.32187 78.27812 329.275Q77.27812 328.025 77.27812 325.2125ZM78.54375 325.2125Q78.54375 327.68124 79.12187 328.49374Q79.7 329.30624 80.54375 329.30624Q81.40312 329.30624 81.98125 328.49374Q82.55937 327.66562 82.55937 325.2125Q82.55937 322.72812 81.98125 321.91562Q81.40312 321.10312 80.52812 321.10312Q79.68437 321.10312 79.18437 321.82187Q78.54375 322.74374 78.54375 325.2125ZM85.27812 325.2125Q85.27812 323.43124 85.6375 322.35312Q86.0125 321.25937 86.73125 320.68124Q87.45 320.0875 88.54375 320.0875Q89.35625 320.0875 89.96562 320.41562Q90.575 320.74374 90.96562 321.35312Q91.37187 321.9625 91.59062 322.8375Q91.80937 323.7125 91.80937 325.2125Q91.80937 326.97812 91.45 328.05624Q91.09062 329.13437 90.37187 329.72812Q89.65312 330.32187 88.54375 330.32187Q87.10625 330.32187 86.27812 329.275Q85.27812 328.025 85.27812 325.2125ZM86.54375 325.2125Q86.54375 327.68124 87.12187 328.49374Q87.7 329.30624 88.54375 329.30624Q89.40312 329.30624 89.98125 328.49374Q90.55937 327.66562 90.55937 325.2125Q90.55937 322.72812 89.98125 321.91562Q89.40312 321.10312 88.52812 321.10312Q87.68437 321.10312 87.18437 321.82187Q86.54375 322.74374 86.54375 325.2125Z" fill-rule="nonzero"/><path fill="#000000" d="M75.74687 231.8125L75.74687 233.0L69.12187 233.0Q69.10625 232.5625 69.2625 232.14062Q69.52812 231.46875 70.075 230.8125Q70.6375 230.15625 71.68437 229.29688Q73.325 227.95312 73.8875 227.17188Q74.46562 226.39062 74.46562 225.6875Q74.46562 224.95312 73.93437 224.45312Q73.41875 223.95312 72.59062 223.95312Q71.7 223.95312 71.15312 224.48438Q70.62187 225.01562 70.62187 225.96875L69.35625 225.82812Q69.48125 224.42188 70.325 223.6875Q71.18437 222.9375 72.60625 222.9375Q74.05937 222.9375 74.8875 223.73438Q75.73125 224.53125 75.73125 225.71875Q75.73125 226.32812 75.48125 226.90625Q75.24687 227.48438 74.66875 228.125Q74.10625 228.76562 72.77812 229.89062Q71.66875 230.8125 71.35625 231.15625Q71.04375 231.48438 70.84062 231.8125L75.74687 231.8125ZM77.27812 228.0625Q77.27812 226.28125 77.6375 225.20312Q78.0125 224.10938 78.73125 223.53125Q79.45 222.9375 80.54375 222.9375Q81.35625 222.9375 81.96562 223.26562Q82.575 223.59375 82.96562 224.20312Q83.37187 224.8125 83.59062 225.6875Q83.80937 226.5625 83.80937 228.0625Q83.80937 229.82812 83.45 230.90625Q83.09062 231.98438 82.37187 232.57812Q81.65312 233.17188 80.54375 233.17188Q79.10625 233.17188 78.27812 232.125Q77.27812 230.875 77.27812 228.0625ZM78.54375 228.0625Q78.54375 230.53125 79.12187 231.34375Q79.7 232.15625 80.54375 232.15625Q81.40312 232.15625 81.98125 231.34375Q82.55937 230.51562 82.55937 228.0625Q82.55937 225.57812 81.98125 224.76562Q81.40312 223.95312 80.52812 223.95312Q79.68437 223.95312 79.18437 224.67188Q78.54375 225.59375 78.54375 228.0625ZM85.27812 228.0625Q85.27812 226.28125 85.6375 225.20312Q86.0125 224.10938 86.73125 223.53125Q87.45 222.9375 88.54375 222.9375Q89.35625 222.9375 89.96562 223.26562Q90.575 223.59375 90.96562 224.20312Q91.37187 224.8125 91.59062 225.6875Q91.80937 226.5625 91.80937 228.0625Q91.80937 229.82812 91.45 230.90625Q91.09062 231.98438 90.37187 232.57812Q89.65312 233.17188 88.54375 233.17188Q87.10625 233.17188 86.27812 232.125Q85.27812 230.875 85.27812 228.0625ZM86.54375 228.0625Q86.54375 230.53125 87.12187 231.34375Q87.7 232.15625 88.54375 232.15625Q89.40312 232.15625 89.98125 231.34375Q90.55937 230.51562 90.55937 228.0625Q90.55937 225.57812 89.98125 224.76562Q89.40312 223.95312 88.52812 223.95312Q87.68437 223.95312 87.18437 224.67188Q86.54375 225.59375 86.54375 228.0625Z" fill-rule="nonzero"/><path fill="#000000" d="M69.29375 133.20938L70.5125 133.0375Q70.73125 134.08438 71.23125 134.55313Q71.74687 135.00626 72.48125 135.00626Q73.35625 135.00626 73.95 134.4125Q74.54375 133.80313 74.54375 132.9125Q74.54375 132.06876 73.98125 131.52188Q73.43437 130.975 72.59062 130.975Q72.23125 130.975 71.71562 131.1L71.85625 130.02188Q71.98125 130.0375 72.04375 130.0375Q72.84062 130.0375 73.46562 129.63126Q74.09062 129.225 74.09062 128.36563Q74.09062 127.693756 73.6375 127.256256Q73.18437 126.80313 72.45 126.80313Q71.73125 126.80313 71.24687 127.256256Q70.77812 127.693756 70.6375 128.6L69.41875 128.38126Q69.6375 127.14688 70.43437 126.475006Q71.23125 125.787506 72.41875 125.787506Q73.24687 125.787506 73.93437 126.14688Q74.62187 126.49063 74.98125 127.100006Q75.35625 127.70938 75.35625 128.39688Q75.35625 129.0375 75.0125 129.56876Q74.66875 130.1 73.98125 130.42813Q74.87187 130.63126 75.35625 131.27188Q75.85625 131.9125 75.85625 132.89688Q75.85625 134.20938 74.8875 135.11563Q73.93437 136.02188 72.48125 136.02188Q71.15312 136.02188 70.27812 135.24063Q69.41875 134.45938 69.29375 133.20938ZM77.27812 130.9125Q77.27812 129.13126 77.6375 128.05313Q78.0125 126.95938 78.73125 126.381256Q79.45 125.787506 80.54375 125.787506Q81.35625 125.787506 81.96562 126.11563Q82.575 126.443756 82.96562 127.05313Q83.37187 127.662506 83.59062 128.5375Q83.80937 129.4125 83.80937 130.9125Q83.80937 132.67813 83.45 133.75626Q83.09062 134.83438 82.37187 135.42813Q81.65312 136.02188 80.54375 136.02188Q79.10625 136.02188 78.27812 134.975Q77.27812 133.725 77.27812 130.9125ZM78.54375 130.9125Q78.54375 133.38126 79.12187 134.19376Q79.7 135.00626 80.54375 135.00626Q81.40312 135.00626 81.98125 134.19376Q82.55937 133.36563 82.55937 130.9125Q82.55937 128.42813 81.98125 127.61563Q81.40312 126.80313 80.52812 126.80313Q79.68437 126.80313 79.18437 127.52188Q78.54375 128.44376 78.54375 130.9125ZM85.27812 130.9125Q85.27812 129.13126 85.6375 128.05313Q86.0125 126.95938 86.73125 126.381256Q87.45 125.787506 88.54375 125.787506Q89.35625 125.787506 89.96562 126.11563Q90.575 126.443756 90.96562 127.05313Q91.37187 127.662506 91.59062 128.5375Q91.80937 129.4125 91.80937 130.9125Q91.80937 132.67813 91.45 133.75626Q91.09062 134.83438 90.37187 135.42813Q89.65312 136.02188 88.54375 136.02188Q87.10625 136.02188 86.27812 134.975Q85.27812 133.725 85.27812 130.9125ZM86.54375 130.9125Q86.54375 133.38126 87.12187 134.19376Q87.7 135.00626 88.54375 135.00626Q89.40312 135.00626 89.98125 134.19376Q90.55937 133.36563 90.55937 130.9125Q90.55937 128.42813 89.98125 127.61563Q89.40312 126.80313 88.52812 126.80313Q87.68437 126.80313 87.18437 127.52188Q86.54375 128.44376 86.54375 130.9125Z" fill-rule="nonzero"/><path fill="#000000" d="M73.23125 38.7L73.23125 36.29375L68.87187 36.29375L68.87187 35.16875L73.45 28.684376L74.45 28.684376L74.45 35.16875L75.80937 35.16875L75.80937 36.29375L74.45 36.29375L74.45 38.7L73.23125 38.7ZM73.23125 35.16875L73.23125 30.653126L70.09062 35.16875L73.23125 35.16875ZM77.27812 33.7625Q77.27812 31.98125 77.6375 30.903126Q78.0125 29.809376 78.73125 29.23125Q79.45 28.6375 80.54375 28.6375Q81.35625 28.6375 81.96562 28.965626Q82.575 29.29375 82.96562 29.903126Q83.37187 30.5125 83.59062 31.3875Q83.80937 32.2625 83.80937 33.7625Q83.80937 35.528126 83.45 36.60625Q83.09062 37.684376 82.37187 38.278126Q81.65312 38.871876 80.54375 38.871876Q79.10625 38.871876 78.27812 37.825Q77.27812 36.575 77.27812 33.7625ZM78.54375 33.7625Q78.54375 36.23125 79.12187 37.04375Q79.7 37.85625 80.54375 37.85625Q81.40312 37.85625 81.98125 37.04375Q82.55937 36.215626 82.55937 33.7625Q82.55937 31.278126 81.98125 30.465626Q81.40312 29.653126 80.52812 29.653126Q79.68437 29.653126 79.18437 30.371876Q78.54375 31.29375 78.54375 33.7625ZM85.27812 33.7625Q85.27812 31.98125 85.6375 30.903126Q86.0125 29.809376 86.73125 29.23125Q87.45 28.6375 88.54375 28.6375Q89.35625 28.6375 89.96562 28.965626Q90.575 29.29375 90.96562 29.903126Q91.37187 30.5125 91.59062 31.3875Q91.80937 32.2625 91.80937 33.7625Q91.80937 35.528126 91.45 36.60625Q91.09062 37.684376 90.37187 38.278126Q89.65312 38.871876 88.54375 38.871876Q87.10625 38.871876 86.27812 37.825Q85.27812 36.575 85.27812 33.7625ZM86.54375 33.7625Q86.54375 36.23125 87.12187 37.04375Q87.7 37.85625 88.54375 37.85625Q89.40312 37.85625 89.98125 37.04375Q90.55937 36.215626 90.55937 33.7625Q90.55937 31.278126 89.98125 30.465626Q89.40312 29.653126 88.52812 29.653126Q87.68437 29.653126 87.18437 30.371876Q86.54375 31.29375 86.54375 33.7625Z" fill-rule="nonzero"/><path fill="#000000" d="M110.581345 442.3L109.34697 442.3L109.34697 434.45624Q108.90947 434.8781 108.175095 435.3156Q107.456345 435.7375 106.893845 435.9406L106.893845 434.7531Q107.925095 434.26874 108.69072 433.58124Q109.47197 432.89374 109.78447 432.2375L110.581345 432.2375L110.581345 442.3Z" fill-rule="nonzero"/><path fill="#000000" d="M296.88773 441.1125L296.88773 442.3L290.26273 442.3Q290.2471 441.8625 290.40335 441.4406Q290.66898 440.76874 291.21585 440.1125Q291.77835 439.45624 292.82523 438.59686Q294.46585 437.2531 295.02835 436.47186Q295.60648 435.6906 295.60648 434.9875Q295.60648 434.2531 295.07523 433.7531Q294.5596 433.2531 293.73148 433.2531Q292.84085 433.2531 292.29398 433.78436Q291.76273 434.3156 291.76273 435.26874L290.4971 435.1281Q290.6221 433.72186 291.46585 432.9875Q292.32523 432.2375 293.7471 432.2375Q295.20023 432.2375 296.02835 433.03436Q296.8721 433.83124 296.8721 435.01874Q296.8721 435.6281 296.6221 436.20624Q296.38773 436.78436 295.8096 437.425Q295.2471 438.0656 293.91898 439.1906Q292.8096 440.1125 292.4971 440.45624Q292.1846 440.78436 291.98148 441.1125L296.88773 441.1125Z" fill-rule="nonzero"/><path fill="#000000" d="M474.91287 439.65936L476.13162 439.4875Q476.35037 440.53436 476.85037 441.0031Q477.366 441.45624 478.10037 441.45624Q478.97537 441.45624 479.56912 440.8625Q480.16287 440.2531 480.16287 439.3625Q480.16287 438.51874 479.60037 437.97186Q479.0535 437.425 478.20975 437.425Q477.85037 437.425 477.33475 437.55L477.47537 436.47186Q477.60037 436.4875 477.66287 436.4875Q478.45975 436.4875 479.08475 436.08124Q479.70975 435.675 479.70975 434.8156Q479.70975 434.14374 479.25662 433.70624Q478.8035 433.2531 478.06912 433.2531Q477.35037 433.2531 476.866 433.70624Q476.39725 434.14374 476.25662 435.05L475.03787 434.83124Q475.25662 433.59686 476.0535 432.925Q476.85037 432.2375 478.03787 432.2375Q478.866 432.2375 479.5535 432.59686Q480.241 432.9406 480.60037 433.55Q480.97537 434.15936 480.97537 434.84686Q480.97537 435.4875 480.63162 436.01874Q480.28787 436.55 479.60037 436.8781Q480.491 437.08124 480.97537 437.72186Q481.47537 438.3625 481.47537 439.34686Q481.47537 440.65936 480.50662 441.5656Q479.5535 442.47186 478.10037 442.47186Q476.77225 442.47186 475.89725 441.6906Q475.03787 440.90936 474.91287 439.65936Z" fill-rule="nonzero"/><path fill="#000000" d="M663.3287 442.3L663.3287 439.89374L658.9693 439.89374L658.9693 438.76874L663.5474 432.28436L664.5474 432.28436L664.5474 438.76874L665.9068 438.76874L665.9068 439.89374L664.5474 439.89374L664.5474 442.3L663.3287 442.3ZM663.3287 438.76874L663.3287 434.2531L660.18805 438.76874L663.3287 438.76874Z" fill-rule="nonzero"/><path fill="#4285f4" d="M709.3 29.2L714.49615 38.2L704.1038 38.2Z" fill-rule="nonzero"/><path fill="#1a1a1a" d="M723.83124 36.54375Q723.83124 34.246876 725.1125 33.1375Q726.1906 32.215626 727.72186 32.215626Q729.4406 32.215626 730.51874 33.340626Q731.6125 34.45 731.6125 36.434376Q731.6125 38.028126 731.1281 38.95Q730.64374 39.871876 729.72186 40.3875Q728.8156 40.8875 727.72186 40.8875Q725.9875 40.8875 724.90936 39.778126Q723.83124 38.653126 723.83124 36.54375ZM725.28436 36.54375Q725.28436 38.1375 725.97186 38.934376Q726.675 39.73125 727.72186 39.73125Q728.76874 39.73125 729.45624 38.934376Q730.15936 38.1375 730.15936 36.496876Q730.15936 34.965626 729.45624 34.16875Q728.76874 33.371876 727.72186 33.371876Q726.675 33.371876 725.97186 34.16875Q725.28436 34.95 725.28436 36.54375ZM734.65936 40.7L733.34686 40.7L733.34686 29.246876L734.7531 29.246876L734.7531 33.325Q735.64374 32.215626 737.03436 32.215626Q737.8 32.215626 738.47186 32.528126Q739.15936 32.825 739.59686 33.3875Q740.05 33.95 740.3 34.746876Q740.55 35.528126 740.55 36.41875Q740.55 38.559376 739.4875 39.73125Q738.4406 40.8875 736.95624 40.8875Q735.4875 40.8875 734.65936 39.653126L734.65936 40.7ZM734.64374 36.48125Q734.64374 37.98125 735.05 38.6375Q735.70624 39.73125 736.84686 39.73125Q737.76874 39.73125 738.4406 38.934376Q739.1125 38.121876 739.1125 36.54375Q739.1125 34.91875 738.45624 34.153126Q737.8156 33.371876 736.90936 33.371876Q735.9875 33.371876 735.3156 34.16875Q734.64374 34.965626 734.64374 36.48125ZM742.6906 40.7L742.6906 33.496876L741.45624 33.496876L741.45624 32.403126L742.6906 32.403126L742.6906 31.5125Q742.6906 30.684376 742.84686 30.278126Q743.05 29.73125 743.55 29.3875Q744.0656 29.04375 744.9875 29.04375Q745.58124 29.04375 746.3 29.184376L746.09686 30.41875Q745.65936 30.340626 745.26874 30.340626Q744.6281 30.340626 744.3625 30.621876Q744.09686 30.8875 744.09686 31.6375L744.09686 32.403126L745.70624 32.403126L745.70624 33.496876L744.09686 33.496876L744.09686 40.7L742.6906 40.7ZM751.8 40.7L751.8 39.48125Q750.83124 40.8875 749.15936 40.8875Q748.425 40.8875 747.78436 40.60625Q747.15936 40.325 746.84686 39.903126Q746.53436 39.465626 746.40936 38.85625Q746.33124 38.434376 746.33124 37.54375L746.33124 32.403126L747.7375 32.403126L747.7375 36.996876Q747.7375 38.10625 747.8156 38.48125Q747.95624 39.04375 748.3781 39.35625Q748.8156 39.66875 749.4406 39.66875Q750.08124 39.66875 750.6281 39.35625Q751.1906 39.028126 751.40936 38.465626Q751.64374 37.903126 751.64374 36.840626L751.64374 32.403126L753.05 32.403126L753.05 40.7L751.8 40.7ZM753.8 38.215626L755.1906 37.996876Q755.3 38.840626 755.83124 39.29375Q756.3781 39.73125 757.33124 39.73125Q758.3 39.73125 758.76874 39.340626Q759.2375 38.934376 759.2375 38.403126Q759.2375 37.934376 758.83124 37.653126Q758.53436 37.465626 757.39374 37.184376Q755.84686 36.79375 755.2375 36.5125Q754.64374 36.215626 754.33124 35.715626Q754.03436 35.215626 754.03436 34.60625Q754.03436 34.04375 754.28436 33.575Q754.53436 33.10625 754.97186 32.79375Q755.3 32.54375 755.8625 32.3875Q756.4406 32.215626 757.08124 32.215626Q758.0656 32.215626 758.8 32.496876Q759.53436 32.778126 759.8781 33.2625Q760.2375 33.73125 760.3781 34.54375L759.0031 34.73125Q758.90936 34.090626 758.45624 33.73125Q758.0031 33.371876 757.1906 33.371876Q756.22186 33.371876 755.8 33.7Q755.39374 34.0125 755.39374 34.434376Q755.39374 34.715626 755.5656 34.934376Q755.7375 35.153126 756.09686 35.309376Q756.3156 35.3875 757.34686 35.66875Q758.83124 36.059376 759.425 36.325Q760.01874 36.575 760.34686 37.059376Q760.6906 37.54375 760.6906 38.2625Q760.6906 38.965626 760.26874 39.590626Q759.8625 40.2 759.08124 40.54375Q758.3156 40.8875 757.34686 40.8875Q755.72186 40.8875 754.8781 40.215626Q754.03436 39.54375 753.8 38.215626ZM767.76874 37.653126L769.15936 37.840626Q768.925 39.2625 767.9875 40.075Q767.0656 40.8875 765.70624 40.8875Q764.0031 40.8875 762.95624 39.778126Q761.925 38.653126 761.925 36.575Q761.925 35.23125 762.3625 34.23125Q762.8156 33.215626 763.72186 32.715626Q764.64374 32.215626 765.70624 32.215626Q767.0656 32.215626 767.925 32.903126Q768.78436 33.575 769.01874 34.840626L767.65936 35.04375Q767.45624 34.215626 766.95624 33.79375Q766.47186 33.371876 765.76874 33.371876Q764.70624 33.371876 764.03436 34.1375Q763.3781 34.8875 763.3781 36.54375Q763.3781 38.215626 764.01874 38.98125Q764.65936 39.73125 765.6906 39.73125Q766.51874 39.73125 767.0656 39.23125Q767.6281 38.715626 767.76874 37.653126ZM775.76874 39.66875Q774.9875 40.340626 774.26874 40.621876Q773.55 40.8875 772.72186 40.8875Q771.34686 40.8875 770.6125 40.215626Q769.8781 39.54375 769.8781 38.5125Q769.8781 37.903126 770.15936 37.403126Q770.4406 36.8875 770.8781 36.590626Q771.33124 36.278126 771.89374 36.121876Q772.3156 36.0125 773.14374 35.91875Q774.84686 35.715626 775.65936 35.434376Q775.65936 35.1375 775.65936 35.059376Q775.65936 34.2 775.26874 33.85625Q774.72186 33.371876 773.65936 33.371876Q772.675 33.371876 772.1906 33.73125Q771.72186 34.075 771.5031 34.95L770.1281 34.7625Q770.3156 33.8875 770.7375 33.340626Q771.175 32.79375 771.9875 32.5125Q772.8 32.215626 773.8625 32.215626Q774.925 32.215626 775.58124 32.465626Q776.2531 32.715626 776.5656 33.090626Q776.8781 33.465626 777.0031 34.04375Q777.08124 34.403126 777.08124 35.340626L777.08124 37.215626Q777.08124 39.184376 777.15936 39.7Q777.2531 40.215626 777.51874 40.7L776.05 40.7Q775.83124 40.2625 775.76874 39.66875ZM775.65936 36.528126Q774.89374 36.840626 773.3625 37.059376Q772.4875 37.184376 772.1281 37.340626Q771.76874 37.496876 771.5656 37.809376Q771.3781 38.10625 771.3781 38.465626Q771.3781 39.028126 771.8 39.403126Q772.2375 39.778126 773.05 39.778126Q773.8625 39.778126 774.4875 39.434376Q775.1281 39.075 775.425 38.45Q775.65936 37.98125 775.65936 37.04375L775.65936 36.528126ZM782.425 39.434376L782.6281 40.684376Q782.03436 40.809376 781.5656 40.809376Q780.8 40.809376 780.3781 40.575Q779.95624 40.325 779.78436 39.934376Q779.6125 39.528126 779.6125 38.2625L779.6125 33.496876L778.58124 33.496876L778.58124 32.403126L779.6125 32.403126L779.6125 30.340626L781.01874 29.496876L781.01874 32.403126L782.425 32.403126L782.425 33.496876L781.01874 33.496876L781.01874 38.340626Q781.01874 38.95 781.08124 39.121876Q781.15936 39.29375 781.33124 39.403126Q781.5031 39.496876 781.8156 39.496876Q782.05 39.496876 782.425 39.434376ZM783.3625 30.85625L783.3625 29.246876L784.76874 29.246876L784.76874 30.85625L783.3625 30.85625ZM783.3625 40.7L783.3625 32.403126L784.76874 32.403126L784.76874 40.7L783.3625 40.7ZM786.83124 36.54375Q786.83124 34.246876 788.1125 33.1375Q789.1906 32.215626 790.72186 32.215626Q792.4406 32.215626 793.51874 33.340626Q794.6125 34.45 794.6125 36.434376Q794.6125 38.028126 794.1281 38.95Q793.64374 39.871876 792.72186 40.3875Q791.8156 40.8875 790.72186 40.8875Q788.9875 40.8875 787.90936 39.778126Q786.83124 38.653126 786.83124 36.54375ZM788.28436 36.54375Q788.28436 38.1375 788.97186 38.934376Q789.675 39.73125 790.72186 39.73125Q791.76874 39.73125 792.45624 38.934376Q793.15936 38.1375 793.15936 36.496876Q793.15936 34.965626 792.45624 34.16875Q791.76874 33.371876 790.72186 33.371876Q789.675 33.371876 788.97186 34.16875Q788.28436 34.95 788.28436 36.54375ZM796.3625 40.7L796.3625 32.403126L797.6281 32.403126L797.6281 33.575Q798.53436 32.215626 800.26874 32.215626Q801.01874 32.215626 801.64374 32.48125Q802.26874 32.746876 802.58124 33.184376Q802.89374 33.621876 803.01874 34.23125Q803.09686 34.621876 803.09686 35.590626L803.09686 40.7L801.6906 40.7L801.6906 35.653126Q801.6906 34.79375 801.51874 34.371876Q801.3625 33.934376 800.9406 33.684376Q800.53436 33.434376 799.97186 33.434376Q799.0656 33.434376 798.40936 34.0125Q797.76874 34.575 797.76874 36.16875L797.76874 40.7L796.3625 40.7Z" fill-rule="nonzero"/><path fill="#ea4335" d="M709.3 58.2L710.6471 62.345898L715.00635 62.345898L711.4796 64.9082L712.8267 69.0541L709.3 66.4918L705.7733 69.0541L707.12036 64.9082L703.5937 62.345898L707.95294 62.345898Z" fill-rule="nonzero"/><path fill="#1a1a1a" d="M730.03436 67.02812L731.4875 67.2Q731.14374 68.48125 730.20624 69.18437Q729.28436 69.8875 727.84686 69.8875Q726.01874 69.8875 724.95624 68.7625Q723.89374 67.6375 723.89374 65.62187Q723.89374 63.528122 724.97186 62.371872Q726.05 61.215622 727.76874 61.215622Q729.425 61.215622 730.47186 62.356247Q731.53436 63.481247 731.53436 65.52812Q731.53436 65.65312 731.53436 65.90312L725.34686 65.90312Q725.425 67.27812 726.1125 68.0125Q726.8156 68.73125 727.84686 68.73125Q728.6281 68.73125 729.175 68.325Q729.72186 67.91875 730.03436 67.02812ZM725.425 64.74687L730.05 64.74687Q729.95624 63.699997 729.51874 63.184372Q728.84686 62.371872 727.78436 62.371872Q726.8156 62.371872 726.14374 63.028122Q725.4875 63.668747 725.425 64.74687ZM735.65936 69.7L732.5031 61.403122L733.9875 61.403122L735.76874 66.37187Q736.0656 67.16875 736.3 68.04375Q736.4875 67.3875 736.83124 66.46562L738.675 61.403122L740.1125 61.403122L736.97186 69.7L735.65936 69.7ZM745.76874 68.66875Q744.9875 69.34062 744.26874 69.62187Q743.55 69.8875 742.72186 69.8875Q741.34686 69.8875 740.6125 69.21562Q739.8781 68.54375 739.8781 67.5125Q739.8781 66.90312 740.15936 66.40312Q740.4406 65.8875 740.8781 65.59062Q741.33124 65.27812 741.89374 65.12187Q742.3156 65.0125 743.14374 64.91875Q744.84686 64.71562 745.65936 64.43437Q745.65936 64.1375 745.65936 64.05937Q745.65936 63.199997 745.26874 62.856247Q744.72186 62.371872 743.65936 62.371872Q742.675 62.371872 742.1906 62.731247Q741.72186 63.074997 741.5031 63.949997L740.1281 63.762497Q740.3156 62.887497 740.7375 62.340622Q741.175 61.793747 741.9875 61.512497Q742.8 61.215622 743.8625 61.215622Q744.925 61.215622 745.58124 61.465622Q746.2531 61.715622 746.5656 62.090622Q746.8781 62.465622 747.0031 63.043747Q747.08124 63.403122 747.08124 64.34062L747.08124 66.21562Q747.08124 68.18437 747.15936 68.7Q747.2531 69.21562 747.51874 69.7L746.05 69.7Q745.83124 69.2625 745.76874 68.66875ZM745.65936 65.52812Q744.89374 65.84062 743.3625 66.05937Q742.4875 66.18437 742.1281 66.34062Q741.76874 66.49687 741.5656 66.80937Q741.3781 67.10625 741.3781 67.46562Q741.3781 68.02812 741.8 68.40312Q742.2375 68.77812 743.05 68.77812Q743.8625 68.77812 744.4875 68.43437Q745.1281 68.075 745.425 67.45Q745.65936 66.98125 745.65936 66.04375L745.65936 65.52812ZM749.33124 69.7L749.33124 58.246872L750.7375 58.246872L750.7375 69.7L749.33124 69.7ZM757.8 69.7L757.8 68.48125Q756.83124 69.8875 755.15936 69.8875Q754.425 69.8875 753.78436 69.60625Q753.15936 69.325 752.84686 68.90312Q752.53436 68.46562 752.40936 67.85625Q752.33124 67.43437 752.33124 66.54375L752.33124 61.403122L753.7375 61.403122L753.7375 65.99687Q753.7375 67.10625 753.8156 67.48125Q753.95624 68.04375 754.3781 68.35625Q754.8156 68.66875 755.4406 68.66875Q756.08124 68.66875 756.6281 68.35625Q757.1906 68.02812 757.40936 67.46562Q757.64374 66.90312 757.64374 65.84062L757.64374 61.403122L759.05 61.403122L759.05 69.7L757.8 69.7ZM765.76874 68.66875Q764.9875 69.34062 764.26874 69.62187Q763.55 69.8875 762.72186 69.8875Q761.34686 69.8875 760.6125 69.21562Q759.8781 68.54375 759.8781 67.5125Q759.8781 66.90312 760.15936 66.40312Q760.4406 65.8875 760.8781 65.59062Q761.33124 65.27812 761.89374 65.12187Q762.3156 65.0125 763.14374 64.91875Q764.84686 64.71562 765.65936 64.43437Q765.65936 64.1375 765.65936 64.05937Q765.65936 63.199997 765.26874 62.856247Q764.72186 62.371872 763.65936 62.371872Q762.675 62.371872 762.1906 62.731247Q761.72186 63.074997 761.5031 63.949997L760.1281 63.762497Q760.3156 62.887497 760.7375 62.340622Q761.175 61.793747 761.9875 61.512497Q762.8 61.215622 763.8625 61.215622Q764.925 61.215622 765.58124 61.465622Q766.2531 61.715622 766.5656 62.090622Q766.8781 62.465622 767.0031 63.043747Q767.08124 63.403122 767.08124 64.34062L767.08124 66.21562Q767.08124 68.18437 767.15936 68.7Q767.2531 69.21562 767.51874 69.7L766.05 69.7Q765.83124 69.2625 765.76874 68.66875ZM765.65936 65.52812Q764.89374 65.84062 763.3625 66.05937Q762.4875 66.18437 762.1281 66.34062Q761.76874 66.49687 761.5656 66.80937Q761.3781 67.10625 761.3781 67.46562Q761.3781 68.02812 761.8 68.40312Q762.2375 68.77812 763.05 68.77812Q763.8625 68.77812 764.4875 68.43437Q765.1281 68.075 765.425 67.45Q765.65936 66.98125 765.65936 66.04375L765.65936 65.52812ZM772.425 68.43437L772.6281 69.68437Q772.03436 69.80937 771.5656 69.80937Q770.8 69.80937 770.3781 69.575Q769.95624 69.325 769.78436 68.93437Q769.6125 68.52812 769.6125 67.2625L769.6125 62.496872L768.58124 62.496872L768.58124 61.403122L769.6125 61.403122L769.6125 59.340622L771.01874 58.496872L771.01874 61.403122L772.425 61.403122L772.425 62.496872L771.01874 62.496872L771.01874 67.34062Q771.01874 67.95 771.08124 68.12187Q771.15936 68.29375 771.33124 68.40312Q771.5031 68.49687 771.8156 68.49687Q772.05 68.49687 772.425 68.43437ZM773.3625 59.856247L773.3625 58.246872L774.76874 58.246872L774.76874 59.856247L773.3625 59.856247ZM773.3625 69.7L773.3625 61.403122L774.76874 61.403122L774.76874 69.7L773.3625 69.7ZM776.83124 65.54375Q776.83124 63.246872 778.1125 62.137497Q779.1906 61.215622 780.72186 61.215622Q782.4406 61.215622 783.51874 62.340622Q784.6125 63.449997 784.6125 65.43437Q784.6125 67.02812 784.1281 67.95Q783.64374 68.87187 782.72186 69.3875Q781.8156 69.8875 780.72186 69.8875Q778.9875 69.8875 777.90936 68.77812Q776.83124 67.65312 776.83124 65.54375ZM778.28436 65.54375Q778.28436 67.1375 778.97186 67.93437Q779.675 68.73125 780.72186 68.73125Q781.76874 68.73125 782.45624 67.93437Q783.15936 67.1375 783.15936 65.49687Q783.15936 63.965622 782.45624 63.168747Q781.76874 62.371872 780.72186 62.371872Q779.675 62.371872 778.97186 63.168747Q778.28436 63.949997 778.28436 65.54375ZM786.3625 69.7L786.3625 61.403122L787.6281 61.403122L787.6281 62.574997Q788.53436 61.215622 790.26874 61.215622Q791.01874 61.215622 791.64374 61.481247Q792.26874 61.746872 792.58124 62.184372Q792.89374 62.621872 793.01874 63.231247Q793.09686 63.621872 793.09686 64.59062L793.09686 69.7L791.6906 69.7L791.6906 64.65312Q791.6906 63.793747 791.51874 63.371872Q791.3625 62.934372 790.9406 62.684372Q790.53436 62.434372 789.97186 62.434372Q789.0656 62.434372 788.40936 63.012497Q787.76874 63.574997 787.76874 65.16875L787.76874 69.7L786.3625 69.7Z" fill-rule="nonzero"/></svg>